%TF.GenerationSoftware,KiCad,Pcbnew,8.0.5*%
%TF.CreationDate,2024-09-30T10:49:06+01:00*%
%TF.ProjectId,Soft_Power_Switch,536f6674-5f50-46f7-9765-725f53776974,v01*%
%TF.SameCoordinates,Original*%
%TF.FileFunction,Copper,L1,Top*%
%TF.FilePolarity,Positive*%
%FSLAX46Y46*%
G04 Gerber Fmt 4.6, Leading zero omitted, Abs format (unit mm)*
G04 Created by KiCad (PCBNEW 8.0.5) date 2024-09-30 10:49:06*
%MOMM*%
%LPD*%
G01*
G04 APERTURE LIST*
G04 Aperture macros list*
%AMRoundRect*
0 Rectangle with rounded corners*
0 $1 Rounding radius*
0 $2 $3 $4 $5 $6 $7 $8 $9 X,Y pos of 4 corners*
0 Add a 4 corners polygon primitive as box body*
4,1,4,$2,$3,$4,$5,$6,$7,$8,$9,$2,$3,0*
0 Add four circle primitives for the rounded corners*
1,1,$1+$1,$2,$3*
1,1,$1+$1,$4,$5*
1,1,$1+$1,$6,$7*
1,1,$1+$1,$8,$9*
0 Add four rect primitives between the rounded corners*
20,1,$1+$1,$2,$3,$4,$5,0*
20,1,$1+$1,$4,$5,$6,$7,0*
20,1,$1+$1,$6,$7,$8,$9,0*
20,1,$1+$1,$8,$9,$2,$3,0*%
G04 Aperture macros list end*
%TA.AperFunction,SMDPad,CuDef*%
%ADD10R,1.524000X0.762000*%
%TD*%
%TA.AperFunction,SMDPad,CuDef*%
%ADD11RoundRect,0.218750X0.218750X0.256250X-0.218750X0.256250X-0.218750X-0.256250X0.218750X-0.256250X0*%
%TD*%
%TA.AperFunction,SMDPad,CuDef*%
%ADD12RoundRect,0.218750X-0.218750X-0.256250X0.218750X-0.256250X0.218750X0.256250X-0.218750X0.256250X0*%
%TD*%
%TA.AperFunction,SMDPad,CuDef*%
%ADD13RoundRect,0.250000X-0.925000X0.412500X-0.925000X-0.412500X0.925000X-0.412500X0.925000X0.412500X0*%
%TD*%
%TA.AperFunction,SMDPad,CuDef*%
%ADD14R,0.800000X0.550000*%
%TD*%
%TA.AperFunction,SMDPad,CuDef*%
%ADD15R,0.700000X0.300000*%
%TD*%
%TA.AperFunction,ComponentPad*%
%ADD16C,1.879600*%
%TD*%
%TA.AperFunction,SMDPad,CuDef*%
%ADD17RoundRect,0.200000X-0.275000X0.200000X-0.275000X-0.200000X0.275000X-0.200000X0.275000X0.200000X0*%
%TD*%
%TA.AperFunction,SMDPad,CuDef*%
%ADD18RoundRect,0.200000X-0.200000X-0.275000X0.200000X-0.275000X0.200000X0.275000X-0.200000X0.275000X0*%
%TD*%
%TA.AperFunction,SMDPad,CuDef*%
%ADD19RoundRect,0.200000X0.275000X-0.200000X0.275000X0.200000X-0.275000X0.200000X-0.275000X-0.200000X0*%
%TD*%
%TA.AperFunction,SMDPad,CuDef*%
%ADD20C,0.500000*%
%TD*%
%TA.AperFunction,SMDPad,CuDef*%
%ADD21R,0.900000X0.800000*%
%TD*%
%TA.AperFunction,SMDPad,CuDef*%
%ADD22R,4.600000X1.000000*%
%TD*%
%TA.AperFunction,SMDPad,CuDef*%
%ADD23R,3.400000X1.600000*%
%TD*%
%TA.AperFunction,SMDPad,CuDef*%
%ADD24RoundRect,0.200000X0.200000X0.275000X-0.200000X0.275000X-0.200000X-0.275000X0.200000X-0.275000X0*%
%TD*%
%TA.AperFunction,SMDPad,CuDef*%
%ADD25RoundRect,0.225000X0.250000X-0.225000X0.250000X0.225000X-0.250000X0.225000X-0.250000X-0.225000X0*%
%TD*%
%TA.AperFunction,SMDPad,CuDef*%
%ADD26R,0.660000X0.300000*%
%TD*%
%TA.AperFunction,SMDPad,CuDef*%
%ADD27R,0.630000X0.830000*%
%TD*%
%TA.AperFunction,SMDPad,CuDef*%
%ADD28R,2.800000X1.000000*%
%TD*%
%TA.AperFunction,ViaPad*%
%ADD29C,0.560000*%
%TD*%
%TA.AperFunction,Conductor*%
%ADD30C,0.558800*%
%TD*%
%TA.AperFunction,Conductor*%
%ADD31C,0.177800*%
%TD*%
G04 APERTURE END LIST*
D10*
%TO.P,SW1,1,1*%
%TO.N,GND*%
X9906000Y24257000D03*
X15494000Y24257000D03*
%TO.P,SW1,2,2*%
%TO.N,BTN*%
X9906000Y20447000D03*
X15494000Y20447000D03*
%TD*%
D11*
%TO.P,D3,1,K*%
%TO.N,GND*%
X24155500Y6604000D03*
%TO.P,D3,2,A*%
%TO.N,Net-(D3-A)*%
X22580500Y6604000D03*
%TD*%
D12*
%TO.P,D2,1,K*%
%TO.N,GND*%
X1244500Y6604000D03*
%TO.P,D2,2,A*%
%TO.N,Net-(D2-A)*%
X2819500Y6604000D03*
%TD*%
D13*
%TO.P,C2,1*%
%TO.N,Net-(C2-Pad1)*%
X12700000Y6617500D03*
%TO.P,C2,2*%
%TO.N,GND*%
X12700000Y3542500D03*
%TD*%
D14*
%TO.P,Q3,1,G*%
%TO.N,Net-(Q3A-G)*%
X11500000Y11618000D03*
%TO.P,Q3,2,1*%
%TO.N,Net-(Q3B-1)*%
X11500000Y10668000D03*
%TO.P,Q3,3,G*%
%TO.N,Net-(Q3A-D)*%
X11500000Y9718000D03*
%TO.P,Q3,4,D*%
%TO.N,VOUT*%
X13900000Y9718000D03*
%TO.P,Q3,5,S*%
%TO.N,GND*%
X13900000Y10668000D03*
%TO.P,Q3,6,D*%
%TO.N,Net-(Q3A-D)*%
X13900000Y11618000D03*
%TD*%
D15*
%TO.P,U2,1*%
%TO.N,N/C*%
X6566000Y19700000D03*
%TO.P,U2,2*%
%TO.N,BTN*%
X6566000Y19050000D03*
%TO.P,U2,3,GND*%
%TO.N,GND*%
X6566000Y18400000D03*
%TO.P,U2,4*%
%TO.N,Net-(U4-CLK)*%
X8166000Y18400000D03*
%TO.P,U2,5,VCC*%
%TO.N,VIN*%
X8166000Y19700000D03*
%TD*%
D16*
%TO.P,J3,1,Pin_1*%
%TO.N,VOUT*%
X19050000Y1270000D03*
%TO.P,J3,2,Pin_2*%
%TO.N,OFF*%
X16510000Y1270000D03*
%TO.P,J3,3,Pin_3*%
%TO.N,PUSH*%
X13970000Y1270000D03*
%TO.P,J3,4,Pin_4*%
%TO.N,BTN*%
X11430000Y1270000D03*
%TO.P,J3,5,Pin_5*%
%TO.N,VIN*%
X8890000Y1270000D03*
%TO.P,J3,6,Pin_6*%
%TO.N,GND*%
X6350000Y1270000D03*
%TD*%
D17*
%TO.P,R8,1*%
%TO.N,Net-(U4-CLK)*%
X18796000Y4889000D03*
%TO.P,R8,2*%
%TO.N,Net-(Q2-G)*%
X18796000Y3239000D03*
%TD*%
D18*
%TO.P,R4,1*%
%TO.N,Net-(JP2-A)*%
X19495000Y6604000D03*
%TO.P,R4,2*%
%TO.N,Net-(D3-A)*%
X21145000Y6604000D03*
%TD*%
D19*
%TO.P,R1,1*%
%TO.N,VIN*%
X20320000Y18225000D03*
%TO.P,R1,2*%
%TO.N,BTN*%
X20320000Y19875000D03*
%TD*%
D20*
%TO.P,FID4,*%
%TO.N,*%
X24638000Y5080000D03*
%TD*%
D21*
%TO.P,Q1,1,G*%
%TO.N,Net-(Q1-G)*%
X8144000Y5014000D03*
%TO.P,Q1,2,S*%
%TO.N,GND*%
X8144000Y3114000D03*
%TO.P,Q1,3,D*%
%TO.N,Net-(Q1-D)*%
X10244000Y4064000D03*
%TD*%
D20*
%TO.P,FID1,*%
%TO.N,*%
X5080000Y24638000D03*
%TD*%
D17*
%TO.P,R6,1*%
%TO.N,Net-(Q1-G)*%
X6604000Y4889000D03*
%TO.P,R6,2*%
%TO.N,OFF*%
X6604000Y3239000D03*
%TD*%
D22*
%TO.P,J2,1,-*%
%TO.N,GND*%
X17890000Y13700000D03*
%TO.P,J2,2,+*%
%TO.N,VOUT*%
X17890000Y11700000D03*
D23*
%TO.P,J2,NC1,NC1*%
%TO.N,unconnected-(J2-PadNC1)*%
X23090000Y16100000D03*
%TO.P,J2,NC2,NC2*%
%TO.N,unconnected-(J2-PadNC2)*%
X23090000Y9300000D03*
%TD*%
D24*
%TO.P,R3,1*%
%TO.N,Net-(JP1-A)*%
X5905000Y6604000D03*
%TO.P,R3,2*%
%TO.N,Net-(D2-A)*%
X4255000Y6604000D03*
%TD*%
D25*
%TO.P,C4,1*%
%TO.N,VIN*%
X18034000Y22085000D03*
%TO.P,C4,2*%
%TO.N,GND*%
X18034000Y23635000D03*
%TD*%
D18*
%TO.P,R5,1*%
%TO.N,Net-(C2-Pad1)*%
X8319000Y6477000D03*
%TO.P,R5,2*%
%TO.N,Net-(Q1-D)*%
X9969000Y6477000D03*
%TD*%
D25*
%TO.P,C3,1*%
%TO.N,VIN*%
X7366000Y22085000D03*
%TO.P,C3,2*%
%TO.N,GND*%
X7366000Y23635000D03*
%TD*%
D26*
%TO.P,U4,1,CLK*%
%TO.N,Net-(U4-CLK)*%
X11780000Y18811000D03*
%TO.P,U4,2,GND*%
%TO.N,GND*%
X11780000Y18161000D03*
%TO.P,U4,3,D*%
%TO.N,VIN*%
X11780000Y17511000D03*
%TO.P,U4,4,Q*%
%TO.N,EN*%
X13620000Y17511000D03*
%TO.P,U4,5,VCC*%
%TO.N,VIN*%
X13620000Y18161000D03*
%TO.P,U4,6,~{CLR}*%
%TO.N,Net-(U4-~{CLR})*%
X13620000Y18811000D03*
%TD*%
D27*
%TO.P,D1,A,A*%
%TO.N,BTN*%
X3436000Y18542000D03*
%TO.P,D1,C,C*%
%TO.N,Net-(C2-Pad1)*%
X1136000Y18542000D03*
%TD*%
D18*
%TO.P,R7,1*%
%TO.N,OFF*%
X15431000Y6477000D03*
%TO.P,R7,2*%
%TO.N,GND*%
X17081000Y6477000D03*
%TD*%
D15*
%TO.P,U3,1*%
%TO.N,N/C*%
X18834000Y18400000D03*
%TO.P,U3,2*%
%TO.N,Net-(C2-Pad1)*%
X18834000Y19050000D03*
%TO.P,U3,3,GND*%
%TO.N,GND*%
X18834000Y19700000D03*
%TO.P,U3,4*%
%TO.N,Net-(U4-~{CLR})*%
X17234000Y19700000D03*
%TO.P,U3,5,VCC*%
%TO.N,VIN*%
X17234000Y18400000D03*
%TD*%
D18*
%TO.P,R2,1*%
%TO.N,Net-(C2-Pad1)*%
X22035000Y18542000D03*
%TO.P,R2,2*%
%TO.N,BTN*%
X23685000Y18542000D03*
%TD*%
D22*
%TO.P,J1,1,-*%
%TO.N,GND*%
X7510000Y11700000D03*
%TO.P,J1,2,+*%
%TO.N,VIN*%
X7510000Y13700000D03*
D23*
%TO.P,J1,NC1,NC1*%
%TO.N,unconnected-(J1-PadNC1)*%
X2310000Y9300000D03*
%TO.P,J1,NC2,NC2*%
%TO.N,unconnected-(J1-PadNC2)*%
X2310000Y16100000D03*
%TD*%
D18*
%TO.P,R9,1*%
%TO.N,Net-(Q3A-G)*%
X13526000Y8255000D03*
%TO.P,R9,2*%
%TO.N,EN*%
X15176000Y8255000D03*
%TD*%
D25*
%TO.P,C1,1*%
%TO.N,BTN*%
X5080000Y18275000D03*
%TO.P,C1,2*%
%TO.N,GND*%
X5080000Y19825000D03*
%TD*%
D24*
%TO.P,R10,1*%
%TO.N,Net-(Q3A-D)*%
X11874000Y8255000D03*
%TO.P,R10,2*%
%TO.N,Net-(Q3B-1)*%
X10224000Y8255000D03*
%TD*%
D28*
%TO.P,F1,1*%
%TO.N,Net-(Q3B-1)*%
X12700000Y13105000D03*
%TO.P,F1,2*%
%TO.N,VIN*%
X12700000Y16105000D03*
%TD*%
D21*
%TO.P,Q2,1,G*%
%TO.N,Net-(Q2-G)*%
X17256000Y3114000D03*
%TO.P,Q2,2,S*%
%TO.N,GND*%
X17256000Y5014000D03*
%TO.P,Q2,3,D*%
%TO.N,PUSH*%
X15156000Y4064000D03*
%TD*%
D29*
%TO.N,GND*%
X15138400Y10464800D03*
X12700000Y22987000D03*
X5080000Y20828000D03*
X18669000Y20447000D03*
X812800Y7874000D03*
X17145000Y7620000D03*
X22860000Y12700000D03*
X10414000Y12700000D03*
X10287000Y16891000D03*
X18034000Y24638000D03*
X19939000Y4064000D03*
X6604000Y17653000D03*
X12700000Y4699000D03*
X2540000Y12700000D03*
X6096000Y10668000D03*
X10668000Y18161000D03*
X24333200Y7772400D03*
X16764000Y14732000D03*
X5080000Y2540000D03*
X7366000Y24638000D03*
X5080000Y15494000D03*
X19050000Y14732000D03*
X8890000Y10668000D03*
X14732000Y14732000D03*
%TO.N,BTN*%
X11430000Y20447000D03*
X19431000Y20828000D03*
X7366000Y19050000D03*
%TO.N,Net-(C2-Pad1)*%
X5080000Y9652000D03*
X22860000Y17780000D03*
X2286000Y17780000D03*
%TO.N,VOUT*%
X18542000Y10668000D03*
X17526000Y10668000D03*
%TO.N,Net-(JP1-A)*%
X5588000Y7874000D03*
%TO.N,Net-(JP2-A)*%
X19685000Y7747000D03*
%TO.N,Net-(U4-CLK)*%
X14732000Y19063300D03*
X9765700Y18415000D03*
X20320000Y10160000D03*
X8166000Y17615000D03*
%TO.N,OFF*%
X12700000Y2286000D03*
%TO.N,VIN*%
X6604000Y14732000D03*
X8128000Y14732000D03*
%TO.N,Net-(Q3A-G)*%
X10541000Y11430000D03*
X12573000Y9652000D03*
%TO.N,Net-(Q3A-D)*%
X14793500Y12511500D03*
X10604500Y9715500D03*
%TO.N,EN*%
X14732000Y17526000D03*
X16129000Y8255000D03*
%TD*%
D30*
%TO.N,GND*%
X7510000Y10778000D02*
X7620000Y10668000D01*
X17890000Y13700000D02*
X17890000Y14622000D01*
X3540000Y11700000D02*
X2540000Y12700000D01*
X17890000Y13700000D02*
X21860000Y13700000D01*
X16764000Y14732000D02*
X17780000Y14732000D01*
X15002000Y13700000D02*
X14732000Y13970000D01*
X14732000Y13970000D02*
X14732000Y14732000D01*
X7510000Y11700000D02*
X3540000Y11700000D01*
X17780000Y14732000D02*
X19050000Y14732000D01*
X21860000Y13700000D02*
X22860000Y12700000D01*
X6096000Y10668000D02*
X7620000Y10668000D01*
X7510000Y11700000D02*
X7510000Y10778000D01*
X17890000Y13700000D02*
X15002000Y13700000D01*
X17890000Y14622000D02*
X17780000Y14732000D01*
X7620000Y10668000D02*
X8890000Y10668000D01*
X6350000Y1270000D02*
X5080000Y2540000D01*
D31*
%TO.N,BTN*%
X5080000Y18275000D02*
X5855000Y19050000D01*
X5855000Y19050000D02*
X6566000Y19050000D01*
X19431000Y20828000D02*
X20066000Y20828000D01*
X15494000Y20447000D02*
X11430000Y20447000D01*
X20320000Y20574000D02*
X20320000Y19875000D01*
X23685000Y18542000D02*
X22669000Y19558000D01*
X3436000Y18542000D02*
X4813000Y18542000D01*
X21146000Y19875000D02*
X20320000Y19875000D01*
X4813000Y18542000D02*
X5080000Y18275000D01*
X21463000Y19558000D02*
X21146000Y19875000D01*
X20066000Y20828000D02*
X20320000Y20574000D01*
X6566000Y19050000D02*
X7366000Y19050000D01*
X22669000Y19558000D02*
X21463000Y19558000D01*
X11430000Y20447000D02*
X9906000Y20447000D01*
%TO.N,Net-(C2-Pad1)*%
X2286000Y17780000D02*
X1774500Y17780000D01*
X22860000Y17780000D02*
X22797000Y17780000D01*
X1136000Y18418500D02*
X1136000Y18542000D01*
X8319000Y7302000D02*
X8255000Y7366000D01*
X11987000Y6555000D02*
X11176000Y7366000D01*
X8319000Y6477000D02*
X8319000Y7302000D01*
X7366000Y7366000D02*
X5080000Y9652000D01*
X8255000Y7366000D02*
X7366000Y7366000D01*
X12700000Y6555000D02*
X11987000Y6555000D01*
X18834000Y19050000D02*
X20828000Y19050000D01*
X20828000Y19050000D02*
X21336000Y18542000D01*
X22797000Y17780000D02*
X22035000Y18542000D01*
X5080000Y9652000D02*
X5144000Y9652000D01*
X1774500Y17780000D02*
X1136000Y18418500D01*
X21336000Y18542000D02*
X22035000Y18542000D01*
X11176000Y7366000D02*
X8255000Y7366000D01*
%TO.N,Net-(D2-A)*%
X2819500Y6604000D02*
X4255000Y6604000D01*
%TO.N,Net-(D3-A)*%
X22580500Y6604000D02*
X21145000Y6604000D01*
D30*
%TO.N,VOUT*%
X17526000Y10668000D02*
X17890000Y10668000D01*
X17890000Y10668000D02*
X17890000Y11700000D01*
X17526000Y10668000D02*
X16576000Y9718000D01*
X18542000Y10668000D02*
X17890000Y10668000D01*
X16576000Y9718000D02*
X13900000Y9718000D01*
D31*
%TO.N,Net-(JP1-A)*%
X5588000Y7874000D02*
X5905000Y7557000D01*
X5905000Y7557000D02*
X5905000Y6604000D01*
%TO.N,Net-(JP2-A)*%
X19685000Y7747000D02*
X19495000Y7557000D01*
X19495000Y7557000D02*
X19495000Y6604000D01*
%TO.N,Net-(Q1-G)*%
X8019000Y4889000D02*
X8144000Y5014000D01*
X6604000Y4889000D02*
X8019000Y4889000D01*
%TO.N,Net-(Q1-D)*%
X9969000Y6477000D02*
X9969000Y5525000D01*
X9969000Y5525000D02*
X10244000Y5250000D01*
X10244000Y5250000D02*
X10244000Y4064000D01*
%TO.N,Net-(U4-CLK)*%
X18669000Y5016000D02*
X18669000Y8509000D01*
X11953000Y18811000D02*
X11780000Y18811000D01*
X18669000Y8509000D02*
X20320000Y10160000D01*
X12446000Y19304000D02*
X11953000Y18811000D01*
X10175000Y18811000D02*
X9779000Y18415000D01*
X14732000Y19063300D02*
X14491300Y19304000D01*
X11780000Y18811000D02*
X10175000Y18811000D01*
X8166000Y17615000D02*
X8166000Y18400000D01*
X9779000Y18415000D02*
X9765700Y18415000D01*
X18796000Y4889000D02*
X18669000Y5016000D01*
X14491300Y19304000D02*
X12446000Y19304000D01*
%TO.N,Net-(U4-~{CLR})*%
X13620000Y18811000D02*
X14082000Y18811000D01*
X17033000Y19700000D02*
X17234000Y19700000D01*
X14082000Y18811000D02*
X14351000Y18542000D01*
X14351000Y18542000D02*
X15875000Y18542000D01*
X15875000Y18542000D02*
X17033000Y19700000D01*
D30*
%TO.N,Net-(Q3B-1)*%
X12700000Y10909200D02*
X12458800Y10668000D01*
X12700000Y13105000D02*
X12700000Y10909200D01*
D31*
X10541000Y10668000D02*
X10033000Y10160000D01*
D30*
X12458800Y10668000D02*
X11500000Y10668000D01*
D31*
X10033000Y9271000D02*
X10224000Y9080000D01*
X10224000Y9080000D02*
X10224000Y8255000D01*
X11500000Y10668000D02*
X10541000Y10668000D01*
X10033000Y10160000D02*
X10033000Y9271000D01*
%TO.N,Net-(Q2-G)*%
X18796000Y3239000D02*
X17381000Y3239000D01*
X17381000Y3239000D02*
X17256000Y3114000D01*
%TO.N,OFF*%
X9144000Y3048000D02*
X9144000Y3683000D01*
X8763000Y4064000D02*
X7429000Y4064000D01*
X16256000Y4826000D02*
X15431000Y5651000D01*
X16256000Y1905000D02*
X16256000Y4826000D01*
X16510000Y1270000D02*
X16510000Y1651000D01*
X15431000Y5651000D02*
X15431000Y6477000D01*
X7429000Y4064000D02*
X6604000Y3239000D01*
X9144000Y3683000D02*
X8763000Y4064000D01*
X12446000Y2540000D02*
X9652000Y2540000D01*
X16510000Y1651000D02*
X16256000Y1905000D01*
X12700000Y2286000D02*
X12446000Y2540000D01*
X9652000Y2540000D02*
X9144000Y3048000D01*
%TO.N,VIN*%
X18034000Y17526000D02*
X18034000Y18288000D01*
X16495000Y18400000D02*
X17234000Y18400000D01*
D30*
X7366000Y14732000D02*
X7366000Y13844000D01*
D31*
X11780000Y17511000D02*
X9667000Y17511000D01*
D30*
X7366000Y13844000D02*
X7510000Y13700000D01*
D31*
X12954000Y18161000D02*
X13620000Y18161000D01*
X13620000Y18161000D02*
X16256000Y18161000D01*
X18288000Y17272000D02*
X18034000Y17526000D01*
X20066000Y17272000D02*
X18288000Y17272000D01*
X9667000Y17511000D02*
X9017000Y18161000D01*
X20320000Y18225000D02*
X20320000Y17526000D01*
D30*
X6604000Y14732000D02*
X7366000Y14732000D01*
D31*
X9017000Y19050000D02*
X8367000Y19700000D01*
D30*
X10898000Y16105000D02*
X12700000Y16105000D01*
D31*
X8166000Y20536000D02*
X8166000Y19700000D01*
X8367000Y19700000D02*
X8166000Y19700000D01*
X18019000Y18400000D02*
X18034000Y18415000D01*
D30*
X7510000Y13700000D02*
X9382000Y13700000D01*
X9382000Y13700000D02*
X10541000Y14859000D01*
D31*
X18034000Y18288000D02*
X18034000Y18415000D01*
X11795000Y17526000D02*
X12700000Y17526000D01*
X11780000Y17511000D02*
X11795000Y17526000D01*
X9017000Y18161000D02*
X9017000Y19050000D01*
X12700000Y17907000D02*
X12954000Y18161000D01*
X7366000Y22085000D02*
X7366000Y21336000D01*
D30*
X10541000Y15748000D02*
X10898000Y16105000D01*
D31*
X12700000Y16105000D02*
X12700000Y17907000D01*
X20320000Y17526000D02*
X20066000Y17272000D01*
X17234000Y18400000D02*
X18019000Y18400000D01*
D30*
X10541000Y14859000D02*
X10541000Y15748000D01*
D31*
X18034000Y18415000D02*
X18034000Y22085000D01*
D30*
X7366000Y14732000D02*
X8128000Y14732000D01*
D31*
X7366000Y21336000D02*
X8166000Y20536000D01*
X16256000Y18161000D02*
X16495000Y18400000D01*
%TO.N,PUSH*%
X15156000Y2456000D02*
X15156000Y4064000D01*
X13970000Y1270000D02*
X15156000Y2456000D01*
%TO.N,Net-(Q3A-G)*%
X13526000Y8318000D02*
X13526000Y8255000D01*
X12573000Y9271000D02*
X13526000Y8318000D01*
X10541000Y11430000D02*
X10668000Y11557000D01*
X12573000Y9652000D02*
X12573000Y9271000D01*
X10668000Y11557000D02*
X11439000Y11557000D01*
X11439000Y11557000D02*
X11500000Y11618000D01*
%TO.N,Net-(Q3A-D)*%
X11500000Y9328000D02*
X11874000Y8954000D01*
X11497500Y9715500D02*
X11500000Y9718000D01*
X14793500Y11872500D02*
X14539000Y11618000D01*
X14793500Y12511500D02*
X14793500Y11872500D01*
X10604500Y9715500D02*
X11497500Y9715500D01*
X11874000Y8954000D02*
X11874000Y8255000D01*
X11500000Y9718000D02*
X11500000Y9328000D01*
X14539000Y11618000D02*
X13900000Y11618000D01*
%TO.N,EN*%
X13985000Y17511000D02*
X13620000Y17511000D01*
X15176000Y8255000D02*
X16129000Y8255000D01*
X14732000Y17526000D02*
X14000000Y17526000D01*
X14000000Y17526000D02*
X13985000Y17511000D01*
%TD*%
%TA.AperFunction,Conductor*%
%TO.N,GND*%
G36*
X13080301Y19016235D02*
G01*
X13110365Y18964164D01*
X13111700Y18948900D01*
X13111700Y18643437D01*
X13111701Y18643435D01*
X13122043Y18591435D01*
X13122045Y18591431D01*
X13139749Y18564934D01*
X13154040Y18506530D01*
X13127447Y18452604D01*
X13072411Y18428388D01*
X13066663Y18428200D01*
X13007149Y18428200D01*
X12900851Y18428200D01*
X12868976Y18414997D01*
X12802644Y18387522D01*
X12548643Y18133521D01*
X12548642Y18133522D01*
X12473480Y18058359D01*
X12473478Y18058357D01*
X12456909Y18018353D01*
X12416288Y17974023D01*
X12356675Y17966175D01*
X12305964Y17998481D01*
X12287800Y18051991D01*
X12287800Y18072099D01*
X12287799Y18072100D01*
X11272202Y18072100D01*
X11272201Y18072099D01*
X11272201Y17993492D01*
X11282516Y17941625D01*
X11300350Y17914936D01*
X11314643Y17856533D01*
X11288050Y17802606D01*
X11233016Y17778388D01*
X11227265Y17778200D01*
X9814088Y17778200D01*
X9757587Y17798765D01*
X9751933Y17803945D01*
X9749233Y17806645D01*
X9723822Y17861139D01*
X9739385Y17919217D01*
X9788638Y17953705D01*
X9811388Y17956700D01*
X9831593Y17956700D01*
X9831594Y17956700D01*
X9831596Y17956701D01*
X9831598Y17956701D01*
X9859595Y17964922D01*
X9958043Y17993829D01*
X10068909Y18065078D01*
X10155211Y18164676D01*
X10209958Y18284554D01*
X10212557Y18302632D01*
X10228713Y18414997D01*
X10228713Y18414998D01*
X10228713Y18415000D01*
X10225944Y18434255D01*
X10238256Y18493104D01*
X10250795Y18508918D01*
X10259939Y18518061D01*
X10314436Y18543466D01*
X10322087Y18543800D01*
X11227265Y18543800D01*
X11283766Y18523235D01*
X11313830Y18471164D01*
X11303389Y18411950D01*
X11300350Y18407064D01*
X11282516Y18380376D01*
X11272200Y18328513D01*
X11272200Y18249901D01*
X11272201Y18249900D01*
X12287798Y18249900D01*
X12287799Y18249901D01*
X12287799Y18328509D01*
X12277483Y18380376D01*
X12239838Y18436714D01*
X12225545Y18495118D01*
X12239835Y18534382D01*
X12277955Y18591431D01*
X12288300Y18643439D01*
X12288299Y18732013D01*
X12308863Y18788513D01*
X12314045Y18794168D01*
X12530934Y19011055D01*
X12585427Y19036466D01*
X12593088Y19036800D01*
X13023800Y19036800D01*
X13080301Y19016235D01*
G37*
%TD.AperFunction*%
%TA.AperFunction,Conductor*%
G36*
X4721521Y25124935D02*
G01*
X4751585Y25072864D01*
X4741144Y25013650D01*
X4731451Y25000038D01*
X4654622Y24911372D01*
X4594835Y24780457D01*
X4594833Y24780451D01*
X4574353Y24638004D01*
X4574353Y24637997D01*
X4594833Y24495550D01*
X4594834Y24495545D01*
X4594835Y24495543D01*
X4654623Y24364627D01*
X4748872Y24255857D01*
X4748874Y24255856D01*
X4748875Y24255855D01*
X4851445Y24189937D01*
X4869947Y24178047D01*
X5008039Y24137500D01*
X5008040Y24137500D01*
X5151960Y24137500D01*
X5151961Y24137500D01*
X5290053Y24178047D01*
X5411128Y24255857D01*
X5505377Y24364627D01*
X5565165Y24495543D01*
X5575670Y24568608D01*
X5585647Y24637997D01*
X5585647Y24638004D01*
X5583130Y24655513D01*
X8966200Y24655513D01*
X8966200Y24345901D01*
X8966201Y24345900D01*
X9817099Y24345900D01*
X9817100Y24345901D01*
X9817100Y24815799D01*
X9994900Y24815799D01*
X9994900Y24345901D01*
X9994901Y24345900D01*
X10845798Y24345900D01*
X10845799Y24345901D01*
X10845799Y24655509D01*
X10845798Y24655513D01*
X14554200Y24655513D01*
X14554200Y24345901D01*
X14554201Y24345900D01*
X15405099Y24345900D01*
X15405100Y24345901D01*
X15405100Y24815799D01*
X15582900Y24815799D01*
X15582900Y24345901D01*
X15582901Y24345900D01*
X16433798Y24345900D01*
X16433799Y24345901D01*
X16433799Y24655509D01*
X16423483Y24707376D01*
X16384188Y24766183D01*
X16384182Y24766189D01*
X16325375Y24805484D01*
X16273513Y24815800D01*
X15582901Y24815800D01*
X15582900Y24815799D01*
X15405100Y24815799D01*
X15405099Y24815800D01*
X14714486Y24815800D01*
X14714484Y24815799D01*
X14662628Y24805486D01*
X14662624Y24805484D01*
X14603817Y24766189D01*
X14603811Y24766183D01*
X14564516Y24707376D01*
X14554200Y24655513D01*
X10845798Y24655513D01*
X10835483Y24707376D01*
X10796188Y24766183D01*
X10796182Y24766189D01*
X10737375Y24805484D01*
X10685513Y24815800D01*
X9994901Y24815800D01*
X9994900Y24815799D01*
X9817100Y24815799D01*
X9817099Y24815800D01*
X9126486Y24815800D01*
X9126484Y24815799D01*
X9074628Y24805486D01*
X9074624Y24805484D01*
X9015817Y24766189D01*
X9015811Y24766183D01*
X8976516Y24707376D01*
X8966200Y24655513D01*
X5583130Y24655513D01*
X5565166Y24780451D01*
X5565165Y24780452D01*
X5565165Y24780457D01*
X5505377Y24911373D01*
X5428549Y25000038D01*
X5407091Y25056206D01*
X5426757Y25113026D01*
X5478346Y25143912D01*
X5494980Y25145500D01*
X25057600Y25145500D01*
X25114101Y25124935D01*
X25144165Y25072864D01*
X25145500Y25057600D01*
X25145500Y5494268D01*
X25124935Y5437767D01*
X25072864Y5407703D01*
X25013650Y5418144D01*
X24991170Y5436706D01*
X24969133Y5462138D01*
X24969129Y5462142D01*
X24969128Y5462143D01*
X24969125Y5462145D01*
X24969124Y5462146D01*
X24848054Y5539953D01*
X24848050Y5539954D01*
X24709967Y5580499D01*
X24709961Y5580500D01*
X24566039Y5580500D01*
X24566038Y5580500D01*
X24566032Y5580499D01*
X24427949Y5539954D01*
X24427945Y5539953D01*
X24306875Y5462146D01*
X24306870Y5462142D01*
X24212622Y5353372D01*
X24152835Y5222457D01*
X24152833Y5222451D01*
X24132353Y5080004D01*
X24132353Y5079997D01*
X24152833Y4937550D01*
X24152834Y4937545D01*
X24152835Y4937543D01*
X24212623Y4806627D01*
X24259499Y4752529D01*
X24306867Y4697862D01*
X24306872Y4697857D01*
X24306874Y4697856D01*
X24306875Y4697855D01*
X24409417Y4631955D01*
X24427947Y4620047D01*
X24521608Y4592546D01*
X24565834Y4579560D01*
X24566039Y4579500D01*
X24566040Y4579500D01*
X24709960Y4579500D01*
X24709961Y4579500D01*
X24848053Y4620047D01*
X24969128Y4697857D01*
X24991169Y4723295D01*
X25043710Y4752529D01*
X25102751Y4741151D01*
X25140665Y4694484D01*
X25145500Y4665733D01*
X25145500Y342400D01*
X25124935Y285899D01*
X25072864Y255835D01*
X25057600Y254500D01*
X19822598Y254500D01*
X19766097Y275065D01*
X19736033Y327136D01*
X19746474Y386350D01*
X19763380Y407359D01*
X19787057Y428945D01*
X19879826Y513514D01*
X20004700Y678875D01*
X20097064Y864365D01*
X20153771Y1063670D01*
X20172890Y1270000D01*
X20153771Y1476330D01*
X20136352Y1537550D01*
X20123728Y1581920D01*
X20097064Y1675635D01*
X20004700Y1861125D01*
X19879826Y2026486D01*
X19754265Y2140950D01*
X19726694Y2166085D01*
X19726685Y2166091D01*
X19550517Y2275169D01*
X19550511Y2275172D01*
X19357296Y2350023D01*
X19357284Y2350027D01*
X19153609Y2388100D01*
X19153607Y2388100D01*
X18946393Y2388100D01*
X18946390Y2388100D01*
X18742715Y2350027D01*
X18742703Y2350023D01*
X18549488Y2275172D01*
X18549482Y2275169D01*
X18373314Y2166091D01*
X18373305Y2166085D01*
X18220173Y2026485D01*
X18095302Y1861129D01*
X18095300Y1861126D01*
X18095300Y1861125D01*
X18028763Y1727501D01*
X18002936Y1675634D01*
X18002934Y1675629D01*
X17946229Y1476335D01*
X17946229Y1476334D01*
X17927110Y1270001D01*
X17927110Y1270000D01*
X17946229Y1063667D01*
X17946229Y1063666D01*
X17986619Y921714D01*
X18002936Y864365D01*
X18095300Y678875D01*
X18220174Y513514D01*
X18299441Y441252D01*
X18336620Y407359D01*
X18364520Y354097D01*
X18351657Y295362D01*
X18304049Y258636D01*
X18277402Y254500D01*
X17282598Y254500D01*
X17226097Y275065D01*
X17196033Y327136D01*
X17206474Y386350D01*
X17223380Y407359D01*
X17247057Y428945D01*
X17339826Y513514D01*
X17464700Y678875D01*
X17557064Y864365D01*
X17613771Y1063670D01*
X17632890Y1270000D01*
X17613771Y1476330D01*
X17596352Y1537550D01*
X17583728Y1581920D01*
X17557064Y1675635D01*
X17464700Y1861125D01*
X17339826Y2026486D01*
X17214265Y2140950D01*
X17186694Y2166085D01*
X17186685Y2166091D01*
X17010517Y2275169D01*
X17010511Y2275172D01*
X16817296Y2350023D01*
X16817284Y2350027D01*
X16613609Y2388100D01*
X16613607Y2388100D01*
X16611100Y2388100D01*
X16610243Y2388412D01*
X16609560Y2388475D01*
X16609576Y2388655D01*
X16554599Y2408665D01*
X16524535Y2460736D01*
X16523200Y2476000D01*
X16523200Y2527497D01*
X16543765Y2583998D01*
X16595836Y2614062D01*
X16655050Y2603621D01*
X16673255Y2589652D01*
X16677450Y2585457D01*
X16677453Y2585453D01*
X16736431Y2546045D01*
X16788439Y2535700D01*
X17723560Y2535701D01*
X17723563Y2535701D01*
X17723565Y2535702D01*
X17775565Y2546044D01*
X17775566Y2546044D01*
X17775566Y2546045D01*
X17775569Y2546045D01*
X17834547Y2585453D01*
X17873955Y2644431D01*
X17876657Y2658013D01*
X21059500Y2658013D01*
X21059500Y2421988D01*
X21090307Y2187986D01*
X21090310Y2187974D01*
X21131118Y2035676D01*
X21151394Y1960007D01*
X21161306Y1936078D01*
X21241713Y1741957D01*
X21241714Y1741955D01*
X21241716Y1741951D01*
X21320390Y1605684D01*
X21359728Y1537548D01*
X21406769Y1476243D01*
X21503408Y1350301D01*
X21670301Y1183408D01*
X21670304Y1183406D01*
X21826350Y1063667D01*
X21857550Y1039727D01*
X22061951Y921716D01*
X22280007Y831394D01*
X22507986Y770307D01*
X22687541Y746669D01*
X22741987Y739500D01*
X22741989Y739500D01*
X22978013Y739500D01*
X23026784Y745922D01*
X23212014Y770307D01*
X23439993Y831394D01*
X23658049Y921716D01*
X23862450Y1039727D01*
X24049699Y1183408D01*
X24216592Y1350301D01*
X24360273Y1537550D01*
X24478284Y1741951D01*
X24568606Y1960007D01*
X24629693Y2187986D01*
X24658746Y2408665D01*
X24660500Y2421988D01*
X24660500Y2658013D01*
X24646214Y2766521D01*
X24629693Y2892014D01*
X24568606Y3119993D01*
X24478284Y3338049D01*
X24360273Y3542450D01*
X24355677Y3548439D01*
X24268646Y3661861D01*
X24216592Y3729699D01*
X24049699Y3896592D01*
X24028208Y3913082D01*
X23862452Y4040272D01*
X23660004Y4157155D01*
X23658049Y4158284D01*
X23658047Y4158285D01*
X23658045Y4158286D01*
X23658043Y4158287D01*
X23556059Y4200530D01*
X23439993Y4248606D01*
X23439986Y4248608D01*
X23212026Y4309690D01*
X23212014Y4309693D01*
X22978013Y4340500D01*
X22978011Y4340500D01*
X22741989Y4340500D01*
X22741987Y4340500D01*
X22507985Y4309693D01*
X22507973Y4309690D01*
X22280013Y4248608D01*
X22280009Y4248607D01*
X22280007Y4248606D01*
X22280005Y4248605D01*
X22061956Y4158287D01*
X22061954Y4158286D01*
X21857547Y4040272D01*
X21670304Y3896595D01*
X21503405Y3729696D01*
X21359728Y3542453D01*
X21241714Y3338046D01*
X21241713Y3338044D01*
X21185735Y3202900D01*
X21155649Y3130264D01*
X21151395Y3119995D01*
X21151392Y3119987D01*
X21090310Y2892027D01*
X21090307Y2892015D01*
X21059500Y2658013D01*
X17876657Y2658013D01*
X17884300Y2696439D01*
X17884300Y2883900D01*
X17904865Y2940401D01*
X17956936Y2970465D01*
X17972200Y2971800D01*
X18077896Y2971800D01*
X18134397Y2951235D01*
X18156863Y2922507D01*
X18183284Y2868462D01*
X18208862Y2816142D01*
X18208863Y2816141D01*
X18208864Y2816139D01*
X18298139Y2726864D01*
X18298140Y2726864D01*
X18298142Y2726862D01*
X18398942Y2677584D01*
X18411565Y2671413D01*
X18485096Y2660700D01*
X18485100Y2660700D01*
X19106899Y2660700D01*
X19106904Y2660700D01*
X19180435Y2671413D01*
X19293861Y2726864D01*
X19383136Y2816139D01*
X19438587Y2929565D01*
X19449300Y3003096D01*
X19449300Y3474904D01*
X19438587Y3548435D01*
X19424646Y3576951D01*
X19383138Y3661858D01*
X19383136Y3661860D01*
X19383136Y3661861D01*
X19293861Y3751136D01*
X19293859Y3751137D01*
X19293857Y3751139D01*
X19180440Y3806585D01*
X19180438Y3806586D01*
X19180436Y3806587D01*
X19180435Y3806587D01*
X19106904Y3817300D01*
X18485096Y3817300D01*
X18411565Y3806587D01*
X18411563Y3806587D01*
X18411561Y3806586D01*
X18411559Y3806585D01*
X18298142Y3751139D01*
X18208862Y3661859D01*
X18184946Y3612937D01*
X18156863Y3555494D01*
X18113575Y3513767D01*
X18077896Y3506200D01*
X17961483Y3506200D01*
X17904982Y3526765D01*
X17875272Y3576951D01*
X17873955Y3583568D01*
X17873955Y3583569D01*
X17834547Y3642547D01*
X17775569Y3681955D01*
X17723561Y3692300D01*
X17723559Y3692300D01*
X16788436Y3692300D01*
X16788434Y3692299D01*
X16736434Y3681957D01*
X16736433Y3681957D01*
X16677454Y3642548D01*
X16673255Y3638348D01*
X16618761Y3612937D01*
X16560683Y3628500D01*
X16526195Y3677753D01*
X16523200Y3700503D01*
X16523200Y4428219D01*
X16543765Y4484720D01*
X16595836Y4514784D01*
X16655050Y4504343D01*
X16673255Y4490374D01*
X16677817Y4485812D01*
X16736624Y4446517D01*
X16788486Y4436201D01*
X17167100Y4436201D01*
X17167100Y4925099D01*
X17344900Y4925099D01*
X17344900Y4436202D01*
X17344901Y4436201D01*
X17723509Y4436201D01*
X17775375Y4446517D01*
X17834182Y4485812D01*
X17834188Y4485818D01*
X17873483Y4544625D01*
X17883800Y4596488D01*
X17883800Y4925099D01*
X17883799Y4925100D01*
X17344901Y4925100D01*
X17344900Y4925099D01*
X17167100Y4925099D01*
X17167099Y4925100D01*
X16622118Y4925100D01*
X16579020Y4905004D01*
X16520942Y4920568D01*
X16490153Y4958932D01*
X16482521Y4977357D01*
X16482519Y4977359D01*
X16407357Y5052522D01*
X16407357Y5052521D01*
X16028365Y5431513D01*
X16628200Y5431513D01*
X16628200Y5102901D01*
X16628201Y5102900D01*
X17167099Y5102900D01*
X17167100Y5102901D01*
X17167100Y5591799D01*
X17344900Y5591799D01*
X17344900Y5102901D01*
X17344901Y5102900D01*
X17883798Y5102900D01*
X17883799Y5102901D01*
X17883799Y5124904D01*
X18142700Y5124904D01*
X18142700Y4653096D01*
X18153413Y4579565D01*
X18153413Y4579564D01*
X18153414Y4579562D01*
X18153415Y4579560D01*
X18208861Y4466143D01*
X18208863Y4466141D01*
X18208864Y4466139D01*
X18298139Y4376864D01*
X18298140Y4376864D01*
X18298142Y4376862D01*
X18398942Y4327584D01*
X18411565Y4321413D01*
X18485096Y4310700D01*
X18485100Y4310700D01*
X19106899Y4310700D01*
X19106904Y4310700D01*
X19180435Y4321413D01*
X19293861Y4376864D01*
X19383136Y4466139D01*
X19438587Y4579565D01*
X19449300Y4653096D01*
X19449300Y5124904D01*
X19438587Y5198435D01*
X19387396Y5303148D01*
X19383138Y5311858D01*
X19383136Y5311860D01*
X19383136Y5311861D01*
X19293861Y5401136D01*
X19293859Y5401137D01*
X19293857Y5401139D01*
X19180440Y5456585D01*
X19180438Y5456586D01*
X19180436Y5456587D01*
X19180435Y5456587D01*
X19106904Y5467300D01*
X19106900Y5467300D01*
X19024100Y5467300D01*
X18967599Y5487865D01*
X18937535Y5539936D01*
X18936200Y5555200D01*
X18936200Y5943158D01*
X18956765Y5999659D01*
X19008836Y6029723D01*
X19065439Y6019743D01*
X19065596Y6020062D01*
X19066707Y6019519D01*
X19068050Y6019282D01*
X19070761Y6017537D01*
X19149298Y5979143D01*
X19185565Y5961413D01*
X19259096Y5950700D01*
X19259100Y5950700D01*
X19730899Y5950700D01*
X19730904Y5950700D01*
X19804435Y5961413D01*
X19917861Y6016864D01*
X20007136Y6106139D01*
X20062587Y6219565D01*
X20073300Y6293096D01*
X20073300Y6914904D01*
X20566700Y6914904D01*
X20566700Y6293096D01*
X20577413Y6219565D01*
X20577413Y6219564D01*
X20577414Y6219562D01*
X20577415Y6219560D01*
X20632861Y6106143D01*
X20632863Y6106141D01*
X20632864Y6106139D01*
X20722139Y6016864D01*
X20722140Y6016864D01*
X20722142Y6016862D01*
X20799298Y5979143D01*
X20835565Y5961413D01*
X20909096Y5950700D01*
X20909100Y5950700D01*
X21380899Y5950700D01*
X21380904Y5950700D01*
X21454435Y5961413D01*
X21567861Y6016864D01*
X21657136Y6106139D01*
X21712587Y6219565D01*
X21718707Y6261576D01*
X21747204Y6314519D01*
X21803066Y6336761D01*
X21805689Y6336800D01*
X21886412Y6336800D01*
X21942913Y6316235D01*
X21972977Y6264164D01*
X21973230Y6262649D01*
X21979425Y6223528D01*
X21979427Y6223522D01*
X22036523Y6111465D01*
X22036524Y6111464D01*
X22036526Y6111461D01*
X22125461Y6022526D01*
X22125463Y6022525D01*
X22125464Y6022524D01*
X22237524Y5965426D01*
X22248707Y5963655D01*
X22330503Y5950700D01*
X22830496Y5950701D01*
X22923475Y5965426D01*
X23035539Y6022526D01*
X23124474Y6111461D01*
X23181574Y6223525D01*
X23196300Y6316503D01*
X23196300Y6515099D01*
X23540200Y6515099D01*
X23540200Y6316542D01*
X23554906Y6223684D01*
X23611933Y6111761D01*
X23700760Y6022934D01*
X23812683Y5965907D01*
X23812682Y5965907D01*
X23905541Y5951201D01*
X23905542Y5951200D01*
X24066599Y5951200D01*
X24066600Y5951201D01*
X24066600Y6515099D01*
X24244400Y6515099D01*
X24244400Y5951201D01*
X24244401Y5951200D01*
X24405458Y5951200D01*
X24405458Y5951201D01*
X24498316Y5965907D01*
X24610239Y6022934D01*
X24699066Y6111761D01*
X24756093Y6223684D01*
X24770799Y6316542D01*
X24770800Y6316542D01*
X24770800Y6515099D01*
X24770799Y6515100D01*
X24244401Y6515100D01*
X24244400Y6515099D01*
X24066600Y6515099D01*
X24066599Y6515100D01*
X23540201Y6515100D01*
X23540200Y6515099D01*
X23196300Y6515099D01*
X23196299Y6891459D01*
X23540200Y6891459D01*
X23540200Y6692901D01*
X23540201Y6692900D01*
X24066599Y6692900D01*
X24066600Y6692901D01*
X24066600Y7256799D01*
X24244400Y7256799D01*
X24244400Y6692901D01*
X24244401Y6692900D01*
X24770799Y6692900D01*
X24770800Y6692901D01*
X24770800Y6891459D01*
X24756093Y6984317D01*
X24699066Y7096240D01*
X24610239Y7185067D01*
X24498316Y7242094D01*
X24498317Y7242094D01*
X24405459Y7256800D01*
X24244401Y7256800D01*
X24244400Y7256799D01*
X24066600Y7256799D01*
X24066599Y7256800D01*
X23905541Y7256800D01*
X23812683Y7242094D01*
X23700760Y7185067D01*
X23611933Y7096240D01*
X23554906Y6984317D01*
X23540200Y6891459D01*
X23196299Y6891459D01*
X23196299Y6891496D01*
X23181574Y6984475D01*
X23141193Y7063727D01*
X23124476Y7096536D01*
X23124475Y7096537D01*
X23124474Y7096539D01*
X23035539Y7185474D01*
X23035536Y7185476D01*
X23035535Y7185477D01*
X22923475Y7242575D01*
X22852862Y7253758D01*
X22830497Y7257300D01*
X22830495Y7257300D01*
X22330505Y7257300D01*
X22330503Y7257299D01*
X22237527Y7242575D01*
X22237521Y7242573D01*
X22125464Y7185477D01*
X22036523Y7096536D01*
X21979426Y6984476D01*
X21973229Y6945349D01*
X21944079Y6892761D01*
X21887945Y6871213D01*
X21886411Y6871200D01*
X21805689Y6871200D01*
X21749188Y6891765D01*
X21719124Y6943836D01*
X21718707Y6946426D01*
X21712587Y6988435D01*
X21675579Y7064136D01*
X21657138Y7101858D01*
X21657136Y7101860D01*
X21657136Y7101861D01*
X21567861Y7191136D01*
X21567859Y7191137D01*
X21567857Y7191139D01*
X21454440Y7246585D01*
X21454438Y7246586D01*
X21454436Y7246587D01*
X21454435Y7246587D01*
X21380904Y7257300D01*
X20909096Y7257300D01*
X20835565Y7246587D01*
X20835563Y7246587D01*
X20835561Y7246586D01*
X20835559Y7246585D01*
X20722142Y7191139D01*
X20632861Y7101858D01*
X20577415Y6988441D01*
X20577414Y6988439D01*
X20577413Y6988437D01*
X20577413Y6988435D01*
X20566700Y6914904D01*
X20073300Y6914904D01*
X20062587Y6988435D01*
X20025579Y7064136D01*
X20007138Y7101858D01*
X20007136Y7101860D01*
X20007136Y7101861D01*
X19917861Y7191136D01*
X19917859Y7191137D01*
X19917857Y7191139D01*
X19916014Y7192040D01*
X19914729Y7193373D01*
X19911931Y7195371D01*
X19912302Y7195891D01*
X19874287Y7235331D01*
X19870150Y7295316D01*
X19905538Y7343926D01*
X19907072Y7344936D01*
X19988209Y7397078D01*
X20074511Y7496676D01*
X20129258Y7616554D01*
X20130282Y7623676D01*
X20148013Y7746997D01*
X20148013Y7747004D01*
X20129259Y7877440D01*
X20129258Y7877441D01*
X20129258Y7877446D01*
X20074511Y7997324D01*
X20074510Y7997325D01*
X20074510Y7997326D01*
X20031360Y8047123D01*
X19988209Y8096922D01*
X19988206Y8096924D01*
X19988205Y8096925D01*
X19877346Y8168170D01*
X19877343Y8168171D01*
X19852053Y8175597D01*
X19750898Y8205300D01*
X19750894Y8205300D01*
X19619106Y8205300D01*
X19619101Y8205300D01*
X19492657Y8168171D01*
X19492653Y8168170D01*
X19381794Y8096925D01*
X19381789Y8096920D01*
X19295489Y7997326D01*
X19240742Y7877446D01*
X19240740Y7877440D01*
X19221987Y7747004D01*
X19221987Y7746998D01*
X19234658Y7658862D01*
X19228865Y7612722D01*
X19227801Y7610153D01*
X19227800Y7610148D01*
X19227800Y7322105D01*
X19207235Y7265604D01*
X19178506Y7243137D01*
X19065596Y7187938D01*
X19064432Y7190319D01*
X19017235Y7177211D01*
X18962513Y7202126D01*
X18936608Y7256386D01*
X18936200Y7264843D01*
X18936200Y8361913D01*
X18956765Y8418414D01*
X18961934Y8424057D01*
X20213832Y9675956D01*
X20268326Y9701366D01*
X20275987Y9701700D01*
X20385893Y9701700D01*
X20385894Y9701700D01*
X20385896Y9701701D01*
X20385898Y9701701D01*
X20400927Y9706115D01*
X20512343Y9738829D01*
X20623209Y9810078D01*
X20709511Y9909676D01*
X20764258Y10029554D01*
X20770529Y10073172D01*
X20776911Y10117560D01*
X21211700Y10117560D01*
X21211700Y8482437D01*
X21211701Y8482435D01*
X21222043Y8430435D01*
X21222043Y8430434D01*
X21222044Y8430432D01*
X21222045Y8430431D01*
X21261453Y8371453D01*
X21320431Y8332045D01*
X21372439Y8321700D01*
X24807560Y8321701D01*
X24807563Y8321701D01*
X24807565Y8321702D01*
X24859565Y8332044D01*
X24859566Y8332044D01*
X24859566Y8332045D01*
X24859569Y8332045D01*
X24918547Y8371453D01*
X24957955Y8430431D01*
X24968300Y8482439D01*
X24968299Y10117560D01*
X24968299Y10117561D01*
X24968299Y10117564D01*
X24968298Y10117566D01*
X24957956Y10169566D01*
X24957956Y10169567D01*
X24953635Y10176034D01*
X24918547Y10228547D01*
X24859569Y10267955D01*
X24807561Y10278300D01*
X24807559Y10278300D01*
X21372436Y10278300D01*
X21372434Y10278299D01*
X21320434Y10267957D01*
X21320433Y10267957D01*
X21261454Y10228548D01*
X21261452Y10228546D01*
X21248860Y10209701D01*
X21222045Y10169569D01*
X21213711Y10127668D01*
X21211700Y10117560D01*
X20776911Y10117560D01*
X20783013Y10159997D01*
X20783013Y10160004D01*
X20764259Y10290440D01*
X20764258Y10290441D01*
X20764258Y10290446D01*
X20709511Y10410324D01*
X20709510Y10410325D01*
X20709510Y10410326D01*
X20660279Y10467141D01*
X20623209Y10509922D01*
X20623206Y10509924D01*
X20623205Y10509925D01*
X20512346Y10581170D01*
X20512343Y10581171D01*
X20487053Y10588597D01*
X20385898Y10618300D01*
X20385894Y10618300D01*
X20254106Y10618300D01*
X20254101Y10618300D01*
X20127657Y10581171D01*
X20127653Y10581170D01*
X20016794Y10509925D01*
X20016789Y10509920D01*
X19930489Y10410326D01*
X19875742Y10290446D01*
X19875740Y10290440D01*
X19856987Y10160004D01*
X19856987Y10160002D01*
X19856987Y10160000D01*
X19861427Y10129119D01*
X19849111Y10070267D01*
X19836576Y10054456D01*
X18517643Y8735521D01*
X18517642Y8735522D01*
X18442480Y8660359D01*
X18442478Y8660357D01*
X18401800Y8562149D01*
X18401800Y5506683D01*
X18381235Y5450182D01*
X18352506Y5427715D01*
X18298138Y5401136D01*
X18298135Y5401134D01*
X18208862Y5311860D01*
X18153415Y5198441D01*
X18153414Y5198439D01*
X18153413Y5198437D01*
X18153413Y5198435D01*
X18142700Y5124904D01*
X17883799Y5124904D01*
X17883799Y5431509D01*
X17873483Y5483376D01*
X17834188Y5542183D01*
X17834182Y5542189D01*
X17775375Y5581484D01*
X17723513Y5591800D01*
X17344901Y5591800D01*
X17344900Y5591799D01*
X17167100Y5591799D01*
X17167099Y5591800D01*
X16788486Y5591800D01*
X16788484Y5591799D01*
X16736628Y5581486D01*
X16736624Y5581484D01*
X16677817Y5542189D01*
X16677811Y5542183D01*
X16638516Y5483376D01*
X16628200Y5431513D01*
X16028365Y5431513D01*
X15750268Y5709610D01*
X15724857Y5764104D01*
X15740420Y5822182D01*
X15773815Y5850732D01*
X15853861Y5889864D01*
X15943136Y5979139D01*
X15998587Y6092565D01*
X16009300Y6166096D01*
X16009300Y6388099D01*
X16503200Y6388099D01*
X16503200Y6166149D01*
X16513900Y6092706D01*
X16513901Y6092704D01*
X16569273Y5979438D01*
X16658437Y5890274D01*
X16771703Y5834902D01*
X16771705Y5834901D01*
X16845148Y5824200D01*
X16992099Y5824200D01*
X16992100Y5824201D01*
X16992100Y6388099D01*
X17169900Y6388099D01*
X17169900Y5824201D01*
X17169901Y5824200D01*
X17316851Y5824200D01*
X17390294Y5834901D01*
X17390296Y5834902D01*
X17503562Y5890274D01*
X17592726Y5979438D01*
X17648098Y6092704D01*
X17648099Y6092706D01*
X17658800Y6166149D01*
X17658800Y6388099D01*
X17658799Y6388100D01*
X17169901Y6388100D01*
X17169900Y6388099D01*
X16992100Y6388099D01*
X16992099Y6388100D01*
X16503201Y6388100D01*
X16503200Y6388099D01*
X16009300Y6388099D01*
X16009300Y6787852D01*
X16503200Y6787852D01*
X16503200Y6565901D01*
X16503201Y6565900D01*
X16992099Y6565900D01*
X16992100Y6565901D01*
X16992100Y7129799D01*
X17169900Y7129799D01*
X17169900Y6565901D01*
X17169901Y6565900D01*
X17658799Y6565900D01*
X17658800Y6565901D01*
X17658800Y6787852D01*
X17648099Y6861295D01*
X17648098Y6861297D01*
X17592726Y6974563D01*
X17503562Y7063727D01*
X17390296Y7119099D01*
X17390294Y7119100D01*
X17316852Y7129800D01*
X17169901Y7129800D01*
X17169900Y7129799D01*
X16992100Y7129799D01*
X16992099Y7129800D01*
X16845148Y7129800D01*
X16771705Y7119100D01*
X16771703Y7119099D01*
X16658437Y7063727D01*
X16569273Y6974563D01*
X16513901Y6861297D01*
X16513900Y6861295D01*
X16503200Y6787852D01*
X16009300Y6787852D01*
X16009300Y6787904D01*
X15998587Y6861435D01*
X15983909Y6891459D01*
X15943138Y6974858D01*
X15943136Y6974860D01*
X15943136Y6974861D01*
X15853861Y7064136D01*
X15853859Y7064137D01*
X15853857Y7064139D01*
X15740440Y7119585D01*
X15740438Y7119586D01*
X15740436Y7119587D01*
X15740435Y7119587D01*
X15666904Y7130300D01*
X15195096Y7130300D01*
X15121565Y7119587D01*
X15121563Y7119587D01*
X15121561Y7119586D01*
X15121559Y7119585D01*
X15008142Y7064139D01*
X14918861Y6974858D01*
X14863415Y6861441D01*
X14863414Y6861439D01*
X14863413Y6861437D01*
X14863413Y6861435D01*
X14852700Y6787904D01*
X14852700Y6166096D01*
X14863413Y6092565D01*
X14863413Y6092564D01*
X14863414Y6092562D01*
X14863415Y6092560D01*
X14918861Y5979143D01*
X14918863Y5979141D01*
X14918864Y5979139D01*
X15008139Y5889864D01*
X15114506Y5837864D01*
X15156233Y5794575D01*
X15163800Y5758896D01*
X15163800Y5704149D01*
X15163800Y5597851D01*
X15204479Y5499643D01*
X15963055Y4741067D01*
X15988466Y4686574D01*
X15988800Y4678913D01*
X15988800Y2311324D01*
X15968235Y2254823D01*
X15947174Y2236590D01*
X15833310Y2166088D01*
X15833305Y2166085D01*
X15680173Y2026485D01*
X15555302Y1861129D01*
X15555300Y1861126D01*
X15555300Y1861125D01*
X15488763Y1727501D01*
X15462936Y1675634D01*
X15462934Y1675629D01*
X15406229Y1476335D01*
X15406229Y1476334D01*
X15387110Y1270001D01*
X15387110Y1270000D01*
X15406229Y1063667D01*
X15406229Y1063666D01*
X15446619Y921714D01*
X15462936Y864365D01*
X15555300Y678875D01*
X15680174Y513514D01*
X15759441Y441252D01*
X15796620Y407359D01*
X15824520Y354097D01*
X15811657Y295362D01*
X15764049Y258636D01*
X15737402Y254500D01*
X14742598Y254500D01*
X14686097Y275065D01*
X14656033Y327136D01*
X14666474Y386350D01*
X14683380Y407359D01*
X14707057Y428945D01*
X14799826Y513514D01*
X14924700Y678875D01*
X15017064Y864365D01*
X15073771Y1063670D01*
X15092890Y1270000D01*
X15073771Y1476330D01*
X15056352Y1537550D01*
X15043728Y1581920D01*
X15017064Y1675635D01*
X14957645Y1794963D01*
X14950869Y1854708D01*
X14974173Y1896297D01*
X15382521Y2304643D01*
X15423200Y2402851D01*
X15423200Y2509149D01*
X15423200Y3397801D01*
X15443765Y3454302D01*
X15495836Y3484366D01*
X15511100Y3485701D01*
X15623564Y3485701D01*
X15623565Y3485702D01*
X15675565Y3496044D01*
X15675566Y3496044D01*
X15675566Y3496045D01*
X15675569Y3496045D01*
X15734547Y3535453D01*
X15773955Y3594431D01*
X15784300Y3646439D01*
X15784299Y4481560D01*
X15784299Y4481561D01*
X15784299Y4481564D01*
X15784298Y4481566D01*
X15773956Y4533566D01*
X15773956Y4533567D01*
X15766697Y4544431D01*
X15734547Y4592547D01*
X15675569Y4631955D01*
X15623561Y4642300D01*
X15623559Y4642300D01*
X14688436Y4642300D01*
X14688434Y4642299D01*
X14636434Y4631957D01*
X14636433Y4631957D01*
X14577454Y4592548D01*
X14577452Y4592546D01*
X14568735Y4579500D01*
X14538045Y4533569D01*
X14528329Y4484720D01*
X14527700Y4481560D01*
X14527700Y3646437D01*
X14527701Y3646435D01*
X14538043Y3594435D01*
X14538043Y3594434D01*
X14538044Y3594432D01*
X14538045Y3594431D01*
X14577453Y3535453D01*
X14636431Y3496045D01*
X14688439Y3485700D01*
X14800900Y3485701D01*
X14857400Y3465137D01*
X14887464Y3413065D01*
X14888800Y3397801D01*
X14888800Y2603089D01*
X14868235Y2546588D01*
X14863055Y2540934D01*
X14598043Y2275923D01*
X14543549Y2250512D01*
X14489613Y2263345D01*
X14470518Y2275169D01*
X14470516Y2275170D01*
X14277296Y2350023D01*
X14277284Y2350027D01*
X14073609Y2388100D01*
X14073607Y2388100D01*
X13866393Y2388100D01*
X13866390Y2388100D01*
X13662715Y2350027D01*
X13662703Y2350023D01*
X13469489Y2275172D01*
X13469487Y2275171D01*
X13469485Y2275170D01*
X13429661Y2250512D01*
X13291426Y2164922D01*
X13232561Y2152664D01*
X13179589Y2181110D01*
X13157295Y2236951D01*
X13158147Y2252160D01*
X13163013Y2286000D01*
X13163013Y2286001D01*
X13163013Y2286004D01*
X13144259Y2416440D01*
X13144258Y2416441D01*
X13144258Y2416446D01*
X13089511Y2536324D01*
X13071821Y2556740D01*
X13050363Y2612905D01*
X13070028Y2669725D01*
X13121616Y2700611D01*
X13138252Y2702200D01*
X13676530Y2702200D01*
X13676533Y2702201D01*
X13705429Y2704910D01*
X13705434Y2704911D01*
X13827153Y2747502D01*
X13827154Y2747503D01*
X13930914Y2824081D01*
X13930919Y2824086D01*
X14007497Y2927846D01*
X14007498Y2927847D01*
X14050089Y3049566D01*
X14050090Y3049571D01*
X14052799Y3078467D01*
X14052800Y3078470D01*
X14052800Y3453599D01*
X14052799Y3453600D01*
X11347201Y3453600D01*
X11347200Y3453599D01*
X11347200Y3078467D01*
X11349909Y3049571D01*
X11349910Y3049569D01*
X11393802Y2924132D01*
X11393053Y2864009D01*
X11353833Y2818434D01*
X11310835Y2807200D01*
X9799088Y2807200D01*
X9742587Y2827765D01*
X9736933Y2832945D01*
X9436945Y3132933D01*
X9411534Y3187427D01*
X9411200Y3195088D01*
X9411200Y3736148D01*
X9411200Y3736149D01*
X9370521Y3834357D01*
X9361833Y3843045D01*
X9295357Y3909522D01*
X9295357Y3909521D01*
X8914357Y4290521D01*
X8914355Y4290522D01*
X8914356Y4290522D01*
X8839772Y4321415D01*
X8816149Y4331200D01*
X8780503Y4331200D01*
X8724002Y4351765D01*
X8693938Y4403836D01*
X8704379Y4463050D01*
X8718348Y4481255D01*
X8722540Y4485449D01*
X8722547Y4485453D01*
X8761955Y4544431D01*
X8772300Y4596439D01*
X8772299Y5431560D01*
X8772299Y5431561D01*
X8772299Y5431564D01*
X8772298Y5431566D01*
X8761956Y5483566D01*
X8761956Y5483567D01*
X8754806Y5494268D01*
X8722547Y5542547D01*
X8663569Y5581955D01*
X8611561Y5592300D01*
X8611559Y5592300D01*
X7676436Y5592300D01*
X7676434Y5592299D01*
X7624434Y5581957D01*
X7624433Y5581957D01*
X7565454Y5542548D01*
X7565452Y5542546D01*
X7526045Y5483569D01*
X7516724Y5436706D01*
X7515700Y5431560D01*
X7515700Y5244100D01*
X7495135Y5187599D01*
X7443064Y5157535D01*
X7427800Y5156200D01*
X7322104Y5156200D01*
X7265603Y5176765D01*
X7243136Y5205494D01*
X7191136Y5311861D01*
X7101861Y5401136D01*
X7101859Y5401137D01*
X7101857Y5401139D01*
X6988440Y5456585D01*
X6988438Y5456586D01*
X6988436Y5456587D01*
X6988435Y5456587D01*
X6914904Y5467300D01*
X6293096Y5467300D01*
X6219565Y5456587D01*
X6219563Y5456587D01*
X6219561Y5456586D01*
X6219559Y5456585D01*
X6106142Y5401139D01*
X6016861Y5311858D01*
X5961415Y5198441D01*
X5961414Y5198439D01*
X5961413Y5198437D01*
X5961413Y5198435D01*
X5950700Y5124904D01*
X5950700Y4653096D01*
X5961413Y4579565D01*
X5961413Y4579564D01*
X5961414Y4579562D01*
X5961415Y4579560D01*
X6016861Y4466143D01*
X6016863Y4466141D01*
X6016864Y4466139D01*
X6106139Y4376864D01*
X6106140Y4376864D01*
X6106142Y4376862D01*
X6206942Y4327584D01*
X6219565Y4321413D01*
X6293096Y4310700D01*
X6293100Y4310700D01*
X6914899Y4310700D01*
X6914904Y4310700D01*
X6988435Y4321413D01*
X7101861Y4376864D01*
X7191136Y4466139D01*
X7243136Y4572507D01*
X7286425Y4614233D01*
X7322104Y4621800D01*
X7438517Y4621800D01*
X7495018Y4601235D01*
X7524728Y4551049D01*
X7526044Y4544433D01*
X7526044Y4544432D01*
X7526045Y4544431D01*
X7565453Y4485453D01*
X7565456Y4485451D01*
X7569652Y4481255D01*
X7595063Y4426761D01*
X7579500Y4368683D01*
X7530247Y4334195D01*
X7507497Y4331200D01*
X7482149Y4331200D01*
X7375851Y4331200D01*
X7352228Y4321415D01*
X7277644Y4290522D01*
X6830167Y3843045D01*
X6775673Y3817634D01*
X6768012Y3817300D01*
X6293096Y3817300D01*
X6219565Y3806587D01*
X6219563Y3806587D01*
X6219561Y3806586D01*
X6219559Y3806585D01*
X6106142Y3751139D01*
X6016861Y3661858D01*
X5961415Y3548441D01*
X5961414Y3548439D01*
X5961413Y3548437D01*
X5961413Y3548435D01*
X5950700Y3474904D01*
X5950700Y3003096D01*
X5961413Y2929565D01*
X5961413Y2929564D01*
X5961414Y2929562D01*
X5961415Y2929560D01*
X6016861Y2816143D01*
X6016863Y2816141D01*
X6016864Y2816139D01*
X6106139Y2726864D01*
X6106140Y2726864D01*
X6106142Y2726862D01*
X6206942Y2677584D01*
X6219565Y2671413D01*
X6293096Y2660700D01*
X6293100Y2660700D01*
X6914899Y2660700D01*
X6914904Y2660700D01*
X6988435Y2671413D01*
X7101861Y2726864D01*
X7191136Y2816139D01*
X7246587Y2929565D01*
X7257300Y3003096D01*
X7257300Y3025099D01*
X7516201Y3025099D01*
X7516201Y2696492D01*
X7526516Y2644625D01*
X7565811Y2585818D01*
X7565817Y2585812D01*
X7624624Y2546517D01*
X7676486Y2536201D01*
X8055100Y2536201D01*
X8055100Y3025099D01*
X8055099Y3025100D01*
X7516202Y3025100D01*
X7516201Y3025099D01*
X7257300Y3025099D01*
X7257300Y3474904D01*
X7257300Y3478013D01*
X7277865Y3534514D01*
X7283045Y3540167D01*
X7371344Y3628467D01*
X7425838Y3653878D01*
X7483916Y3638317D01*
X7518404Y3589064D01*
X7519711Y3549168D01*
X7516200Y3531513D01*
X7516200Y3202901D01*
X7516201Y3202900D01*
X8145000Y3202900D01*
X8201501Y3182335D01*
X8231565Y3130264D01*
X8232900Y3115000D01*
X8232900Y2536202D01*
X8232901Y2536201D01*
X8611509Y2536201D01*
X8663375Y2546517D01*
X8722182Y2585812D01*
X8722188Y2585818D01*
X8761483Y2644625D01*
X8771799Y2696487D01*
X8771799Y2830113D01*
X8792363Y2886615D01*
X8844435Y2916678D01*
X8903648Y2906238D01*
X8921849Y2892273D01*
X9338179Y2475943D01*
X9363590Y2421450D01*
X9348027Y2363372D01*
X9298774Y2328884D01*
X9244271Y2331825D01*
X9197296Y2350023D01*
X9197284Y2350027D01*
X8993609Y2388100D01*
X8993607Y2388100D01*
X8786393Y2388100D01*
X8786390Y2388100D01*
X8582715Y2350027D01*
X8582703Y2350023D01*
X8389488Y2275172D01*
X8389482Y2275169D01*
X8213314Y2166091D01*
X8213305Y2166085D01*
X8060173Y2026485D01*
X7935302Y1861129D01*
X7935300Y1861126D01*
X7935300Y1861125D01*
X7868763Y1727501D01*
X7842936Y1675634D01*
X7842934Y1675629D01*
X7786229Y1476335D01*
X7786229Y1476334D01*
X7767110Y1270001D01*
X7767110Y1270000D01*
X7786229Y1063667D01*
X7786229Y1063666D01*
X7826619Y921714D01*
X7842936Y864365D01*
X7935300Y678875D01*
X8060174Y513514D01*
X8139441Y441252D01*
X8176620Y407359D01*
X8204520Y354097D01*
X8191657Y295362D01*
X8144049Y258636D01*
X8117402Y254500D01*
X7121856Y254500D01*
X7065355Y275065D01*
X7035291Y327136D01*
X7045732Y386350D01*
X7062638Y407359D01*
X7179453Y513852D01*
X7179457Y513856D01*
X7304272Y679138D01*
X7396597Y864551D01*
X7453276Y1063758D01*
X7453276Y1063759D01*
X7464150Y1181100D01*
X6852100Y1181100D01*
X6858000Y1203120D01*
X6858000Y1336880D01*
X6852100Y1358900D01*
X7464149Y1358900D01*
X7453276Y1476242D01*
X7453276Y1476243D01*
X7396597Y1675450D01*
X7304272Y1860863D01*
X7179457Y2026145D01*
X7179453Y2026149D01*
X7026392Y2165684D01*
X7026383Y2165690D01*
X6850295Y2274719D01*
X6850282Y2274725D01*
X6657159Y2349541D01*
X6657145Y2349545D01*
X6453565Y2387600D01*
X6438901Y2387600D01*
X6438900Y2387599D01*
X6438900Y1772100D01*
X6416880Y1778000D01*
X6283120Y1778000D01*
X6261100Y1772100D01*
X6261100Y2387599D01*
X6261099Y2387600D01*
X6246434Y2387600D01*
X6042854Y2349545D01*
X6042840Y2349541D01*
X5849717Y2274725D01*
X5849704Y2274719D01*
X5673616Y2165690D01*
X5673607Y2165684D01*
X5520546Y2026149D01*
X5520542Y2026145D01*
X5395727Y1860863D01*
X5303402Y1675450D01*
X5246723Y1476243D01*
X5246723Y1476242D01*
X5235850Y1358900D01*
X5847900Y1358900D01*
X5842000Y1336880D01*
X5842000Y1203120D01*
X5847900Y1181100D01*
X5235850Y1181100D01*
X5246723Y1063759D01*
X5246723Y1063758D01*
X5303402Y864551D01*
X5395727Y679138D01*
X5520542Y513856D01*
X5520546Y513852D01*
X5637362Y407359D01*
X5665262Y354097D01*
X5652399Y295362D01*
X5604791Y258636D01*
X5578144Y254500D01*
X342400Y254500D01*
X285899Y275065D01*
X255835Y327136D01*
X254500Y342400D01*
X254500Y2658013D01*
X739500Y2658013D01*
X739500Y2421988D01*
X770307Y2187986D01*
X770310Y2187974D01*
X811118Y2035676D01*
X831394Y1960007D01*
X841306Y1936078D01*
X921713Y1741957D01*
X921714Y1741955D01*
X921716Y1741951D01*
X1000390Y1605684D01*
X1039728Y1537548D01*
X1086769Y1476243D01*
X1183408Y1350301D01*
X1350301Y1183408D01*
X1350304Y1183406D01*
X1506350Y1063667D01*
X1537550Y1039727D01*
X1741951Y921716D01*
X1960007Y831394D01*
X2187986Y770307D01*
X2367541Y746669D01*
X2421987Y739500D01*
X2421989Y739500D01*
X2658013Y739500D01*
X2706784Y745922D01*
X2892014Y770307D01*
X3119993Y831394D01*
X3338049Y921716D01*
X3542450Y1039727D01*
X3729699Y1183408D01*
X3896592Y1350301D01*
X4040273Y1537550D01*
X4158284Y1741951D01*
X4248606Y1960007D01*
X4309693Y2187986D01*
X4338746Y2408665D01*
X4340500Y2421988D01*
X4340500Y2658013D01*
X4326214Y2766521D01*
X4309693Y2892014D01*
X4248606Y3119993D01*
X4158284Y3338049D01*
X4040273Y3542450D01*
X4035677Y3548439D01*
X3948646Y3661861D01*
X3896592Y3729699D01*
X3729699Y3896592D01*
X3708208Y3913082D01*
X3542452Y4040272D01*
X3340004Y4157155D01*
X3338049Y4158284D01*
X3338047Y4158285D01*
X3338045Y4158286D01*
X3338043Y4158287D01*
X3236059Y4200530D01*
X3119993Y4248606D01*
X3119986Y4248608D01*
X2892026Y4309690D01*
X2892014Y4309693D01*
X2658013Y4340500D01*
X2658011Y4340500D01*
X2421989Y4340500D01*
X2421987Y4340500D01*
X2187985Y4309693D01*
X2187973Y4309690D01*
X1960013Y4248608D01*
X1960009Y4248607D01*
X1960007Y4248606D01*
X1960005Y4248605D01*
X1741956Y4158287D01*
X1741954Y4158286D01*
X1537547Y4040272D01*
X1350304Y3896595D01*
X1183405Y3729696D01*
X1039728Y3542453D01*
X921714Y3338046D01*
X921713Y3338044D01*
X865735Y3202900D01*
X835649Y3130264D01*
X831395Y3119995D01*
X831392Y3119987D01*
X770310Y2892027D01*
X770307Y2892015D01*
X739500Y2658013D01*
X254500Y2658013D01*
X254500Y6515099D01*
X629200Y6515099D01*
X629200Y6316542D01*
X643906Y6223684D01*
X700933Y6111761D01*
X789760Y6022934D01*
X901683Y5965907D01*
X901682Y5965907D01*
X994541Y5951201D01*
X994542Y5951200D01*
X1155599Y5951200D01*
X1155600Y5951201D01*
X1155600Y6515099D01*
X1333400Y6515099D01*
X1333400Y5951201D01*
X1333401Y5951200D01*
X1494458Y5951200D01*
X1494458Y5951201D01*
X1587316Y5965907D01*
X1699239Y6022934D01*
X1788066Y6111761D01*
X1845093Y6223684D01*
X1859799Y6316542D01*
X1859800Y6316542D01*
X1859800Y6515099D01*
X1859799Y6515100D01*
X1333401Y6515100D01*
X1333400Y6515099D01*
X1155600Y6515099D01*
X1155599Y6515100D01*
X629201Y6515100D01*
X629200Y6515099D01*
X254500Y6515099D01*
X254500Y6891459D01*
X629200Y6891459D01*
X629200Y6692901D01*
X629201Y6692900D01*
X1155599Y6692900D01*
X1155600Y6692901D01*
X1155600Y7256799D01*
X1333400Y7256799D01*
X1333400Y6692901D01*
X1333401Y6692900D01*
X1859799Y6692900D01*
X1859800Y6692901D01*
X1859800Y6891459D01*
X1859794Y6891496D01*
X2203700Y6891496D01*
X2203700Y6316506D01*
X2203701Y6316504D01*
X2218425Y6223528D01*
X2218427Y6223522D01*
X2275523Y6111465D01*
X2275524Y6111464D01*
X2275526Y6111461D01*
X2364461Y6022526D01*
X2364463Y6022525D01*
X2364464Y6022524D01*
X2476524Y5965426D01*
X2487707Y5963655D01*
X2569503Y5950700D01*
X3069496Y5950701D01*
X3162475Y5965426D01*
X3274539Y6022526D01*
X3363474Y6111461D01*
X3420574Y6223525D01*
X3426771Y6262651D01*
X3455921Y6315239D01*
X3512055Y6336787D01*
X3513589Y6336800D01*
X3594311Y6336800D01*
X3650812Y6316235D01*
X3680876Y6264164D01*
X3681288Y6261604D01*
X3687413Y6219565D01*
X3687413Y6219564D01*
X3687414Y6219562D01*
X3687415Y6219560D01*
X3742861Y6106143D01*
X3742863Y6106141D01*
X3742864Y6106139D01*
X3832139Y6016864D01*
X3832140Y6016864D01*
X3832142Y6016862D01*
X3909298Y5979143D01*
X3945565Y5961413D01*
X4019096Y5950700D01*
X4019100Y5950700D01*
X4490899Y5950700D01*
X4490904Y5950700D01*
X4564435Y5961413D01*
X4677861Y6016864D01*
X4767136Y6106139D01*
X4822587Y6219565D01*
X4833300Y6293096D01*
X4833300Y6914904D01*
X4822587Y6988435D01*
X4785579Y7064136D01*
X4767138Y7101858D01*
X4767136Y7101860D01*
X4767136Y7101861D01*
X4677861Y7191136D01*
X4677859Y7191137D01*
X4677857Y7191139D01*
X4564440Y7246585D01*
X4564438Y7246586D01*
X4564436Y7246587D01*
X4564435Y7246587D01*
X4490904Y7257300D01*
X4019096Y7257300D01*
X3945565Y7246587D01*
X3945563Y7246587D01*
X3945561Y7246586D01*
X3945559Y7246585D01*
X3832142Y7191139D01*
X3742861Y7101858D01*
X3687415Y6988441D01*
X3687414Y6988439D01*
X3687413Y6988437D01*
X3687413Y6988435D01*
X3685436Y6974861D01*
X3681293Y6946426D01*
X3652796Y6893481D01*
X3596934Y6871239D01*
X3594311Y6871200D01*
X3513588Y6871200D01*
X3457087Y6891765D01*
X3427023Y6943836D01*
X3426770Y6945351D01*
X3422097Y6974858D01*
X3420574Y6984475D01*
X3380193Y7063727D01*
X3363476Y7096536D01*
X3363475Y7096537D01*
X3363474Y7096539D01*
X3274539Y7185474D01*
X3274536Y7185476D01*
X3274535Y7185477D01*
X3162475Y7242575D01*
X3091862Y7253758D01*
X3069497Y7257300D01*
X3069495Y7257300D01*
X2569505Y7257300D01*
X2569503Y7257299D01*
X2476527Y7242575D01*
X2476521Y7242573D01*
X2364464Y7185477D01*
X2275523Y7096536D01*
X2218425Y6984476D01*
X2218425Y6984475D01*
X2205713Y6904209D01*
X2203743Y6891765D01*
X2203700Y6891496D01*
X1859794Y6891496D01*
X1845093Y6984317D01*
X1788066Y7096240D01*
X1699239Y7185067D01*
X1587316Y7242094D01*
X1587317Y7242094D01*
X1494459Y7256800D01*
X1333401Y7256800D01*
X1333400Y7256799D01*
X1155600Y7256799D01*
X1155599Y7256800D01*
X994541Y7256800D01*
X901683Y7242094D01*
X789760Y7185067D01*
X700933Y7096240D01*
X643906Y6984317D01*
X629200Y6891459D01*
X254500Y6891459D01*
X254500Y7874004D01*
X5124987Y7874004D01*
X5124987Y7873997D01*
X5143740Y7743561D01*
X5143741Y7743556D01*
X5143742Y7743554D01*
X5165976Y7694868D01*
X5198489Y7623675D01*
X5215025Y7604592D01*
X5284791Y7524078D01*
X5284793Y7524077D01*
X5284794Y7524076D01*
X5395653Y7452831D01*
X5395654Y7452831D01*
X5395657Y7452829D01*
X5481782Y7427541D01*
X5522101Y7415701D01*
X5522104Y7415701D01*
X5522106Y7415700D01*
X5549900Y7415700D01*
X5606401Y7395135D01*
X5636465Y7343064D01*
X5637800Y7327800D01*
X5637800Y7322105D01*
X5617235Y7265604D01*
X5588506Y7243137D01*
X5482142Y7191139D01*
X5392861Y7101858D01*
X5337415Y6988441D01*
X5337414Y6988439D01*
X5337413Y6988437D01*
X5337413Y6988435D01*
X5326700Y6914904D01*
X5326700Y6293096D01*
X5337413Y6219565D01*
X5337413Y6219564D01*
X5337414Y6219562D01*
X5337415Y6219560D01*
X5392861Y6106143D01*
X5392863Y6106141D01*
X5392864Y6106139D01*
X5482139Y6016864D01*
X5482140Y6016864D01*
X5482142Y6016862D01*
X5559298Y5979143D01*
X5595565Y5961413D01*
X5669096Y5950700D01*
X5669100Y5950700D01*
X6140899Y5950700D01*
X6140904Y5950700D01*
X6214435Y5961413D01*
X6327861Y6016864D01*
X6417136Y6106139D01*
X6472587Y6219565D01*
X6483300Y6293096D01*
X6483300Y6914904D01*
X6472587Y6988435D01*
X6435579Y7064136D01*
X6417138Y7101858D01*
X6417136Y7101860D01*
X6417136Y7101861D01*
X6327861Y7191136D01*
X6327859Y7191137D01*
X6327857Y7191139D01*
X6221494Y7243137D01*
X6179766Y7286427D01*
X6172200Y7322105D01*
X6172200Y7610148D01*
X6172200Y7610149D01*
X6131521Y7708357D01*
X6131519Y7708359D01*
X6071423Y7768456D01*
X6046012Y7822950D01*
X6046573Y7843120D01*
X6051013Y7873999D01*
X6051013Y7874004D01*
X6032259Y8004440D01*
X6032258Y8004441D01*
X6032258Y8004446D01*
X5977511Y8124324D01*
X5951644Y8154176D01*
X5930186Y8210342D01*
X5935528Y8225779D01*
X5882589Y8230411D01*
X5872215Y8236129D01*
X5780346Y8295170D01*
X5780343Y8295171D01*
X5755053Y8302597D01*
X5653898Y8332300D01*
X5653894Y8332300D01*
X5522106Y8332300D01*
X5522101Y8332300D01*
X5395657Y8295171D01*
X5395653Y8295170D01*
X5284794Y8223925D01*
X5284789Y8223920D01*
X5198489Y8124326D01*
X5143742Y8004446D01*
X5143740Y8004440D01*
X5124987Y7874004D01*
X254500Y7874004D01*
X254500Y10117560D01*
X431700Y10117560D01*
X431700Y8482437D01*
X431701Y8482435D01*
X442043Y8430435D01*
X442043Y8430434D01*
X442044Y8430432D01*
X442045Y8430431D01*
X481453Y8371453D01*
X540431Y8332045D01*
X592439Y8321700D01*
X4027560Y8321701D01*
X4027563Y8321701D01*
X4027565Y8321702D01*
X4079565Y8332044D01*
X4079566Y8332044D01*
X4079566Y8332045D01*
X4079569Y8332045D01*
X4138547Y8371453D01*
X4177955Y8430431D01*
X4188300Y8482439D01*
X4188299Y9652004D01*
X4616987Y9652004D01*
X4616987Y9651997D01*
X4635740Y9521561D01*
X4635742Y9521555D01*
X4690489Y9401675D01*
X4714963Y9373431D01*
X4776791Y9302078D01*
X4776793Y9302077D01*
X4776794Y9302076D01*
X4887653Y9230831D01*
X4887654Y9230831D01*
X4887657Y9230829D01*
X4957099Y9210439D01*
X5014101Y9193701D01*
X5014104Y9193701D01*
X5014106Y9193700D01*
X5014107Y9193700D01*
X5124012Y9193700D01*
X5180513Y9173135D01*
X5186167Y9167955D01*
X5981892Y8372230D01*
X6007303Y8317736D01*
X6002003Y8297958D01*
X6060811Y8288548D01*
X6080230Y8273892D01*
X7139479Y7214643D01*
X7139478Y7214643D01*
X7214641Y7139481D01*
X7214643Y7139479D01*
X7312851Y7098800D01*
X7726640Y7098800D01*
X7783141Y7078235D01*
X7813205Y7026164D01*
X7805609Y6972295D01*
X7751414Y6861439D01*
X7751413Y6861437D01*
X7751413Y6861435D01*
X7740700Y6787904D01*
X7740700Y6166096D01*
X7751413Y6092565D01*
X7751413Y6092564D01*
X7751414Y6092562D01*
X7751415Y6092560D01*
X7806861Y5979143D01*
X7806863Y5979141D01*
X7806864Y5979139D01*
X7896139Y5889864D01*
X7896140Y5889864D01*
X7896142Y5889862D01*
X7976180Y5850734D01*
X8009565Y5834413D01*
X8083096Y5823700D01*
X8083100Y5823700D01*
X8554899Y5823700D01*
X8554904Y5823700D01*
X8628435Y5834413D01*
X8741861Y5889864D01*
X8831136Y5979139D01*
X8886587Y6092565D01*
X8897300Y6166096D01*
X8897300Y6787904D01*
X8886587Y6861435D01*
X8871909Y6891459D01*
X8832391Y6972295D01*
X8826051Y7032087D01*
X8859628Y7081965D01*
X8911360Y7098800D01*
X9376640Y7098800D01*
X9433141Y7078235D01*
X9463205Y7026164D01*
X9455609Y6972295D01*
X9401414Y6861439D01*
X9401413Y6861437D01*
X9401413Y6861435D01*
X9390700Y6787904D01*
X9390700Y6166096D01*
X9401413Y6092565D01*
X9401413Y6092564D01*
X9401414Y6092562D01*
X9401415Y6092560D01*
X9456861Y5979143D01*
X9456863Y5979141D01*
X9456864Y5979139D01*
X9546139Y5889864D01*
X9652506Y5837864D01*
X9694233Y5794575D01*
X9701800Y5758896D01*
X9701800Y5578149D01*
X9701800Y5471851D01*
X9742479Y5373643D01*
X9951055Y5165067D01*
X9976466Y5110574D01*
X9976800Y5102913D01*
X9976800Y4730200D01*
X9956235Y4673699D01*
X9904164Y4643635D01*
X9888901Y4642300D01*
X9776436Y4642300D01*
X9776434Y4642299D01*
X9724434Y4631957D01*
X9724433Y4631957D01*
X9665454Y4592548D01*
X9665452Y4592546D01*
X9656735Y4579500D01*
X9626045Y4533569D01*
X9616329Y4484720D01*
X9615700Y4481560D01*
X9615700Y3646437D01*
X9615701Y3646435D01*
X9626043Y3594435D01*
X9626043Y3594434D01*
X9626044Y3594432D01*
X9626045Y3594431D01*
X9665453Y3535453D01*
X9724431Y3496045D01*
X9776439Y3485700D01*
X10711560Y3485701D01*
X10711563Y3485701D01*
X10711565Y3485702D01*
X10763565Y3496044D01*
X10763566Y3496044D01*
X10763566Y3496045D01*
X10763569Y3496045D01*
X10822547Y3535453D01*
X10861955Y3594431D01*
X10872300Y3646439D01*
X10872300Y4006534D01*
X11347200Y4006534D01*
X11347200Y3631401D01*
X11347201Y3631400D01*
X12611099Y3631400D01*
X12611100Y3631401D01*
X12611100Y4382799D01*
X12788900Y4382799D01*
X12788900Y3631401D01*
X12788901Y3631400D01*
X14052799Y3631400D01*
X14052800Y3631401D01*
X14052800Y4006531D01*
X14052799Y4006534D01*
X14050090Y4035430D01*
X14050089Y4035435D01*
X14007498Y4157154D01*
X14007497Y4157155D01*
X13930919Y4260915D01*
X13930914Y4260920D01*
X13827154Y4337498D01*
X13827153Y4337499D01*
X13705434Y4380090D01*
X13705429Y4380091D01*
X13676533Y4382800D01*
X12788901Y4382800D01*
X12788900Y4382799D01*
X12611100Y4382799D01*
X12611099Y4382800D01*
X11723466Y4382800D01*
X11694570Y4380091D01*
X11694565Y4380090D01*
X11572846Y4337499D01*
X11572845Y4337498D01*
X11469085Y4260920D01*
X11469080Y4260915D01*
X11392502Y4157155D01*
X11392501Y4157154D01*
X11349910Y4035435D01*
X11349909Y4035430D01*
X11347200Y4006534D01*
X10872300Y4006534D01*
X10872299Y4481560D01*
X10872299Y4481561D01*
X10872299Y4481564D01*
X10872298Y4481566D01*
X10861956Y4533566D01*
X10861956Y4533567D01*
X10854697Y4544431D01*
X10822547Y4592547D01*
X10763569Y4631955D01*
X10711561Y4642300D01*
X10711559Y4642300D01*
X10599100Y4642300D01*
X10542599Y4662865D01*
X10512535Y4714936D01*
X10511200Y4730200D01*
X10511200Y5303148D01*
X10511200Y5303149D01*
X10470521Y5401357D01*
X10434111Y5437767D01*
X10395357Y5476522D01*
X10395357Y5476521D01*
X10261945Y5609933D01*
X10236534Y5664427D01*
X10236200Y5672088D01*
X10236200Y5758896D01*
X10256765Y5815397D01*
X10285493Y5837864D01*
X10391861Y5889864D01*
X10481136Y5979139D01*
X10536587Y6092565D01*
X10547300Y6166096D01*
X10547300Y6787904D01*
X10536587Y6861435D01*
X10521909Y6891459D01*
X10482391Y6972295D01*
X10476051Y7032087D01*
X10509628Y7081965D01*
X10561360Y7098800D01*
X11028912Y7098800D01*
X11085413Y7078235D01*
X11091067Y7073055D01*
X11320955Y6843167D01*
X11346366Y6788673D01*
X11346700Y6781012D01*
X11346700Y6153411D01*
X11346701Y6153400D01*
X11349412Y6124482D01*
X11349413Y6124475D01*
X11349414Y6124472D01*
X11349415Y6124469D01*
X11392054Y6002610D01*
X11392055Y6002609D01*
X11468722Y5898728D01*
X11468727Y5898723D01*
X11572608Y5822056D01*
X11572609Y5822055D01*
X11694471Y5779414D01*
X11694473Y5779414D01*
X11694475Y5779413D01*
X11723407Y5776700D01*
X13676592Y5776701D01*
X13705525Y5779413D01*
X13808362Y5815397D01*
X13827390Y5822055D01*
X13827390Y5822056D01*
X13827392Y5822056D01*
X13931275Y5898725D01*
X14007944Y6002608D01*
X14012933Y6016864D01*
X14050586Y6124472D01*
X14050587Y6124477D01*
X14053300Y6153407D01*
X14053299Y7081592D01*
X14050587Y7110525D01*
X14022064Y7192040D01*
X14007945Y7232391D01*
X14007944Y7232392D01*
X13931277Y7336273D01*
X13931272Y7336278D01*
X13827391Y7412945D01*
X13827392Y7412945D01*
X13765383Y7434643D01*
X13718845Y7472715D01*
X13707667Y7531794D01*
X13737080Y7584236D01*
X13781739Y7604590D01*
X13835435Y7612413D01*
X13948861Y7667864D01*
X14038136Y7757139D01*
X14093587Y7870565D01*
X14104300Y7944096D01*
X14104300Y8565904D01*
X14597700Y8565904D01*
X14597700Y7944096D01*
X14608413Y7870565D01*
X14608413Y7870564D01*
X14608414Y7870562D01*
X14608415Y7870560D01*
X14663861Y7757143D01*
X14663863Y7757141D01*
X14663864Y7757139D01*
X14753139Y7667864D01*
X14753140Y7667864D01*
X14753142Y7667862D01*
X14820375Y7634994D01*
X14866565Y7612413D01*
X14940096Y7601700D01*
X14940100Y7601700D01*
X15411899Y7601700D01*
X15411904Y7601700D01*
X15485435Y7612413D01*
X15598861Y7667864D01*
X15688136Y7757139D01*
X15732691Y7848279D01*
X15775981Y7890006D01*
X15835966Y7894146D01*
X15859179Y7883621D01*
X15936657Y7833829D01*
X16012702Y7811500D01*
X16063101Y7796701D01*
X16063104Y7796701D01*
X16063106Y7796700D01*
X16063107Y7796700D01*
X16194893Y7796700D01*
X16194894Y7796700D01*
X16194896Y7796701D01*
X16194898Y7796701D01*
X16209927Y7801115D01*
X16321343Y7833829D01*
X16432209Y7905078D01*
X16518511Y8004676D01*
X16573258Y8124554D01*
X16579529Y8168171D01*
X16592013Y8254997D01*
X16592013Y8255004D01*
X16573259Y8385440D01*
X16573258Y8385441D01*
X16573258Y8385446D01*
X16518511Y8505324D01*
X16518510Y8505325D01*
X16518510Y8505326D01*
X16466018Y8565904D01*
X16432209Y8604922D01*
X16432206Y8604924D01*
X16432205Y8604925D01*
X16321346Y8676170D01*
X16321343Y8676171D01*
X16296053Y8683597D01*
X16194898Y8713300D01*
X16194894Y8713300D01*
X16063106Y8713300D01*
X16063101Y8713300D01*
X15936657Y8676171D01*
X15936652Y8676169D01*
X15859182Y8626382D01*
X15800532Y8613135D01*
X15747089Y8640687D01*
X15732691Y8661723D01*
X15688137Y8752859D01*
X15688136Y8752860D01*
X15688136Y8752861D01*
X15598861Y8842136D01*
X15598859Y8842137D01*
X15598857Y8842139D01*
X15485440Y8897585D01*
X15485438Y8897586D01*
X15485436Y8897587D01*
X15485435Y8897587D01*
X15411904Y8908300D01*
X14940096Y8908300D01*
X14866565Y8897587D01*
X14866563Y8897587D01*
X14866561Y8897586D01*
X14866559Y8897585D01*
X14753142Y8842139D01*
X14663861Y8752858D01*
X14608415Y8639441D01*
X14608414Y8639439D01*
X14608413Y8639437D01*
X14608413Y8639435D01*
X14597700Y8565904D01*
X14104300Y8565904D01*
X14093587Y8639435D01*
X14075628Y8676171D01*
X14038138Y8752858D01*
X14038136Y8752860D01*
X14038136Y8752861D01*
X13948861Y8842136D01*
X13948859Y8842137D01*
X13948857Y8842139D01*
X13835440Y8897585D01*
X13835438Y8897586D01*
X13835436Y8897587D01*
X13835435Y8897587D01*
X13761904Y8908300D01*
X13761900Y8908300D01*
X13349988Y8908300D01*
X13293487Y8928865D01*
X13287833Y8934045D01*
X12954313Y9267565D01*
X12928902Y9322059D01*
X12944465Y9380137D01*
X12950031Y9387275D01*
X12962511Y9401676D01*
X13017258Y9521554D01*
X13020838Y9546455D01*
X13036013Y9651997D01*
X13036013Y9652004D01*
X13017259Y9782440D01*
X13017258Y9782441D01*
X13017258Y9782446D01*
X12962511Y9902324D01*
X12962510Y9902325D01*
X12962510Y9902326D01*
X12919360Y9952123D01*
X12876209Y10001922D01*
X12876206Y10001924D01*
X12876205Y10001925D01*
X12862769Y10010560D01*
X13321700Y10010560D01*
X13321700Y9425437D01*
X13321701Y9425435D01*
X13332043Y9373435D01*
X13332043Y9373434D01*
X13332044Y9373432D01*
X13332045Y9373431D01*
X13371453Y9314453D01*
X13430431Y9275045D01*
X13482439Y9264700D01*
X13811746Y9264701D01*
X13834500Y9261705D01*
X13839743Y9260300D01*
X16636257Y9260300D01*
X16636258Y9260300D01*
X16752666Y9291492D01*
X16857035Y9351749D01*
X17689841Y10184555D01*
X17744335Y10209966D01*
X17751996Y10210300D01*
X17829743Y10210300D01*
X18465645Y10210300D01*
X18474032Y10209700D01*
X18476106Y10209700D01*
X18607895Y10209700D01*
X18607895Y10209701D01*
X18689140Y10233557D01*
X18691106Y10234108D01*
X18718662Y10241491D01*
X18718663Y10241492D01*
X18718665Y10241492D01*
X18718666Y10241493D01*
X18720383Y10242204D01*
X18729260Y10245337D01*
X18734343Y10246829D01*
X18789488Y10282270D01*
X18793016Y10284420D01*
X18823034Y10301749D01*
X18823038Y10301754D01*
X18827451Y10305140D01*
X18836797Y10312673D01*
X18845209Y10318078D01*
X18881110Y10359513D01*
X18885360Y10364077D01*
X18908251Y10386966D01*
X18910742Y10391283D01*
X18920434Y10404894D01*
X18931511Y10417676D01*
X18950713Y10459725D01*
X18954519Y10467107D01*
X18968508Y10491335D01*
X18971375Y10502039D01*
X18976322Y10515799D01*
X18986258Y10537554D01*
X18991726Y10575592D01*
X18993824Y10585816D01*
X18999700Y10607743D01*
X18999700Y10624763D01*
X19000595Y10637273D01*
X19005013Y10667999D01*
X19005013Y10668002D01*
X19000595Y10698730D01*
X18999700Y10711239D01*
X18999700Y10728258D01*
X18993824Y10750187D01*
X18991725Y10760416D01*
X18986258Y10798446D01*
X18976320Y10820208D01*
X18971376Y10833961D01*
X18968508Y10844665D01*
X18954530Y10868876D01*
X18950704Y10876296D01*
X18941118Y10897288D01*
X18936355Y10957226D01*
X18971233Y11006203D01*
X19021076Y11021701D01*
X20207564Y11021701D01*
X20207565Y11021702D01*
X20259565Y11032044D01*
X20259566Y11032044D01*
X20259566Y11032045D01*
X20259569Y11032045D01*
X20318547Y11071453D01*
X20357955Y11130431D01*
X20368300Y11182439D01*
X20368299Y12217560D01*
X20368299Y12217561D01*
X20368299Y12217564D01*
X20368298Y12217566D01*
X20357956Y12269566D01*
X20357956Y12269567D01*
X20318786Y12328189D01*
X20318547Y12328547D01*
X20259569Y12367955D01*
X20207561Y12378300D01*
X20207559Y12378300D01*
X15572436Y12378300D01*
X15572434Y12378299D01*
X15520434Y12367957D01*
X15520433Y12367957D01*
X15461454Y12328548D01*
X15461452Y12328546D01*
X15422045Y12269569D01*
X15411700Y12217560D01*
X15411700Y11182437D01*
X15411701Y11182435D01*
X15422043Y11130435D01*
X15422043Y11130434D01*
X15422044Y11130432D01*
X15422045Y11130431D01*
X15461453Y11071453D01*
X15520431Y11032045D01*
X15572439Y11021700D01*
X17020204Y11021701D01*
X17076705Y11001136D01*
X17106769Y10949065D01*
X17096328Y10889851D01*
X17082359Y10871646D01*
X16412159Y10201445D01*
X16357665Y10176034D01*
X16350004Y10175700D01*
X14533092Y10175700D01*
X14476591Y10196265D01*
X14446527Y10248336D01*
X14456968Y10307550D01*
X14460007Y10312437D01*
X14467484Y10323627D01*
X14477800Y10375488D01*
X14477800Y10579099D01*
X14477799Y10579100D01*
X13322202Y10579100D01*
X13322201Y10579099D01*
X13322201Y10375492D01*
X13332516Y10323625D01*
X13371811Y10264818D01*
X13377936Y10258693D01*
X13376299Y10257057D01*
X13405011Y10217907D01*
X13401084Y10157908D01*
X13376564Y10128679D01*
X13377575Y10127668D01*
X13371452Y10121546D01*
X13332045Y10062569D01*
X13321700Y10010560D01*
X12862769Y10010560D01*
X12765346Y10073170D01*
X12765342Y10073172D01*
X12682945Y10097366D01*
X12634527Y10133016D01*
X12620352Y10191448D01*
X12647053Y10245322D01*
X12663755Y10257825D01*
X12739835Y10301749D01*
X13066251Y10628165D01*
X13124038Y10728257D01*
X13126508Y10732535D01*
X13149395Y10817950D01*
X13183883Y10867202D01*
X13241961Y10882765D01*
X13296455Y10857354D01*
X13321866Y10802860D01*
X13322200Y10795199D01*
X13322200Y10756901D01*
X13322201Y10756900D01*
X14477798Y10756900D01*
X14477799Y10756901D01*
X14477799Y10960509D01*
X14467483Y11012376D01*
X14428188Y11071183D01*
X14422064Y11077307D01*
X14423699Y11078943D01*
X14394987Y11118098D01*
X14398916Y11178097D01*
X14423437Y11207320D01*
X14422425Y11208332D01*
X14428540Y11214449D01*
X14428547Y11214453D01*
X14467955Y11273431D01*
X14469271Y11280049D01*
X14500463Y11331451D01*
X14555482Y11350800D01*
X14592148Y11350800D01*
X14592149Y11350800D01*
X14690357Y11391479D01*
X15020021Y11721143D01*
X15060700Y11819351D01*
X15060700Y11925649D01*
X15060700Y12090440D01*
X15081265Y12146941D01*
X15092503Y12156833D01*
X15091958Y12157462D01*
X15096704Y12161576D01*
X15096709Y12161578D01*
X15183011Y12261176D01*
X15237758Y12381054D01*
X15245808Y12437046D01*
X15256513Y12511497D01*
X15256513Y12511504D01*
X15237759Y12641940D01*
X15237758Y12641941D01*
X15237758Y12641946D01*
X15183011Y12761824D01*
X15183010Y12761825D01*
X15183010Y12761826D01*
X15129402Y12823692D01*
X15096709Y12861422D01*
X15096706Y12861424D01*
X15096705Y12861425D01*
X14985846Y12932670D01*
X14985843Y12932671D01*
X14960553Y12940097D01*
X14859398Y12969800D01*
X14859394Y12969800D01*
X14727606Y12969800D01*
X14727601Y12969800D01*
X14601157Y12932671D01*
X14601153Y12932670D01*
X14490294Y12861425D01*
X14490292Y12861423D01*
X14432629Y12794877D01*
X14380086Y12765644D01*
X14321046Y12777024D01*
X14283133Y12823692D01*
X14278299Y12852436D01*
X14278299Y13611099D01*
X15412201Y13611099D01*
X15412201Y13182492D01*
X15422516Y13130625D01*
X15461811Y13071818D01*
X15461817Y13071812D01*
X15520624Y13032517D01*
X15572487Y13022201D01*
X17801098Y13022201D01*
X17801100Y13022202D01*
X17801100Y13611099D01*
X17978900Y13611099D01*
X17978900Y13022202D01*
X17978901Y13022201D01*
X20207509Y13022201D01*
X20259375Y13032517D01*
X20318182Y13071812D01*
X20318188Y13071818D01*
X20357483Y13130625D01*
X20367800Y13182488D01*
X20367800Y13611099D01*
X20367799Y13611100D01*
X17978901Y13611100D01*
X17978900Y13611099D01*
X17801100Y13611099D01*
X17801099Y13611100D01*
X15412202Y13611100D01*
X15412201Y13611099D01*
X14278299Y13611099D01*
X14278299Y13622560D01*
X14278299Y13622561D01*
X14278299Y13622564D01*
X14278298Y13622566D01*
X14267956Y13674566D01*
X14267956Y13674567D01*
X14264923Y13679106D01*
X14228547Y13733547D01*
X14169569Y13772955D01*
X14117561Y13783300D01*
X14117559Y13783300D01*
X11282436Y13783300D01*
X11282434Y13783299D01*
X11230434Y13772957D01*
X11230433Y13772957D01*
X11171454Y13733548D01*
X11171452Y13733546D01*
X11132045Y13674569D01*
X11121700Y13622560D01*
X11121700Y12587437D01*
X11121701Y12587435D01*
X11132043Y12535435D01*
X11132043Y12535434D01*
X11132044Y12535432D01*
X11132045Y12535431D01*
X11171453Y12476453D01*
X11230431Y12437045D01*
X11282439Y12426700D01*
X12154400Y12426701D01*
X12210901Y12406136D01*
X12240965Y12354065D01*
X12242300Y12338801D01*
X12242300Y11978544D01*
X12221735Y11922043D01*
X12169664Y11891979D01*
X12110450Y11902420D01*
X12071801Y11948480D01*
X12068189Y11961396D01*
X12067956Y11962567D01*
X12066217Y11965170D01*
X12028547Y12021547D01*
X11969569Y12060955D01*
X11917561Y12071300D01*
X11917559Y12071300D01*
X11082436Y12071300D01*
X11082434Y12071299D01*
X11030434Y12060957D01*
X11030433Y12060957D01*
X10971454Y12021548D01*
X10971452Y12021546D01*
X10932045Y11962569D01*
X10921699Y11910557D01*
X10921276Y11906259D01*
X10919632Y11906421D01*
X10901135Y11855599D01*
X10849064Y11825535D01*
X10833800Y11824200D01*
X10801120Y11824200D01*
X10753598Y11838154D01*
X10733344Y11851171D01*
X10733341Y11851172D01*
X10606898Y11888300D01*
X10606894Y11888300D01*
X10475106Y11888300D01*
X10475101Y11888300D01*
X10348657Y11851171D01*
X10348653Y11851170D01*
X10237794Y11779925D01*
X10237789Y11779920D01*
X10151488Y11680324D01*
X10151487Y11680322D01*
X10131059Y11635591D01*
X10088882Y11592739D01*
X10029027Y11587023D01*
X9988948Y11609951D01*
X9987799Y11611100D01*
X7598901Y11611100D01*
X7598900Y11611099D01*
X7598900Y11022202D01*
X7598901Y11022201D01*
X9827509Y11022201D01*
X9879375Y11032517D01*
X9938182Y11071812D01*
X9938188Y11071818D01*
X9977484Y11130626D01*
X9983974Y11163256D01*
X10015165Y11214660D01*
X10072101Y11233988D01*
X10128140Y11212197D01*
X10150138Y11182631D01*
X10151485Y11179681D01*
X10151488Y11179677D01*
X10151489Y11179676D01*
X10237791Y11080078D01*
X10237793Y11080077D01*
X10237794Y11080076D01*
X10351433Y11007045D01*
X10387847Y10959198D01*
X10384986Y10899139D01*
X10366066Y10870944D01*
X9881643Y10386521D01*
X9881642Y10386522D01*
X9806480Y10311359D01*
X9806478Y10311357D01*
X9765800Y10213149D01*
X9765800Y9217852D01*
X9806478Y9119644D01*
X9806480Y9119642D01*
X9904059Y9022062D01*
X9929470Y8967569D01*
X9913907Y8909490D01*
X9880510Y8880940D01*
X9801142Y8842139D01*
X9711861Y8752858D01*
X9656415Y8639441D01*
X9656414Y8639439D01*
X9656413Y8639437D01*
X9656413Y8639435D01*
X9645700Y8565904D01*
X9645700Y7944096D01*
X9656413Y7870565D01*
X9656413Y7870564D01*
X9656414Y7870562D01*
X9710609Y7759705D01*
X9716949Y7699913D01*
X9683372Y7650035D01*
X9631640Y7633200D01*
X7513088Y7633200D01*
X7456587Y7653765D01*
X7450933Y7658945D01*
X5563423Y9546455D01*
X5538012Y9600949D01*
X5538573Y9621120D01*
X5543013Y9651999D01*
X5543013Y9652004D01*
X5524259Y9782440D01*
X5524258Y9782441D01*
X5524258Y9782446D01*
X5469511Y9902324D01*
X5469510Y9902325D01*
X5469510Y9902326D01*
X5426360Y9952123D01*
X5383209Y10001922D01*
X5383206Y10001924D01*
X5383205Y10001925D01*
X5272346Y10073170D01*
X5272343Y10073171D01*
X5247053Y10080597D01*
X5145898Y10110300D01*
X5145894Y10110300D01*
X5014106Y10110300D01*
X5014101Y10110300D01*
X4887657Y10073171D01*
X4887653Y10073170D01*
X4776794Y10001925D01*
X4776789Y10001920D01*
X4690489Y9902326D01*
X4635742Y9782446D01*
X4635740Y9782440D01*
X4616987Y9652004D01*
X4188299Y9652004D01*
X4188299Y10117560D01*
X4188299Y10117561D01*
X4188299Y10117564D01*
X4188298Y10117566D01*
X4177956Y10169566D01*
X4177956Y10169567D01*
X4173635Y10176034D01*
X4138547Y10228547D01*
X4079569Y10267955D01*
X4027561Y10278300D01*
X4027559Y10278300D01*
X592436Y10278300D01*
X592434Y10278299D01*
X540434Y10267957D01*
X540433Y10267957D01*
X481454Y10228548D01*
X481452Y10228546D01*
X468860Y10209701D01*
X442045Y10169569D01*
X433711Y10127668D01*
X431700Y10117560D01*
X254500Y10117560D01*
X254500Y11611099D01*
X5032201Y11611099D01*
X5032201Y11182492D01*
X5042516Y11130625D01*
X5081811Y11071818D01*
X5081817Y11071812D01*
X5140624Y11032517D01*
X5192487Y11022201D01*
X7421098Y11022201D01*
X7421100Y11022202D01*
X7421100Y11611099D01*
X7421099Y11611100D01*
X5032202Y11611100D01*
X5032201Y11611099D01*
X254500Y11611099D01*
X254500Y12217513D01*
X5032200Y12217513D01*
X5032200Y11788901D01*
X5032201Y11788900D01*
X7421099Y11788900D01*
X7421100Y11788901D01*
X7421100Y12377799D01*
X7598900Y12377799D01*
X7598900Y11788901D01*
X7598901Y11788900D01*
X9987798Y11788900D01*
X9987799Y11788901D01*
X9987799Y12217509D01*
X9977483Y12269376D01*
X9938188Y12328183D01*
X9938182Y12328189D01*
X9879375Y12367484D01*
X9827513Y12377800D01*
X7598901Y12377800D01*
X7598900Y12377799D01*
X7421100Y12377799D01*
X7421099Y12377800D01*
X5192491Y12377800D01*
X5140624Y12367484D01*
X5081817Y12328189D01*
X5081811Y12328183D01*
X5042516Y12269376D01*
X5032200Y12217513D01*
X254500Y12217513D01*
X254500Y16917560D01*
X431700Y16917560D01*
X431700Y15282437D01*
X431701Y15282435D01*
X442043Y15230435D01*
X442043Y15230434D01*
X442044Y15230432D01*
X442045Y15230431D01*
X481453Y15171453D01*
X540431Y15132045D01*
X592439Y15121700D01*
X4027560Y15121701D01*
X4027563Y15121701D01*
X4027565Y15121702D01*
X4079565Y15132044D01*
X4079566Y15132044D01*
X4079566Y15132045D01*
X4079569Y15132045D01*
X4138547Y15171453D01*
X4177955Y15230431D01*
X4188300Y15282439D01*
X4188299Y16917560D01*
X4188299Y16917561D01*
X4188299Y16917564D01*
X4188298Y16917566D01*
X4177956Y16969566D01*
X4177956Y16969567D01*
X4154414Y17004800D01*
X4138547Y17028547D01*
X4079569Y17067955D01*
X4027561Y17078300D01*
X4027559Y17078300D01*
X592436Y17078300D01*
X592434Y17078299D01*
X540434Y17067957D01*
X540433Y17067957D01*
X481454Y17028548D01*
X481452Y17028546D01*
X442045Y16969569D01*
X431700Y16917560D01*
X254500Y16917560D01*
X254500Y18974560D01*
X642700Y18974560D01*
X642700Y18109437D01*
X642701Y18109435D01*
X653043Y18057435D01*
X653043Y18057434D01*
X653044Y18057432D01*
X653045Y18057431D01*
X692453Y17998453D01*
X751431Y17959045D01*
X803439Y17948700D01*
X1191511Y17948701D01*
X1248012Y17928136D01*
X1253666Y17922956D01*
X1623143Y17553479D01*
X1721351Y17512800D01*
X1827649Y17512800D01*
X1870970Y17512800D01*
X1927471Y17492235D01*
X1937400Y17482462D01*
X1982791Y17430078D01*
X1982793Y17430077D01*
X1982794Y17430076D01*
X2093653Y17358831D01*
X2093654Y17358831D01*
X2093657Y17358829D01*
X2179782Y17333541D01*
X2220101Y17321701D01*
X2220104Y17321701D01*
X2220106Y17321700D01*
X2220107Y17321700D01*
X2351893Y17321700D01*
X2351894Y17321700D01*
X2351896Y17321701D01*
X2351898Y17321701D01*
X2366927Y17326115D01*
X2478343Y17358829D01*
X2589209Y17430078D01*
X2675511Y17529676D01*
X2730258Y17649554D01*
X2734429Y17678561D01*
X2749013Y17779997D01*
X2749013Y17780004D01*
X2730259Y17910440D01*
X2730258Y17910441D01*
X2730258Y17910446D01*
X2675511Y18030324D01*
X2675510Y18030325D01*
X2675510Y18030326D01*
X2609023Y18107055D01*
X2589209Y18129922D01*
X2589206Y18129924D01*
X2589205Y18129925D01*
X2478346Y18201170D01*
X2478343Y18201171D01*
X2453053Y18208597D01*
X2351898Y18238300D01*
X2351894Y18238300D01*
X2220106Y18238300D01*
X2220101Y18238300D01*
X2093657Y18201171D01*
X2093653Y18201170D01*
X1982794Y18129925D01*
X1982790Y18129921D01*
X1960896Y18104655D01*
X1908353Y18075424D01*
X1849313Y18086805D01*
X1832313Y18100065D01*
X1655044Y18277334D01*
X1629633Y18331828D01*
X1629299Y18339489D01*
X1629299Y18974560D01*
X2942700Y18974560D01*
X2942700Y18109437D01*
X2942701Y18109435D01*
X2953043Y18057435D01*
X2953043Y18057434D01*
X2953044Y18057432D01*
X2953045Y18057431D01*
X2992453Y17998453D01*
X3051431Y17959045D01*
X3103439Y17948700D01*
X3768560Y17948701D01*
X3768563Y17948701D01*
X3768565Y17948702D01*
X3820565Y17959044D01*
X3820566Y17959044D01*
X3820566Y17959045D01*
X3820569Y17959045D01*
X3879547Y17998453D01*
X3918955Y18057431D01*
X3929300Y18109439D01*
X3929300Y18186900D01*
X3949865Y18243401D01*
X4001936Y18273465D01*
X4017200Y18274800D01*
X4338801Y18274800D01*
X4395302Y18254235D01*
X4425366Y18202164D01*
X4426701Y18186900D01*
X4426701Y18018262D01*
X4441657Y17923823D01*
X4441657Y17923822D01*
X4441658Y17923820D01*
X4499657Y17809991D01*
X4589991Y17719657D01*
X4703820Y17661658D01*
X4798261Y17646700D01*
X5361738Y17646701D01*
X5456180Y17661658D01*
X5570009Y17719657D01*
X5660343Y17809991D01*
X5718342Y17923820D01*
X5733300Y18018261D01*
X5733299Y18311099D01*
X6038201Y18311099D01*
X6038201Y18232492D01*
X6048516Y18180625D01*
X6087811Y18121818D01*
X6087817Y18121812D01*
X6146624Y18082517D01*
X6198486Y18072201D01*
X6477100Y18072201D01*
X6477100Y18311099D01*
X6654900Y18311099D01*
X6654900Y18072202D01*
X6654901Y18072201D01*
X6933509Y18072201D01*
X6985375Y18082517D01*
X7044182Y18121812D01*
X7044188Y18121818D01*
X7083483Y18180625D01*
X7093800Y18232488D01*
X7093800Y18311099D01*
X7093799Y18311100D01*
X6654901Y18311100D01*
X6654900Y18311099D01*
X6477100Y18311099D01*
X6477099Y18311100D01*
X6038202Y18311100D01*
X6038201Y18311099D01*
X5733299Y18311099D01*
X5733299Y18514013D01*
X5753864Y18570513D01*
X5759044Y18576167D01*
X5848201Y18665324D01*
X5913342Y18730465D01*
X5967835Y18755875D01*
X6025913Y18740312D01*
X6060401Y18691059D01*
X6055160Y18631161D01*
X6048584Y18619477D01*
X6048516Y18619376D01*
X6038200Y18567513D01*
X6038200Y18488901D01*
X6038201Y18488900D01*
X7093798Y18488900D01*
X7093799Y18488901D01*
X7093799Y18534857D01*
X7114364Y18591358D01*
X7166435Y18621422D01*
X7206463Y18619197D01*
X7217471Y18615964D01*
X7300101Y18591701D01*
X7300104Y18591701D01*
X7300106Y18591700D01*
X7300107Y18591700D01*
X7431893Y18591700D01*
X7431894Y18591700D01*
X7431896Y18591701D01*
X7431898Y18591701D01*
X7479059Y18605550D01*
X7525035Y18619049D01*
X7585041Y18615236D01*
X7628558Y18573744D01*
X7637700Y18534710D01*
X7637700Y18232437D01*
X7637701Y18232435D01*
X7648043Y18180435D01*
X7648043Y18180434D01*
X7648044Y18180432D01*
X7648045Y18180431D01*
X7687453Y18121453D01*
X7746431Y18082045D01*
X7782796Y18074812D01*
X7783950Y18074582D01*
X7835353Y18043389D01*
X7854680Y17986453D01*
X7833232Y17930809D01*
X7776488Y17865323D01*
X7721742Y17745446D01*
X7721740Y17745440D01*
X7702987Y17615004D01*
X7702987Y17614997D01*
X7721740Y17484561D01*
X7721741Y17484556D01*
X7721742Y17484554D01*
X7727087Y17472851D01*
X7776489Y17364675D01*
X7781555Y17358829D01*
X7862791Y17265078D01*
X7862793Y17265077D01*
X7862794Y17265076D01*
X7973653Y17193831D01*
X7973654Y17193831D01*
X7973657Y17193829D01*
X8051746Y17170900D01*
X8100101Y17156701D01*
X8100104Y17156701D01*
X8100106Y17156700D01*
X8100107Y17156700D01*
X8231893Y17156700D01*
X8231894Y17156700D01*
X8231896Y17156701D01*
X8231898Y17156701D01*
X8246927Y17161115D01*
X8358343Y17193829D01*
X8469209Y17265078D01*
X8555511Y17364676D01*
X8610258Y17484554D01*
X8616745Y17529675D01*
X8629013Y17614997D01*
X8629013Y17615004D01*
X8610259Y17745440D01*
X8610258Y17745441D01*
X8610258Y17745446D01*
X8555511Y17865324D01*
X8498766Y17930811D01*
X8477309Y17986978D01*
X8496975Y18043798D01*
X8548051Y18074584D01*
X8585569Y18082045D01*
X8633516Y18114083D01*
X8691918Y18128375D01*
X8745845Y18101782D01*
X8763558Y18074635D01*
X8764566Y18072202D01*
X8790477Y18009646D01*
X8790478Y18009645D01*
X8790479Y18009643D01*
X9515643Y17284479D01*
X9613851Y17243800D01*
X9720149Y17243800D01*
X11277807Y17243800D01*
X11326641Y17228987D01*
X11380431Y17193045D01*
X11432439Y17182700D01*
X12127560Y17182701D01*
X12127563Y17182701D01*
X12127565Y17182702D01*
X12179565Y17193044D01*
X12179566Y17193044D01*
X12179566Y17193045D01*
X12179569Y17193045D01*
X12238547Y17232453D01*
X12238550Y17232457D01*
X12239154Y17233059D01*
X12240144Y17233521D01*
X12245745Y17237263D01*
X12246321Y17236401D01*
X12293650Y17258466D01*
X12301304Y17258800D01*
X12344900Y17258800D01*
X12401401Y17238235D01*
X12431465Y17186164D01*
X12432800Y17170900D01*
X12432800Y16871200D01*
X12412235Y16814699D01*
X12360164Y16784635D01*
X12344900Y16783300D01*
X11282436Y16783300D01*
X11282434Y16783299D01*
X11230434Y16772957D01*
X11230433Y16772957D01*
X11171454Y16733548D01*
X11171452Y16733546D01*
X11132044Y16674569D01*
X11123867Y16633453D01*
X11092676Y16582049D01*
X11037656Y16562700D01*
X10837743Y16562700D01*
X10752526Y16539866D01*
X10721337Y16531510D01*
X10616963Y16471250D01*
X10174750Y16029037D01*
X10114492Y15924666D01*
X10083300Y15808258D01*
X10083300Y15084996D01*
X10062735Y15028495D01*
X10057555Y15022841D01*
X9438759Y14404045D01*
X9384265Y14378634D01*
X9376604Y14378300D01*
X8607076Y14378300D01*
X8550575Y14398865D01*
X8520511Y14450936D01*
X8527117Y14502710D01*
X8528885Y14506583D01*
X8536709Y14523715D01*
X8540519Y14531107D01*
X8554508Y14555335D01*
X8557375Y14566039D01*
X8562323Y14579801D01*
X8572258Y14601554D01*
X8577726Y14639592D01*
X8579824Y14649816D01*
X8579825Y14649817D01*
X8585700Y14671743D01*
X8585700Y14688763D01*
X8586595Y14701273D01*
X8591013Y14731999D01*
X8591013Y14732002D01*
X8586595Y14762730D01*
X8585700Y14775239D01*
X8585700Y14792258D01*
X8579824Y14814187D01*
X8577725Y14824416D01*
X8572258Y14862446D01*
X8562320Y14884208D01*
X8557375Y14897964D01*
X8554508Y14908665D01*
X8540530Y14932876D01*
X8536701Y14940303D01*
X8517511Y14982323D01*
X8517511Y14982324D01*
X8506432Y14995110D01*
X8496746Y15008713D01*
X8494251Y15013034D01*
X8471365Y15035920D01*
X8467103Y15040498D01*
X8431209Y15081922D01*
X8431208Y15081923D01*
X8431204Y15081926D01*
X8422794Y15087331D01*
X8413408Y15094894D01*
X8409033Y15098252D01*
X8396869Y15105275D01*
X8379015Y15115583D01*
X8375466Y15117746D01*
X8369313Y15121700D01*
X8320343Y15153171D01*
X8320340Y15153173D01*
X8315265Y15154663D01*
X8306409Y15157786D01*
X8304662Y15158510D01*
X8277138Y15165885D01*
X8275127Y15166449D01*
X8193896Y15190300D01*
X8193894Y15190300D01*
X8062106Y15190300D01*
X8060032Y15190300D01*
X8051645Y15189700D01*
X6680355Y15189700D01*
X6671968Y15190300D01*
X6669894Y15190300D01*
X6538106Y15190300D01*
X6538103Y15190300D01*
X6456882Y15166452D01*
X6454872Y15165888D01*
X6427332Y15158508D01*
X6425594Y15157788D01*
X6416742Y15154665D01*
X6411659Y15153172D01*
X6411651Y15153169D01*
X6356547Y15117757D01*
X6352981Y15115583D01*
X6322968Y15098253D01*
X6318626Y15094922D01*
X6309210Y15087333D01*
X6300791Y15081922D01*
X6300790Y15081921D01*
X6264894Y15040497D01*
X6260622Y15035908D01*
X6237748Y15013034D01*
X6235253Y15008712D01*
X6225566Y14995109D01*
X6214487Y14982324D01*
X6195294Y14940299D01*
X6191466Y14932873D01*
X6177491Y14908665D01*
X6174624Y14897964D01*
X6169678Y14884206D01*
X6159743Y14862451D01*
X6159742Y14862447D01*
X6154274Y14824422D01*
X6152176Y14814191D01*
X6152175Y14814187D01*
X6146301Y14792258D01*
X6146300Y14792256D01*
X6146300Y14775239D01*
X6145405Y14762730D01*
X6140987Y14732002D01*
X6140987Y14731999D01*
X6145405Y14701273D01*
X6146300Y14688763D01*
X6146300Y14671742D01*
X6152174Y14649817D01*
X6154273Y14639584D01*
X6156985Y14620727D01*
X6159742Y14601554D01*
X6159742Y14601553D01*
X6159743Y14601551D01*
X6169675Y14579801D01*
X6174621Y14566044D01*
X6177490Y14555340D01*
X6177492Y14555335D01*
X6191465Y14531132D01*
X6195297Y14523699D01*
X6204880Y14502715D01*
X6209645Y14442777D01*
X6174767Y14393799D01*
X6124923Y14378300D01*
X5192436Y14378300D01*
X5192434Y14378299D01*
X5140434Y14367957D01*
X5140433Y14367957D01*
X5081454Y14328548D01*
X5081452Y14328546D01*
X5042045Y14269569D01*
X5031700Y14217560D01*
X5031700Y13182437D01*
X5031701Y13182435D01*
X5042043Y13130435D01*
X5042043Y13130434D01*
X5042044Y13130432D01*
X5042045Y13130431D01*
X5081453Y13071453D01*
X5140431Y13032045D01*
X5192439Y13021700D01*
X9827560Y13021701D01*
X9827563Y13021701D01*
X9827565Y13021702D01*
X9879565Y13032044D01*
X9879566Y13032044D01*
X9879566Y13032045D01*
X9879569Y13032045D01*
X9938547Y13071453D01*
X9977955Y13130431D01*
X9988300Y13182439D01*
X9988299Y13622606D01*
X10008864Y13679106D01*
X10014033Y13684749D01*
X10546798Y14217513D01*
X15412200Y14217513D01*
X15412200Y13788901D01*
X15412201Y13788900D01*
X17801099Y13788900D01*
X17801100Y13788901D01*
X17801100Y14377799D01*
X17978900Y14377799D01*
X17978900Y13788901D01*
X17978901Y13788900D01*
X20367798Y13788900D01*
X20367799Y13788901D01*
X20367799Y14217509D01*
X20357483Y14269376D01*
X20318188Y14328183D01*
X20318182Y14328189D01*
X20259375Y14367484D01*
X20207513Y14377800D01*
X17978901Y14377800D01*
X17978900Y14377799D01*
X17801100Y14377799D01*
X17801099Y14377800D01*
X15572491Y14377800D01*
X15520624Y14367484D01*
X15461817Y14328189D01*
X15461811Y14328183D01*
X15422516Y14269376D01*
X15412200Y14217513D01*
X10546798Y14217513D01*
X10907251Y14577966D01*
X10967508Y14682335D01*
X10998700Y14798743D01*
X10998700Y14919258D01*
X10998700Y15445230D01*
X11019265Y15501731D01*
X11071336Y15531795D01*
X11130550Y15521354D01*
X11159683Y15494068D01*
X11171453Y15476453D01*
X11230431Y15437045D01*
X11282439Y15426700D01*
X14117560Y15426701D01*
X14117563Y15426701D01*
X14117565Y15426702D01*
X14169565Y15437044D01*
X14169566Y15437044D01*
X14169566Y15437045D01*
X14169569Y15437045D01*
X14228547Y15476453D01*
X14267955Y15535431D01*
X14278300Y15587439D01*
X14278299Y16622560D01*
X14278299Y16622561D01*
X14278299Y16622564D01*
X14278298Y16622566D01*
X14267956Y16674566D01*
X14267956Y16674567D01*
X14267955Y16674569D01*
X14228547Y16733547D01*
X14169569Y16772955D01*
X14117561Y16783300D01*
X14117559Y16783300D01*
X13055100Y16783300D01*
X12998599Y16803865D01*
X12968535Y16855936D01*
X12967200Y16871200D01*
X12967200Y16917560D01*
X21211700Y16917560D01*
X21211700Y15282437D01*
X21211701Y15282435D01*
X21222043Y15230435D01*
X21222043Y15230434D01*
X21222044Y15230432D01*
X21222045Y15230431D01*
X21261453Y15171453D01*
X21320431Y15132045D01*
X21372439Y15121700D01*
X24807560Y15121701D01*
X24807563Y15121701D01*
X24807565Y15121702D01*
X24859565Y15132044D01*
X24859566Y15132044D01*
X24859566Y15132045D01*
X24859569Y15132045D01*
X24918547Y15171453D01*
X24957955Y15230431D01*
X24968300Y15282439D01*
X24968299Y16917560D01*
X24968299Y16917561D01*
X24968299Y16917564D01*
X24968298Y16917566D01*
X24957956Y16969566D01*
X24957956Y16969567D01*
X24934414Y17004800D01*
X24918547Y17028547D01*
X24859569Y17067955D01*
X24807561Y17078300D01*
X24807559Y17078300D01*
X21372436Y17078300D01*
X21372434Y17078299D01*
X21320434Y17067957D01*
X21320433Y17067957D01*
X21261454Y17028548D01*
X21261452Y17028546D01*
X21222045Y16969569D01*
X21211700Y16917560D01*
X12967200Y16917560D01*
X12967200Y17233406D01*
X12987765Y17289907D01*
X13039836Y17319971D01*
X13099050Y17309530D01*
X13128184Y17282243D01*
X13161453Y17232453D01*
X13220431Y17193045D01*
X13272439Y17182700D01*
X13967560Y17182701D01*
X13967563Y17182701D01*
X13967565Y17182702D01*
X14019565Y17193044D01*
X14019566Y17193044D01*
X14019566Y17193045D01*
X14019569Y17193045D01*
X14078547Y17232453D01*
X14078550Y17232457D01*
X14079154Y17233059D01*
X14080144Y17233521D01*
X14085745Y17237263D01*
X14086321Y17236401D01*
X14133650Y17258466D01*
X14141304Y17258800D01*
X14316970Y17258800D01*
X14373471Y17238235D01*
X14383400Y17228462D01*
X14428791Y17176078D01*
X14428793Y17176077D01*
X14428794Y17176076D01*
X14539653Y17104831D01*
X14539654Y17104831D01*
X14539657Y17104829D01*
X14625782Y17079541D01*
X14666101Y17067701D01*
X14666104Y17067701D01*
X14666106Y17067700D01*
X14666107Y17067700D01*
X14797893Y17067700D01*
X14797894Y17067700D01*
X14797896Y17067701D01*
X14797898Y17067701D01*
X14812927Y17072115D01*
X14924343Y17104829D01*
X15035209Y17176078D01*
X15121511Y17275676D01*
X15176258Y17395554D01*
X15176534Y17397478D01*
X15195013Y17525997D01*
X15195013Y17526004D01*
X15176259Y17656440D01*
X15176258Y17656441D01*
X15176258Y17656446D01*
X15124680Y17769385D01*
X15119915Y17829323D01*
X15154792Y17878301D01*
X15204637Y17893800D01*
X16309148Y17893800D01*
X16309149Y17893800D01*
X16407357Y17934479D01*
X16579933Y18107055D01*
X16634427Y18132466D01*
X16642088Y18132800D01*
X16711807Y18132800D01*
X16760641Y18117987D01*
X16814431Y18082045D01*
X16866439Y18071700D01*
X17601560Y18071701D01*
X17601563Y18071701D01*
X17601565Y18071702D01*
X17661754Y18083672D01*
X17721181Y18074524D01*
X17760824Y18029317D01*
X17766800Y17997462D01*
X17766800Y17579149D01*
X17766800Y17472851D01*
X17807479Y17374643D01*
X18061479Y17120643D01*
X18061478Y17120643D01*
X18103822Y17078300D01*
X18136643Y17045479D01*
X18234851Y17004800D01*
X18234852Y17004800D01*
X20119148Y17004800D01*
X20119149Y17004800D01*
X20217357Y17045479D01*
X20546521Y17374643D01*
X20587200Y17472851D01*
X20587200Y17564312D01*
X20607765Y17620813D01*
X20659836Y17650877D01*
X20662352Y17651282D01*
X20704435Y17657413D01*
X20817861Y17712864D01*
X20907136Y17802139D01*
X20962587Y17915565D01*
X20973300Y17989096D01*
X20973300Y18314613D01*
X20993865Y18371114D01*
X21045936Y18401178D01*
X21105150Y18390737D01*
X21123350Y18376772D01*
X21184643Y18315479D01*
X21282851Y18274800D01*
X21374311Y18274800D01*
X21430812Y18254235D01*
X21460876Y18202164D01*
X21461288Y18199604D01*
X21467413Y18157565D01*
X21467413Y18157564D01*
X21467414Y18157562D01*
X21467415Y18157560D01*
X21522861Y18044143D01*
X21522863Y18044141D01*
X21522864Y18044139D01*
X21612139Y17954864D01*
X21612140Y17954864D01*
X21612142Y17954862D01*
X21692526Y17915565D01*
X21725565Y17899413D01*
X21799096Y17888700D01*
X21799100Y17888700D01*
X22274012Y17888700D01*
X22330513Y17868135D01*
X22336167Y17862955D01*
X22372583Y17826539D01*
X22397433Y17776893D01*
X22415740Y17649561D01*
X22415741Y17649556D01*
X22415742Y17649554D01*
X22431524Y17614997D01*
X22470489Y17529675D01*
X22509581Y17484561D01*
X22556791Y17430078D01*
X22556793Y17430077D01*
X22556794Y17430076D01*
X22667653Y17358831D01*
X22667654Y17358831D01*
X22667657Y17358829D01*
X22753782Y17333541D01*
X22794101Y17321701D01*
X22794104Y17321701D01*
X22794106Y17321700D01*
X22794107Y17321700D01*
X22925893Y17321700D01*
X22925894Y17321700D01*
X22925896Y17321701D01*
X22925898Y17321701D01*
X22940927Y17326115D01*
X23052343Y17358829D01*
X23163209Y17430078D01*
X23249511Y17529676D01*
X23304258Y17649554D01*
X23308429Y17678561D01*
X23323013Y17779997D01*
X23323013Y17780004D01*
X23321096Y17793337D01*
X23333411Y17852190D01*
X23380674Y17889357D01*
X23420771Y17892827D01*
X23449096Y17888700D01*
X23449100Y17888700D01*
X23920899Y17888700D01*
X23920904Y17888700D01*
X23994435Y17899413D01*
X24107861Y17954864D01*
X24197136Y18044139D01*
X24252587Y18157565D01*
X24263300Y18231096D01*
X24263300Y18852904D01*
X24252587Y18926435D01*
X24243819Y18944370D01*
X24197138Y19039858D01*
X24197136Y19039860D01*
X24197136Y19039861D01*
X24107861Y19129136D01*
X24107859Y19129137D01*
X24107857Y19129139D01*
X23994440Y19184585D01*
X23994438Y19184586D01*
X23994436Y19184587D01*
X23994435Y19184587D01*
X23920904Y19195300D01*
X23449096Y19195300D01*
X23445988Y19195300D01*
X23389487Y19215865D01*
X23383833Y19221045D01*
X23120113Y19484765D01*
X22820357Y19784521D01*
X22820355Y19784522D01*
X22820356Y19784522D01*
X22762827Y19808351D01*
X22722149Y19825200D01*
X22722148Y19825200D01*
X21610088Y19825200D01*
X21553587Y19845765D01*
X21547933Y19850945D01*
X21461423Y19937455D01*
X21297357Y20101521D01*
X21297355Y20101522D01*
X21297356Y20101522D01*
X21239827Y20125351D01*
X21199149Y20142200D01*
X21199148Y20142200D01*
X21038104Y20142200D01*
X20981603Y20162765D01*
X20959136Y20191494D01*
X20907136Y20297861D01*
X20817861Y20387136D01*
X20817859Y20387137D01*
X20817857Y20387139D01*
X20704440Y20442585D01*
X20704438Y20442586D01*
X20704436Y20442587D01*
X20704435Y20442587D01*
X20662424Y20448708D01*
X20609481Y20477204D01*
X20587239Y20533066D01*
X20587200Y20535689D01*
X20587200Y20627148D01*
X20587200Y20627149D01*
X20546521Y20725357D01*
X20509356Y20762522D01*
X20471357Y20800522D01*
X20471357Y20800521D01*
X20217357Y21054521D01*
X20217355Y21054522D01*
X20217356Y21054522D01*
X20159827Y21078351D01*
X20119149Y21095200D01*
X20119148Y21095200D01*
X19846030Y21095200D01*
X19789529Y21115765D01*
X19779600Y21125538D01*
X19778457Y21126857D01*
X19734209Y21177922D01*
X19734206Y21177924D01*
X19734205Y21177925D01*
X19623346Y21249170D01*
X19623343Y21249171D01*
X19598053Y21256597D01*
X19496898Y21286300D01*
X19496894Y21286300D01*
X19365106Y21286300D01*
X19365101Y21286300D01*
X19238657Y21249171D01*
X19238653Y21249170D01*
X19127794Y21177925D01*
X19127789Y21177920D01*
X19041489Y21078326D01*
X18986742Y20958446D01*
X18986740Y20958440D01*
X18967987Y20828004D01*
X18967987Y20827997D01*
X18986740Y20697561D01*
X18986742Y20697555D01*
X19041489Y20577675D01*
X19077871Y20535689D01*
X19127791Y20478078D01*
X19127793Y20478077D01*
X19127794Y20478076D01*
X19238653Y20406831D01*
X19238654Y20406831D01*
X19238657Y20406829D01*
X19324782Y20381541D01*
X19365101Y20369701D01*
X19365104Y20369701D01*
X19365106Y20369700D01*
X19365107Y20369700D01*
X19496893Y20369700D01*
X19496894Y20369700D01*
X19496896Y20369701D01*
X19496898Y20369701D01*
X19556285Y20387139D01*
X19622123Y20406471D01*
X19682128Y20402658D01*
X19725644Y20361166D01*
X19732309Y20301410D01*
X19725856Y20283527D01*
X19677414Y20184439D01*
X19677413Y20184437D01*
X19677413Y20184435D01*
X19666700Y20110904D01*
X19666700Y19639096D01*
X19677413Y19565565D01*
X19677413Y19565564D01*
X19677414Y19565562D01*
X19677415Y19565560D01*
X19736062Y19445596D01*
X19733293Y19444243D01*
X19746078Y19398261D01*
X19721179Y19343531D01*
X19666926Y19317610D01*
X19658444Y19317200D01*
X19406735Y19317200D01*
X19350234Y19337765D01*
X19320170Y19389836D01*
X19330611Y19449050D01*
X19333650Y19453936D01*
X19351483Y19480625D01*
X19361800Y19532488D01*
X19361800Y19611099D01*
X19361799Y19611100D01*
X18833000Y19611100D01*
X18776499Y19631665D01*
X18746435Y19683736D01*
X18745100Y19699000D01*
X18745100Y20027799D01*
X18922900Y20027799D01*
X18922900Y19788901D01*
X18922901Y19788900D01*
X19361798Y19788900D01*
X19361799Y19788901D01*
X19361799Y19867509D01*
X19351483Y19919376D01*
X19312188Y19978183D01*
X19312182Y19978189D01*
X19253375Y20017484D01*
X19201513Y20027800D01*
X18922901Y20027800D01*
X18922900Y20027799D01*
X18745100Y20027799D01*
X18745099Y20027800D01*
X18466489Y20027800D01*
X18406245Y20015818D01*
X18346818Y20024967D01*
X18307175Y20070175D01*
X18301200Y20102030D01*
X18301200Y21379324D01*
X18321765Y21435825D01*
X18373836Y21465889D01*
X18375351Y21466142D01*
X18378665Y21466667D01*
X18410180Y21471658D01*
X18524009Y21529657D01*
X18614343Y21619991D01*
X18672342Y21733820D01*
X18687300Y21828261D01*
X18687299Y22341738D01*
X18672342Y22436180D01*
X18614343Y22550009D01*
X18524009Y22640343D01*
X18410180Y22698342D01*
X18410178Y22698343D01*
X18410177Y22698343D01*
X18351282Y22707671D01*
X18315739Y22713300D01*
X18315737Y22713300D01*
X17752263Y22713300D01*
X17752261Y22713299D01*
X17657822Y22698343D01*
X17543992Y22640344D01*
X17453656Y22550008D01*
X17395657Y22436178D01*
X17380700Y22341738D01*
X17380700Y21828264D01*
X17380701Y21828262D01*
X17395657Y21733823D01*
X17395657Y21733822D01*
X17395658Y21733820D01*
X17453657Y21619991D01*
X17543991Y21529657D01*
X17657820Y21471658D01*
X17692649Y21466142D01*
X17745238Y21436993D01*
X17766787Y21380860D01*
X17766800Y21379324D01*
X17766800Y20102539D01*
X17746235Y20046038D01*
X17694164Y20015974D01*
X17661753Y20016328D01*
X17612521Y20026120D01*
X17601561Y20028300D01*
X17601560Y20028300D01*
X16866436Y20028300D01*
X16866434Y20028299D01*
X16814434Y20017957D01*
X16814433Y20017957D01*
X16755454Y19978548D01*
X16755452Y19978546D01*
X16727996Y19937455D01*
X16716045Y19919569D01*
X16711764Y19898044D01*
X16705700Y19867560D01*
X16705700Y19786989D01*
X16685135Y19730488D01*
X16679955Y19724834D01*
X15790067Y18834945D01*
X15735573Y18809534D01*
X15727912Y18809200D01*
X15256562Y18809200D01*
X15200061Y18829765D01*
X15169997Y18881836D01*
X15175694Y18926470D01*
X15174487Y18926824D01*
X15176255Y18932848D01*
X15176258Y18932854D01*
X15180760Y18964164D01*
X15195013Y19063297D01*
X15195013Y19063304D01*
X15176259Y19193740D01*
X15176258Y19193741D01*
X15176258Y19193746D01*
X15121511Y19313624D01*
X15121510Y19313625D01*
X15121510Y19313626D01*
X15068328Y19375000D01*
X15035209Y19413222D01*
X15035206Y19413224D01*
X15035205Y19413225D01*
X14924346Y19484470D01*
X14924343Y19484471D01*
X14899053Y19491897D01*
X14797898Y19521600D01*
X14797894Y19521600D01*
X14681678Y19521600D01*
X14648040Y19528291D01*
X14642657Y19530521D01*
X14544449Y19571200D01*
X12499149Y19571200D01*
X12392851Y19571200D01*
X12355508Y19555732D01*
X12294644Y19530522D01*
X11929166Y19165045D01*
X11874672Y19139634D01*
X11867011Y19139300D01*
X11432436Y19139300D01*
X11432434Y19139299D01*
X11380434Y19128957D01*
X11380432Y19128957D01*
X11326642Y19093014D01*
X11277807Y19078200D01*
X10228149Y19078200D01*
X10121851Y19078200D01*
X10089115Y19064641D01*
X10023641Y19037521D01*
X9885165Y18899045D01*
X9830672Y18873634D01*
X9823011Y18873300D01*
X9699801Y18873300D01*
X9573357Y18836171D01*
X9573353Y18836170D01*
X9462494Y18764925D01*
X9462492Y18764923D01*
X9462491Y18764923D01*
X9462491Y18764922D01*
X9441167Y18740312D01*
X9438530Y18737269D01*
X9385987Y18708036D01*
X9326947Y18719416D01*
X9289034Y18766084D01*
X9284200Y18794832D01*
X9284200Y19103148D01*
X9284200Y19103149D01*
X9243521Y19201357D01*
X9223833Y19221045D01*
X9168357Y19276522D01*
X9168357Y19276521D01*
X8720044Y19724834D01*
X8694633Y19779328D01*
X8694299Y19786989D01*
X8694299Y19867564D01*
X8694298Y19867566D01*
X8683956Y19919566D01*
X8683956Y19919567D01*
X8672005Y19937453D01*
X8644547Y19978547D01*
X8585569Y20017955D01*
X8533561Y20028300D01*
X8533559Y20028300D01*
X8521100Y20028300D01*
X8464599Y20048865D01*
X8434535Y20100936D01*
X8433200Y20116200D01*
X8433200Y20589148D01*
X8433200Y20589149D01*
X8392521Y20687357D01*
X8364343Y20715535D01*
X8317357Y20762522D01*
X8317357Y20762521D01*
X8234318Y20845560D01*
X8965700Y20845560D01*
X8965700Y20048437D01*
X8965701Y20048435D01*
X8976043Y19996435D01*
X8976043Y19996434D01*
X8976044Y19996432D01*
X8976045Y19996431D01*
X9015453Y19937453D01*
X9074431Y19898045D01*
X9126439Y19887700D01*
X10685560Y19887701D01*
X10685563Y19887701D01*
X10685565Y19887702D01*
X10737565Y19898044D01*
X10737566Y19898044D01*
X10737566Y19898045D01*
X10737569Y19898045D01*
X10796547Y19937453D01*
X10835955Y19996431D01*
X10846300Y20048439D01*
X10846300Y20091900D01*
X10866865Y20148401D01*
X10918936Y20178465D01*
X10934200Y20179800D01*
X11014970Y20179800D01*
X11071471Y20159235D01*
X11081400Y20149462D01*
X11126791Y20097078D01*
X11126793Y20097077D01*
X11126794Y20097076D01*
X11237653Y20025831D01*
X11237654Y20025831D01*
X11237657Y20025829D01*
X11323782Y20000541D01*
X11364101Y19988701D01*
X11364104Y19988701D01*
X11364106Y19988700D01*
X11364107Y19988700D01*
X11495893Y19988700D01*
X11495894Y19988700D01*
X11495896Y19988701D01*
X11495898Y19988701D01*
X11522223Y19996431D01*
X11622343Y20025829D01*
X11733209Y20097078D01*
X11778600Y20149462D01*
X11831142Y20178696D01*
X11845030Y20179800D01*
X14465801Y20179800D01*
X14522302Y20159235D01*
X14552366Y20107164D01*
X14553701Y20091900D01*
X14553701Y20048435D01*
X14564043Y19996435D01*
X14564043Y19996434D01*
X14564044Y19996432D01*
X14564045Y19996431D01*
X14603453Y19937453D01*
X14662431Y19898045D01*
X14714439Y19887700D01*
X16273560Y19887701D01*
X16273563Y19887701D01*
X16273565Y19887702D01*
X16325565Y19898044D01*
X16325566Y19898044D01*
X16325566Y19898045D01*
X16325569Y19898045D01*
X16384547Y19937453D01*
X16423955Y19996431D01*
X16434300Y20048439D01*
X16434299Y20845560D01*
X16434299Y20845561D01*
X16434299Y20845564D01*
X16434298Y20845566D01*
X16423956Y20897566D01*
X16423956Y20897567D01*
X16418789Y20905300D01*
X16384547Y20956547D01*
X16325569Y20995955D01*
X16273561Y21006300D01*
X16273559Y21006300D01*
X14714436Y21006300D01*
X14714434Y21006299D01*
X14662434Y20995957D01*
X14662433Y20995957D01*
X14606295Y20958446D01*
X14603453Y20956547D01*
X14564045Y20897569D01*
X14558198Y20868171D01*
X14553700Y20845560D01*
X14553700Y20802100D01*
X14533135Y20745599D01*
X14481064Y20715535D01*
X14465800Y20714200D01*
X11845030Y20714200D01*
X11788529Y20734765D01*
X11778600Y20744538D01*
X11777457Y20745857D01*
X11733209Y20796922D01*
X11733206Y20796924D01*
X11733205Y20796925D01*
X11622346Y20868170D01*
X11622343Y20868171D01*
X11597053Y20875597D01*
X11495898Y20905300D01*
X11495894Y20905300D01*
X11364106Y20905300D01*
X11364101Y20905300D01*
X11237657Y20868171D01*
X11237653Y20868170D01*
X11126794Y20796925D01*
X11126789Y20796920D01*
X11081400Y20744538D01*
X11028858Y20715304D01*
X11014970Y20714200D01*
X10934199Y20714200D01*
X10877698Y20734765D01*
X10847634Y20786836D01*
X10846299Y20802100D01*
X10846299Y20845564D01*
X10846298Y20845566D01*
X10835956Y20897566D01*
X10835956Y20897567D01*
X10830789Y20905300D01*
X10796547Y20956547D01*
X10737569Y20995955D01*
X10685561Y21006300D01*
X10685559Y21006300D01*
X9126436Y21006300D01*
X9126434Y21006299D01*
X9074434Y20995957D01*
X9074433Y20995957D01*
X9018295Y20958446D01*
X9015453Y20956547D01*
X8976045Y20897569D01*
X8970198Y20868171D01*
X8965700Y20845560D01*
X8234318Y20845560D01*
X7738985Y21340893D01*
X7713574Y21395387D01*
X7729137Y21453465D01*
X7761232Y21481366D01*
X7856009Y21529657D01*
X7946343Y21619991D01*
X8004342Y21733820D01*
X8019300Y21828261D01*
X8019299Y22341738D01*
X8004342Y22436180D01*
X7946343Y22550009D01*
X7856009Y22640343D01*
X7742180Y22698342D01*
X7742178Y22698343D01*
X7742177Y22698343D01*
X7683282Y22707671D01*
X7647739Y22713300D01*
X7647737Y22713300D01*
X7084263Y22713300D01*
X7084261Y22713299D01*
X6989822Y22698343D01*
X6875992Y22640344D01*
X6785656Y22550008D01*
X6727657Y22436178D01*
X6712700Y22341738D01*
X6712700Y21828264D01*
X6712701Y21828262D01*
X6727657Y21733823D01*
X6727657Y21733822D01*
X6727658Y21733820D01*
X6785657Y21619991D01*
X6875991Y21529657D01*
X6989820Y21471658D01*
X7024649Y21466142D01*
X7077238Y21436993D01*
X7098787Y21380860D01*
X7098800Y21379324D01*
X7098800Y21282851D01*
X7139479Y21184643D01*
X7873055Y20451067D01*
X7898466Y20396574D01*
X7898800Y20388913D01*
X7898800Y20116200D01*
X7878235Y20059699D01*
X7826164Y20029635D01*
X7810905Y20028300D01*
X7798438Y20028300D01*
X7798434Y20028299D01*
X7746434Y20017957D01*
X7746433Y20017957D01*
X7687454Y19978548D01*
X7687452Y19978546D01*
X7659996Y19937455D01*
X7648045Y19919569D01*
X7643764Y19898044D01*
X7637700Y19867560D01*
X7637700Y19565290D01*
X7617135Y19508789D01*
X7565064Y19478725D01*
X7525035Y19480951D01*
X7512046Y19484765D01*
X7431898Y19508300D01*
X7431894Y19508300D01*
X7300106Y19508300D01*
X7300105Y19508300D01*
X7206963Y19480951D01*
X7146957Y19484765D01*
X7103441Y19526258D01*
X7094299Y19565288D01*
X7094299Y19867560D01*
X7094299Y19867561D01*
X7094299Y19867564D01*
X7094298Y19867566D01*
X7083956Y19919566D01*
X7083956Y19919567D01*
X7072005Y19937453D01*
X7044547Y19978547D01*
X6985569Y20017955D01*
X6933561Y20028300D01*
X6933559Y20028300D01*
X6198436Y20028300D01*
X6198434Y20028299D01*
X6146434Y20017957D01*
X6146433Y20017957D01*
X6087454Y19978548D01*
X6087452Y19978546D01*
X6059996Y19937455D01*
X6048045Y19919569D01*
X6043764Y19898044D01*
X6037700Y19867560D01*
X6037700Y19532437D01*
X6037701Y19532435D01*
X6048043Y19480435D01*
X6048045Y19480431D01*
X6065749Y19453934D01*
X6080040Y19395530D01*
X6053447Y19341604D01*
X5998411Y19317388D01*
X5992663Y19317200D01*
X5801848Y19317200D01*
X5797237Y19316283D01*
X5737810Y19325431D01*
X5698167Y19370638D01*
X5696857Y19430751D01*
X5701772Y19442401D01*
X5717861Y19473978D01*
X5732799Y19568300D01*
X5732800Y19568300D01*
X5732800Y19736099D01*
X5732799Y19736100D01*
X5168901Y19736100D01*
X5168900Y19736099D01*
X5168900Y19197201D01*
X5168901Y19197200D01*
X5361699Y19197200D01*
X5406545Y19204303D01*
X5465568Y19192830D01*
X5503407Y19146103D01*
X5502358Y19085985D01*
X5482451Y19055330D01*
X5356166Y18929045D01*
X5301672Y18903634D01*
X5294011Y18903300D01*
X4798263Y18903300D01*
X4798261Y18903299D01*
X4703822Y18888343D01*
X4589989Y18830343D01*
X4584398Y18826279D01*
X4582275Y18829201D01*
X4540100Y18809534D01*
X4532439Y18809200D01*
X4017199Y18809200D01*
X3960698Y18829765D01*
X3930634Y18881836D01*
X3929299Y18897100D01*
X3929299Y18974564D01*
X3929298Y18974566D01*
X3918956Y19026566D01*
X3918956Y19026567D01*
X3912342Y19036466D01*
X3879547Y19085547D01*
X3820569Y19124955D01*
X3768561Y19135300D01*
X3768559Y19135300D01*
X3103436Y19135300D01*
X3103434Y19135299D01*
X3051434Y19124957D01*
X3051433Y19124957D01*
X2992454Y19085548D01*
X2992452Y19085546D01*
X2953045Y19026569D01*
X2942700Y18974560D01*
X1629299Y18974560D01*
X1629299Y18974564D01*
X1629298Y18974566D01*
X1618956Y19026566D01*
X1618956Y19026567D01*
X1612342Y19036466D01*
X1579547Y19085547D01*
X1520569Y19124955D01*
X1468561Y19135300D01*
X1468559Y19135300D01*
X803436Y19135300D01*
X803434Y19135299D01*
X751434Y19124957D01*
X751433Y19124957D01*
X692454Y19085548D01*
X692452Y19085546D01*
X653045Y19026569D01*
X642700Y18974560D01*
X254500Y18974560D01*
X254500Y19736099D01*
X4427200Y19736099D01*
X4427200Y19568300D01*
X4442138Y19473977D01*
X4442138Y19473976D01*
X4500063Y19360293D01*
X4590292Y19270064D01*
X4703975Y19212139D01*
X4798299Y19197201D01*
X4798300Y19197200D01*
X4991099Y19197200D01*
X4991100Y19197201D01*
X4991100Y19736099D01*
X4991099Y19736100D01*
X4427201Y19736100D01*
X4427200Y19736099D01*
X254500Y19736099D01*
X254500Y20081701D01*
X4427200Y20081701D01*
X4427200Y19913901D01*
X4427201Y19913900D01*
X4991099Y19913900D01*
X4991100Y19913901D01*
X4991100Y20452799D01*
X5168900Y20452799D01*
X5168900Y19913901D01*
X5168901Y19913900D01*
X5732799Y19913900D01*
X5732800Y19913901D01*
X5732800Y20081701D01*
X5717861Y20176024D01*
X5717861Y20176025D01*
X5659936Y20289708D01*
X5569707Y20379937D01*
X5456024Y20437862D01*
X5361701Y20452800D01*
X5168901Y20452800D01*
X5168900Y20452799D01*
X4991100Y20452799D01*
X4991099Y20452800D01*
X4798299Y20452800D01*
X4703976Y20437862D01*
X4703975Y20437862D01*
X4590292Y20379937D01*
X4500063Y20289708D01*
X4442138Y20176025D01*
X4442138Y20176024D01*
X4427200Y20081701D01*
X254500Y20081701D01*
X254500Y22978011D01*
X739500Y22978011D01*
X739500Y22741989D01*
X770307Y22507986D01*
X831394Y22280007D01*
X879470Y22163941D01*
X921713Y22061957D01*
X921714Y22061955D01*
X1039728Y21857548D01*
X1062200Y21828262D01*
X1183408Y21670301D01*
X1350301Y21503408D01*
X1398867Y21466142D01*
X1512010Y21379324D01*
X1537550Y21359727D01*
X1741951Y21241716D01*
X1960007Y21151394D01*
X2187986Y21090307D01*
X2367541Y21066669D01*
X2421987Y21059500D01*
X2421989Y21059500D01*
X2658013Y21059500D01*
X2706784Y21065922D01*
X2892014Y21090307D01*
X3119993Y21151394D01*
X3338049Y21241716D01*
X3542450Y21359727D01*
X3729699Y21503408D01*
X3896592Y21670301D01*
X4040273Y21857550D01*
X4158284Y22061951D01*
X4248606Y22280007D01*
X4309693Y22507986D01*
X4340500Y22741989D01*
X4340500Y22978011D01*
X21059500Y22978011D01*
X21059500Y22741989D01*
X21090307Y22507986D01*
X21151394Y22280007D01*
X21199470Y22163941D01*
X21241713Y22061957D01*
X21241714Y22061955D01*
X21359728Y21857548D01*
X21382200Y21828262D01*
X21503408Y21670301D01*
X21670301Y21503408D01*
X21718867Y21466142D01*
X21832010Y21379324D01*
X21857550Y21359727D01*
X22061951Y21241716D01*
X22280007Y21151394D01*
X22507986Y21090307D01*
X22687541Y21066669D01*
X22741987Y21059500D01*
X22741989Y21059500D01*
X22978013Y21059500D01*
X23026784Y21065922D01*
X23212014Y21090307D01*
X23439993Y21151394D01*
X23658049Y21241716D01*
X23862450Y21359727D01*
X24049699Y21503408D01*
X24216592Y21670301D01*
X24360273Y21857550D01*
X24478284Y22061951D01*
X24568606Y22280007D01*
X24629693Y22507986D01*
X24660500Y22741989D01*
X24660500Y22978011D01*
X24654690Y23022139D01*
X24653331Y23032459D01*
X24629693Y23212014D01*
X24568606Y23439993D01*
X24478284Y23658049D01*
X24360273Y23862450D01*
X24216592Y24049699D01*
X24049699Y24216592D01*
X24008947Y24247862D01*
X23862452Y24360272D01*
X23794316Y24399610D01*
X23658049Y24478284D01*
X23658047Y24478285D01*
X23658045Y24478286D01*
X23658043Y24478287D01*
X23556059Y24520530D01*
X23439993Y24568606D01*
X23439986Y24568608D01*
X23212026Y24629690D01*
X23212014Y24629693D01*
X22978013Y24660500D01*
X22978011Y24660500D01*
X22741989Y24660500D01*
X22741987Y24660500D01*
X22507985Y24629693D01*
X22507973Y24629690D01*
X22280013Y24568608D01*
X22280009Y24568607D01*
X22280007Y24568606D01*
X22280005Y24568605D01*
X22061956Y24478287D01*
X22061954Y24478286D01*
X21857547Y24360272D01*
X21670304Y24216595D01*
X21503405Y24049696D01*
X21359728Y23862453D01*
X21241714Y23658046D01*
X21241713Y23658044D01*
X21151395Y23439995D01*
X21151392Y23439987D01*
X21090310Y23212027D01*
X21090307Y23212015D01*
X21065310Y23022139D01*
X21059500Y22978011D01*
X4340500Y22978011D01*
X4334690Y23022139D01*
X4333331Y23032459D01*
X4309693Y23212014D01*
X4248606Y23439993D01*
X4204655Y23546099D01*
X6713200Y23546099D01*
X6713200Y23378300D01*
X6728138Y23283977D01*
X6728138Y23283976D01*
X6786063Y23170293D01*
X6876292Y23080064D01*
X6989975Y23022139D01*
X7084299Y23007201D01*
X7084300Y23007200D01*
X7277099Y23007200D01*
X7277100Y23007201D01*
X7277100Y23546099D01*
X7454900Y23546099D01*
X7454900Y23007201D01*
X7454901Y23007200D01*
X7647700Y23007200D01*
X7647700Y23007201D01*
X7742023Y23022139D01*
X7742024Y23022139D01*
X7855707Y23080064D01*
X7945936Y23170293D01*
X8003861Y23283976D01*
X8003861Y23283977D01*
X8018799Y23378300D01*
X8018800Y23378300D01*
X8018800Y23546099D01*
X17381200Y23546099D01*
X17381200Y23378300D01*
X17396138Y23283977D01*
X17396138Y23283976D01*
X17454063Y23170293D01*
X17544292Y23080064D01*
X17657975Y23022139D01*
X17752299Y23007201D01*
X17752300Y23007200D01*
X17945099Y23007200D01*
X17945100Y23007201D01*
X17945100Y23546099D01*
X18122900Y23546099D01*
X18122900Y23007201D01*
X18122901Y23007200D01*
X18315700Y23007200D01*
X18315700Y23007201D01*
X18410023Y23022139D01*
X18410024Y23022139D01*
X18523707Y23080064D01*
X18613936Y23170293D01*
X18671861Y23283976D01*
X18671861Y23283977D01*
X18686799Y23378300D01*
X18686800Y23378300D01*
X18686800Y23546099D01*
X18686799Y23546100D01*
X18122901Y23546100D01*
X18122900Y23546099D01*
X17945100Y23546099D01*
X17945099Y23546100D01*
X17381201Y23546100D01*
X17381200Y23546099D01*
X8018800Y23546099D01*
X8018799Y23546100D01*
X7454901Y23546100D01*
X7454900Y23546099D01*
X7277100Y23546099D01*
X7277099Y23546100D01*
X6713201Y23546100D01*
X6713200Y23546099D01*
X4204655Y23546099D01*
X4158284Y23658049D01*
X4040273Y23862450D01*
X4017828Y23891701D01*
X6713200Y23891701D01*
X6713200Y23723901D01*
X6713201Y23723900D01*
X7277099Y23723900D01*
X7277100Y23723901D01*
X7277100Y24262799D01*
X7454900Y24262799D01*
X7454900Y23723901D01*
X7454901Y23723900D01*
X8018799Y23723900D01*
X8018800Y23723901D01*
X8018800Y23891701D01*
X8003861Y23986024D01*
X8003861Y23986025D01*
X7945936Y24099708D01*
X7877545Y24168099D01*
X8966201Y24168099D01*
X8966201Y23858492D01*
X8976516Y23806625D01*
X9015811Y23747818D01*
X9015817Y23747812D01*
X9074624Y23708517D01*
X9126487Y23698201D01*
X9817098Y23698201D01*
X9817100Y23698202D01*
X9817100Y24168099D01*
X9994900Y24168099D01*
X9994900Y23698202D01*
X9994901Y23698201D01*
X10685509Y23698201D01*
X10737375Y23708517D01*
X10796182Y23747812D01*
X10796188Y23747818D01*
X10835483Y23806625D01*
X10845800Y23858488D01*
X10845800Y24168099D01*
X14554201Y24168099D01*
X14554201Y23858492D01*
X14564516Y23806625D01*
X14603811Y23747818D01*
X14603817Y23747812D01*
X14662624Y23708517D01*
X14714487Y23698201D01*
X15405098Y23698201D01*
X15405100Y23698202D01*
X15405100Y24168099D01*
X15582900Y24168099D01*
X15582900Y23698202D01*
X15582901Y23698201D01*
X16273509Y23698201D01*
X16325375Y23708517D01*
X16384182Y23747812D01*
X16384188Y23747818D01*
X16423483Y23806625D01*
X16433800Y23858488D01*
X16433800Y23891701D01*
X17381200Y23891701D01*
X17381200Y23723901D01*
X17381201Y23723900D01*
X17945099Y23723900D01*
X17945100Y23723901D01*
X17945100Y24262799D01*
X18122900Y24262799D01*
X18122900Y23723901D01*
X18122901Y23723900D01*
X18686799Y23723900D01*
X18686800Y23723901D01*
X18686800Y23891701D01*
X18671861Y23986024D01*
X18671861Y23986025D01*
X18613936Y24099708D01*
X18523707Y24189937D01*
X18410024Y24247862D01*
X18315701Y24262800D01*
X18122901Y24262800D01*
X18122900Y24262799D01*
X17945100Y24262799D01*
X17945099Y24262800D01*
X17752299Y24262800D01*
X17657976Y24247862D01*
X17657975Y24247862D01*
X17544292Y24189937D01*
X17454063Y24099708D01*
X17396138Y23986025D01*
X17396138Y23986024D01*
X17381200Y23891701D01*
X16433800Y23891701D01*
X16433800Y24168099D01*
X16433799Y24168100D01*
X15582901Y24168100D01*
X15582900Y24168099D01*
X15405100Y24168099D01*
X15405099Y24168100D01*
X14554202Y24168100D01*
X14554201Y24168099D01*
X10845800Y24168099D01*
X10845799Y24168100D01*
X9994901Y24168100D01*
X9994900Y24168099D01*
X9817100Y24168099D01*
X9817099Y24168100D01*
X8966202Y24168100D01*
X8966201Y24168099D01*
X7877545Y24168099D01*
X7855707Y24189937D01*
X7742024Y24247862D01*
X7647701Y24262800D01*
X7454901Y24262800D01*
X7454900Y24262799D01*
X7277100Y24262799D01*
X7277099Y24262800D01*
X7084299Y24262800D01*
X6989976Y24247862D01*
X6989975Y24247862D01*
X6876292Y24189937D01*
X6786063Y24099708D01*
X6728138Y23986025D01*
X6728138Y23986024D01*
X6713200Y23891701D01*
X4017828Y23891701D01*
X3896592Y24049699D01*
X3729699Y24216592D01*
X3688947Y24247862D01*
X3542452Y24360272D01*
X3474316Y24399610D01*
X3338049Y24478284D01*
X3338047Y24478285D01*
X3338045Y24478286D01*
X3338043Y24478287D01*
X3236059Y24520530D01*
X3119993Y24568606D01*
X3119986Y24568608D01*
X2892026Y24629690D01*
X2892014Y24629693D01*
X2658013Y24660500D01*
X2658011Y24660500D01*
X2421989Y24660500D01*
X2421987Y24660500D01*
X2187985Y24629693D01*
X2187973Y24629690D01*
X1960013Y24568608D01*
X1960009Y24568607D01*
X1960007Y24568606D01*
X1960005Y24568605D01*
X1741956Y24478287D01*
X1741954Y24478286D01*
X1537547Y24360272D01*
X1350304Y24216595D01*
X1183405Y24049696D01*
X1039728Y23862453D01*
X921714Y23658046D01*
X921713Y23658044D01*
X831395Y23439995D01*
X831392Y23439987D01*
X770310Y23212027D01*
X770307Y23212015D01*
X745310Y23022139D01*
X739500Y22978011D01*
X254500Y22978011D01*
X254500Y25057600D01*
X275065Y25114101D01*
X327136Y25144165D01*
X342400Y25145500D01*
X4665020Y25145500D01*
X4721521Y25124935D01*
G37*
%TD.AperFunction*%
%TD*%
M02*
