%TF.GenerationSoftware,KiCad,Pcbnew,8.0.5*%
%TF.CreationDate,2024-09-30T10:49:06+01:00*%
%TF.ProjectId,Soft_Power_Switch,536f6674-5f50-46f7-9765-725f53776974,v01*%
%TF.SameCoordinates,Original*%
%TF.FileFunction,Soldermask,Top*%
%TF.FilePolarity,Negative*%
%FSLAX46Y46*%
G04 Gerber Fmt 4.6, Leading zero omitted, Abs format (unit mm)*
G04 Created by KiCad (PCBNEW 8.0.5) date 2024-09-30 10:49:06*
%MOMM*%
%LPD*%
G01*
G04 APERTURE LIST*
G04 Aperture macros list*
%AMRoundRect*
0 Rectangle with rounded corners*
0 $1 Rounding radius*
0 $2 $3 $4 $5 $6 $7 $8 $9 X,Y pos of 4 corners*
0 Add a 4 corners polygon primitive as box body*
4,1,4,$2,$3,$4,$5,$6,$7,$8,$9,$2,$3,0*
0 Add four circle primitives for the rounded corners*
1,1,$1+$1,$2,$3*
1,1,$1+$1,$4,$5*
1,1,$1+$1,$6,$7*
1,1,$1+$1,$8,$9*
0 Add four rect primitives between the rounded corners*
20,1,$1+$1,$2,$3,$4,$5,0*
20,1,$1+$1,$4,$5,$6,$7,0*
20,1,$1+$1,$6,$7,$8,$9,0*
20,1,$1+$1,$8,$9,$2,$3,0*%
G04 Aperture macros list end*
%ADD10RoundRect,0.101600X0.762000X-0.381000X0.762000X0.381000X-0.762000X0.381000X-0.762000X-0.381000X0*%
%ADD11RoundRect,0.218750X0.218750X0.256250X-0.218750X0.256250X-0.218750X-0.256250X0.218750X-0.256250X0*%
%ADD12RoundRect,0.218750X-0.218750X-0.256250X0.218750X-0.256250X0.218750X0.256250X-0.218750X0.256250X0*%
%ADD13RoundRect,0.250000X-0.925000X0.412500X-0.925000X-0.412500X0.925000X-0.412500X0.925000X0.412500X0*%
%ADD14RoundRect,0.101600X-0.400000X0.275000X-0.400000X-0.275000X0.400000X-0.275000X0.400000X0.275000X0*%
%ADD15RoundRect,0.101600X0.400000X-0.275000X0.400000X0.275000X-0.400000X0.275000X-0.400000X-0.275000X0*%
%ADD16RoundRect,0.101600X-0.350000X0.150000X-0.350000X-0.150000X0.350000X-0.150000X0.350000X0.150000X0*%
%ADD17C,2.082800*%
%ADD18RoundRect,0.200000X-0.275000X0.200000X-0.275000X-0.200000X0.275000X-0.200000X0.275000X0.200000X0*%
%ADD19RoundRect,0.200000X-0.200000X-0.275000X0.200000X-0.275000X0.200000X0.275000X-0.200000X0.275000X0*%
%ADD20RoundRect,0.200000X0.275000X-0.200000X0.275000X0.200000X-0.275000X0.200000X-0.275000X-0.200000X0*%
%ADD21C,3.100000*%
%ADD22C,1.000000*%
%ADD23RoundRect,0.101600X-0.450000X0.400000X-0.450000X-0.400000X0.450000X-0.400000X0.450000X0.400000X0*%
%ADD24RoundRect,0.101600X-2.300000X0.500000X-2.300000X-0.500000X2.300000X-0.500000X2.300000X0.500000X0*%
%ADD25RoundRect,0.101600X-1.700000X-0.800000X1.700000X-0.800000X1.700000X0.800000X-1.700000X0.800000X0*%
%ADD26RoundRect,0.200000X0.200000X0.275000X-0.200000X0.275000X-0.200000X-0.275000X0.200000X-0.275000X0*%
%ADD27RoundRect,0.225000X0.250000X-0.225000X0.250000X0.225000X-0.250000X0.225000X-0.250000X-0.225000X0*%
%ADD28RoundRect,0.101600X0.330000X-0.150000X0.330000X0.150000X-0.330000X0.150000X-0.330000X-0.150000X0*%
%ADD29RoundRect,0.101600X-0.315000X-0.415000X0.315000X-0.415000X0.315000X0.415000X-0.315000X0.415000X0*%
%ADD30RoundRect,0.101600X0.350000X-0.150000X0.350000X0.150000X-0.350000X0.150000X-0.350000X-0.150000X0*%
%ADD31RoundRect,0.101600X2.300000X-0.500000X2.300000X0.500000X-2.300000X0.500000X-2.300000X-0.500000X0*%
%ADD32RoundRect,0.101600X1.700000X0.800000X-1.700000X0.800000X-1.700000X-0.800000X1.700000X-0.800000X0*%
%ADD33RoundRect,0.101600X1.400000X-0.500000X1.400000X0.500000X-1.400000X0.500000X-1.400000X-0.500000X0*%
%ADD34RoundRect,0.101600X0.450000X-0.400000X0.450000X0.400000X-0.450000X0.400000X-0.450000X-0.400000X0*%
G04 APERTURE END LIST*
D10*
%TO.C,SW1*%
X9906000Y24257000D03*
X15494000Y24257000D03*
X9906000Y20447000D03*
X15494000Y20447000D03*
%TD*%
D11*
%TO.C,D3*%
X24155500Y6604000D03*
X22580500Y6604000D03*
%TD*%
D12*
%TO.C,D2*%
X1244500Y6604000D03*
X2819500Y6604000D03*
%TD*%
D13*
%TO.C,C2*%
X12700000Y6617500D03*
X12700000Y3542500D03*
%TD*%
D14*
%TO.C,Q3*%
X11500000Y11618000D03*
X11500000Y10668000D03*
X11500000Y9718000D03*
X13900000Y9718000D03*
D15*
X13900000Y10668000D03*
D14*
X13900000Y11618000D03*
%TD*%
D16*
%TO.C,U2*%
X6566000Y19700000D03*
X6566000Y19050000D03*
X6566000Y18400000D03*
X8166000Y18400000D03*
X8166000Y19700000D03*
%TD*%
D17*
%TO.C,J3*%
X19050000Y1270000D03*
X16510000Y1270000D03*
X13970000Y1270000D03*
X11430000Y1270000D03*
X8890000Y1270000D03*
X6350000Y1270000D03*
%TD*%
D18*
%TO.C,R8*%
X18796000Y4889000D03*
X18796000Y3239000D03*
%TD*%
D19*
%TO.C,R4*%
X19495000Y6604000D03*
X21145000Y6604000D03*
%TD*%
D20*
%TO.C,R1*%
X20320000Y18225000D03*
X20320000Y19875000D03*
%TD*%
D21*
%TO.C,ST4*%
X22860000Y2540000D03*
%TD*%
D22*
%TO.C,FID4*%
X24638000Y5080000D03*
%TD*%
D23*
%TO.C,Q1*%
X8144000Y5014000D03*
X8144000Y3114000D03*
X10244000Y4064000D03*
%TD*%
D22*
%TO.C,FID1*%
X5080000Y24638000D03*
%TD*%
D18*
%TO.C,R6*%
X6604000Y4889000D03*
X6604000Y3239000D03*
%TD*%
D24*
%TO.C,J2*%
X17890000Y13700000D03*
X17890000Y11700000D03*
D25*
X23090000Y16100000D03*
X23090000Y9300000D03*
%TD*%
D26*
%TO.C,R3*%
X5905000Y6604000D03*
X4255000Y6604000D03*
%TD*%
D27*
%TO.C,C4*%
X18034000Y22085000D03*
X18034000Y23635000D03*
%TD*%
D19*
%TO.C,R5*%
X8319000Y6477000D03*
X9969000Y6477000D03*
%TD*%
D27*
%TO.C,C3*%
X7366000Y22085000D03*
X7366000Y23635000D03*
%TD*%
D28*
%TO.C,U4*%
X11780000Y18811000D03*
X11780000Y18161000D03*
X11780000Y17511000D03*
X13620000Y17511000D03*
X13620000Y18161000D03*
X13620000Y18811000D03*
%TD*%
D29*
%TO.C,D1*%
X3436000Y18542000D03*
X1136000Y18542000D03*
%TD*%
D21*
%TO.C,ST3*%
X22860000Y22860000D03*
%TD*%
D19*
%TO.C,R7*%
X15431000Y6477000D03*
X17081000Y6477000D03*
%TD*%
D30*
%TO.C,U3*%
X18834000Y18400000D03*
X18834000Y19050000D03*
X18834000Y19700000D03*
X17234000Y19700000D03*
X17234000Y18400000D03*
%TD*%
D19*
%TO.C,R2*%
X22035000Y18542000D03*
X23685000Y18542000D03*
%TD*%
D31*
%TO.C,J1*%
X7510000Y11700000D03*
X7510000Y13700000D03*
D32*
X2310000Y9300000D03*
X2310000Y16100000D03*
%TD*%
D19*
%TO.C,R9*%
X13526000Y8255000D03*
X15176000Y8255000D03*
%TD*%
D27*
%TO.C,C1*%
X5080000Y18275000D03*
X5080000Y19825000D03*
%TD*%
D26*
%TO.C,R10*%
X11874000Y8255000D03*
X10224000Y8255000D03*
%TD*%
D21*
%TO.C,ST1*%
X2540000Y22860000D03*
%TD*%
D33*
%TO.C,F1*%
X12700000Y13105000D03*
X12700000Y16105000D03*
%TD*%
D34*
%TO.C,Q2*%
X17256000Y3114000D03*
X17256000Y5014000D03*
X15156000Y4064000D03*
%TD*%
D21*
%TO.C,ST2*%
X2540000Y2540000D03*
%TD*%
M02*
