%TF.GenerationSoftware,KiCad,Pcbnew,8.0.5*%
%TF.CreationDate,2024-09-30T10:49:06+01:00*%
%TF.ProjectId,Soft_Power_Switch,536f6674-5f50-46f7-9765-725f53776974,v01*%
%TF.SameCoordinates,Original*%
%TF.FileFunction,Legend,Top*%
%TF.FilePolarity,Positive*%
%FSLAX46Y46*%
G04 Gerber Fmt 4.6, Leading zero omitted, Abs format (unit mm)*
G04 Created by KiCad (PCBNEW 8.0.5) date 2024-09-30 10:49:06*
%MOMM*%
%LPD*%
G01*
G04 APERTURE LIST*
%ADD10C,0.000000*%
%ADD11C,0.203200*%
%ADD12C,0.120000*%
%ADD13C,0.200000*%
%ADD14C,0.127000*%
G04 APERTURE END LIST*
D10*
%TO.C,G\u002A\u002A\u002A*%
G36*
X15848587Y17712204D02*
G01*
X15872502Y17710569D01*
X15895808Y17707709D01*
X15918456Y17703753D01*
X15940395Y17698825D01*
X15961579Y17693054D01*
X15981957Y17686567D01*
X16001480Y17679489D01*
X16020099Y17671949D01*
X16037766Y17664073D01*
X16054431Y17655987D01*
X16084557Y17639696D01*
X16110087Y17624091D01*
X16130628Y17610187D01*
X16145785Y17598999D01*
X16158383Y17588830D01*
X16151646Y17590279D01*
X16133122Y17593259D01*
X16120232Y17594680D01*
X16105345Y17595715D01*
X16088778Y17596106D01*
X16070848Y17595596D01*
X16051871Y17593929D01*
X16032164Y17590849D01*
X16012043Y17586099D01*
X16001927Y17583017D01*
X15991825Y17579421D01*
X15981779Y17575280D01*
X15971827Y17570561D01*
X15962010Y17565232D01*
X15952365Y17559261D01*
X15942935Y17552615D01*
X15933757Y17545264D01*
X15924871Y17537174D01*
X15916317Y17528314D01*
X15905766Y17516030D01*
X15896435Y17503535D01*
X15888377Y17490811D01*
X15881646Y17477841D01*
X15878794Y17471258D01*
X15876294Y17464608D01*
X15874151Y17457887D01*
X15872374Y17451095D01*
X15870968Y17444229D01*
X15869941Y17437286D01*
X15869298Y17430265D01*
X15869046Y17423163D01*
X15869192Y17415979D01*
X15869744Y17408710D01*
X15870706Y17401354D01*
X15872086Y17393909D01*
X15873891Y17386373D01*
X15876128Y17378743D01*
X15878802Y17371019D01*
X15881920Y17363196D01*
X15885490Y17355275D01*
X15889518Y17347251D01*
X15894010Y17339124D01*
X15898973Y17330891D01*
X15904415Y17322549D01*
X15910340Y17314098D01*
X15923671Y17296856D01*
X15935980Y17282725D01*
X15949566Y17268720D01*
X15964271Y17254972D01*
X15979936Y17241611D01*
X15996403Y17228770D01*
X16013512Y17216579D01*
X16031107Y17205170D01*
X16049029Y17194674D01*
X16067118Y17185221D01*
X16085217Y17176944D01*
X16103168Y17169973D01*
X16120811Y17164440D01*
X16137989Y17160475D01*
X16146354Y17159122D01*
X16154543Y17158211D01*
X16162536Y17157757D01*
X16170315Y17157778D01*
X16177857Y17158289D01*
X16185145Y17159307D01*
X16195003Y17161552D01*
X16204050Y17164482D01*
X16212320Y17168045D01*
X16219845Y17172194D01*
X16226657Y17176877D01*
X16232790Y17182046D01*
X16238276Y17187651D01*
X16243148Y17193643D01*
X16247437Y17199972D01*
X16251177Y17206588D01*
X16254401Y17213443D01*
X16257141Y17220486D01*
X16259429Y17227668D01*
X16261298Y17234940D01*
X16262781Y17242252D01*
X16263911Y17249554D01*
X16265239Y17263933D01*
X16265544Y17277679D01*
X16265087Y17290397D01*
X16264128Y17301691D01*
X16262928Y17311165D01*
X16261748Y17318422D01*
X16260491Y17324703D01*
X16280568Y17316958D01*
X16300743Y17306689D01*
X16320904Y17293988D01*
X16340942Y17278948D01*
X16380208Y17242213D01*
X16417659Y17197217D01*
X16452414Y17144692D01*
X16483594Y17085372D01*
X16510316Y17019990D01*
X16531700Y16949277D01*
X16546866Y16873968D01*
X16551841Y16834818D01*
X16554932Y16794795D01*
X16556027Y16753988D01*
X16555017Y16712490D01*
X16551792Y16670392D01*
X16546242Y16627787D01*
X16538255Y16584765D01*
X16527724Y16541418D01*
X16514536Y16497838D01*
X16498583Y16454116D01*
X16479754Y16410345D01*
X16457939Y16366615D01*
X16433028Y16323018D01*
X16404910Y16279646D01*
X16373005Y16235808D01*
X16339252Y16194199D01*
X16303629Y16154935D01*
X16266115Y16118134D01*
X16226686Y16083915D01*
X16185321Y16052394D01*
X16141997Y16023689D01*
X16096692Y15997919D01*
X16049383Y15975199D01*
X16000050Y15955649D01*
X15948668Y15939386D01*
X15895217Y15926526D01*
X15839673Y15917189D01*
X15782015Y15911491D01*
X15722221Y15909550D01*
X15660267Y15911484D01*
X15643891Y15912464D01*
X15628058Y15912635D01*
X15612732Y15912011D01*
X15597878Y15910608D01*
X15583461Y15908439D01*
X15569445Y15905519D01*
X15555795Y15901865D01*
X15542475Y15897489D01*
X15529451Y15892407D01*
X15516688Y15886634D01*
X15504149Y15880185D01*
X15491799Y15873074D01*
X15467528Y15856926D01*
X15443592Y15838310D01*
X15419707Y15817342D01*
X15395593Y15794142D01*
X15370966Y15768828D01*
X15345544Y15741518D01*
X15230261Y15614687D01*
X15173677Y15553281D01*
X15120503Y15493993D01*
X15072014Y15438695D01*
X15029484Y15389257D01*
X14994186Y15347549D01*
X14967396Y15315442D01*
X14944435Y15287512D01*
X14944435Y16508453D01*
X14943973Y16532664D01*
X14944160Y16555969D01*
X14944977Y16578386D01*
X14946409Y16599932D01*
X14948439Y16620627D01*
X14951050Y16640488D01*
X14954225Y16659535D01*
X14957948Y16677785D01*
X14962202Y16695257D01*
X14966969Y16711969D01*
X14972234Y16727941D01*
X14977980Y16743189D01*
X14984189Y16757733D01*
X14990846Y16771591D01*
X14997933Y16784781D01*
X15005434Y16797322D01*
X15013332Y16809233D01*
X15021610Y16820531D01*
X15030251Y16831235D01*
X15039239Y16841363D01*
X15048558Y16850935D01*
X15058189Y16859968D01*
X15068118Y16868480D01*
X15078326Y16876490D01*
X15088797Y16884017D01*
X15099514Y16891079D01*
X15110462Y16897694D01*
X15121622Y16903881D01*
X15144514Y16915044D01*
X15168057Y16924715D01*
X15181271Y16929426D01*
X15194342Y16933565D01*
X15207251Y16937161D01*
X15219981Y16940239D01*
X15232514Y16942829D01*
X15244831Y16944957D01*
X15256914Y16946652D01*
X15268745Y16947941D01*
X15280307Y16948853D01*
X15291580Y16949413D01*
X15302547Y16949651D01*
X15313189Y16949594D01*
X15323490Y16949270D01*
X15333429Y16948707D01*
X15352154Y16946971D01*
X15369218Y16944610D01*
X15384478Y16941845D01*
X15397788Y16938897D01*
X15409003Y16935988D01*
X15417978Y16933340D01*
X15424568Y16931174D01*
X15430014Y16929175D01*
X15413190Y16922319D01*
X15395304Y16913994D01*
X15384910Y16908679D01*
X15373898Y16902624D01*
X15362530Y16895848D01*
X15351068Y16888371D01*
X15339774Y16880216D01*
X15328910Y16871401D01*
X15318739Y16861948D01*
X15313994Y16856988D01*
X15309521Y16851877D01*
X15305352Y16846616D01*
X15301520Y16841208D01*
X15298058Y16835656D01*
X15294998Y16829962D01*
X15292008Y16823087D01*
X15289570Y16815974D01*
X15287681Y16808650D01*
X15286342Y16801141D01*
X15285549Y16793472D01*
X15285303Y16785671D01*
X15285600Y16777764D01*
X15286440Y16769777D01*
X15287822Y16761736D01*
X15289743Y16753667D01*
X15292203Y16745598D01*
X15295199Y16737554D01*
X15298731Y16729561D01*
X15302796Y16721646D01*
X15307394Y16713836D01*
X15312523Y16706156D01*
X15318181Y16698633D01*
X15324367Y16691292D01*
X15331080Y16684162D01*
X15338317Y16677267D01*
X15346078Y16670634D01*
X15354361Y16664289D01*
X15363165Y16658260D01*
X15372487Y16652571D01*
X15382328Y16647249D01*
X15392684Y16642321D01*
X15403555Y16637813D01*
X15414939Y16633752D01*
X15426835Y16630163D01*
X15439241Y16627072D01*
X15452155Y16624507D01*
X15465577Y16622494D01*
X15485407Y16620607D01*
X15504916Y16620069D01*
X15524041Y16620833D01*
X15542722Y16622851D01*
X15560897Y16626078D01*
X15578505Y16630465D01*
X15595485Y16635967D01*
X15611773Y16642535D01*
X15627311Y16650123D01*
X15642035Y16658685D01*
X15655884Y16668172D01*
X15668797Y16678538D01*
X15680713Y16689737D01*
X15691569Y16701720D01*
X15701305Y16714442D01*
X15709859Y16727855D01*
X15717169Y16741912D01*
X15723174Y16756566D01*
X15727813Y16771771D01*
X15731023Y16787479D01*
X15732745Y16803643D01*
X15732915Y16820216D01*
X15731473Y16837152D01*
X15728357Y16854403D01*
X15723506Y16871923D01*
X15716858Y16889664D01*
X15708352Y16907580D01*
X15697926Y16925623D01*
X15685519Y16943746D01*
X15671069Y16961903D01*
X15654515Y16980047D01*
X15635795Y16998130D01*
X15593790Y17038342D01*
X15555782Y17079140D01*
X15538356Y17099715D01*
X15522026Y17120384D01*
X15506824Y17141129D01*
X15492780Y17161933D01*
X15479928Y17182778D01*
X15468299Y17203647D01*
X15457925Y17224522D01*
X15448839Y17245386D01*
X15441072Y17266222D01*
X15434656Y17287011D01*
X15429623Y17307736D01*
X15426006Y17328380D01*
X15423836Y17348924D01*
X15423146Y17369353D01*
X15423966Y17389647D01*
X15426331Y17409791D01*
X15430270Y17429765D01*
X15435817Y17449552D01*
X15443003Y17469136D01*
X15451860Y17488498D01*
X15462421Y17507620D01*
X15474718Y17526487D01*
X15488781Y17545079D01*
X15504644Y17563379D01*
X15522339Y17581370D01*
X15541896Y17599035D01*
X15563350Y17616355D01*
X15586730Y17633313D01*
X15614038Y17650898D01*
X15641227Y17665990D01*
X15668248Y17678716D01*
X15695053Y17689203D01*
X15721592Y17697577D01*
X15747817Y17703966D01*
X15773678Y17708496D01*
X15799126Y17711295D01*
X15824112Y17712488D01*
X15848587Y17712204D01*
G37*
D11*
%TO.C,SW1*%
X10160000Y21112000D02*
X10160000Y23622000D01*
X11160000Y24892000D02*
X14240000Y24892000D01*
X14240000Y19812000D02*
X11160000Y19812000D01*
X15240000Y23592000D02*
X15240000Y21112000D01*
X13970000Y22352000D02*
G75*
G02*
X11430000Y22352000I-1270000J0D01*
G01*
X11430000Y22352000D02*
G75*
G02*
X13970000Y22352000I1270000J0D01*
G01*
D12*
%TO.C,D3*%
X24768000Y6104000D02*
X24768000Y7104000D01*
%TO.C,D2*%
X632000Y7104000D02*
X632000Y6104000D01*
D11*
%TO.C,C2*%
X11450000Y7480000D02*
X13950000Y7480000D01*
%TO.C,Q3*%
X12270600Y11938000D02*
X13129400Y11938000D01*
X13129400Y9398000D02*
X12270600Y9398000D01*
D13*
X11784000Y12268200D02*
G75*
G02*
X11584000Y12268200I-100000J0D01*
G01*
X11584000Y12268200D02*
G75*
G02*
X11784000Y12268200I100000J0D01*
G01*
D14*
%TO.C,U2*%
X7966000Y20150000D02*
X6766000Y20150000D01*
X7966000Y17950000D02*
X6766000Y17950000D01*
D13*
X6616000Y20300000D02*
G75*
G02*
X6416000Y20300000I-100000J0D01*
G01*
X6416000Y20300000D02*
G75*
G02*
X6616000Y20300000I100000J0D01*
G01*
D12*
%TO.C,R8*%
X19318500Y4301258D02*
X19318500Y3826742D01*
X18273500Y4301258D02*
X18273500Y3826742D01*
%TO.C,R4*%
X20082742Y7126500D02*
X20557258Y7126500D01*
X20082742Y6081500D02*
X20557258Y6081500D01*
%TO.C,R1*%
X19797500Y18812742D02*
X19797500Y19287258D01*
X20842500Y18812742D02*
X20842500Y19287258D01*
D11*
%TO.C,Q1*%
X9844000Y5464000D02*
X9044000Y5464000D01*
X9844000Y4864000D02*
X9844000Y5464000D01*
X9844000Y3264000D02*
X9844000Y2664000D01*
X9844000Y2664000D02*
X9044000Y2664000D01*
D12*
%TO.C,R6*%
X7126500Y4301258D02*
X7126500Y3826742D01*
X6081500Y4301258D02*
X6081500Y3826742D01*
D11*
%TO.C,J2*%
X20590000Y16700000D02*
X16990000Y16700000D01*
X16990000Y16700000D02*
X16990000Y15900000D01*
X19590000Y15900000D02*
X19590000Y14700000D01*
X16990000Y15900000D02*
X19590000Y15900000D01*
X24590000Y10700000D02*
X24590000Y14700000D01*
X19590000Y10700000D02*
X19590000Y9500000D01*
X19590000Y9500000D02*
X16990000Y9500000D01*
X16990000Y9500000D02*
X16990000Y8700000D01*
X16990000Y8700000D02*
X20590000Y8700000D01*
D12*
%TO.C,R3*%
X5317258Y6081500D02*
X4842742Y6081500D01*
X5317258Y7126500D02*
X4842742Y7126500D01*
%TO.C,C4*%
X17524000Y22719420D02*
X17524000Y23000580D01*
X18544000Y22719420D02*
X18544000Y23000580D01*
%TO.C,R5*%
X8906742Y6999500D02*
X9381258Y6999500D01*
X8906742Y5954500D02*
X9381258Y5954500D01*
%TO.C,C3*%
X6856000Y22719420D02*
X6856000Y23000580D01*
X7876000Y22719420D02*
X7876000Y23000580D01*
D11*
%TO.C,U4*%
X13208000Y19177000D02*
X12192000Y19177000D01*
X13208000Y17145000D02*
X12192000Y17145000D01*
D13*
X11784000Y19494500D02*
G75*
G02*
X11584000Y19494500I-100000J0D01*
G01*
X11584000Y19494500D02*
G75*
G02*
X11784000Y19494500I100000J0D01*
G01*
D11*
%TO.C,D1*%
X516000Y19167000D02*
X516000Y17917000D01*
X1386000Y19167000D02*
X3186000Y19167000D01*
X1386000Y17917000D02*
X3186000Y17917000D01*
D12*
%TO.C,R7*%
X16018742Y6999500D02*
X16493258Y6999500D01*
X16018742Y5954500D02*
X16493258Y5954500D01*
D14*
%TO.C,U3*%
X17434000Y17950000D02*
X18634000Y17950000D01*
X17434000Y20150000D02*
X18634000Y20150000D01*
D13*
X18984000Y17800000D02*
G75*
G02*
X18784000Y17800000I-100000J0D01*
G01*
X18784000Y17800000D02*
G75*
G02*
X18984000Y17800000I100000J0D01*
G01*
D12*
%TO.C,R2*%
X22622742Y19064500D02*
X23097258Y19064500D01*
X22622742Y18019500D02*
X23097258Y18019500D01*
D11*
%TO.C,J1*%
X4810000Y8700000D02*
X8410000Y8700000D01*
X8410000Y8700000D02*
X8410000Y9500000D01*
X5810000Y9500000D02*
X5810000Y10700000D01*
X8410000Y9500000D02*
X5810000Y9500000D01*
X810000Y14700000D02*
X810000Y10700000D01*
X5810000Y14700000D02*
X5810000Y15900000D01*
X5810000Y15900000D02*
X8410000Y15900000D01*
X8410000Y15900000D02*
X8410000Y16700000D01*
X8410000Y16700000D02*
X4810000Y16700000D01*
D12*
%TO.C,R9*%
X14113742Y8777500D02*
X14588258Y8777500D01*
X14113742Y7732500D02*
X14588258Y7732500D01*
%TO.C,C1*%
X4570000Y18909420D02*
X4570000Y19190580D01*
X5590000Y18909420D02*
X5590000Y19190580D01*
%TO.C,R10*%
X11286258Y7732500D02*
X10811742Y7732500D01*
X11286258Y8777500D02*
X10811742Y8777500D01*
D11*
%TO.C,Q2*%
X15556000Y2664000D02*
X16356000Y2664000D01*
X15556000Y3264000D02*
X15556000Y2664000D01*
X15556000Y4864000D02*
X15556000Y5464000D01*
X15556000Y5464000D02*
X16356000Y5464000D01*
D10*
%TO.C,kibuzzard-65F1758C*%
G36*
X8528348Y15411351D02*
G01*
X8560792Y15378311D01*
X8566745Y15316398D01*
X8566745Y14654411D01*
X8564959Y14612739D01*
X8553648Y14581783D01*
X8522097Y14557673D01*
X8460780Y14549636D01*
X8394700Y14560947D01*
X8363148Y14594880D01*
X8356005Y14655602D01*
X8356005Y15317589D01*
X8357791Y15358666D01*
X8369102Y15390217D01*
X8400653Y15414327D01*
X8461970Y15422364D01*
X8528348Y15411351D01*
G37*
G36*
X9371013Y15415220D02*
G01*
X9401969Y15400933D01*
X9416852Y15375930D01*
X9423995Y15315208D01*
X9423995Y14654411D01*
X9422209Y14612739D01*
X9410898Y14581783D01*
X9379347Y14557673D01*
X9318030Y14549636D01*
X9253736Y14556780D01*
X9223970Y14579402D01*
X9139767Y14691585D01*
X9065749Y14790010D01*
X9001919Y14874677D01*
X8948274Y14945585D01*
X8904817Y15002735D01*
X8871545Y15046127D01*
X8871545Y14654411D01*
X8869759Y14612739D01*
X8858448Y14581783D01*
X8826897Y14557673D01*
X8765580Y14549636D01*
X8706048Y14557673D01*
X8675092Y14581783D01*
X8663781Y14613930D01*
X8661995Y14655602D01*
X8661995Y15319970D01*
X8673306Y15386050D01*
X8707239Y15414030D01*
X8765580Y15421173D01*
X8822134Y15414625D01*
X8851305Y15399742D01*
X8878689Y15368786D01*
X8957799Y15261332D01*
X9027649Y15166777D01*
X9088239Y15085120D01*
X9139568Y15016361D01*
X9181637Y14960501D01*
X9214445Y14917539D01*
X9214445Y15319970D01*
X9225756Y15386050D01*
X9259689Y15414030D01*
X9316244Y15421173D01*
X9371013Y15415220D01*
G37*
%TO.C,kibuzzard-65F0636B*%
G36*
X24940518Y8210570D02*
G01*
X24961949Y8185388D01*
X24967307Y8140383D01*
X24961949Y8095913D01*
X24943733Y8072874D01*
X24889083Y8063230D01*
X24684415Y8063230D01*
X24684415Y7524234D01*
X24682807Y7487801D01*
X24673163Y7460476D01*
X24644767Y7438509D01*
X24591189Y7432080D01*
X24538146Y7438509D01*
X24510286Y7460476D01*
X24500642Y7488337D01*
X24499034Y7525306D01*
X24499034Y8063230D01*
X24293294Y8063230D01*
X24242931Y8071267D01*
X24221500Y8096448D01*
X24216142Y8141454D01*
X24221500Y8185924D01*
X24239716Y8208963D01*
X24294366Y8218607D01*
X24890155Y8218607D01*
X24940518Y8210570D01*
G37*
G36*
X22512357Y8205748D02*
G01*
X22559774Y8173065D01*
X22575580Y8137168D01*
X22559506Y8085733D01*
X22263755Y7485658D01*
X22227857Y7447617D01*
X22178030Y7433151D01*
X22167314Y7433151D01*
X22116415Y7447617D01*
X22080518Y7485658D01*
X21784766Y8085733D01*
X21768693Y8137168D01*
X21784499Y8173065D01*
X21831915Y8205748D01*
X21886029Y8223964D01*
X21914425Y8219678D01*
X21932642Y8204676D01*
X21950323Y8176280D01*
X21964655Y8146276D01*
X21991578Y8087340D01*
X22026002Y8011661D01*
X22062837Y7931428D01*
X22099806Y7851195D01*
X22134632Y7775515D01*
X22161019Y7718321D01*
X22172672Y7693541D01*
X22386985Y8162885D01*
X22401986Y8195032D01*
X22449135Y8223964D01*
X22512357Y8205748D01*
G37*
G36*
X24108985Y8213249D02*
G01*
X24136846Y8200390D01*
X24150776Y8177887D01*
X24157206Y8122166D01*
X24157206Y7798554D01*
X24151714Y7729438D01*
X24135239Y7663537D01*
X24107780Y7600851D01*
X24069338Y7541379D01*
X24020314Y7491953D01*
X23958967Y7452975D01*
X23887842Y7427659D01*
X23809484Y7419221D01*
X23731260Y7427793D01*
X23660537Y7453511D01*
X23599859Y7493159D01*
X23551773Y7543522D01*
X23513799Y7602190D01*
X23486676Y7664609D01*
X23470401Y7730778D01*
X23464976Y7800697D01*
X23464976Y8123238D01*
X23466584Y8161278D01*
X23476764Y8189674D01*
X23505696Y8212177D01*
X23560345Y8218607D01*
X23614995Y8212177D01*
X23642856Y8189674D01*
X23655715Y8122166D01*
X23655715Y7800697D01*
X23663751Y7736939D01*
X23687861Y7676396D01*
X23736082Y7628176D01*
X23812163Y7609959D01*
X23880475Y7624425D01*
X23928963Y7667823D01*
X23957895Y7730242D01*
X23967539Y7801769D01*
X23967539Y8129667D01*
X23978255Y8188603D01*
X24009330Y8212177D01*
X24060229Y8218607D01*
X24108985Y8213249D01*
G37*
G36*
X23079817Y8220013D02*
G01*
X23151276Y8198515D01*
X23217512Y8162684D01*
X23278525Y8112522D01*
X23329625Y8051744D01*
X23366125Y7984068D01*
X23388025Y7909494D01*
X23395325Y7828022D01*
X23388360Y7746248D01*
X23367464Y7670770D01*
X23332638Y7601587D01*
X23283882Y7538700D01*
X23224946Y7486428D01*
X23159581Y7449091D01*
X23087786Y7426688D01*
X23009562Y7419221D01*
X23007419Y7419422D01*
X22931171Y7426588D01*
X22858874Y7448689D01*
X22792671Y7485524D01*
X22732563Y7537093D01*
X22682635Y7598842D01*
X22646972Y7666216D01*
X22625575Y7739216D01*
X22618442Y7817842D01*
X22618942Y7823200D01*
X22808109Y7823200D01*
X22814955Y7763609D01*
X22835493Y7711996D01*
X22869723Y7668359D01*
X22934955Y7623755D01*
X23007419Y7608887D01*
X23079750Y7623354D01*
X23144579Y7666752D01*
X23178512Y7709733D01*
X23198872Y7761526D01*
X23205658Y7822128D01*
X23198812Y7882850D01*
X23178274Y7935000D01*
X23144043Y7978577D01*
X23078812Y8022779D01*
X23006348Y8037513D01*
X22934017Y8022645D01*
X22869188Y7978041D01*
X22835255Y7934404D01*
X22814895Y7882791D01*
X22808109Y7823200D01*
X22618942Y7823200D01*
X22626479Y7903969D01*
X22650589Y7984470D01*
X22688094Y8055863D01*
X22736314Y8114665D01*
X22793910Y8161546D01*
X22859544Y8197175D01*
X22930267Y8219678D01*
X23003133Y8227179D01*
X23079817Y8220013D01*
G37*
%TO.C,kibuzzard-65F04FCA*%
G36*
X7184231Y10709275D02*
G01*
X7223125Y10681494D01*
X7237413Y10602119D01*
X7237413Y10224294D01*
X7223919Y10153253D01*
X7183437Y10117931D01*
X7110412Y10109994D01*
X7038975Y10119519D01*
X7000875Y10149681D01*
X6986587Y10225881D01*
X6986587Y10603706D01*
X6999684Y10674350D01*
X7038975Y10708481D01*
X7112000Y10718006D01*
X7184231Y10709275D01*
G37*
%TO.C,kibuzzard-65F04F60*%
G36*
X7185025Y15355094D02*
G01*
X7223919Y15325725D01*
X7238206Y15238412D01*
X7238206Y15111412D01*
X7366794Y15111412D01*
X7447756Y15097919D01*
X7481888Y15057437D01*
X7490619Y14985206D01*
X7482681Y14912975D01*
X7455694Y14874875D01*
X7374731Y14860587D01*
X7238206Y14860587D01*
X7238206Y14732000D01*
X7224713Y14651037D01*
X7184231Y14616906D01*
X7112000Y14608175D01*
X7039769Y14616906D01*
X7001669Y14646275D01*
X6987381Y14733588D01*
X6987381Y14860587D01*
X6849269Y14860587D01*
X6773069Y14873287D01*
X6741319Y14913769D01*
X6733381Y14986000D01*
X6742112Y15058231D01*
X6773069Y15097125D01*
X6860381Y15111412D01*
X6987381Y15111412D01*
X6987381Y15240000D01*
X7000081Y15320963D01*
X7040562Y15355094D01*
X7112794Y15363825D01*
X7185025Y15355094D01*
G37*
G36*
X18107025Y10783094D02*
G01*
X18145919Y10753725D01*
X18160206Y10666412D01*
X18160206Y10539412D01*
X18288794Y10539412D01*
X18369756Y10525919D01*
X18403888Y10485437D01*
X18412619Y10413206D01*
X18404681Y10340975D01*
X18377694Y10302875D01*
X18296731Y10288587D01*
X18160206Y10288587D01*
X18160206Y10160000D01*
X18146713Y10079037D01*
X18106231Y10044906D01*
X18034000Y10036175D01*
X17961769Y10044906D01*
X17923669Y10074275D01*
X17909381Y10161588D01*
X17909381Y10288587D01*
X17771269Y10288587D01*
X17695069Y10301287D01*
X17663319Y10341769D01*
X17655381Y10414000D01*
X17664112Y10486231D01*
X17695069Y10525125D01*
X17782381Y10539412D01*
X17909381Y10539412D01*
X17909381Y10668000D01*
X17922081Y10748963D01*
X17962562Y10783094D01*
X18034794Y10791825D01*
X18107025Y10783094D01*
G37*
%TO.C,kibuzzard-65F0634B*%
G36*
X2139424Y8202801D02*
G01*
X2168624Y8173065D01*
X2173982Y8117344D01*
X2173982Y7521555D01*
X2172375Y7484050D01*
X2162195Y7456190D01*
X2133798Y7434491D01*
X2078613Y7427258D01*
X2019141Y7437437D01*
X1990745Y7467977D01*
X1984315Y7522627D01*
X1984315Y8118415D01*
X1985923Y8155384D01*
X1996103Y8183781D01*
X2024499Y8205480D01*
X2079685Y8212713D01*
X2139424Y8202801D01*
G37*
G36*
X1862157Y8200926D02*
G01*
X1909574Y8168243D01*
X1925380Y8132346D01*
X1909306Y8080911D01*
X1613555Y7480836D01*
X1577657Y7442795D01*
X1527830Y7428329D01*
X1517114Y7428329D01*
X1466215Y7442795D01*
X1430318Y7480836D01*
X1134566Y8080911D01*
X1118493Y8132346D01*
X1134299Y8168243D01*
X1181715Y8200926D01*
X1235829Y8219142D01*
X1264225Y8214856D01*
X1282442Y8199854D01*
X1300123Y8171458D01*
X1314455Y8141454D01*
X1341378Y8082518D01*
X1375802Y8006839D01*
X1412637Y7926606D01*
X1449606Y7846373D01*
X1484432Y7770693D01*
X1510819Y7713499D01*
X1522472Y7688719D01*
X1736785Y8158063D01*
X1751786Y8190210D01*
X1798935Y8219142D01*
X1862157Y8200926D01*
G37*
G36*
X2897823Y8206284D02*
G01*
X2925683Y8193425D01*
X2939078Y8170922D01*
X2945507Y8116272D01*
X2945507Y7521555D01*
X2943900Y7484050D01*
X2933720Y7456190D01*
X2905323Y7434491D01*
X2850138Y7427258D01*
X2792274Y7433687D01*
X2765485Y7454047D01*
X2689701Y7555012D01*
X2623086Y7643594D01*
X2565638Y7719794D01*
X2517358Y7783612D01*
X2478246Y7835047D01*
X2448302Y7874099D01*
X2448302Y7521555D01*
X2446695Y7484050D01*
X2436515Y7456190D01*
X2408118Y7434491D01*
X2352933Y7427258D01*
X2299355Y7434491D01*
X2271494Y7456190D01*
X2261314Y7485122D01*
X2259707Y7522627D01*
X2259707Y8120559D01*
X2269887Y8180030D01*
X2300426Y8205212D01*
X2352933Y8211641D01*
X2403832Y8205748D01*
X2430085Y8192353D01*
X2454731Y8164493D01*
X2525931Y8067784D01*
X2588796Y7982684D01*
X2643326Y7909193D01*
X2689523Y7847310D01*
X2727385Y7797036D01*
X2756912Y7758370D01*
X2756912Y8120559D01*
X2767092Y8180030D01*
X2797631Y8205212D01*
X2848531Y8211641D01*
X2897823Y8206284D01*
G37*
%TO.C,kibuzzard-65F04FCA*%
G36*
X18106231Y15281275D02*
G01*
X18145125Y15253494D01*
X18159413Y15174119D01*
X18159413Y14796294D01*
X18145919Y14725253D01*
X18105437Y14689931D01*
X18032412Y14681994D01*
X17960975Y14691519D01*
X17922875Y14721681D01*
X17908587Y14797881D01*
X17908587Y15175706D01*
X17921684Y15246350D01*
X17960975Y15280481D01*
X18034000Y15290006D01*
X18106231Y15281275D01*
G37*
%TO.C,kibuzzard-65F174FD*%
G36*
X17277159Y10844411D02*
G01*
X17300972Y10816431D01*
X17306925Y10766425D01*
X17300972Y10717014D01*
X17280731Y10691416D01*
X17220009Y10680700D01*
X16992600Y10680700D01*
X16992600Y10081816D01*
X16990814Y10041334D01*
X16980098Y10010973D01*
X16948547Y9986566D01*
X16889016Y9979422D01*
X16830080Y9986566D01*
X16799123Y10010973D01*
X16788408Y10041930D01*
X16786622Y10083006D01*
X16786622Y10680700D01*
X16558022Y10680700D01*
X16502063Y10689630D01*
X16478250Y10717609D01*
X16472297Y10767616D01*
X16478250Y10817027D01*
X16498491Y10842625D01*
X16559213Y10853341D01*
X17221200Y10853341D01*
X17277159Y10844411D01*
G37*
G36*
X16353234Y10847387D02*
G01*
X16384191Y10833100D01*
X16399669Y10808097D01*
X16406812Y10746184D01*
X16406812Y10386616D01*
X16400711Y10309820D01*
X16382405Y10236597D01*
X16351895Y10166945D01*
X16309181Y10100866D01*
X16254710Y10045948D01*
X16186547Y10002639D01*
X16107519Y9974511D01*
X16020455Y9965134D01*
X15933539Y9974659D01*
X15854958Y10003234D01*
X15787539Y10047288D01*
X15734109Y10103247D01*
X15691917Y10168434D01*
X15661779Y10237787D01*
X15643696Y10311309D01*
X15637669Y10388997D01*
X15637669Y10747375D01*
X15639455Y10789642D01*
X15650766Y10821194D01*
X15682913Y10846197D01*
X15743634Y10853341D01*
X15804356Y10846197D01*
X15835313Y10821194D01*
X15849600Y10746184D01*
X15849600Y10388997D01*
X15858530Y10318155D01*
X15885319Y10250884D01*
X15938897Y10197306D01*
X16023431Y10177066D01*
X16099334Y10193139D01*
X16153209Y10241359D01*
X16185356Y10310713D01*
X16196072Y10390187D01*
X16196072Y10754519D01*
X16207978Y10820003D01*
X16242506Y10846197D01*
X16299061Y10853341D01*
X16353234Y10847387D01*
G37*
G36*
X15209713Y10854903D02*
G01*
X15289113Y10831016D01*
X15362709Y10791205D01*
X15430500Y10735469D01*
X15487278Y10667938D01*
X15527834Y10592743D01*
X15552167Y10509883D01*
X15560278Y10419358D01*
X15552539Y10328498D01*
X15529322Y10244634D01*
X15490627Y10167764D01*
X15436453Y10097889D01*
X15370969Y10039809D01*
X15298341Y9998323D01*
X15218569Y9973432D01*
X15131653Y9965134D01*
X15129272Y9965358D01*
X15044551Y9973320D01*
X14964221Y9997877D01*
X14890663Y10038804D01*
X14823877Y10096103D01*
X14768401Y10164713D01*
X14728775Y10239573D01*
X14705000Y10320685D01*
X14697075Y10408047D01*
X14697631Y10414000D01*
X14907816Y10414000D01*
X14915422Y10347788D01*
X14938243Y10290440D01*
X14976277Y10241955D01*
X15048756Y10192395D01*
X15129272Y10175875D01*
X15209639Y10191948D01*
X15281672Y10240169D01*
X15319375Y10287926D01*
X15341997Y10345473D01*
X15349537Y10412809D01*
X15341931Y10480278D01*
X15319110Y10538222D01*
X15281077Y10586641D01*
X15208597Y10635754D01*
X15128081Y10652125D01*
X15047714Y10635605D01*
X14975681Y10586045D01*
X14937978Y10537560D01*
X14915356Y10480212D01*
X14907816Y10414000D01*
X14697631Y10414000D01*
X14706005Y10503743D01*
X14732794Y10593189D01*
X14774466Y10672514D01*
X14828044Y10737850D01*
X14892040Y10789940D01*
X14964966Y10829528D01*
X15043547Y10854531D01*
X15124509Y10862866D01*
X15209713Y10854903D01*
G37*
%TD*%
M02*
