M48
; DRILL file {KiCad 8.0.5} date 2024-09-30T10:49:06+0100
; FORMAT={-:-/ absolute / metric / decimal}
; #@! TF.CreationDate,2024-09-30T10:49:06+01:00
; #@! TF.GenerationSoftware,Kicad,Pcbnew,8.0.5
; #@! TF.FileFunction,MixedPlating,1,2
FMAT,2
METRIC
; #@! TA.AperFunction,Plated,PTH,ViaDrill
T1C0.300
; #@! TA.AperFunction,Plated,PTH,ComponentDrill
T2C1.016
; #@! TA.AperFunction,NonPlated,NPTH,ComponentDrill
T3C3.100
%
G90
G05
T1
X0.813Y7.874
X2.286Y17.78
X2.54Y12.7
X5.08Y20.828
X5.08Y15.494
X5.08Y9.652
X5.08Y2.54
X5.588Y7.874
X6.096Y10.668
X6.604Y17.653
X6.604Y14.732
X7.366Y24.638
X7.366Y19.05
X8.128Y14.732
X8.166Y17.615
X8.89Y10.668
X9.766Y18.415
X10.287Y16.891
X10.414Y12.7
X10.541Y11.43
X10.604Y9.715
X10.668Y18.161
X11.43Y20.447
X12.573Y9.652
X12.7Y22.987
X12.7Y4.699
X12.7Y2.286
X14.732Y19.063
X14.732Y17.526
X14.732Y14.732
X14.793Y12.511
X15.138Y10.465
X16.129Y8.255
X16.764Y14.732
X17.145Y7.62
X17.526Y10.668
X18.034Y24.638
X18.542Y10.668
X18.669Y20.447
X19.05Y14.732
X19.431Y20.828
X19.685Y7.747
X19.939Y4.064
X20.32Y10.16
X22.86Y17.78
X22.86Y12.7
X24.333Y7.772
T2
X6.35Y1.27
X8.89Y1.27
X11.43Y1.27
X13.97Y1.27
X16.51Y1.27
X19.05Y1.27
T3
X2.54Y22.86
X2.54Y2.54
X22.86Y22.86
X22.86Y2.54
M30
