%TF.GenerationSoftware,KiCad,Pcbnew,8.0.5*%
%TF.CreationDate,2024-09-30T10:49:06+01:00*%
%TF.ProjectId,Soft_Power_Switch,536f6674-5f50-46f7-9765-725f53776974,v01*%
%TF.SameCoordinates,Original*%
%TF.FileFunction,Legend,Bot*%
%TF.FilePolarity,Positive*%
%FSLAX46Y46*%
G04 Gerber Fmt 4.6, Leading zero omitted, Abs format (unit mm)*
G04 Created by KiCad (PCBNEW 8.0.5) date 2024-09-30 10:49:06*
%MOMM*%
%LPD*%
G01*
G04 APERTURE LIST*
%ADD10C,0.000000*%
%ADD11C,0.018437*%
%ADD12C,0.152400*%
G04 APERTURE END LIST*
D10*
%TO.C,G\u002A\u002A\u002A*%
G36*
X12387107Y20778591D02*
G01*
X12387107Y18782041D01*
X11941412Y18782041D01*
X11941412Y19340576D01*
X11768740Y19507148D01*
X11323336Y18782041D01*
X10783535Y18782041D01*
X11464494Y19808053D01*
X10852226Y20404782D01*
X11379538Y20404782D01*
X11941412Y19820689D01*
X11941412Y21023004D01*
X12387107Y20778591D01*
G37*
G36*
X12677690Y20448176D02*
G01*
X12698430Y20446952D01*
X12719057Y20444929D01*
X12739550Y20442123D01*
X12759889Y20438546D01*
X12780052Y20434214D01*
X12800020Y20429141D01*
X12819770Y20423340D01*
X12839283Y20416827D01*
X12858537Y20409616D01*
X12877513Y20401721D01*
X12896188Y20393156D01*
X12914543Y20383935D01*
X12932556Y20374074D01*
X12950207Y20363585D01*
X12967475Y20352484D01*
X12984339Y20340785D01*
X13000779Y20328502D01*
X13016773Y20315649D01*
X13032302Y20302242D01*
X13047343Y20288293D01*
X13061877Y20273817D01*
X13075883Y20258829D01*
X13089339Y20243343D01*
X13102226Y20227374D01*
X13114521Y20210934D01*
X13126206Y20194040D01*
X13137258Y20176705D01*
X13147657Y20158943D01*
X13157382Y20140769D01*
X13166413Y20122198D01*
X13174729Y20103242D01*
X13180829Y20103242D01*
X13180829Y20404728D01*
X13604594Y20329067D01*
X13604594Y18781988D01*
X13158899Y18781988D01*
X13158899Y19513195D01*
X13157584Y19566648D01*
X13153532Y19618516D01*
X13146582Y19668543D01*
X13141970Y19692785D01*
X13136573Y19716470D01*
X13130372Y19739567D01*
X13123346Y19762042D01*
X13115475Y19783864D01*
X13106738Y19805000D01*
X13097117Y19825418D01*
X13086591Y19845087D01*
X13075139Y19863974D01*
X13062743Y19882047D01*
X13049380Y19899273D01*
X13035033Y19915621D01*
X13019679Y19931059D01*
X13003301Y19945554D01*
X12985876Y19959074D01*
X12967386Y19971587D01*
X12947810Y19983061D01*
X12927128Y19993464D01*
X12905320Y20002763D01*
X12882366Y20010926D01*
X12858245Y20017922D01*
X12832939Y20023718D01*
X12806426Y20028282D01*
X12778687Y20031582D01*
X12749702Y20033585D01*
X12719450Y20034260D01*
X12698903Y20033962D01*
X12677634Y20033099D01*
X12656079Y20031718D01*
X12634675Y20029867D01*
X12613855Y20027595D01*
X12594057Y20024948D01*
X12575715Y20021974D01*
X12559267Y20018721D01*
X12559267Y20432903D01*
X12571043Y20436203D01*
X12582868Y20439213D01*
X12594778Y20441886D01*
X12606810Y20444176D01*
X12618997Y20446037D01*
X12631377Y20447423D01*
X12637651Y20447923D01*
X12643986Y20448288D01*
X12650386Y20448511D01*
X12656858Y20448587D01*
X12677690Y20448176D01*
G37*
G36*
X10002774Y21022368D02*
G01*
X10035282Y21020600D01*
X10066708Y21017680D01*
X10097052Y21013630D01*
X10126317Y21008472D01*
X10154504Y21002227D01*
X10181613Y20994918D01*
X10207645Y20986565D01*
X10232602Y20977191D01*
X10256485Y20966819D01*
X10279295Y20955468D01*
X10301032Y20943162D01*
X10321699Y20929922D01*
X10341296Y20915770D01*
X10359823Y20900728D01*
X10377284Y20884817D01*
X10393677Y20868059D01*
X10409005Y20850477D01*
X10423268Y20832091D01*
X10436469Y20812925D01*
X10448606Y20792999D01*
X10459683Y20772335D01*
X10469700Y20750955D01*
X10478657Y20728882D01*
X10486557Y20706136D01*
X10493400Y20682739D01*
X10499187Y20658715D01*
X10503919Y20634083D01*
X10507598Y20608866D01*
X10510225Y20583086D01*
X10511800Y20556765D01*
X10512324Y20529924D01*
X10512324Y20404740D01*
X10648109Y20404740D01*
X10951920Y20106594D01*
X10512324Y20106594D01*
X10512324Y18781853D01*
X10066629Y18781853D01*
X10066629Y20106594D01*
X9759189Y20106594D01*
X9759189Y20404740D01*
X10066629Y20404740D01*
X10066629Y20501895D01*
X10066069Y20526234D01*
X10064362Y20548635D01*
X10063065Y20559125D01*
X10061466Y20569149D01*
X10059559Y20578715D01*
X10057340Y20587828D01*
X10054802Y20596494D01*
X10051942Y20604721D01*
X10048754Y20612514D01*
X10045232Y20619880D01*
X10041372Y20626825D01*
X10037168Y20633355D01*
X10032616Y20639476D01*
X10027709Y20645196D01*
X10022444Y20650520D01*
X10016814Y20655455D01*
X10010815Y20660006D01*
X10004441Y20664181D01*
X9997687Y20667986D01*
X9990549Y20671426D01*
X9983021Y20674509D01*
X9975097Y20677241D01*
X9966773Y20679627D01*
X9958044Y20681675D01*
X9948903Y20683390D01*
X9939347Y20684779D01*
X9929370Y20685849D01*
X9918967Y20686605D01*
X9896862Y20687202D01*
X9876828Y20687058D01*
X9856535Y20686623D01*
X9836065Y20685892D01*
X9815500Y20684860D01*
X9794921Y20683522D01*
X9774410Y20681872D01*
X9754049Y20679906D01*
X9733920Y20677618D01*
X9733920Y21010473D01*
X9762375Y21011885D01*
X9791347Y21013710D01*
X9850354Y21017861D01*
X9880143Y21019814D01*
X9909959Y21021439D01*
X9939680Y21022550D01*
X9969184Y21022962D01*
X10002774Y21022368D01*
G37*
G36*
X8557407Y19554107D02*
G01*
X8558628Y19494613D01*
X8560163Y19466547D01*
X8562323Y19439586D01*
X8565115Y19413721D01*
X8568545Y19388940D01*
X8572619Y19365232D01*
X8577344Y19342588D01*
X8582727Y19320994D01*
X8588773Y19300442D01*
X8595489Y19280920D01*
X8602883Y19262417D01*
X8610959Y19244922D01*
X8619725Y19228425D01*
X8629186Y19212914D01*
X8639351Y19198380D01*
X8650223Y19184810D01*
X8661812Y19172194D01*
X8674122Y19160522D01*
X8687160Y19149782D01*
X8700932Y19139963D01*
X8715446Y19131055D01*
X8730707Y19123047D01*
X8746722Y19115929D01*
X8763497Y19109688D01*
X8781039Y19104314D01*
X8799354Y19099797D01*
X8818448Y19096126D01*
X8838329Y19093289D01*
X8859002Y19091276D01*
X8880474Y19090077D01*
X8902752Y19089679D01*
X8922046Y19090065D01*
X8940563Y19091224D01*
X8958312Y19093155D01*
X8975305Y19095860D01*
X8991553Y19099340D01*
X9007066Y19103594D01*
X9021856Y19108625D01*
X9035932Y19114431D01*
X9049307Y19121014D01*
X9061990Y19128375D01*
X9073993Y19136514D01*
X9085327Y19145432D01*
X9096002Y19155129D01*
X9106029Y19165606D01*
X9115419Y19176864D01*
X9124184Y19188904D01*
X9132333Y19201725D01*
X9139877Y19215329D01*
X9146828Y19229717D01*
X9153197Y19244888D01*
X9164229Y19277585D01*
X9173061Y19313425D01*
X9179779Y19352414D01*
X9184470Y19394556D01*
X9187221Y19439856D01*
X9188119Y19488321D01*
X9188119Y20404688D01*
X9633958Y20404688D01*
X9633958Y19406414D01*
X9632503Y19332711D01*
X9627909Y19262367D01*
X9619831Y19195574D01*
X9607924Y19132524D01*
X9600427Y19102464D01*
X9591843Y19073411D01*
X9582130Y19045391D01*
X9571244Y19018427D01*
X9559142Y18992544D01*
X9545781Y18967765D01*
X9531118Y18944115D01*
X9515110Y18921617D01*
X9497714Y18900297D01*
X9478886Y18880177D01*
X9458583Y18861283D01*
X9436763Y18843637D01*
X9413383Y18827265D01*
X9388398Y18812190D01*
X9361767Y18798436D01*
X9333445Y18786028D01*
X9303391Y18774989D01*
X9271560Y18765344D01*
X9237910Y18757117D01*
X9202397Y18750331D01*
X9164979Y18745012D01*
X9125612Y18741182D01*
X9084254Y18738867D01*
X9040860Y18738090D01*
X9005465Y18739088D01*
X8970052Y18742096D01*
X8934752Y18747137D01*
X8899693Y18754235D01*
X8865005Y18763411D01*
X8830818Y18774689D01*
X8797260Y18788091D01*
X8764462Y18803641D01*
X8732551Y18821360D01*
X8701659Y18841272D01*
X8686635Y18852057D01*
X8671913Y18863399D01*
X8657511Y18875301D01*
X8643444Y18887765D01*
X8629729Y18900794D01*
X8616381Y18914391D01*
X8603417Y18928559D01*
X8590852Y18943301D01*
X8578704Y18958619D01*
X8566988Y18974517D01*
X8555721Y18990997D01*
X8544918Y19008063D01*
X8535479Y19008063D01*
X8535479Y18781948D01*
X8111568Y18781948D01*
X8111568Y20404688D01*
X8557407Y20404688D01*
X8557407Y19554107D01*
G37*
G36*
X6971717Y20447488D02*
G01*
X7007143Y20444480D01*
X7042449Y20439439D01*
X7077507Y20432343D01*
X7112189Y20423169D01*
X7146367Y20411894D01*
X7179913Y20398497D01*
X7212698Y20382953D01*
X7244595Y20365242D01*
X7275475Y20345340D01*
X7290494Y20334560D01*
X7305211Y20323224D01*
X7319610Y20311329D01*
X7333675Y20298873D01*
X7347389Y20285852D01*
X7360737Y20272263D01*
X7373704Y20258105D01*
X7386272Y20243373D01*
X7398425Y20228065D01*
X7410149Y20212179D01*
X7421426Y20195711D01*
X7432241Y20178659D01*
X7441827Y20178659D01*
X7441827Y20404628D01*
X7865447Y20404628D01*
X7865447Y18781888D01*
X7419462Y18781888D01*
X7419462Y19632323D01*
X7418244Y19691868D01*
X7416711Y19719958D01*
X7414553Y19746940D01*
X7411766Y19772825D01*
X7408340Y19797625D01*
X7404272Y19821350D01*
X7399553Y19844011D01*
X7394177Y19865619D01*
X7388139Y19886184D01*
X7381432Y19905719D01*
X7374048Y19924233D01*
X7365983Y19941738D01*
X7357228Y19958245D01*
X7347779Y19973763D01*
X7337628Y19988305D01*
X7326769Y20001882D01*
X7315196Y20014503D01*
X7302902Y20026180D01*
X7289880Y20036924D01*
X7276125Y20046747D01*
X7261630Y20055657D01*
X7246388Y20063668D01*
X7230393Y20070789D01*
X7213639Y20077031D01*
X7196119Y20082406D01*
X7177826Y20086923D01*
X7158755Y20090595D01*
X7138898Y20093432D01*
X7118250Y20095445D01*
X7096804Y20096645D01*
X7074554Y20097043D01*
X7055258Y20096656D01*
X7036739Y20095496D01*
X7018986Y20093563D01*
X7001988Y20090855D01*
X6985733Y20087372D01*
X6970212Y20083114D01*
X6955414Y20078079D01*
X6941328Y20072268D01*
X6927943Y20065679D01*
X6915248Y20058313D01*
X6903233Y20050168D01*
X6891886Y20041244D01*
X6881199Y20031540D01*
X6871158Y20021056D01*
X6861754Y20009791D01*
X6852976Y19997745D01*
X6844814Y19984917D01*
X6837256Y19971306D01*
X6830291Y19956912D01*
X6823910Y19941734D01*
X6812853Y19909025D01*
X6803999Y19873174D01*
X6797262Y19834176D01*
X6792557Y19792027D01*
X6789797Y19746721D01*
X6788896Y19698255D01*
X6788896Y18781888D01*
X6343202Y18781888D01*
X6343202Y19780162D01*
X6344656Y19853841D01*
X6349250Y19924167D01*
X6357328Y19990948D01*
X6369235Y20053990D01*
X6376733Y20084049D01*
X6385316Y20113100D01*
X6395030Y20141120D01*
X6405916Y20168084D01*
X6418018Y20193969D01*
X6431379Y20218750D01*
X6446042Y20242403D01*
X6462050Y20264904D01*
X6479446Y20286228D01*
X6498274Y20306351D01*
X6518577Y20325250D01*
X6540397Y20342900D01*
X6563777Y20359277D01*
X6588762Y20374357D01*
X6615393Y20388115D01*
X6643715Y20400528D01*
X6673769Y20411570D01*
X6705600Y20421219D01*
X6739250Y20429450D01*
X6774763Y20436238D01*
X6812181Y20441560D01*
X6851547Y20445392D01*
X6892906Y20447708D01*
X6936299Y20448486D01*
X6971717Y20447488D01*
G37*
G36*
X17161842Y18210697D02*
G01*
X16716147Y17814231D01*
X16716147Y18982565D01*
X16709612Y18982565D01*
X16688256Y18953493D01*
X16665353Y18926192D01*
X16640976Y18900676D01*
X16615198Y18876960D01*
X16588093Y18855058D01*
X16559734Y18834984D01*
X16530193Y18816754D01*
X16499545Y18800381D01*
X16467862Y18785880D01*
X16435217Y18773266D01*
X16401684Y18762553D01*
X16367336Y18753755D01*
X16332246Y18746887D01*
X16296487Y18741963D01*
X16260132Y18738999D01*
X16223255Y18738007D01*
X16179238Y18739181D01*
X16136636Y18742658D01*
X16095447Y18748369D01*
X16055671Y18756245D01*
X16017307Y18766216D01*
X15980352Y18778215D01*
X15944807Y18792172D01*
X15910670Y18808019D01*
X15877939Y18825686D01*
X15846614Y18845105D01*
X15816694Y18866207D01*
X15788177Y18888922D01*
X15761062Y18913183D01*
X15735349Y18938920D01*
X15711035Y18966064D01*
X15688120Y18994547D01*
X15666602Y19024299D01*
X15646482Y19055252D01*
X15627756Y19087336D01*
X15610425Y19120484D01*
X15579940Y19189693D01*
X15555019Y19262327D01*
X15535652Y19337836D01*
X15521829Y19415668D01*
X15513542Y19495273D01*
X15510782Y19576099D01*
X15511175Y19588588D01*
X15956622Y19588588D01*
X15957749Y19539373D01*
X15961230Y19490802D01*
X15967217Y19443226D01*
X15975864Y19396994D01*
X15981233Y19374490D01*
X15987323Y19352453D01*
X15994154Y19330927D01*
X16001745Y19309955D01*
X16010115Y19289580D01*
X16019283Y19269847D01*
X16029269Y19250799D01*
X16040090Y19232479D01*
X16051767Y19214931D01*
X16064317Y19198200D01*
X16077762Y19182328D01*
X16092118Y19167358D01*
X16107406Y19153336D01*
X16123644Y19140304D01*
X16140851Y19128306D01*
X16159047Y19117386D01*
X16178251Y19107587D01*
X16198481Y19098953D01*
X16219756Y19091528D01*
X16242096Y19085355D01*
X16265520Y19080478D01*
X16290047Y19076940D01*
X16315695Y19074785D01*
X16342484Y19074057D01*
X16369040Y19074785D01*
X16394504Y19076940D01*
X16418893Y19080478D01*
X16442223Y19085355D01*
X16464511Y19091528D01*
X16485771Y19098953D01*
X16506022Y19107587D01*
X16525279Y19117386D01*
X16543558Y19128306D01*
X16560877Y19140304D01*
X16577250Y19153336D01*
X16592695Y19167358D01*
X16607227Y19182328D01*
X16620864Y19198200D01*
X16633620Y19214931D01*
X16645514Y19232479D01*
X16656560Y19250799D01*
X16666776Y19269847D01*
X16684779Y19309955D01*
X16699655Y19352453D01*
X16711534Y19396994D01*
X16720547Y19443226D01*
X16726822Y19490802D01*
X16730492Y19539373D01*
X16731687Y19588588D01*
X16730558Y19637887D01*
X16727073Y19686744D01*
X16721077Y19734781D01*
X16712419Y19781619D01*
X16707045Y19804471D01*
X16700948Y19826882D01*
X16694109Y19848804D01*
X16686510Y19870190D01*
X16678131Y19890994D01*
X16668954Y19911168D01*
X16658959Y19930664D01*
X16648128Y19949435D01*
X16636441Y19967435D01*
X16623879Y19984616D01*
X16610424Y20000931D01*
X16596056Y20016332D01*
X16580756Y20030772D01*
X16564506Y20044205D01*
X16547286Y20056582D01*
X16529078Y20067857D01*
X16509861Y20077983D01*
X16489618Y20086911D01*
X16468329Y20094596D01*
X16445976Y20100989D01*
X16422538Y20106044D01*
X16397998Y20109713D01*
X16372337Y20111949D01*
X16345534Y20112705D01*
X16319298Y20111940D01*
X16294115Y20109679D01*
X16269971Y20105971D01*
X16246850Y20100864D01*
X16224738Y20094407D01*
X16203622Y20086650D01*
X16183486Y20077641D01*
X16164316Y20067429D01*
X16146098Y20056062D01*
X16128818Y20043591D01*
X16112460Y20030063D01*
X16097011Y20015528D01*
X16082456Y20000035D01*
X16068780Y19983631D01*
X16055970Y19966368D01*
X16044011Y19948292D01*
X16032888Y19929454D01*
X16022588Y19909901D01*
X16004395Y19868850D01*
X15989317Y19825531D01*
X15977240Y19780333D01*
X15968046Y19733648D01*
X15961623Y19685869D01*
X15957853Y19637385D01*
X15956622Y19588588D01*
X15511175Y19588588D01*
X15513480Y19661905D01*
X15521622Y19746008D01*
X15535282Y19827879D01*
X15544204Y19867812D01*
X15554533Y19906989D01*
X15566279Y19945344D01*
X15579449Y19982810D01*
X15594054Y20019321D01*
X15610103Y20054811D01*
X15627605Y20089215D01*
X15646568Y20122466D01*
X15667003Y20154498D01*
X15688919Y20185244D01*
X15712323Y20214639D01*
X15737227Y20242617D01*
X15763638Y20269112D01*
X15791567Y20294057D01*
X15821021Y20317386D01*
X15852011Y20339033D01*
X15884546Y20358933D01*
X15918634Y20377018D01*
X15954286Y20393223D01*
X15991509Y20407482D01*
X16030314Y20419729D01*
X16070709Y20429897D01*
X16112704Y20437921D01*
X16156308Y20443734D01*
X16201530Y20447270D01*
X16248379Y20448464D01*
X16285697Y20447578D01*
X16322301Y20444894D01*
X16358142Y20440376D01*
X16393168Y20433985D01*
X16427329Y20425683D01*
X16460576Y20415434D01*
X16492857Y20403198D01*
X16508621Y20396325D01*
X16524124Y20388940D01*
X16539361Y20381040D01*
X16554325Y20372621D01*
X16569011Y20363676D01*
X16583411Y20354203D01*
X16597520Y20344195D01*
X16611331Y20333649D01*
X16624838Y20322559D01*
X16638035Y20310920D01*
X16650915Y20298729D01*
X16663472Y20285981D01*
X16675701Y20272670D01*
X16687594Y20258792D01*
X16699145Y20244342D01*
X16710349Y20229316D01*
X16721198Y20213709D01*
X16731687Y20197516D01*
X16737931Y20197516D01*
X16737931Y20404606D01*
X17161842Y20329090D01*
X17161842Y19588588D01*
X17161842Y18210697D01*
G37*
G36*
X15382433Y19224632D02*
G01*
X15381731Y19193938D01*
X15379645Y19164290D01*
X15376208Y19135683D01*
X15371449Y19108114D01*
X15365402Y19081576D01*
X15358098Y19056066D01*
X15349568Y19031578D01*
X15339844Y19008109D01*
X15328957Y18985652D01*
X15316940Y18964204D01*
X15303822Y18943760D01*
X15289637Y18924315D01*
X15274416Y18905865D01*
X15258190Y18888404D01*
X15240990Y18871928D01*
X15222850Y18856433D01*
X15203798Y18841913D01*
X15183869Y18828364D01*
X15163092Y18815781D01*
X15141501Y18804160D01*
X15119125Y18793495D01*
X15095997Y18783783D01*
X15072149Y18775017D01*
X15047611Y18767195D01*
X14996594Y18754359D01*
X14943200Y18745237D01*
X14887681Y18739791D01*
X14830289Y18737984D01*
X14792558Y18738617D01*
X14754856Y18740556D01*
X14717279Y18743862D01*
X14679925Y18748595D01*
X14642889Y18754815D01*
X14606270Y18762583D01*
X14570163Y18771959D01*
X14534666Y18783004D01*
X14499875Y18795778D01*
X14465887Y18810341D01*
X14432799Y18826755D01*
X14400707Y18845078D01*
X14369709Y18865373D01*
X14339902Y18887698D01*
X14311381Y18912116D01*
X14284244Y18938685D01*
X14282520Y18918788D01*
X14280007Y18898882D01*
X14276777Y18879014D01*
X14272898Y18859229D01*
X14268441Y18839573D01*
X14263475Y18820093D01*
X14258069Y18800834D01*
X14252295Y18781842D01*
X13800645Y18781842D01*
X13807979Y18795141D01*
X13814741Y18810232D01*
X13820945Y18826998D01*
X13826604Y18845316D01*
X13831733Y18865069D01*
X13836344Y18886136D01*
X13840451Y18908397D01*
X13844068Y18931732D01*
X13849886Y18981147D01*
X13853907Y19033424D01*
X13856239Y19087602D01*
X13856993Y19142725D01*
X13856993Y19576076D01*
X14302833Y19576076D01*
X14302833Y19409503D01*
X14304049Y19364690D01*
X14306281Y19337837D01*
X14310225Y19308890D01*
X14316357Y19278503D01*
X14325149Y19247330D01*
X14330691Y19231653D01*
X14337075Y19216025D01*
X14344361Y19200526D01*
X14352608Y19185240D01*
X14361876Y19170247D01*
X14372223Y19155629D01*
X14383708Y19141469D01*
X14396392Y19127847D01*
X14410332Y19114845D01*
X14425589Y19102545D01*
X14442221Y19091029D01*
X14460288Y19080379D01*
X14479849Y19070675D01*
X14500962Y19062000D01*
X14523688Y19054436D01*
X14548085Y19048064D01*
X14574213Y19042965D01*
X14602130Y19039223D01*
X14631896Y19036917D01*
X14663571Y19036130D01*
X14690479Y19036663D01*
X14716850Y19038334D01*
X14742519Y19041254D01*
X14767320Y19045534D01*
X14779344Y19048218D01*
X14791089Y19051284D01*
X14802534Y19054745D01*
X14813659Y19058615D01*
X14824443Y19062908D01*
X14834865Y19067638D01*
X14844905Y19072819D01*
X14854541Y19078463D01*
X14863754Y19084586D01*
X14872523Y19091201D01*
X14880826Y19098322D01*
X14888644Y19105963D01*
X14895955Y19114137D01*
X14902738Y19122859D01*
X14908974Y19132141D01*
X14914642Y19141999D01*
X14919720Y19152446D01*
X14924188Y19163495D01*
X14928025Y19175161D01*
X14931211Y19187457D01*
X14933726Y19200397D01*
X14935547Y19213995D01*
X14936655Y19228265D01*
X14937029Y19243221D01*
X14936664Y19258183D01*
X14935583Y19272502D01*
X14933806Y19286193D01*
X14931355Y19299273D01*
X14928250Y19311756D01*
X14924512Y19323660D01*
X14920162Y19334999D01*
X14915220Y19345791D01*
X14909708Y19356050D01*
X14903645Y19365792D01*
X14897053Y19375035D01*
X14889953Y19383792D01*
X14882365Y19392082D01*
X14874310Y19399918D01*
X14865809Y19407317D01*
X14856883Y19414296D01*
X14847552Y19420869D01*
X14837837Y19427054D01*
X14817339Y19438319D01*
X14795555Y19448218D01*
X14772651Y19456879D01*
X14748792Y19464428D01*
X14724146Y19470993D01*
X14698879Y19476702D01*
X14673156Y19481680D01*
X14464468Y19513575D01*
X14440149Y19518403D01*
X14416712Y19523833D01*
X14394304Y19529992D01*
X14373072Y19537004D01*
X14353161Y19544993D01*
X14334720Y19554085D01*
X14326097Y19559083D01*
X14317895Y19564404D01*
X14310134Y19570063D01*
X14302833Y19576076D01*
X13856993Y19576076D01*
X13856993Y19987353D01*
X13858120Y20022906D01*
X13861444Y20056646D01*
X13866884Y20088618D01*
X13874354Y20118867D01*
X13883773Y20147438D01*
X13895056Y20174376D01*
X13908120Y20199725D01*
X13922882Y20223531D01*
X13939258Y20245839D01*
X13957165Y20266692D01*
X13976520Y20286136D01*
X13997240Y20304216D01*
X14019240Y20320977D01*
X14042438Y20336464D01*
X14066750Y20350721D01*
X14092093Y20363793D01*
X14145539Y20386564D01*
X14202107Y20405133D01*
X14261132Y20419862D01*
X14321946Y20431107D01*
X14383882Y20439229D01*
X14446273Y20444586D01*
X14508454Y20447537D01*
X14569756Y20448441D01*
X14638044Y20446895D01*
X14706029Y20442103D01*
X14773187Y20433836D01*
X14838993Y20421863D01*
X14871226Y20414415D01*
X14902924Y20405954D01*
X14934023Y20396452D01*
X14964456Y20385880D01*
X14994158Y20374209D01*
X15023064Y20361411D01*
X15051108Y20347456D01*
X15078224Y20332316D01*
X15104347Y20315962D01*
X15129412Y20298366D01*
X15153352Y20279498D01*
X15176103Y20259330D01*
X15197599Y20237833D01*
X15217774Y20214979D01*
X15236563Y20190738D01*
X15253900Y20165083D01*
X15269721Y20137983D01*
X15283958Y20109411D01*
X15296547Y20079338D01*
X15307423Y20047734D01*
X15316519Y20014572D01*
X15323770Y19979823D01*
X15329111Y19943457D01*
X15332476Y19905446D01*
X14886636Y19905446D01*
X14884899Y19921609D01*
X14882634Y19937157D01*
X14879844Y19952095D01*
X14876535Y19966430D01*
X14872711Y19980170D01*
X14868376Y19993321D01*
X14863535Y20005889D01*
X14858192Y20017881D01*
X14852353Y20029305D01*
X14846022Y20040167D01*
X14839203Y20050473D01*
X14831902Y20060231D01*
X14824122Y20069447D01*
X14815868Y20078127D01*
X14807145Y20086280D01*
X14797958Y20093911D01*
X14788311Y20101027D01*
X14778208Y20107635D01*
X14767655Y20113742D01*
X14756656Y20119354D01*
X14745215Y20124479D01*
X14733337Y20129122D01*
X14721027Y20133291D01*
X14708289Y20136993D01*
X14681548Y20143020D01*
X14653152Y20147259D01*
X14623137Y20149762D01*
X14591539Y20150585D01*
X14562474Y20150183D01*
X14534145Y20148856D01*
X14506708Y20146421D01*
X14480322Y20142695D01*
X14467572Y20140290D01*
X14455144Y20137494D01*
X14443056Y20134283D01*
X14431330Y20130635D01*
X14419984Y20126527D01*
X14409038Y20121935D01*
X14398511Y20116838D01*
X14388425Y20111211D01*
X14378797Y20105033D01*
X14369648Y20098280D01*
X14360997Y20090929D01*
X14352865Y20082958D01*
X14345270Y20074343D01*
X14338232Y20065062D01*
X14331771Y20055092D01*
X14325907Y20044410D01*
X14320660Y20032993D01*
X14316048Y20020818D01*
X14312092Y20007862D01*
X14308811Y19994103D01*
X14306225Y19979517D01*
X14304353Y19964081D01*
X14303216Y19947773D01*
X14302833Y19930570D01*
X14304277Y19898618D01*
X14311828Y19870768D01*
X14325084Y19846674D01*
X14343641Y19825989D01*
X14367097Y19808368D01*
X14395051Y19793462D01*
X14427100Y19780928D01*
X14462841Y19770417D01*
X14543792Y19754080D01*
X14634686Y19741682D01*
X14833429Y19717616D01*
X14934842Y19700405D01*
X14984650Y19689293D01*
X15033323Y19676048D01*
X15080459Y19660323D01*
X15125655Y19641772D01*
X15168510Y19620049D01*
X15208620Y19594808D01*
X15245583Y19565701D01*
X15278998Y19532383D01*
X15308462Y19494506D01*
X15333572Y19451726D01*
X15353927Y19403694D01*
X15369124Y19350066D01*
X15378760Y19290494D01*
X15381397Y19243221D01*
X15382433Y19224632D01*
G37*
G36*
X18164989Y20447136D02*
G01*
X18230008Y20443045D01*
X18294167Y20435865D01*
X18356929Y20425303D01*
X18387618Y20418661D01*
X18417757Y20411063D01*
X18447277Y20402471D01*
X18476113Y20392850D01*
X18504197Y20382162D01*
X18531461Y20370370D01*
X18557839Y20357438D01*
X18583264Y20343328D01*
X18607668Y20328004D01*
X18630984Y20311429D01*
X18653145Y20293565D01*
X18674083Y20274377D01*
X18693733Y20253828D01*
X18712026Y20231879D01*
X18728896Y20208496D01*
X18744275Y20183640D01*
X18758096Y20157274D01*
X18770292Y20129363D01*
X18780796Y20099870D01*
X18789541Y20068756D01*
X18796459Y20035986D01*
X18801484Y20001522D01*
X18804548Y19965329D01*
X18805585Y19927368D01*
X18804848Y19900906D01*
X18802667Y19875606D01*
X18799088Y19851435D01*
X18794156Y19828359D01*
X18787916Y19806345D01*
X18780414Y19785363D01*
X18771695Y19765377D01*
X18761804Y19746356D01*
X18750787Y19728267D01*
X18738689Y19711078D01*
X18725556Y19694755D01*
X18711433Y19679265D01*
X18696365Y19664577D01*
X18680398Y19650657D01*
X18663576Y19637473D01*
X18645946Y19624991D01*
X18608442Y19602006D01*
X18568247Y19581439D01*
X18525725Y19563029D01*
X18481239Y19546513D01*
X18435151Y19531631D01*
X18387825Y19518119D01*
X18290908Y19494162D01*
X18232988Y19482009D01*
X18178172Y19470066D01*
X18126545Y19458188D01*
X18078197Y19446229D01*
X18033214Y19434041D01*
X17991684Y19421479D01*
X17972241Y19415012D01*
X17953695Y19408397D01*
X17936055Y19401614D01*
X17919333Y19394647D01*
X17903539Y19387476D01*
X17888686Y19380084D01*
X17874783Y19372451D01*
X17861841Y19364561D01*
X17849873Y19356393D01*
X17838887Y19347931D01*
X17828896Y19339156D01*
X17819910Y19330049D01*
X17811941Y19320593D01*
X17804998Y19310769D01*
X17799094Y19300558D01*
X17794239Y19289943D01*
X17790443Y19278904D01*
X17787719Y19267425D01*
X17786076Y19255486D01*
X17785526Y19243069D01*
X17786007Y19228676D01*
X17787426Y19214898D01*
X17789743Y19201725D01*
X17792922Y19189146D01*
X17796924Y19177151D01*
X17801712Y19165729D01*
X17807247Y19154871D01*
X17813491Y19144566D01*
X17820406Y19134803D01*
X17827955Y19125572D01*
X17836100Y19116863D01*
X17844802Y19108665D01*
X17854023Y19100968D01*
X17863726Y19093762D01*
X17873872Y19087036D01*
X17884424Y19080780D01*
X17906593Y19069636D01*
X17929928Y19060247D01*
X17954127Y19052531D01*
X17978884Y19046403D01*
X18003896Y19041781D01*
X18028860Y19038583D01*
X18053472Y19036725D01*
X18077428Y19036124D01*
X18109704Y19037089D01*
X18141670Y19040011D01*
X18173082Y19044931D01*
X18188504Y19048153D01*
X18203696Y19051890D01*
X18218627Y19056146D01*
X18233267Y19060928D01*
X18247584Y19066240D01*
X18261550Y19072087D01*
X18275132Y19078475D01*
X18288300Y19085408D01*
X18301024Y19092891D01*
X18313273Y19100930D01*
X18325016Y19109530D01*
X18336224Y19118696D01*
X18346865Y19128433D01*
X18356909Y19138745D01*
X18366325Y19149639D01*
X18375083Y19161120D01*
X18383151Y19173191D01*
X18390501Y19185859D01*
X18397100Y19199129D01*
X18402918Y19213006D01*
X18407925Y19227494D01*
X18412091Y19242599D01*
X18415384Y19258326D01*
X18417774Y19274681D01*
X18419230Y19291667D01*
X18419723Y19309291D01*
X18843198Y19309291D01*
X18840699Y19269794D01*
X18836186Y19231964D01*
X18829723Y19195775D01*
X18821373Y19161199D01*
X18811201Y19128210D01*
X18799270Y19096781D01*
X18785643Y19066883D01*
X18770386Y19038490D01*
X18753561Y19011576D01*
X18735232Y18986112D01*
X18715464Y18962071D01*
X18694320Y18939427D01*
X18671864Y18918152D01*
X18648159Y18898219D01*
X18623270Y18879602D01*
X18597260Y18862272D01*
X18570193Y18846202D01*
X18542133Y18831366D01*
X18483290Y18805287D01*
X18421241Y18783815D01*
X18356495Y18766734D01*
X18289565Y18753827D01*
X18220960Y18744877D01*
X18151191Y18739666D01*
X18080768Y18737977D01*
X18011922Y18739631D01*
X17943483Y18744740D01*
X17876008Y18753524D01*
X17810053Y18766206D01*
X17777820Y18774077D01*
X17746176Y18783006D01*
X17715190Y18793019D01*
X17684932Y18804145D01*
X17655471Y18816412D01*
X17626878Y18829846D01*
X17599222Y18844476D01*
X17572572Y18860329D01*
X17546998Y18877433D01*
X17522570Y18895816D01*
X17499357Y18915504D01*
X17477429Y18936527D01*
X17456855Y18958911D01*
X17437705Y18982684D01*
X17420048Y19007874D01*
X17403955Y19034508D01*
X17389494Y19062615D01*
X17376736Y19092221D01*
X17365750Y19123354D01*
X17356605Y19156043D01*
X17349371Y19190315D01*
X17344117Y19226196D01*
X17340914Y19263716D01*
X17339831Y19302902D01*
X17340569Y19330538D01*
X17342752Y19356993D01*
X17346335Y19382299D01*
X17351272Y19406487D01*
X17357518Y19429588D01*
X17365027Y19451636D01*
X17373754Y19472660D01*
X17383653Y19492692D01*
X17394678Y19511765D01*
X17406785Y19529910D01*
X17419927Y19547158D01*
X17434060Y19563540D01*
X17449136Y19579090D01*
X17465112Y19593837D01*
X17481941Y19607814D01*
X17499579Y19621053D01*
X17537095Y19645440D01*
X17577297Y19667251D01*
X17619820Y19686739D01*
X17664300Y19704158D01*
X17710373Y19719758D01*
X17757675Y19733794D01*
X17805841Y19746517D01*
X17854508Y19758181D01*
X17901566Y19768925D01*
X17948327Y19779053D01*
X18039449Y19798488D01*
X18083054Y19808305D01*
X18124850Y19818531D01*
X18164459Y19829421D01*
X18201504Y19841231D01*
X18218947Y19847562D01*
X18235607Y19854218D01*
X18251436Y19861232D01*
X18266389Y19868636D01*
X18280416Y19876461D01*
X18293472Y19884741D01*
X18305509Y19893507D01*
X18316479Y19902791D01*
X18326336Y19912625D01*
X18335031Y19923040D01*
X18342519Y19934070D01*
X18348751Y19945745D01*
X18353680Y19958098D01*
X18357260Y19971161D01*
X18359442Y19984966D01*
X18360180Y19999545D01*
X18359754Y20011861D01*
X18358497Y20023498D01*
X18356447Y20034475D01*
X18353638Y20044811D01*
X18350106Y20054525D01*
X18345888Y20063635D01*
X18341018Y20072161D01*
X18335533Y20080122D01*
X18329468Y20087535D01*
X18322858Y20094421D01*
X18315740Y20100798D01*
X18308150Y20106685D01*
X18300122Y20112100D01*
X18291692Y20117064D01*
X18282897Y20121593D01*
X18273772Y20125709D01*
X18254673Y20132771D01*
X18234683Y20138401D01*
X18214086Y20142751D01*
X18193167Y20145972D01*
X18172213Y20148214D01*
X18151509Y20149628D01*
X18131340Y20150366D01*
X18111991Y20150578D01*
X18082338Y20150004D01*
X18053481Y20148206D01*
X18025553Y20145071D01*
X17998687Y20140483D01*
X17985693Y20137608D01*
X17973014Y20134328D01*
X17960666Y20130627D01*
X17948667Y20126493D01*
X17937033Y20121909D01*
X17925780Y20116862D01*
X17914924Y20111338D01*
X17904483Y20105322D01*
X17894473Y20098801D01*
X17884911Y20091759D01*
X17875813Y20084183D01*
X17867195Y20076058D01*
X17859075Y20067370D01*
X17851469Y20058105D01*
X17844393Y20048249D01*
X17837864Y20037786D01*
X17831898Y20026703D01*
X17826513Y20014986D01*
X17821724Y20002621D01*
X17817548Y19989592D01*
X17814003Y19975886D01*
X17811103Y19961489D01*
X17808867Y19946386D01*
X17807310Y19930562D01*
X17383689Y19930562D01*
X17387798Y19967134D01*
X17393584Y20002097D01*
X17400996Y20035479D01*
X17409986Y20067310D01*
X17420502Y20097621D01*
X17432497Y20126439D01*
X17445918Y20153795D01*
X17460717Y20179718D01*
X17476845Y20204238D01*
X17494250Y20227383D01*
X17512883Y20249184D01*
X17532695Y20269669D01*
X17553635Y20288868D01*
X17575654Y20306811D01*
X17598702Y20323526D01*
X17622729Y20339044D01*
X17647685Y20353393D01*
X17673521Y20366604D01*
X17727631Y20389725D01*
X17784660Y20408645D01*
X17844211Y20423596D01*
X17905883Y20434816D01*
X17969279Y20442539D01*
X18034000Y20447000D01*
X18099647Y20448434D01*
X18164989Y20447136D01*
G37*
G36*
X10436213Y23655685D02*
G01*
X10466870Y23652314D01*
X10498024Y23646857D01*
X10529616Y23639160D01*
X10561587Y23629072D01*
X10593878Y23616439D01*
X10626431Y23601108D01*
X10659184Y23582927D01*
X10692081Y23561743D01*
X10720247Y23541314D01*
X10746091Y23520449D01*
X10769652Y23499169D01*
X10790968Y23477495D01*
X10810078Y23455449D01*
X10827020Y23433052D01*
X10841833Y23410324D01*
X10854555Y23387287D01*
X10865226Y23363962D01*
X10873883Y23340371D01*
X10880565Y23316533D01*
X10885311Y23292471D01*
X10888159Y23268205D01*
X10889148Y23243756D01*
X10888316Y23219147D01*
X10885702Y23194397D01*
X10881344Y23169528D01*
X10875282Y23144561D01*
X10867553Y23119517D01*
X10858196Y23094417D01*
X10847250Y23069283D01*
X10834753Y23044135D01*
X10820744Y23018994D01*
X10805261Y22993882D01*
X10788343Y22968820D01*
X10770029Y22943829D01*
X10750356Y22918930D01*
X10729365Y22894144D01*
X10683577Y22844996D01*
X10632975Y22796554D01*
X10610423Y22774770D01*
X10590481Y22752912D01*
X10573073Y22731039D01*
X10558127Y22709206D01*
X10545567Y22687470D01*
X10535320Y22665887D01*
X10527311Y22644515D01*
X10521467Y22623410D01*
X10517713Y22602628D01*
X10515976Y22582225D01*
X10516182Y22562260D01*
X10518255Y22542787D01*
X10522123Y22523864D01*
X10527711Y22505548D01*
X10534946Y22487894D01*
X10543752Y22470960D01*
X10554057Y22454802D01*
X10565785Y22439476D01*
X10578864Y22425040D01*
X10593218Y22411549D01*
X10608774Y22399061D01*
X10625458Y22387632D01*
X10643196Y22377319D01*
X10661913Y22368177D01*
X10681536Y22360264D01*
X10701990Y22353637D01*
X10723202Y22348352D01*
X10745097Y22344465D01*
X10767602Y22342033D01*
X10790642Y22341113D01*
X10814143Y22341761D01*
X10838032Y22344034D01*
X10854201Y22346460D01*
X10869759Y22349550D01*
X10884704Y22353273D01*
X10899034Y22357596D01*
X10912749Y22362490D01*
X10925845Y22367920D01*
X10938321Y22373857D01*
X10950175Y22380267D01*
X10961406Y22387121D01*
X10972011Y22394385D01*
X10981990Y22402028D01*
X10991339Y22410018D01*
X11000058Y22418324D01*
X11008144Y22426914D01*
X11015597Y22435757D01*
X11022413Y22444820D01*
X11028591Y22454072D01*
X11034130Y22463481D01*
X11039028Y22473016D01*
X11043282Y22482644D01*
X11046892Y22492335D01*
X11049855Y22502056D01*
X11052169Y22511775D01*
X11053834Y22521462D01*
X11054846Y22531084D01*
X11055204Y22540610D01*
X11054907Y22550007D01*
X11053952Y22559245D01*
X11052339Y22568292D01*
X11050064Y22577115D01*
X11047127Y22585683D01*
X11043525Y22593965D01*
X11039838Y22600824D01*
X11035667Y22607513D01*
X11031051Y22614028D01*
X11026029Y22620365D01*
X11020640Y22626523D01*
X11014925Y22632498D01*
X11002671Y22643886D01*
X10989584Y22654505D01*
X10975978Y22664330D01*
X10962170Y22673337D01*
X10948475Y22681500D01*
X10935209Y22688795D01*
X10922687Y22695197D01*
X10901141Y22705226D01*
X10880873Y22713485D01*
X10887434Y22715893D01*
X10895373Y22718502D01*
X10906185Y22721693D01*
X10919695Y22725197D01*
X10935730Y22728748D01*
X10954113Y22732080D01*
X10974670Y22734924D01*
X10997227Y22737014D01*
X11009201Y22737694D01*
X11021609Y22738084D01*
X11034430Y22738153D01*
X11047642Y22737866D01*
X11061222Y22737190D01*
X11075150Y22736093D01*
X11089403Y22734540D01*
X11103959Y22732498D01*
X11118797Y22729934D01*
X11133895Y22726814D01*
X11149230Y22723105D01*
X11164782Y22718774D01*
X11180528Y22713788D01*
X11196446Y22708112D01*
X11224808Y22696462D01*
X11252386Y22683015D01*
X11265830Y22675562D01*
X11279018Y22667593D01*
X11291929Y22659085D01*
X11304543Y22650018D01*
X11316841Y22640368D01*
X11328801Y22630113D01*
X11340404Y22619232D01*
X11351630Y22607701D01*
X11362458Y22595499D01*
X11372868Y22582604D01*
X11382840Y22568994D01*
X11392354Y22554646D01*
X11401390Y22539538D01*
X11409928Y22523648D01*
X11417947Y22506953D01*
X11425428Y22489432D01*
X11432349Y22471063D01*
X11438692Y22451823D01*
X11444435Y22431690D01*
X11449559Y22410642D01*
X11454044Y22388656D01*
X11457869Y22365711D01*
X11461014Y22341785D01*
X11463460Y22316855D01*
X11465185Y22290898D01*
X11466170Y22263894D01*
X11466394Y22235819D01*
X11465838Y22206651D01*
X11465838Y20735815D01*
X11438178Y20769461D01*
X11405904Y20808140D01*
X11363382Y20858384D01*
X11312147Y20917941D01*
X11253733Y20984558D01*
X11189676Y21055980D01*
X11121511Y21129955D01*
X10982632Y21282745D01*
X10952007Y21315644D01*
X10922340Y21346139D01*
X10893290Y21374088D01*
X10864517Y21399347D01*
X10835681Y21421774D01*
X10806442Y21441226D01*
X10791565Y21449793D01*
X10776460Y21457562D01*
X10761083Y21464517D01*
X10745394Y21470638D01*
X10729348Y21475910D01*
X10712905Y21480313D01*
X10696020Y21483829D01*
X10678652Y21486442D01*
X10660757Y21488133D01*
X10642295Y21488885D01*
X10623221Y21488679D01*
X10603494Y21487498D01*
X10528860Y21485168D01*
X10456826Y21487506D01*
X10387367Y21494371D01*
X10320455Y21505619D01*
X10256063Y21521111D01*
X10194166Y21540703D01*
X10134735Y21564255D01*
X10077744Y21591624D01*
X10023166Y21622670D01*
X9970974Y21657249D01*
X9921143Y21695222D01*
X9873644Y21736445D01*
X9828451Y21780778D01*
X9785537Y21828078D01*
X9744876Y21878204D01*
X9706440Y21931015D01*
X9672568Y21983263D01*
X9642558Y22035783D01*
X9616278Y22088463D01*
X9593595Y22141194D01*
X9574376Y22193864D01*
X9558490Y22246364D01*
X9545803Y22298583D01*
X9536182Y22350410D01*
X9529496Y22401736D01*
X9525610Y22452450D01*
X9524394Y22502441D01*
X9525714Y22551600D01*
X9529437Y22599816D01*
X9535431Y22646978D01*
X9553700Y22737702D01*
X9579461Y22822887D01*
X9611653Y22901652D01*
X9649214Y22973113D01*
X9691083Y23036388D01*
X9736199Y23090594D01*
X9783501Y23134848D01*
X9807641Y23152967D01*
X9831929Y23168266D01*
X9856233Y23180637D01*
X9880420Y23189968D01*
X9878905Y23182401D01*
X9877484Y23173658D01*
X9876038Y23162246D01*
X9874883Y23148640D01*
X9874331Y23133319D01*
X9874699Y23116759D01*
X9876299Y23099438D01*
X9877660Y23090641D01*
X9879446Y23081833D01*
X9881698Y23073073D01*
X9884455Y23064421D01*
X9887755Y23055936D01*
X9891638Y23047679D01*
X9896144Y23039708D01*
X9901312Y23032084D01*
X9907180Y23024865D01*
X9913789Y23018113D01*
X9921177Y23011886D01*
X9929384Y23006244D01*
X9938449Y23001247D01*
X9948411Y22996954D01*
X9959310Y22993425D01*
X9971185Y22990719D01*
X9979964Y22989493D01*
X9989051Y22988877D01*
X9998422Y22988852D01*
X10008051Y22989399D01*
X10017916Y22990497D01*
X10027993Y22992127D01*
X10048687Y22996903D01*
X10069942Y23003568D01*
X10091566Y23011966D01*
X10113370Y23021937D01*
X10135162Y23033325D01*
X10156751Y23045969D01*
X10177947Y23059714D01*
X10198559Y23074400D01*
X10218396Y23089869D01*
X10237267Y23105964D01*
X10254982Y23122527D01*
X10271349Y23139398D01*
X10286178Y23156421D01*
X10302237Y23177192D01*
X10309375Y23187373D01*
X10315930Y23197422D01*
X10321909Y23207340D01*
X10327320Y23217131D01*
X10332173Y23226797D01*
X10336473Y23236340D01*
X10340230Y23245763D01*
X10343452Y23255069D01*
X10346146Y23264259D01*
X10348320Y23273338D01*
X10349983Y23282307D01*
X10351142Y23291168D01*
X10351806Y23299925D01*
X10351983Y23308580D01*
X10351680Y23317135D01*
X10350905Y23325593D01*
X10349667Y23333957D01*
X10347973Y23342229D01*
X10345832Y23350412D01*
X10343252Y23358507D01*
X10340240Y23366519D01*
X10336804Y23374449D01*
X10328695Y23390073D01*
X10318988Y23405402D01*
X10307747Y23420455D01*
X10295036Y23435253D01*
X10284732Y23445926D01*
X10274028Y23455672D01*
X10262971Y23464528D01*
X10251610Y23472534D01*
X10239992Y23479727D01*
X10228165Y23486147D01*
X10216176Y23491832D01*
X10204073Y23496821D01*
X10191905Y23501152D01*
X10179717Y23504865D01*
X10155478Y23510587D01*
X10131737Y23514298D01*
X10108876Y23516306D01*
X10087276Y23516920D01*
X10067318Y23516449D01*
X10049384Y23515203D01*
X10033856Y23513490D01*
X10011541Y23509901D01*
X10003425Y23508155D01*
X10018601Y23520405D01*
X10036861Y23533883D01*
X10061605Y23550634D01*
X10092361Y23569433D01*
X10128654Y23589058D01*
X10148729Y23598798D01*
X10170012Y23608287D01*
X10192442Y23617370D01*
X10215961Y23625896D01*
X10240510Y23633712D01*
X10266029Y23640664D01*
X10292460Y23646599D01*
X10319743Y23651366D01*
X10347818Y23654811D01*
X10376628Y23656781D01*
X10406113Y23657123D01*
X10436213Y23655685D01*
G37*
D11*
%TO.C,Ref\u002A\u002A*%
X12865182Y9500661D02*
X12865882Y9500609D01*
X12866579Y9500523D01*
X12867271Y9500404D01*
X12867958Y9500253D01*
X12868639Y9500072D01*
X12869312Y9499859D01*
X12869976Y9499618D01*
X12870631Y9499348D01*
X12871275Y9499050D01*
X12872527Y9498375D01*
X12873724Y9497600D01*
X12874857Y9496731D01*
X12875918Y9495775D01*
X12876899Y9494739D01*
X12877791Y9493631D01*
X12878201Y9493052D01*
X12878586Y9492457D01*
X12878945Y9491847D01*
X12879276Y9491223D01*
X12879579Y9490587D01*
X12879852Y9489938D01*
X12880095Y9489277D01*
X12880306Y9488607D01*
X12880485Y9487926D01*
X12880630Y9487237D01*
X12938966Y9173744D01*
X12939293Y9172353D01*
X12939741Y9170956D01*
X12940303Y9169564D01*
X12940972Y9168186D01*
X12941739Y9166830D01*
X12942596Y9165506D01*
X12943537Y9164222D01*
X12944553Y9162988D01*
X12945637Y9161814D01*
X12946780Y9160707D01*
X12947974Y9159678D01*
X12949213Y9158735D01*
X12950489Y9157887D01*
X12951792Y9157144D01*
X12953117Y9156514D01*
X12954454Y9156008D01*
X13164587Y9069997D01*
X13165895Y9069422D01*
X13167283Y9068942D01*
X13168736Y9068556D01*
X13170244Y9068263D01*
X13171794Y9068062D01*
X13173373Y9067952D01*
X13174971Y9067933D01*
X13176573Y9068003D01*
X13178169Y9068162D01*
X13179747Y9068409D01*
X13181293Y9068744D01*
X13182796Y9069164D01*
X13184243Y9069671D01*
X13185623Y9070261D01*
X13186923Y9070936D01*
X13188131Y9071693D01*
X13450018Y9251422D01*
X13450610Y9251807D01*
X13451219Y9252161D01*
X13451844Y9252486D01*
X13452484Y9252781D01*
X13453138Y9253046D01*
X13453803Y9253282D01*
X13455165Y9253666D01*
X13456560Y9253934D01*
X13457976Y9254086D01*
X13459402Y9254125D01*
X13460829Y9254050D01*
X13462246Y9253862D01*
X13463641Y9253563D01*
X13465004Y9253154D01*
X13466324Y9252636D01*
X13467591Y9252009D01*
X13468201Y9251655D01*
X13468793Y9251274D01*
X13469367Y9250867D01*
X13469921Y9250433D01*
X13470453Y9249973D01*
X13470963Y9249486D01*
X13691549Y9028918D01*
X13692034Y9028407D01*
X13692493Y9027873D01*
X13692926Y9027318D01*
X13693332Y9026743D01*
X13693712Y9026149D01*
X13694065Y9025538D01*
X13694391Y9024911D01*
X13694691Y9024269D01*
X13694964Y9023614D01*
X13695209Y9022947D01*
X13695618Y9021583D01*
X13695918Y9020187D01*
X13696106Y9018771D01*
X13696182Y9017344D01*
X13696144Y9015918D01*
X13695993Y9014503D01*
X13695874Y9013803D01*
X13695726Y9013110D01*
X13695549Y9012425D01*
X13695343Y9011750D01*
X13695107Y9011086D01*
X13694842Y9010433D01*
X13694548Y9009795D01*
X13694223Y9009171D01*
X13693869Y9008563D01*
X13693485Y9007973D01*
X13516872Y8750586D01*
X13516119Y8749369D01*
X13515450Y8748064D01*
X13514867Y8746683D01*
X13514370Y8745236D01*
X13513960Y8743737D01*
X13513638Y8742197D01*
X13513405Y8740628D01*
X13513260Y8739042D01*
X13513206Y8737450D01*
X13513243Y8735864D01*
X13513371Y8734297D01*
X13513592Y8732761D01*
X13513906Y8731266D01*
X13514314Y8729825D01*
X13514817Y8728450D01*
X13515415Y8727152D01*
X13608340Y8510401D01*
X13608588Y8509734D01*
X13608867Y8509070D01*
X13609516Y8507751D01*
X13610278Y8506452D01*
X13611143Y8505181D01*
X13612103Y8503946D01*
X13613148Y8502755D01*
X13614269Y8501615D01*
X13615457Y8500534D01*
X13616703Y8499521D01*
X13617998Y8498582D01*
X13619333Y8497727D01*
X13620698Y8496962D01*
X13622084Y8496296D01*
X13623483Y8495736D01*
X13624884Y8495291D01*
X13625584Y8495114D01*
X13626280Y8494968D01*
X13929356Y8438605D01*
X13930047Y8438456D01*
X13930729Y8438275D01*
X13931400Y8438061D01*
X13932062Y8437815D01*
X13932711Y8437540D01*
X13933349Y8437235D01*
X13933973Y8436902D01*
X13934583Y8436542D01*
X13935178Y8436156D01*
X13935758Y8435744D01*
X13936321Y8435309D01*
X13936866Y8434850D01*
X13937393Y8434370D01*
X13937901Y8433868D01*
X13938389Y8433347D01*
X13938856Y8432806D01*
X13939301Y8432248D01*
X13939724Y8431672D01*
X13940124Y8431081D01*
X13940499Y8430475D01*
X13940849Y8429855D01*
X13941173Y8429222D01*
X13941470Y8428578D01*
X13941739Y8427922D01*
X13941980Y8427257D01*
X13942192Y8426584D01*
X13942373Y8425902D01*
X13942524Y8425214D01*
X13942642Y8424521D01*
X13942728Y8423823D01*
X13942780Y8423121D01*
X13942797Y8422416D01*
X13942779Y8110472D01*
X13942761Y8109768D01*
X13942709Y8109066D01*
X13942623Y8108367D01*
X13942504Y8107672D01*
X13942354Y8106983D01*
X13942172Y8106300D01*
X13941960Y8105625D01*
X13941718Y8104959D01*
X13941150Y8103655D01*
X13940475Y8102399D01*
X13939700Y8101199D01*
X13938831Y8100062D01*
X13937875Y8098998D01*
X13936840Y8098014D01*
X13935731Y8097120D01*
X13935152Y8096709D01*
X13934557Y8096323D01*
X13933947Y8095964D01*
X13933324Y8095633D01*
X13932687Y8095330D01*
X13932038Y8095057D01*
X13931378Y8094815D01*
X13930707Y8094605D01*
X13930027Y8094428D01*
X13929338Y8094284D01*
X13633692Y8039267D01*
X13632997Y8039124D01*
X13632301Y8038949D01*
X13630907Y8038506D01*
X13629519Y8037947D01*
X13628146Y8037279D01*
X13626798Y8036510D01*
X13625482Y8035648D01*
X13624209Y8034702D01*
X13622987Y8033680D01*
X13621825Y8032589D01*
X13620732Y8031438D01*
X13619718Y8030235D01*
X13618791Y8028989D01*
X13617961Y8027706D01*
X13617236Y8026395D01*
X13616626Y8025065D01*
X13616367Y8024395D01*
X13616139Y8023724D01*
X13523841Y7793163D01*
X13523270Y7791851D01*
X13522793Y7790462D01*
X13522410Y7789008D01*
X13522121Y7787500D01*
X13521923Y7785951D01*
X13521817Y7784373D01*
X13521801Y7782777D01*
X13521875Y7781176D01*
X13522038Y7779581D01*
X13522288Y7778006D01*
X13522626Y7776461D01*
X13523050Y7774959D01*
X13523560Y7773511D01*
X13524154Y7772131D01*
X13524832Y7770829D01*
X13525593Y7769618D01*
X13693521Y7524897D01*
X13693904Y7524306D01*
X13694257Y7523699D01*
X13694580Y7523075D01*
X13694874Y7522436D01*
X13695138Y7521783D01*
X13695373Y7521118D01*
X13695755Y7519757D01*
X13696021Y7518363D01*
X13696173Y7516946D01*
X13696210Y7515518D01*
X13696135Y7514090D01*
X13695948Y7512672D01*
X13695650Y7511274D01*
X13695242Y7509909D01*
X13694724Y7508586D01*
X13694099Y7507316D01*
X13693747Y7506704D01*
X13693367Y7506110D01*
X13692961Y7505534D01*
X13692529Y7504979D01*
X13692070Y7504445D01*
X13691586Y7503933D01*
X13470981Y7283365D01*
X13470471Y7282882D01*
X13469939Y7282425D01*
X13469385Y7281994D01*
X13468811Y7281590D01*
X13468219Y7281211D01*
X13467609Y7280860D01*
X13466983Y7280535D01*
X13466342Y7280237D01*
X13465688Y7279965D01*
X13465022Y7279721D01*
X13463659Y7279314D01*
X13462264Y7279017D01*
X13460847Y7278830D01*
X13459420Y7278754D01*
X13457994Y7278791D01*
X13456578Y7278942D01*
X13455877Y7279060D01*
X13455183Y7279207D01*
X13454498Y7279382D01*
X13453821Y7279587D01*
X13453156Y7279821D01*
X13452502Y7280084D01*
X13451862Y7280376D01*
X13451237Y7280698D01*
X13450628Y7281049D01*
X13450036Y7281430D01*
X13209648Y7446427D01*
X13208439Y7447177D01*
X13207144Y7447834D01*
X13205775Y7448399D01*
X13204343Y7448872D01*
X13202861Y7449252D01*
X13201339Y7449538D01*
X13199791Y7449732D01*
X13198228Y7449831D01*
X13196661Y7449837D01*
X13195103Y7449749D01*
X13193566Y7449566D01*
X13192061Y7449288D01*
X13190600Y7448915D01*
X13189195Y7448446D01*
X13187858Y7447882D01*
X13186601Y7447222D01*
X13080585Y7390619D01*
X13079953Y7390316D01*
X13079315Y7390049D01*
X13078673Y7389819D01*
X13078028Y7389625D01*
X13077380Y7389466D01*
X13076732Y7389341D01*
X13076083Y7389252D01*
X13075436Y7389197D01*
X13074791Y7389175D01*
X13074150Y7389187D01*
X13073513Y7389232D01*
X13072882Y7389309D01*
X13072257Y7389418D01*
X13071640Y7389559D01*
X13071033Y7389731D01*
X13070435Y7389934D01*
X13069849Y7390168D01*
X13069275Y7390431D01*
X13068715Y7390724D01*
X13068169Y7391046D01*
X13067639Y7391397D01*
X13067126Y7391777D01*
X13066630Y7392184D01*
X13066154Y7392618D01*
X13065698Y7393080D01*
X13065263Y7393569D01*
X13064850Y7394083D01*
X13064461Y7394624D01*
X13064097Y7395190D01*
X13063758Y7395780D01*
X13063446Y7396396D01*
X13063162Y7397035D01*
X12844567Y7925214D01*
X12844312Y7925872D01*
X12844091Y7926539D01*
X12843903Y7927214D01*
X12843748Y7927898D01*
X12843625Y7928587D01*
X12843534Y7929281D01*
X12843446Y7930680D01*
X12843480Y7932083D01*
X12843633Y7933482D01*
X12843902Y7934864D01*
X12844283Y7936222D01*
X12844774Y7937544D01*
X12845370Y7938820D01*
X12846069Y7940041D01*
X12846867Y7941196D01*
X12847760Y7942276D01*
X12848242Y7942785D01*
X12848746Y7943270D01*
X12849273Y7943732D01*
X12849822Y7944169D01*
X12850392Y7944579D01*
X12850983Y7944961D01*
X12877515Y7961205D01*
X12879430Y7962421D01*
X12881472Y7963809D01*
X12883603Y7965339D01*
X12885786Y7966980D01*
X12887984Y7968703D01*
X12890160Y7970476D01*
X12892275Y7972271D01*
X12894293Y7974055D01*
X12911853Y7986077D01*
X12928613Y7999130D01*
X12944526Y8013168D01*
X12959546Y8028146D01*
X12973629Y8044019D01*
X12986727Y8060741D01*
X12998795Y8078266D01*
X13009788Y8096550D01*
X13019659Y8115546D01*
X13024159Y8125297D01*
X13028362Y8135209D01*
X13032262Y8145276D01*
X13035852Y8155493D01*
X13039128Y8165855D01*
X13042083Y8176354D01*
X13044713Y8186986D01*
X13047010Y8197746D01*
X13048969Y8208626D01*
X13050585Y8219622D01*
X13051852Y8230728D01*
X13052764Y8241939D01*
X13053315Y8253247D01*
X13053501Y8264649D01*
X13053052Y8282402D01*
X13051719Y8299922D01*
X13049525Y8317188D01*
X13046491Y8334177D01*
X13042639Y8350867D01*
X13037989Y8367238D01*
X13032565Y8383268D01*
X13026388Y8398934D01*
X13019479Y8414216D01*
X13011860Y8429091D01*
X13003553Y8443538D01*
X12994579Y8457535D01*
X12984960Y8471060D01*
X12974718Y8484093D01*
X12963875Y8496610D01*
X12952452Y8508591D01*
X12940470Y8520014D01*
X12927952Y8530857D01*
X12914920Y8541098D01*
X12901394Y8550716D01*
X12887397Y8559690D01*
X12872950Y8567996D01*
X12858075Y8575615D01*
X12842794Y8582523D01*
X12827128Y8588700D01*
X12811099Y8594124D01*
X12794728Y8598772D01*
X12778038Y8602625D01*
X12761051Y8605658D01*
X12743786Y8607852D01*
X12726268Y8609184D01*
X12708516Y8609633D01*
X12690765Y8609184D01*
X12673246Y8607852D01*
X12655982Y8605658D01*
X12638995Y8602625D01*
X12622305Y8598772D01*
X12605935Y8594124D01*
X12589907Y8588700D01*
X12574242Y8582523D01*
X12558961Y8575615D01*
X12544087Y8567996D01*
X12529641Y8559690D01*
X12515644Y8550716D01*
X12502119Y8541098D01*
X12489088Y8530857D01*
X12476571Y8520014D01*
X12464590Y8508591D01*
X12453168Y8496610D01*
X12442325Y8484092D01*
X12432084Y8471060D01*
X12422466Y8457535D01*
X12413493Y8443537D01*
X12405187Y8429091D01*
X12397568Y8414216D01*
X12390660Y8398934D01*
X12384483Y8383268D01*
X12379060Y8367238D01*
X12374411Y8350867D01*
X12370559Y8334176D01*
X12367525Y8317188D01*
X12365331Y8299922D01*
X12363999Y8282402D01*
X12363550Y8264649D01*
X12364286Y8241939D01*
X12366465Y8219622D01*
X12370039Y8197746D01*
X12374965Y8176354D01*
X12381195Y8155493D01*
X12388684Y8135209D01*
X12397386Y8115546D01*
X12407256Y8096550D01*
X12418248Y8078266D01*
X12430316Y8060741D01*
X12443414Y8044019D01*
X12457497Y8028146D01*
X12472518Y8013168D01*
X12488433Y7999130D01*
X12505195Y7986077D01*
X12522758Y7974055D01*
X12524765Y7972271D01*
X12526873Y7970476D01*
X12529044Y7968703D01*
X12531240Y7966980D01*
X12533421Y7965339D01*
X12535551Y7963809D01*
X12537590Y7962421D01*
X12539500Y7961205D01*
X12566031Y7944961D01*
X12566619Y7944579D01*
X12567186Y7944169D01*
X12567732Y7943732D01*
X12568257Y7943270D01*
X12568759Y7942785D01*
X12569239Y7942276D01*
X12569696Y7941747D01*
X12570130Y7941197D01*
X12570540Y7940628D01*
X12570926Y7940041D01*
X12571287Y7939438D01*
X12571623Y7938820D01*
X12571934Y7938188D01*
X12572219Y7937544D01*
X12572478Y7936888D01*
X12572710Y7936222D01*
X12572915Y7935547D01*
X12573093Y7934865D01*
X12573242Y7934176D01*
X12573363Y7933482D01*
X12573456Y7932784D01*
X12573519Y7932084D01*
X12573552Y7931382D01*
X12573555Y7930680D01*
X12573528Y7929980D01*
X12573470Y7929282D01*
X12573380Y7928587D01*
X12573259Y7927898D01*
X12573106Y7927214D01*
X12572919Y7926539D01*
X12572700Y7925872D01*
X12572447Y7925214D01*
X12353870Y7397017D01*
X12353587Y7396377D01*
X12353275Y7395761D01*
X12352936Y7395171D01*
X12352572Y7394605D01*
X12352183Y7394065D01*
X12351771Y7393551D01*
X12351337Y7393063D01*
X12350881Y7392602D01*
X12350405Y7392168D01*
X12349910Y7391761D01*
X12349398Y7391382D01*
X12348868Y7391032D01*
X12348323Y7390711D01*
X12347763Y7390418D01*
X12347190Y7390155D01*
X12346604Y7389922D01*
X12346007Y7389720D01*
X12345400Y7389548D01*
X12344783Y7389408D01*
X12344159Y7389298D01*
X12343528Y7389221D01*
X12342891Y7389177D01*
X12342249Y7389165D01*
X12341604Y7389186D01*
X12340957Y7389241D01*
X12340308Y7389330D01*
X12339658Y7389453D01*
X12339010Y7389611D01*
X12338364Y7389805D01*
X12337720Y7390034D01*
X12337081Y7390299D01*
X12336447Y7390600D01*
X12230432Y7447203D01*
X12229171Y7447864D01*
X12227832Y7448430D01*
X12226426Y7448899D01*
X12224964Y7449274D01*
X12223458Y7449553D01*
X12221921Y7449737D01*
X12220363Y7449827D01*
X12218797Y7449822D01*
X12217235Y7449723D01*
X12215688Y7449529D01*
X12214168Y7449242D01*
X12212687Y7448862D01*
X12211256Y7448388D01*
X12209887Y7447821D01*
X12208593Y7447161D01*
X12207385Y7446408D01*
X11966978Y7281411D01*
X11966388Y7281030D01*
X11965780Y7280679D01*
X11965156Y7280358D01*
X11964517Y7280065D01*
X11963864Y7279802D01*
X11963200Y7279569D01*
X11961839Y7279188D01*
X11960445Y7278923D01*
X11959029Y7278773D01*
X11957603Y7278736D01*
X11956176Y7278811D01*
X11954760Y7278998D01*
X11953365Y7279295D01*
X11952002Y7279702D01*
X11950683Y7280218D01*
X11949417Y7280841D01*
X11948808Y7281192D01*
X11948216Y7281571D01*
X11947643Y7281975D01*
X11947091Y7282406D01*
X11946560Y7282863D01*
X11946052Y7283346D01*
X11725447Y7503914D01*
X11724960Y7504426D01*
X11724500Y7504960D01*
X11724066Y7505515D01*
X11723659Y7506091D01*
X11723278Y7506685D01*
X11722924Y7507297D01*
X11722597Y7507924D01*
X11722297Y7508567D01*
X11722024Y7509222D01*
X11721778Y7509890D01*
X11721369Y7511256D01*
X11721070Y7512653D01*
X11720883Y7514071D01*
X11720808Y7515500D01*
X11720846Y7516927D01*
X11720999Y7518344D01*
X11721119Y7519044D01*
X11721267Y7519738D01*
X11721444Y7520424D01*
X11721651Y7521099D01*
X11721887Y7521764D01*
X11722153Y7522417D01*
X11722448Y7523056D01*
X11722772Y7523680D01*
X11723127Y7524288D01*
X11723511Y7524878D01*
X11891458Y7769599D01*
X11892213Y7770810D01*
X11892886Y7772112D01*
X11893476Y7773492D01*
X11893982Y7774940D01*
X11894404Y7776442D01*
X11894741Y7777987D01*
X11894990Y7779563D01*
X11895153Y7781157D01*
X11895227Y7782758D01*
X11895212Y7784354D01*
X11895106Y7785932D01*
X11894909Y7787481D01*
X11894620Y7788989D01*
X11894238Y7790443D01*
X11893762Y7791832D01*
X11893191Y7793144D01*
X11800893Y8023705D01*
X11800665Y8024377D01*
X11800404Y8025046D01*
X11799793Y8026377D01*
X11799069Y8027687D01*
X11798240Y8028970D01*
X11797315Y8030216D01*
X11796304Y8031419D01*
X11795214Y8032570D01*
X11794056Y8033661D01*
X11792837Y8034683D01*
X11791567Y8035629D01*
X11790254Y8036491D01*
X11788907Y8037260D01*
X11787535Y8037928D01*
X11786148Y8038487D01*
X11785450Y8038724D01*
X11784752Y8038930D01*
X11784055Y8039105D01*
X11783359Y8039247D01*
X11487713Y8094265D01*
X11487026Y8094408D01*
X11486347Y8094586D01*
X11485678Y8094796D01*
X11485018Y8095038D01*
X11484370Y8095311D01*
X11483734Y8095614D01*
X11483111Y8095945D01*
X11482502Y8096304D01*
X11481907Y8096690D01*
X11481328Y8097101D01*
X11480765Y8097536D01*
X11480220Y8097995D01*
X11479692Y8098476D01*
X11479184Y8098978D01*
X11478695Y8099501D01*
X11478227Y8100043D01*
X11477781Y8100603D01*
X11477357Y8101179D01*
X11476957Y8101772D01*
X11476581Y8102380D01*
X11476230Y8103002D01*
X11475905Y8103636D01*
X11475606Y8104282D01*
X11475336Y8104939D01*
X11475094Y8105606D01*
X11474881Y8106281D01*
X11474699Y8106964D01*
X11474548Y8107653D01*
X11474429Y8108347D01*
X11474343Y8109046D01*
X11474290Y8109749D01*
X11474273Y8110453D01*
X11474236Y8422398D01*
X11474252Y8423104D01*
X11474302Y8423807D01*
X11474387Y8424507D01*
X11474504Y8425202D01*
X11474653Y8425891D01*
X11474834Y8426573D01*
X11475045Y8427248D01*
X11475285Y8427914D01*
X11475555Y8428570D01*
X11475851Y8429216D01*
X11476524Y8430470D01*
X11477298Y8431668D01*
X11478166Y8432803D01*
X11479120Y8433866D01*
X11480153Y8434849D01*
X11481260Y8435743D01*
X11482432Y8436541D01*
X11483041Y8436901D01*
X11483663Y8437234D01*
X11484298Y8437539D01*
X11484946Y8437815D01*
X11485605Y8438060D01*
X11486274Y8438274D01*
X11486953Y8438456D01*
X11487640Y8438604D01*
X11790735Y8494968D01*
X11792124Y8495291D01*
X11793521Y8495736D01*
X11794915Y8496296D01*
X11796299Y8496962D01*
X11797662Y8497726D01*
X11798995Y8498582D01*
X11800290Y8499520D01*
X11801537Y8500534D01*
X11802726Y8501614D01*
X11803849Y8502754D01*
X11804896Y8503946D01*
X11805858Y8505181D01*
X11806726Y8506452D01*
X11807491Y8507750D01*
X11808143Y8509069D01*
X11808674Y8510400D01*
X11901581Y8727152D01*
X11902182Y8728449D01*
X11902688Y8729824D01*
X11903098Y8731265D01*
X11903414Y8732760D01*
X11903636Y8734297D01*
X11903765Y8735864D01*
X11903802Y8737450D01*
X11903747Y8739041D01*
X11903602Y8740628D01*
X11903366Y8742197D01*
X11903041Y8743737D01*
X11902628Y8745236D01*
X11902127Y8746682D01*
X11901539Y8748064D01*
X11900864Y8749369D01*
X11900104Y8750585D01*
X11723510Y9007973D01*
X11723129Y9008563D01*
X11722778Y9009171D01*
X11722455Y9009795D01*
X11722163Y9010433D01*
X11721899Y9011085D01*
X11721664Y9011750D01*
X11721282Y9013110D01*
X11721015Y9014503D01*
X11720863Y9015918D01*
X11720823Y9017344D01*
X11720897Y9018771D01*
X11721082Y9020187D01*
X11721379Y9021583D01*
X11721786Y9022947D01*
X11722302Y9024269D01*
X11722927Y9025537D01*
X11723280Y9026149D01*
X11723660Y9026742D01*
X11724066Y9027318D01*
X11724499Y9027873D01*
X11724959Y9028407D01*
X11725445Y9028918D01*
X11946013Y9249486D01*
X11946525Y9249972D01*
X11947058Y9250433D01*
X11947613Y9250866D01*
X11948188Y9251274D01*
X11948782Y9251654D01*
X11949392Y9252008D01*
X11950019Y9252335D01*
X11950660Y9252635D01*
X11951314Y9252908D01*
X11951980Y9253154D01*
X11953343Y9253563D01*
X11954737Y9253862D01*
X11956151Y9254049D01*
X11957576Y9254124D01*
X11959001Y9254086D01*
X11960414Y9253933D01*
X11961113Y9253814D01*
X11961806Y9253666D01*
X11962490Y9253488D01*
X11963164Y9253281D01*
X11963828Y9253046D01*
X11964480Y9252780D01*
X11965118Y9252485D01*
X11965742Y9252161D01*
X11966349Y9251806D01*
X11966939Y9251422D01*
X12228845Y9071693D01*
X12230056Y9070935D01*
X12231359Y9070261D01*
X12232741Y9069670D01*
X12234191Y9069164D01*
X12235695Y9068744D01*
X12237242Y9068409D01*
X12238820Y9068162D01*
X12240417Y9068003D01*
X12242019Y9067932D01*
X12243616Y9067952D01*
X12245194Y9068061D01*
X12246743Y9068262D01*
X12248248Y9068556D01*
X12249700Y9068942D01*
X12251084Y9069422D01*
X12252389Y9069996D01*
X12462503Y9156007D01*
X12463172Y9156245D01*
X12463838Y9156514D01*
X12464501Y9156814D01*
X12465160Y9157144D01*
X12466462Y9157887D01*
X12467737Y9158735D01*
X12468975Y9159678D01*
X12470170Y9160707D01*
X12471313Y9161814D01*
X12472397Y9162988D01*
X12473414Y9164222D01*
X12474356Y9165505D01*
X12475215Y9166830D01*
X12475983Y9168185D01*
X12476653Y9169564D01*
X12477216Y9170956D01*
X12477664Y9172352D01*
X12477843Y9173049D01*
X12477991Y9173744D01*
X12536346Y9487237D01*
X12536491Y9487926D01*
X12536670Y9488607D01*
X12536881Y9489277D01*
X12537124Y9489938D01*
X12537397Y9490587D01*
X12537700Y9491223D01*
X12538032Y9491847D01*
X12538390Y9492457D01*
X12538775Y9493052D01*
X12539186Y9493631D01*
X12539621Y9494194D01*
X12540078Y9494739D01*
X12540559Y9495267D01*
X12541060Y9495775D01*
X12541581Y9496263D01*
X12542122Y9496731D01*
X12542680Y9497176D01*
X12543256Y9497600D01*
X12543847Y9497999D01*
X12544454Y9498375D01*
X12545074Y9498726D01*
X12545707Y9499050D01*
X12546352Y9499348D01*
X12547008Y9499618D01*
X12547673Y9499859D01*
X12548347Y9500072D01*
X12549029Y9500253D01*
X12549717Y9500404D01*
X12550411Y9500523D01*
X12551110Y9500609D01*
X12551812Y9500661D01*
X12552516Y9500678D01*
X12864479Y9500678D01*
X12865182Y9500661D01*
G36*
X12865182Y9500661D02*
G01*
X12865882Y9500609D01*
X12866579Y9500523D01*
X12867271Y9500404D01*
X12867958Y9500253D01*
X12868639Y9500072D01*
X12869312Y9499859D01*
X12869976Y9499618D01*
X12870631Y9499348D01*
X12871275Y9499050D01*
X12872527Y9498375D01*
X12873724Y9497600D01*
X12874857Y9496731D01*
X12875918Y9495775D01*
X12876899Y9494739D01*
X12877791Y9493631D01*
X12878201Y9493052D01*
X12878586Y9492457D01*
X12878945Y9491847D01*
X12879276Y9491223D01*
X12879579Y9490587D01*
X12879852Y9489938D01*
X12880095Y9489277D01*
X12880306Y9488607D01*
X12880485Y9487926D01*
X12880630Y9487237D01*
X12938966Y9173744D01*
X12939293Y9172353D01*
X12939741Y9170956D01*
X12940303Y9169564D01*
X12940972Y9168186D01*
X12941739Y9166830D01*
X12942596Y9165506D01*
X12943537Y9164222D01*
X12944553Y9162988D01*
X12945637Y9161814D01*
X12946780Y9160707D01*
X12947974Y9159678D01*
X12949213Y9158735D01*
X12950489Y9157887D01*
X12951792Y9157144D01*
X12953117Y9156514D01*
X12954454Y9156008D01*
X13164587Y9069997D01*
X13165895Y9069422D01*
X13167283Y9068942D01*
X13168736Y9068556D01*
X13170244Y9068263D01*
X13171794Y9068062D01*
X13173373Y9067952D01*
X13174971Y9067933D01*
X13176573Y9068003D01*
X13178169Y9068162D01*
X13179747Y9068409D01*
X13181293Y9068744D01*
X13182796Y9069164D01*
X13184243Y9069671D01*
X13185623Y9070261D01*
X13186923Y9070936D01*
X13188131Y9071693D01*
X13450018Y9251422D01*
X13450610Y9251807D01*
X13451219Y9252161D01*
X13451844Y9252486D01*
X13452484Y9252781D01*
X13453138Y9253046D01*
X13453803Y9253282D01*
X13455165Y9253666D01*
X13456560Y9253934D01*
X13457976Y9254086D01*
X13459402Y9254125D01*
X13460829Y9254050D01*
X13462246Y9253862D01*
X13463641Y9253563D01*
X13465004Y9253154D01*
X13466324Y9252636D01*
X13467591Y9252009D01*
X13468201Y9251655D01*
X13468793Y9251274D01*
X13469367Y9250867D01*
X13469921Y9250433D01*
X13470453Y9249973D01*
X13470963Y9249486D01*
X13691549Y9028918D01*
X13692034Y9028407D01*
X13692493Y9027873D01*
X13692926Y9027318D01*
X13693332Y9026743D01*
X13693712Y9026149D01*
X13694065Y9025538D01*
X13694391Y9024911D01*
X13694691Y9024269D01*
X13694964Y9023614D01*
X13695209Y9022947D01*
X13695618Y9021583D01*
X13695918Y9020187D01*
X13696106Y9018771D01*
X13696182Y9017344D01*
X13696144Y9015918D01*
X13695993Y9014503D01*
X13695874Y9013803D01*
X13695726Y9013110D01*
X13695549Y9012425D01*
X13695343Y9011750D01*
X13695107Y9011086D01*
X13694842Y9010433D01*
X13694548Y9009795D01*
X13694223Y9009171D01*
X13693869Y9008563D01*
X13693485Y9007973D01*
X13516872Y8750586D01*
X13516119Y8749369D01*
X13515450Y8748064D01*
X13514867Y8746683D01*
X13514370Y8745236D01*
X13513960Y8743737D01*
X13513638Y8742197D01*
X13513405Y8740628D01*
X13513260Y8739042D01*
X13513206Y8737450D01*
X13513243Y8735864D01*
X13513371Y8734297D01*
X13513592Y8732761D01*
X13513906Y8731266D01*
X13514314Y8729825D01*
X13514817Y8728450D01*
X13515415Y8727152D01*
X13608340Y8510401D01*
X13608588Y8509734D01*
X13608867Y8509070D01*
X13609516Y8507751D01*
X13610278Y8506452D01*
X13611143Y8505181D01*
X13612103Y8503946D01*
X13613148Y8502755D01*
X13614269Y8501615D01*
X13615457Y8500534D01*
X13616703Y8499521D01*
X13617998Y8498582D01*
X13619333Y8497727D01*
X13620698Y8496962D01*
X13622084Y8496296D01*
X13623483Y8495736D01*
X13624884Y8495291D01*
X13625584Y8495114D01*
X13626280Y8494968D01*
X13929356Y8438605D01*
X13930047Y8438456D01*
X13930729Y8438275D01*
X13931400Y8438061D01*
X13932062Y8437815D01*
X13932711Y8437540D01*
X13933349Y8437235D01*
X13933973Y8436902D01*
X13934583Y8436542D01*
X13935178Y8436156D01*
X13935758Y8435744D01*
X13936321Y8435309D01*
X13936866Y8434850D01*
X13937393Y8434370D01*
X13937901Y8433868D01*
X13938389Y8433347D01*
X13938856Y8432806D01*
X13939301Y8432248D01*
X13939724Y8431672D01*
X13940124Y8431081D01*
X13940499Y8430475D01*
X13940849Y8429855D01*
X13941173Y8429222D01*
X13941470Y8428578D01*
X13941739Y8427922D01*
X13941980Y8427257D01*
X13942192Y8426584D01*
X13942373Y8425902D01*
X13942524Y8425214D01*
X13942642Y8424521D01*
X13942728Y8423823D01*
X13942780Y8423121D01*
X13942797Y8422416D01*
X13942779Y8110472D01*
X13942761Y8109768D01*
X13942709Y8109066D01*
X13942623Y8108367D01*
X13942504Y8107672D01*
X13942354Y8106983D01*
X13942172Y8106300D01*
X13941960Y8105625D01*
X13941718Y8104959D01*
X13941150Y8103655D01*
X13940475Y8102399D01*
X13939700Y8101199D01*
X13938831Y8100062D01*
X13937875Y8098998D01*
X13936840Y8098014D01*
X13935731Y8097120D01*
X13935152Y8096709D01*
X13934557Y8096323D01*
X13933947Y8095964D01*
X13933324Y8095633D01*
X13932687Y8095330D01*
X13932038Y8095057D01*
X13931378Y8094815D01*
X13930707Y8094605D01*
X13930027Y8094428D01*
X13929338Y8094284D01*
X13633692Y8039267D01*
X13632997Y8039124D01*
X13632301Y8038949D01*
X13630907Y8038506D01*
X13629519Y8037947D01*
X13628146Y8037279D01*
X13626798Y8036510D01*
X13625482Y8035648D01*
X13624209Y8034702D01*
X13622987Y8033680D01*
X13621825Y8032589D01*
X13620732Y8031438D01*
X13619718Y8030235D01*
X13618791Y8028989D01*
X13617961Y8027706D01*
X13617236Y8026395D01*
X13616626Y8025065D01*
X13616367Y8024395D01*
X13616139Y8023724D01*
X13523841Y7793163D01*
X13523270Y7791851D01*
X13522793Y7790462D01*
X13522410Y7789008D01*
X13522121Y7787500D01*
X13521923Y7785951D01*
X13521817Y7784373D01*
X13521801Y7782777D01*
X13521875Y7781176D01*
X13522038Y7779581D01*
X13522288Y7778006D01*
X13522626Y7776461D01*
X13523050Y7774959D01*
X13523560Y7773511D01*
X13524154Y7772131D01*
X13524832Y7770829D01*
X13525593Y7769618D01*
X13693521Y7524897D01*
X13693904Y7524306D01*
X13694257Y7523699D01*
X13694580Y7523075D01*
X13694874Y7522436D01*
X13695138Y7521783D01*
X13695373Y7521118D01*
X13695755Y7519757D01*
X13696021Y7518363D01*
X13696173Y7516946D01*
X13696210Y7515518D01*
X13696135Y7514090D01*
X13695948Y7512672D01*
X13695650Y7511274D01*
X13695242Y7509909D01*
X13694724Y7508586D01*
X13694099Y7507316D01*
X13693747Y7506704D01*
X13693367Y7506110D01*
X13692961Y7505534D01*
X13692529Y7504979D01*
X13692070Y7504445D01*
X13691586Y7503933D01*
X13470981Y7283365D01*
X13470471Y7282882D01*
X13469939Y7282425D01*
X13469385Y7281994D01*
X13468811Y7281590D01*
X13468219Y7281211D01*
X13467609Y7280860D01*
X13466983Y7280535D01*
X13466342Y7280237D01*
X13465688Y7279965D01*
X13465022Y7279721D01*
X13463659Y7279314D01*
X13462264Y7279017D01*
X13460847Y7278830D01*
X13459420Y7278754D01*
X13457994Y7278791D01*
X13456578Y7278942D01*
X13455877Y7279060D01*
X13455183Y7279207D01*
X13454498Y7279382D01*
X13453821Y7279587D01*
X13453156Y7279821D01*
X13452502Y7280084D01*
X13451862Y7280376D01*
X13451237Y7280698D01*
X13450628Y7281049D01*
X13450036Y7281430D01*
X13209648Y7446427D01*
X13208439Y7447177D01*
X13207144Y7447834D01*
X13205775Y7448399D01*
X13204343Y7448872D01*
X13202861Y7449252D01*
X13201339Y7449538D01*
X13199791Y7449732D01*
X13198228Y7449831D01*
X13196661Y7449837D01*
X13195103Y7449749D01*
X13193566Y7449566D01*
X13192061Y7449288D01*
X13190600Y7448915D01*
X13189195Y7448446D01*
X13187858Y7447882D01*
X13186601Y7447222D01*
X13080585Y7390619D01*
X13079953Y7390316D01*
X13079315Y7390049D01*
X13078673Y7389819D01*
X13078028Y7389625D01*
X13077380Y7389466D01*
X13076732Y7389341D01*
X13076083Y7389252D01*
X13075436Y7389197D01*
X13074791Y7389175D01*
X13074150Y7389187D01*
X13073513Y7389232D01*
X13072882Y7389309D01*
X13072257Y7389418D01*
X13071640Y7389559D01*
X13071033Y7389731D01*
X13070435Y7389934D01*
X13069849Y7390168D01*
X13069275Y7390431D01*
X13068715Y7390724D01*
X13068169Y7391046D01*
X13067639Y7391397D01*
X13067126Y7391777D01*
X13066630Y7392184D01*
X13066154Y7392618D01*
X13065698Y7393080D01*
X13065263Y7393569D01*
X13064850Y7394083D01*
X13064461Y7394624D01*
X13064097Y7395190D01*
X13063758Y7395780D01*
X13063446Y7396396D01*
X13063162Y7397035D01*
X12844567Y7925214D01*
X12844312Y7925872D01*
X12844091Y7926539D01*
X12843903Y7927214D01*
X12843748Y7927898D01*
X12843625Y7928587D01*
X12843534Y7929281D01*
X12843446Y7930680D01*
X12843480Y7932083D01*
X12843633Y7933482D01*
X12843902Y7934864D01*
X12844283Y7936222D01*
X12844774Y7937544D01*
X12845370Y7938820D01*
X12846069Y7940041D01*
X12846867Y7941196D01*
X12847760Y7942276D01*
X12848242Y7942785D01*
X12848746Y7943270D01*
X12849273Y7943732D01*
X12849822Y7944169D01*
X12850392Y7944579D01*
X12850983Y7944961D01*
X12877515Y7961205D01*
X12879430Y7962421D01*
X12881472Y7963809D01*
X12883603Y7965339D01*
X12885786Y7966980D01*
X12887984Y7968703D01*
X12890160Y7970476D01*
X12892275Y7972271D01*
X12894293Y7974055D01*
X12911853Y7986077D01*
X12928613Y7999130D01*
X12944526Y8013168D01*
X12959546Y8028146D01*
X12973629Y8044019D01*
X12986727Y8060741D01*
X12998795Y8078266D01*
X13009788Y8096550D01*
X13019659Y8115546D01*
X13024159Y8125297D01*
X13028362Y8135209D01*
X13032262Y8145276D01*
X13035852Y8155493D01*
X13039128Y8165855D01*
X13042083Y8176354D01*
X13044713Y8186986D01*
X13047010Y8197746D01*
X13048969Y8208626D01*
X13050585Y8219622D01*
X13051852Y8230728D01*
X13052764Y8241939D01*
X13053315Y8253247D01*
X13053501Y8264649D01*
X13053052Y8282402D01*
X13051719Y8299922D01*
X13049525Y8317188D01*
X13046491Y8334177D01*
X13042639Y8350867D01*
X13037989Y8367238D01*
X13032565Y8383268D01*
X13026388Y8398934D01*
X13019479Y8414216D01*
X13011860Y8429091D01*
X13003553Y8443538D01*
X12994579Y8457535D01*
X12984960Y8471060D01*
X12974718Y8484093D01*
X12963875Y8496610D01*
X12952452Y8508591D01*
X12940470Y8520014D01*
X12927952Y8530857D01*
X12914920Y8541098D01*
X12901394Y8550716D01*
X12887397Y8559690D01*
X12872950Y8567996D01*
X12858075Y8575615D01*
X12842794Y8582523D01*
X12827128Y8588700D01*
X12811099Y8594124D01*
X12794728Y8598772D01*
X12778038Y8602625D01*
X12761051Y8605658D01*
X12743786Y8607852D01*
X12726268Y8609184D01*
X12708516Y8609633D01*
X12690765Y8609184D01*
X12673246Y8607852D01*
X12655982Y8605658D01*
X12638995Y8602625D01*
X12622305Y8598772D01*
X12605935Y8594124D01*
X12589907Y8588700D01*
X12574242Y8582523D01*
X12558961Y8575615D01*
X12544087Y8567996D01*
X12529641Y8559690D01*
X12515644Y8550716D01*
X12502119Y8541098D01*
X12489088Y8530857D01*
X12476571Y8520014D01*
X12464590Y8508591D01*
X12453168Y8496610D01*
X12442325Y8484092D01*
X12432084Y8471060D01*
X12422466Y8457535D01*
X12413493Y8443537D01*
X12405187Y8429091D01*
X12397568Y8414216D01*
X12390660Y8398934D01*
X12384483Y8383268D01*
X12379060Y8367238D01*
X12374411Y8350867D01*
X12370559Y8334176D01*
X12367525Y8317188D01*
X12365331Y8299922D01*
X12363999Y8282402D01*
X12363550Y8264649D01*
X12364286Y8241939D01*
X12366465Y8219622D01*
X12370039Y8197746D01*
X12374965Y8176354D01*
X12381195Y8155493D01*
X12388684Y8135209D01*
X12397386Y8115546D01*
X12407256Y8096550D01*
X12418248Y8078266D01*
X12430316Y8060741D01*
X12443414Y8044019D01*
X12457497Y8028146D01*
X12472518Y8013168D01*
X12488433Y7999130D01*
X12505195Y7986077D01*
X12522758Y7974055D01*
X12524765Y7972271D01*
X12526873Y7970476D01*
X12529044Y7968703D01*
X12531240Y7966980D01*
X12533421Y7965339D01*
X12535551Y7963809D01*
X12537590Y7962421D01*
X12539500Y7961205D01*
X12566031Y7944961D01*
X12566619Y7944579D01*
X12567186Y7944169D01*
X12567732Y7943732D01*
X12568257Y7943270D01*
X12568759Y7942785D01*
X12569239Y7942276D01*
X12569696Y7941747D01*
X12570130Y7941197D01*
X12570540Y7940628D01*
X12570926Y7940041D01*
X12571287Y7939438D01*
X12571623Y7938820D01*
X12571934Y7938188D01*
X12572219Y7937544D01*
X12572478Y7936888D01*
X12572710Y7936222D01*
X12572915Y7935547D01*
X12573093Y7934865D01*
X12573242Y7934176D01*
X12573363Y7933482D01*
X12573456Y7932784D01*
X12573519Y7932084D01*
X12573552Y7931382D01*
X12573555Y7930680D01*
X12573528Y7929980D01*
X12573470Y7929282D01*
X12573380Y7928587D01*
X12573259Y7927898D01*
X12573106Y7927214D01*
X12572919Y7926539D01*
X12572700Y7925872D01*
X12572447Y7925214D01*
X12353870Y7397017D01*
X12353587Y7396377D01*
X12353275Y7395761D01*
X12352936Y7395171D01*
X12352572Y7394605D01*
X12352183Y7394065D01*
X12351771Y7393551D01*
X12351337Y7393063D01*
X12350881Y7392602D01*
X12350405Y7392168D01*
X12349910Y7391761D01*
X12349398Y7391382D01*
X12348868Y7391032D01*
X12348323Y7390711D01*
X12347763Y7390418D01*
X12347190Y7390155D01*
X12346604Y7389922D01*
X12346007Y7389720D01*
X12345400Y7389548D01*
X12344783Y7389408D01*
X12344159Y7389298D01*
X12343528Y7389221D01*
X12342891Y7389177D01*
X12342249Y7389165D01*
X12341604Y7389186D01*
X12340957Y7389241D01*
X12340308Y7389330D01*
X12339658Y7389453D01*
X12339010Y7389611D01*
X12338364Y7389805D01*
X12337720Y7390034D01*
X12337081Y7390299D01*
X12336447Y7390600D01*
X12230432Y7447203D01*
X12229171Y7447864D01*
X12227832Y7448430D01*
X12226426Y7448899D01*
X12224964Y7449274D01*
X12223458Y7449553D01*
X12221921Y7449737D01*
X12220363Y7449827D01*
X12218797Y7449822D01*
X12217235Y7449723D01*
X12215688Y7449529D01*
X12214168Y7449242D01*
X12212687Y7448862D01*
X12211256Y7448388D01*
X12209887Y7447821D01*
X12208593Y7447161D01*
X12207385Y7446408D01*
X11966978Y7281411D01*
X11966388Y7281030D01*
X11965780Y7280679D01*
X11965156Y7280358D01*
X11964517Y7280065D01*
X11963864Y7279802D01*
X11963200Y7279569D01*
X11961839Y7279188D01*
X11960445Y7278923D01*
X11959029Y7278773D01*
X11957603Y7278736D01*
X11956176Y7278811D01*
X11954760Y7278998D01*
X11953365Y7279295D01*
X11952002Y7279702D01*
X11950683Y7280218D01*
X11949417Y7280841D01*
X11948808Y7281192D01*
X11948216Y7281571D01*
X11947643Y7281975D01*
X11947091Y7282406D01*
X11946560Y7282863D01*
X11946052Y7283346D01*
X11725447Y7503914D01*
X11724960Y7504426D01*
X11724500Y7504960D01*
X11724066Y7505515D01*
X11723659Y7506091D01*
X11723278Y7506685D01*
X11722924Y7507297D01*
X11722597Y7507924D01*
X11722297Y7508567D01*
X11722024Y7509222D01*
X11721778Y7509890D01*
X11721369Y7511256D01*
X11721070Y7512653D01*
X11720883Y7514071D01*
X11720808Y7515500D01*
X11720846Y7516927D01*
X11720999Y7518344D01*
X11721119Y7519044D01*
X11721267Y7519738D01*
X11721444Y7520424D01*
X11721651Y7521099D01*
X11721887Y7521764D01*
X11722153Y7522417D01*
X11722448Y7523056D01*
X11722772Y7523680D01*
X11723127Y7524288D01*
X11723511Y7524878D01*
X11891458Y7769599D01*
X11892213Y7770810D01*
X11892886Y7772112D01*
X11893476Y7773492D01*
X11893982Y7774940D01*
X11894404Y7776442D01*
X11894741Y7777987D01*
X11894990Y7779563D01*
X11895153Y7781157D01*
X11895227Y7782758D01*
X11895212Y7784354D01*
X11895106Y7785932D01*
X11894909Y7787481D01*
X11894620Y7788989D01*
X11894238Y7790443D01*
X11893762Y7791832D01*
X11893191Y7793144D01*
X11800893Y8023705D01*
X11800665Y8024377D01*
X11800404Y8025046D01*
X11799793Y8026377D01*
X11799069Y8027687D01*
X11798240Y8028970D01*
X11797315Y8030216D01*
X11796304Y8031419D01*
X11795214Y8032570D01*
X11794056Y8033661D01*
X11792837Y8034683D01*
X11791567Y8035629D01*
X11790254Y8036491D01*
X11788907Y8037260D01*
X11787535Y8037928D01*
X11786148Y8038487D01*
X11785450Y8038724D01*
X11784752Y8038930D01*
X11784055Y8039105D01*
X11783359Y8039247D01*
X11487713Y8094265D01*
X11487026Y8094408D01*
X11486347Y8094586D01*
X11485678Y8094796D01*
X11485018Y8095038D01*
X11484370Y8095311D01*
X11483734Y8095614D01*
X11483111Y8095945D01*
X11482502Y8096304D01*
X11481907Y8096690D01*
X11481328Y8097101D01*
X11480765Y8097536D01*
X11480220Y8097995D01*
X11479692Y8098476D01*
X11479184Y8098978D01*
X11478695Y8099501D01*
X11478227Y8100043D01*
X11477781Y8100603D01*
X11477357Y8101179D01*
X11476957Y8101772D01*
X11476581Y8102380D01*
X11476230Y8103002D01*
X11475905Y8103636D01*
X11475606Y8104282D01*
X11475336Y8104939D01*
X11475094Y8105606D01*
X11474881Y8106281D01*
X11474699Y8106964D01*
X11474548Y8107653D01*
X11474429Y8108347D01*
X11474343Y8109046D01*
X11474290Y8109749D01*
X11474273Y8110453D01*
X11474236Y8422398D01*
X11474252Y8423104D01*
X11474302Y8423807D01*
X11474387Y8424507D01*
X11474504Y8425202D01*
X11474653Y8425891D01*
X11474834Y8426573D01*
X11475045Y8427248D01*
X11475285Y8427914D01*
X11475555Y8428570D01*
X11475851Y8429216D01*
X11476524Y8430470D01*
X11477298Y8431668D01*
X11478166Y8432803D01*
X11479120Y8433866D01*
X11480153Y8434849D01*
X11481260Y8435743D01*
X11482432Y8436541D01*
X11483041Y8436901D01*
X11483663Y8437234D01*
X11484298Y8437539D01*
X11484946Y8437815D01*
X11485605Y8438060D01*
X11486274Y8438274D01*
X11486953Y8438456D01*
X11487640Y8438604D01*
X11790735Y8494968D01*
X11792124Y8495291D01*
X11793521Y8495736D01*
X11794915Y8496296D01*
X11796299Y8496962D01*
X11797662Y8497726D01*
X11798995Y8498582D01*
X11800290Y8499520D01*
X11801537Y8500534D01*
X11802726Y8501614D01*
X11803849Y8502754D01*
X11804896Y8503946D01*
X11805858Y8505181D01*
X11806726Y8506452D01*
X11807491Y8507750D01*
X11808143Y8509069D01*
X11808674Y8510400D01*
X11901581Y8727152D01*
X11902182Y8728449D01*
X11902688Y8729824D01*
X11903098Y8731265D01*
X11903414Y8732760D01*
X11903636Y8734297D01*
X11903765Y8735864D01*
X11903802Y8737450D01*
X11903747Y8739041D01*
X11903602Y8740628D01*
X11903366Y8742197D01*
X11903041Y8743737D01*
X11902628Y8745236D01*
X11902127Y8746682D01*
X11901539Y8748064D01*
X11900864Y8749369D01*
X11900104Y8750585D01*
X11723510Y9007973D01*
X11723129Y9008563D01*
X11722778Y9009171D01*
X11722455Y9009795D01*
X11722163Y9010433D01*
X11721899Y9011085D01*
X11721664Y9011750D01*
X11721282Y9013110D01*
X11721015Y9014503D01*
X11720863Y9015918D01*
X11720823Y9017344D01*
X11720897Y9018771D01*
X11721082Y9020187D01*
X11721379Y9021583D01*
X11721786Y9022947D01*
X11722302Y9024269D01*
X11722927Y9025537D01*
X11723280Y9026149D01*
X11723660Y9026742D01*
X11724066Y9027318D01*
X11724499Y9027873D01*
X11724959Y9028407D01*
X11725445Y9028918D01*
X11946013Y9249486D01*
X11946525Y9249972D01*
X11947058Y9250433D01*
X11947613Y9250866D01*
X11948188Y9251274D01*
X11948782Y9251654D01*
X11949392Y9252008D01*
X11950019Y9252335D01*
X11950660Y9252635D01*
X11951314Y9252908D01*
X11951980Y9253154D01*
X11953343Y9253563D01*
X11954737Y9253862D01*
X11956151Y9254049D01*
X11957576Y9254124D01*
X11959001Y9254086D01*
X11960414Y9253933D01*
X11961113Y9253814D01*
X11961806Y9253666D01*
X11962490Y9253488D01*
X11963164Y9253281D01*
X11963828Y9253046D01*
X11964480Y9252780D01*
X11965118Y9252485D01*
X11965742Y9252161D01*
X11966349Y9251806D01*
X11966939Y9251422D01*
X12228845Y9071693D01*
X12230056Y9070935D01*
X12231359Y9070261D01*
X12232741Y9069670D01*
X12234191Y9069164D01*
X12235695Y9068744D01*
X12237242Y9068409D01*
X12238820Y9068162D01*
X12240417Y9068003D01*
X12242019Y9067932D01*
X12243616Y9067952D01*
X12245194Y9068061D01*
X12246743Y9068262D01*
X12248248Y9068556D01*
X12249700Y9068942D01*
X12251084Y9069422D01*
X12252389Y9069996D01*
X12462503Y9156007D01*
X12463172Y9156245D01*
X12463838Y9156514D01*
X12464501Y9156814D01*
X12465160Y9157144D01*
X12466462Y9157887D01*
X12467737Y9158735D01*
X12468975Y9159678D01*
X12470170Y9160707D01*
X12471313Y9161814D01*
X12472397Y9162988D01*
X12473414Y9164222D01*
X12474356Y9165505D01*
X12475215Y9166830D01*
X12475983Y9168185D01*
X12476653Y9169564D01*
X12477216Y9170956D01*
X12477664Y9172352D01*
X12477843Y9173049D01*
X12477991Y9173744D01*
X12536346Y9487237D01*
X12536491Y9487926D01*
X12536670Y9488607D01*
X12536881Y9489277D01*
X12537124Y9489938D01*
X12537397Y9490587D01*
X12537700Y9491223D01*
X12538032Y9491847D01*
X12538390Y9492457D01*
X12538775Y9493052D01*
X12539186Y9493631D01*
X12539621Y9494194D01*
X12540078Y9494739D01*
X12540559Y9495267D01*
X12541060Y9495775D01*
X12541581Y9496263D01*
X12542122Y9496731D01*
X12542680Y9497176D01*
X12543256Y9497600D01*
X12543847Y9497999D01*
X12544454Y9498375D01*
X12545074Y9498726D01*
X12545707Y9499050D01*
X12546352Y9499348D01*
X12547008Y9499618D01*
X12547673Y9499859D01*
X12548347Y9500072D01*
X12549029Y9500253D01*
X12549717Y9500404D01*
X12550411Y9500523D01*
X12551110Y9500609D01*
X12551812Y9500661D01*
X12552516Y9500678D01*
X12864479Y9500678D01*
X12865182Y9500661D01*
G37*
D12*
%TO.C,JP2*%
X20624800Y6045200D02*
X20624800Y7162800D01*
X22606000Y5588000D02*
X21082000Y5588000D01*
X21082000Y7620000D02*
X22606000Y7620000D01*
X23063200Y6045200D02*
X23063200Y7162800D01*
X21082000Y5588000D02*
G75*
G02*
X20624800Y6045200I1J457201D01*
G01*
X20624800Y7162800D02*
G75*
G02*
X21082000Y7620000I457201J-1D01*
G01*
X23063200Y6045200D02*
G75*
G02*
X22606000Y5588000I-457200J0D01*
G01*
X22606000Y7620000D02*
G75*
G02*
X23063200Y7162800I3J-457197D01*
G01*
%TO.C,JP1*%
X4775200Y7162800D02*
X4775200Y6045200D01*
X2794000Y7620000D02*
X4318000Y7620000D01*
X4318000Y5588000D02*
X2794000Y5588000D01*
X2336800Y7162800D02*
X2336800Y6045200D01*
X4318000Y7620000D02*
G75*
G02*
X4775200Y7162800I-1J-457201D01*
G01*
X4775200Y6045200D02*
G75*
G02*
X4318000Y5588000I-457201J1D01*
G01*
X2336800Y7162800D02*
G75*
G02*
X2794000Y7620000I457200J0D01*
G01*
X2794000Y5588000D02*
G75*
G02*
X2336800Y6045200I-3J457197D01*
G01*
D10*
%TO.C,kibuzzard-65F05472*%
G36*
X1923852Y12151320D02*
G01*
X1978918Y12097246D01*
X1997273Y11986617D01*
X1983879Y11884422D01*
X1943695Y11831836D01*
X1891109Y11812984D01*
X1822648Y11810008D01*
X719336Y11810008D01*
X618133Y11821914D01*
X561578Y11874500D01*
X542727Y11984633D01*
X556121Y12086828D01*
X596305Y12139414D01*
X647898Y12158266D01*
X717352Y12161242D01*
X1820664Y12161242D01*
X1923852Y12151320D01*
G37*
G36*
X1919883Y13578086D02*
G01*
X1961555Y13553281D01*
X1985367Y13501688D01*
X1995289Y13410406D01*
X1983383Y13316148D01*
X1936750Y13259594D01*
X1826617Y13240742D01*
X1155898Y13240742D01*
X1227501Y13186062D01*
X1320602Y13115947D01*
X1435199Y13030398D01*
X1571294Y12929416D01*
X1728887Y12812999D01*
X1907977Y12681148D01*
X1959570Y12635508D01*
X1984375Y12586891D01*
X1995289Y12492633D01*
X1983383Y12395398D01*
X1936750Y12338844D01*
X1826617Y12319992D01*
X719336Y12319992D01*
X649883Y12322969D01*
X596305Y12341820D01*
X556121Y12393414D01*
X542727Y12492633D01*
X556121Y12594828D01*
X596305Y12647414D01*
X647898Y12666266D01*
X717352Y12669242D01*
X1370211Y12669242D01*
X1297891Y12724694D01*
X1202641Y12797124D01*
X1084461Y12886531D01*
X943350Y12992916D01*
X779308Y13116278D01*
X592336Y13256617D01*
X554633Y13306227D01*
X542727Y13413383D01*
X556121Y13515578D01*
X596305Y13568164D01*
X647898Y13587016D01*
X717352Y13589992D01*
X1818680Y13589992D01*
X1919883Y13578086D01*
G37*
%TO.C,kibuzzard-65F056F7*%
G36*
X19127324Y4343709D02*
G01*
X19194926Y4317085D01*
X19251414Y4272712D01*
X19308713Y4188153D01*
X19327813Y4094218D01*
X19308539Y4000456D01*
X19250720Y3916418D01*
X19194154Y3872431D01*
X19127247Y3846038D01*
X19050000Y3837241D01*
X18972753Y3846116D01*
X18905846Y3872739D01*
X18849280Y3917112D01*
X18791461Y4001671D01*
X18772188Y4095607D01*
X18790940Y4189368D01*
X18847197Y4273407D01*
X18902914Y4317394D01*
X18970052Y4343786D01*
X19048611Y4352583D01*
X19127324Y4343709D01*
G37*
G36*
X19805187Y6867712D02*
G01*
X19805187Y6636202D01*
X19805187Y2489850D01*
X19805187Y2026830D01*
X18294813Y2026830D01*
X18294813Y2489850D01*
X18294813Y3006582D01*
X18544381Y3006582D01*
X18563134Y2940601D01*
X18612445Y2894068D01*
X19390320Y2510686D01*
X19456995Y2489850D01*
X19503529Y2510339D01*
X19545895Y2571805D01*
X19569509Y2641953D01*
X19563953Y2678763D01*
X19544506Y2702377D01*
X19507696Y2725297D01*
X19468802Y2743875D01*
X19392404Y2778775D01*
X19294301Y2823399D01*
X19190295Y2871148D01*
X19086289Y2919071D01*
X18988187Y2964215D01*
X18914046Y2998421D01*
X18881923Y3013527D01*
X19490333Y3291339D01*
X19532005Y3310786D01*
X19569509Y3371905D01*
X19545895Y3453860D01*
X19503529Y3515326D01*
X19456995Y3535814D01*
X19390320Y3514979D01*
X18612445Y3131597D01*
X18563134Y3085064D01*
X18544381Y3020472D01*
X18544381Y3006582D01*
X18294813Y3006582D01*
X18294813Y3020472D01*
X18294813Y4098385D01*
X18526323Y4098385D01*
X18535873Y3996766D01*
X18564523Y3903048D01*
X18612272Y3817230D01*
X18679120Y3739312D01*
X18759165Y3674591D01*
X18846502Y3628361D01*
X18941132Y3600623D01*
X19043055Y3591377D01*
X19154701Y3601795D01*
X19259054Y3633049D01*
X19351600Y3681666D01*
X19427825Y3744174D01*
X19488596Y3818836D01*
X19534783Y3903916D01*
X19563953Y3995594D01*
X19573677Y4090050D01*
X19564387Y4189455D01*
X19536519Y4282088D01*
X19490072Y4367950D01*
X19425047Y4447039D01*
X19346261Y4513280D01*
X19258533Y4560595D01*
X19161863Y4588984D01*
X19056251Y4598447D01*
X18950248Y4589418D01*
X18852406Y4562332D01*
X18762725Y4517187D01*
X18681204Y4453985D01*
X18613444Y4377586D01*
X18565044Y4292854D01*
X18536003Y4199786D01*
X18526323Y4098385D01*
X18294813Y4098385D01*
X18294813Y5135320D01*
X18526323Y5135320D01*
X18537436Y5033918D01*
X18570773Y4942240D01*
X18622169Y4863585D01*
X18687455Y4801250D01*
X18763506Y4752026D01*
X18844419Y4716865D01*
X18930193Y4695769D01*
X19020830Y4688736D01*
X19438938Y4688736D01*
X19488249Y4690820D01*
X19525059Y4704016D01*
X19554230Y4741521D01*
X19562564Y4812363D01*
X19554230Y4883205D01*
X19525059Y4919321D01*
X19437548Y4935989D01*
X19020830Y4935989D01*
X18938180Y4946407D01*
X18859698Y4977661D01*
X18797191Y5040169D01*
X18773577Y5138793D01*
X18792329Y5227345D01*
X18848586Y5290200D01*
X18929499Y5327705D01*
X19022219Y5340207D01*
X19447272Y5340207D01*
X19523670Y5354097D01*
X19554230Y5394380D01*
X19562564Y5460361D01*
X19555619Y5523563D01*
X19538950Y5559679D01*
X19509780Y5577736D01*
X19437548Y5586071D01*
X19018052Y5586071D01*
X18928457Y5578952D01*
X18843030Y5557595D01*
X18761770Y5522000D01*
X18684677Y5472168D01*
X18620606Y5408618D01*
X18570079Y5329094D01*
X18537262Y5236895D01*
X18526323Y5135320D01*
X18294813Y5135320D01*
X18294813Y6148641D01*
X18542992Y6148641D01*
X18551327Y6079882D01*
X18579802Y6043767D01*
X18615918Y6031265D01*
X18663841Y6029182D01*
X19361150Y6029182D01*
X19361150Y5762482D01*
X19371568Y5697196D01*
X19404211Y5669414D01*
X19462552Y5662469D01*
X19520198Y5669414D01*
X19550063Y5693029D01*
X19562564Y5763871D01*
X19562564Y6536189D01*
X19552146Y6601475D01*
X19519503Y6629257D01*
X19461163Y6636202D01*
X19403516Y6629257D01*
X19373652Y6605643D01*
X19361150Y6534800D01*
X19361150Y6269489D01*
X18662452Y6269489D01*
X18615223Y6267406D01*
X18579802Y6254904D01*
X18551327Y6218094D01*
X18542992Y6148641D01*
X18294813Y6148641D01*
X18294813Y6636202D01*
X18294813Y6867712D01*
X18294813Y7371170D01*
X19050000Y6867712D01*
X19805187Y7371170D01*
X19805187Y6867712D01*
G37*
%TO.C,kibuzzard-65F054C3*%
G36*
X21191141Y7992467D02*
G01*
X21056402Y7992467D01*
X20961251Y8011046D01*
X20875823Y8066782D01*
X20815399Y8150647D01*
X20795258Y8253611D01*
X20814878Y8356922D01*
X20873740Y8441829D01*
X20958994Y8498607D01*
X21057791Y8517533D01*
X21191141Y8517533D01*
X21191141Y7992467D01*
G37*
G36*
X23315675Y8877529D02*
G01*
X23376398Y8868522D01*
X23435946Y8853606D01*
X23493746Y8832925D01*
X23549239Y8806678D01*
X23601893Y8775118D01*
X23651201Y8738550D01*
X23696686Y8697324D01*
X23737911Y8651839D01*
X23774480Y8602532D01*
X23806039Y8549878D01*
X23832286Y8494384D01*
X23852967Y8436585D01*
X23867883Y8377037D01*
X23876890Y8316314D01*
X23879903Y8255000D01*
X23876890Y8193686D01*
X23867883Y8132963D01*
X23852967Y8073415D01*
X23832286Y8015616D01*
X23806039Y7960122D01*
X23774480Y7907468D01*
X23737911Y7858161D01*
X23696686Y7812676D01*
X23651201Y7771450D01*
X23601893Y7734882D01*
X23549239Y7703322D01*
X23493746Y7677075D01*
X23435946Y7656394D01*
X23376398Y7641478D01*
X23315675Y7632471D01*
X23254361Y7629459D01*
X23138606Y7629459D01*
X22516306Y7629459D01*
X21650920Y7629459D01*
X21060569Y7629459D01*
X20549394Y7629459D01*
X20433639Y7629459D01*
X20372325Y7632471D01*
X20311602Y7641478D01*
X20252054Y7656394D01*
X20194254Y7677075D01*
X20138760Y7703322D01*
X20086107Y7734882D01*
X20036799Y7771450D01*
X19991314Y7812676D01*
X19950089Y7858161D01*
X19913520Y7907468D01*
X19881961Y7960122D01*
X19855714Y8015616D01*
X19835033Y8073415D01*
X19820117Y8132963D01*
X19811110Y8193686D01*
X19808097Y8255000D01*
X19808404Y8261251D01*
X20549394Y8261251D01*
X20558726Y8159111D01*
X20586725Y8064525D01*
X20633389Y7977491D01*
X20698718Y7898011D01*
X20777330Y7831770D01*
X20863843Y7784455D01*
X20958256Y7756066D01*
X21060569Y7746603D01*
X21314767Y7746603D01*
X21383526Y7755285D01*
X21420336Y7781330D01*
X21437005Y7870230D01*
X21437005Y8639770D01*
X21527294Y8639770D01*
X21540143Y8562677D01*
X21578689Y8525867D01*
X21650920Y8517533D01*
X22077362Y8517533D01*
X22077362Y8377238D01*
X21802328Y8377238D01*
X21754405Y8375154D01*
X21717595Y8361958D01*
X21689467Y8325148D01*
X21680091Y8253611D01*
X21693287Y8176518D01*
X21732875Y8139708D01*
X21805106Y8131373D01*
X22077362Y8131373D01*
X22077362Y7991078D01*
X21649531Y7991078D01*
X21601609Y7988995D01*
X21564798Y7975798D01*
X21536670Y7938988D01*
X21527294Y7867452D01*
X21540143Y7790359D01*
X21578689Y7753548D01*
X21650920Y7745214D01*
X22200989Y7745214D01*
X22278082Y7758410D01*
X22314892Y7797998D01*
X22320857Y7848699D01*
X22413516Y7848699D01*
X22420461Y7789664D01*
X22444075Y7759105D01*
X22516306Y7745214D01*
X23016369Y7745214D01*
X23093462Y7758410D01*
X23130272Y7797998D01*
X23138606Y7868841D01*
X23138606Y8641159D01*
X23136523Y8689082D01*
X23123327Y8725892D01*
X23086516Y8754021D01*
X23014980Y8763397D01*
X22937539Y8750548D01*
X22899687Y8712002D01*
X22892742Y8639770D01*
X22892742Y7950795D01*
X22514917Y7950795D01*
X22448242Y7940377D01*
X22420461Y7907734D01*
X22413516Y7848699D01*
X22320857Y7848699D01*
X22323227Y7868841D01*
X22323227Y8641159D01*
X22296834Y8737699D01*
X22196822Y8763397D01*
X21649531Y8763397D01*
X21601609Y8761313D01*
X21564798Y8748117D01*
X21536670Y8711307D01*
X21527294Y8639770D01*
X21437005Y8639770D01*
X21437005Y8642548D01*
X21434921Y8691166D01*
X21421725Y8727281D01*
X21384915Y8755410D01*
X21313378Y8764786D01*
X21056402Y8763397D01*
X20958733Y8754325D01*
X20867142Y8727108D01*
X20781628Y8681746D01*
X20702191Y8618240D01*
X20635342Y8541494D01*
X20587593Y8456414D01*
X20558944Y8363000D01*
X20549394Y8261251D01*
X19808404Y8261251D01*
X19811110Y8316314D01*
X19820117Y8377037D01*
X19835033Y8436585D01*
X19855714Y8494384D01*
X19881961Y8549878D01*
X19913520Y8602532D01*
X19950089Y8651839D01*
X19991314Y8697324D01*
X20036799Y8738550D01*
X20086107Y8775118D01*
X20138760Y8806678D01*
X20194254Y8832925D01*
X20252054Y8853606D01*
X20311602Y8868522D01*
X20372325Y8877529D01*
X20433639Y8880541D01*
X20549394Y8880541D01*
X23138606Y8880541D01*
X23254361Y8880541D01*
X23315675Y8877529D01*
G37*
%TO.C,kibuzzard-65F05604*%
G36*
X6450533Y5110452D02*
G01*
X6535440Y5051590D01*
X6592218Y4966337D01*
X6611144Y4867540D01*
X6611144Y4734190D01*
X6086078Y4734190D01*
X6086078Y4868929D01*
X6104657Y4964079D01*
X6160393Y5049507D01*
X6244258Y5109931D01*
X6347222Y5130072D01*
X6450533Y5110452D01*
G37*
G36*
X7106576Y5375936D02*
G01*
X7106576Y2475574D01*
X7106576Y2012553D01*
X5593424Y2012553D01*
X5593424Y2475574D01*
X5593424Y2988138D01*
X5824934Y2988138D01*
X5834701Y2888039D01*
X5864002Y2794711D01*
X5912836Y2708155D01*
X5981204Y2628371D01*
X6063376Y2561522D01*
X6153621Y2513773D01*
X6251941Y2485124D01*
X6358334Y2475574D01*
X6464207Y2485297D01*
X6560964Y2514468D01*
X6648605Y2563085D01*
X6727130Y2631149D01*
X6791852Y2712409D01*
X6838082Y2800615D01*
X6865820Y2895765D01*
X6875066Y2997861D01*
X6863027Y3105128D01*
X6826911Y3208382D01*
X6766719Y3307622D01*
X6704905Y3345127D01*
X6626423Y3313179D01*
X6571208Y3261436D01*
X6552803Y3214555D01*
X6591002Y3129822D01*
X6619652Y3065926D01*
X6629202Y2990916D01*
X6610623Y2891251D01*
X6554887Y2803393D01*
X6469112Y2741927D01*
X6360418Y2721438D01*
X6284328Y2730698D01*
X6216264Y2758480D01*
X6156226Y2804782D01*
X6093197Y2893682D01*
X6072187Y2993694D01*
X6078438Y3066273D01*
X6097191Y3131211D01*
X6248598Y3131211D01*
X6248598Y3021476D01*
X6259711Y2960357D01*
X6292354Y2936743D01*
X6350695Y2931186D01*
X6409730Y2937437D01*
X6440289Y2960357D01*
X6452791Y3027032D01*
X6452791Y3271507D01*
X6413897Y3363185D01*
X6336109Y3377076D01*
X6030516Y3377076D01*
X5945783Y3338182D01*
X5892912Y3272549D01*
X5855146Y3192330D01*
X5832487Y3097527D01*
X5824934Y2988138D01*
X5593424Y2988138D01*
X5593424Y3609049D01*
X5838825Y3609049D01*
X5848201Y3539596D01*
X5876330Y3503480D01*
X5913834Y3490284D01*
X5962452Y3488201D01*
X6737548Y3488201D01*
X6814641Y3501397D01*
X6847284Y3540985D01*
X6855619Y3609049D01*
X6847979Y3675029D01*
X6830616Y3709061D01*
X6794500Y3741010D01*
X6669137Y3833305D01*
X6558822Y3914797D01*
X6463556Y3985485D01*
X6383338Y4045369D01*
X6318167Y4094449D01*
X6268045Y4132726D01*
X6737548Y4132726D01*
X6814641Y4145922D01*
X6847284Y4185510D01*
X6855619Y4251490D01*
X6848673Y4315387D01*
X6832005Y4351503D01*
X6802834Y4368866D01*
X6731992Y4377201D01*
X5961063Y4377201D01*
X5912445Y4375117D01*
X5876330Y4361921D01*
X5848201Y4325111D01*
X5838825Y4253574D01*
X5847159Y4178565D01*
X5873552Y4143838D01*
X6004432Y4045600D01*
X6119261Y3959247D01*
X6218039Y3884778D01*
X6300765Y3822193D01*
X6367440Y3771492D01*
X6418064Y3732676D01*
X5961063Y3732676D01*
X5912445Y3730592D01*
X5876330Y3717396D01*
X5848201Y3680586D01*
X5838825Y3609049D01*
X5593424Y3609049D01*
X5593424Y4253574D01*
X5593424Y4610563D01*
X5840214Y4610563D01*
X5848896Y4541804D01*
X5874941Y4504994D01*
X5963841Y4488326D01*
X6736159Y4488326D01*
X6784777Y4490409D01*
X6820892Y4503605D01*
X6849021Y4540415D01*
X6858397Y4611952D01*
X6857008Y4868929D01*
X6847935Y4966597D01*
X6820719Y5058188D01*
X6775357Y5143703D01*
X6711851Y5223140D01*
X6635105Y5289988D01*
X6550025Y5337737D01*
X6456611Y5366387D01*
X6354862Y5375936D01*
X6252722Y5366604D01*
X6158136Y5338605D01*
X6071102Y5291942D01*
X5991622Y5226612D01*
X5925381Y5148000D01*
X5878066Y5061487D01*
X5849677Y4967075D01*
X5840214Y4864761D01*
X5840214Y4610563D01*
X5593424Y4610563D01*
X5593424Y4864761D01*
X5593424Y5375936D01*
X5593424Y5607447D01*
X7106576Y5607447D01*
X7106576Y5375936D01*
G37*
%TO.C,kibuzzard-65F056D8*%
G36*
X16587324Y3291990D02*
G01*
X16654926Y3265366D01*
X16711414Y3220993D01*
X16768713Y3136434D01*
X16787813Y3042499D01*
X16768539Y2948737D01*
X16710720Y2864699D01*
X16654154Y2820712D01*
X16587247Y2794320D01*
X16510000Y2785522D01*
X16432753Y2794397D01*
X16365846Y2821021D01*
X16309280Y2865393D01*
X16251461Y2949953D01*
X16232188Y3043888D01*
X16250940Y3137650D01*
X16307197Y3221688D01*
X16362914Y3265675D01*
X16430052Y3292067D01*
X16508611Y3300864D01*
X16587324Y3291990D01*
G37*
G36*
X17265187Y5547905D02*
G01*
X17265187Y5316394D01*
X17265187Y2539658D01*
X17265187Y2076637D01*
X15754813Y2076637D01*
X15754813Y2539658D01*
X15754813Y3046666D01*
X15986323Y3046666D01*
X15995873Y2945047D01*
X16024523Y2851329D01*
X16072272Y2765511D01*
X16139120Y2687593D01*
X16219165Y2622872D01*
X16306502Y2576642D01*
X16401132Y2548904D01*
X16503055Y2539658D01*
X16614701Y2550076D01*
X16719054Y2581330D01*
X16811600Y2629947D01*
X16887825Y2692455D01*
X16948596Y2767117D01*
X16994783Y2852197D01*
X17023953Y2943875D01*
X17033677Y3038332D01*
X17024387Y3137736D01*
X16996519Y3230370D01*
X16950072Y3316231D01*
X16885047Y3395321D01*
X16806261Y3461562D01*
X16718533Y3508877D01*
X16621863Y3537266D01*
X16516251Y3546729D01*
X16410248Y3537700D01*
X16312406Y3510613D01*
X16222725Y3465468D01*
X16141204Y3402266D01*
X16073444Y3325868D01*
X16025044Y3241135D01*
X15996003Y3148068D01*
X15986323Y3046666D01*
X15754813Y3046666D01*
X15754813Y3759255D01*
X16002992Y3759255D01*
X16016188Y3682162D01*
X16055777Y3645352D01*
X16126619Y3637018D01*
X16898938Y3637018D01*
X16995477Y3663410D01*
X17021175Y3763422D01*
X17021175Y4310713D01*
X17019091Y4358636D01*
X17005895Y4394751D01*
X16968391Y4423227D01*
X16897548Y4431561D01*
X16826706Y4423227D01*
X16789896Y4394057D01*
X16777395Y4357247D01*
X16775311Y4307935D01*
X16775311Y3882882D01*
X16635016Y3882882D01*
X16635016Y4156527D01*
X16632932Y4205839D01*
X16619736Y4242649D01*
X16581884Y4269736D01*
X16510000Y4278764D01*
X16432560Y4265568D01*
X16394708Y4225980D01*
X16387762Y4155138D01*
X16387762Y3882882D01*
X16125230Y3882882D01*
X16076612Y3880798D01*
X16040497Y3867602D01*
X16012368Y3830792D01*
X16002992Y3759255D01*
X15754813Y3759255D01*
X15754813Y4644088D01*
X16002992Y4644088D01*
X16016188Y4566995D01*
X16055777Y4530185D01*
X16126619Y4521850D01*
X16898938Y4521850D01*
X16995477Y4548243D01*
X17021175Y4648255D01*
X17021175Y5195546D01*
X17019091Y5243468D01*
X17005895Y5279584D01*
X16968391Y5308060D01*
X16897548Y5316394D01*
X16826706Y5308060D01*
X16789896Y5278889D01*
X16777395Y5242079D01*
X16775311Y5192768D01*
X16775311Y4767714D01*
X16635016Y4767714D01*
X16635016Y5041360D01*
X16632932Y5090672D01*
X16619736Y5127482D01*
X16581884Y5154568D01*
X16510000Y5163597D01*
X16432560Y5150401D01*
X16394708Y5110813D01*
X16387762Y5039971D01*
X16387762Y4767714D01*
X16125230Y4767714D01*
X16076612Y4765631D01*
X16040497Y4752435D01*
X16012368Y4715625D01*
X16002992Y4644088D01*
X15754813Y4644088D01*
X15754813Y5316394D01*
X15754813Y5547905D01*
X16510000Y6051363D01*
X17265187Y5547905D01*
G37*
%TO.C,kibuzzard-65F05628*%
G36*
X9634769Y5093185D02*
G01*
X9634769Y4861675D01*
X9634769Y2493323D01*
X9634769Y2030302D01*
X8145231Y2030302D01*
X8145231Y2493323D01*
X8145231Y3010054D01*
X8378130Y3010054D01*
X8396883Y2944074D01*
X8446195Y2897540D01*
X9224070Y2514159D01*
X9290745Y2493323D01*
X9337278Y2513812D01*
X9379645Y2575278D01*
X9403259Y2645425D01*
X9397702Y2682236D01*
X9378255Y2705850D01*
X9341445Y2728769D01*
X9302552Y2747348D01*
X9226153Y2782248D01*
X9128051Y2826872D01*
X9024045Y2874621D01*
X8920038Y2922543D01*
X8821936Y2967688D01*
X8747795Y3001894D01*
X8715673Y3017000D01*
X9324082Y3294812D01*
X9365754Y3314259D01*
X9403259Y3375378D01*
X9379645Y3457332D01*
X9337278Y3518798D01*
X9290745Y3539287D01*
X9224070Y3518451D01*
X8446195Y3135070D01*
X8396883Y3088536D01*
X8378130Y3023945D01*
X8378130Y3010054D01*
X8145231Y3010054D01*
X8145231Y3023945D01*
X8145231Y3737923D01*
X8376741Y3737923D01*
X8389938Y3660830D01*
X8429526Y3624020D01*
X8500368Y3615686D01*
X9272687Y3615686D01*
X9320609Y3617769D01*
X9357420Y3630965D01*
X9385548Y3667775D01*
X9394924Y3739312D01*
X9382075Y3816752D01*
X9343529Y3854604D01*
X9271298Y3861550D01*
X8498979Y3861550D01*
X8450362Y3859466D01*
X8414246Y3846270D01*
X8386118Y3809460D01*
X8376741Y3737923D01*
X8145231Y3737923D01*
X8145231Y4093523D01*
X8376741Y4093523D01*
X8386118Y4024070D01*
X8414246Y3987954D01*
X8451751Y3974758D01*
X8500368Y3972675D01*
X9275465Y3972675D01*
X9352558Y3985871D01*
X9385201Y4025459D01*
X9393535Y4093523D01*
X9385895Y4159504D01*
X9368532Y4193536D01*
X9332416Y4225484D01*
X9207054Y4317780D01*
X9096739Y4399271D01*
X9001472Y4469959D01*
X8921254Y4529843D01*
X8856084Y4578923D01*
X8805962Y4617200D01*
X9275465Y4617200D01*
X9352558Y4630396D01*
X9385201Y4669984D01*
X9393535Y4735964D01*
X9386590Y4799861D01*
X9369921Y4835977D01*
X9340751Y4853340D01*
X9269909Y4861675D01*
X8498979Y4861675D01*
X8450362Y4859591D01*
X8414246Y4846395D01*
X8386118Y4809585D01*
X8376741Y4738048D01*
X8385076Y4663039D01*
X8411468Y4628312D01*
X8542349Y4530075D01*
X8657178Y4443721D01*
X8755955Y4369252D01*
X8838682Y4306667D01*
X8905357Y4255966D01*
X8955980Y4217150D01*
X8498979Y4217150D01*
X8450362Y4215066D01*
X8414246Y4201870D01*
X8386118Y4165060D01*
X8376741Y4093523D01*
X8145231Y4093523D01*
X8145231Y4738048D01*
X8145231Y4861675D01*
X8145231Y5093185D01*
X8890000Y5589698D01*
X9634769Y5093185D01*
G37*
%TO.C,kibuzzard-65F05644*%
G36*
X11314708Y3085328D02*
G01*
X11342489Y3059631D01*
X11353602Y2981843D01*
X11373048Y2906834D01*
X11452920Y2881831D01*
X11532791Y2907528D01*
X11552238Y2992956D01*
X11581408Y3059631D01*
X11631414Y3063798D01*
X11680031Y3040878D01*
X11693922Y2972120D01*
X11693922Y2777651D01*
X11167467Y2777651D01*
X11167467Y3005457D01*
X11191081Y3071090D01*
X11261923Y3092968D01*
X11314708Y3085328D01*
G37*
G36*
X12171296Y5565036D02*
G01*
X12171296Y5333526D01*
X12171296Y2531787D01*
X12171296Y2068766D01*
X10688704Y2068766D01*
X10688704Y2531787D01*
X10688704Y2654024D01*
X10921603Y2654024D01*
X10934799Y2576931D01*
X10974387Y2540121D01*
X11046619Y2531787D01*
X11817548Y2531787D01*
X11866166Y2533870D01*
X11902281Y2547067D01*
X11930410Y2583877D01*
X11939786Y2655413D01*
X11939786Y3005457D01*
X11929908Y3086023D01*
X11900275Y3157328D01*
X11850886Y3219373D01*
X11786680Y3269533D01*
X11714449Y3299630D01*
X11634192Y3309662D01*
X11546334Y3296466D01*
X11466116Y3256878D01*
X11398669Y3302408D01*
X11325975Y3329726D01*
X11248033Y3338832D01*
X11160445Y3327025D01*
X11082889Y3295308D01*
X11015365Y3243681D01*
X10963275Y3177701D01*
X10932021Y3102923D01*
X10921603Y3019348D01*
X10921603Y2654024D01*
X10688704Y2654024D01*
X10688704Y3019348D01*
X10688704Y3880567D01*
X10920214Y3880567D01*
X10928548Y3811808D01*
X10957024Y3775692D01*
X10993140Y3763191D01*
X11041063Y3761107D01*
X11738372Y3761107D01*
X11738372Y3494407D01*
X11748790Y3429121D01*
X11781433Y3401340D01*
X11839773Y3394395D01*
X11897420Y3401340D01*
X11927284Y3424954D01*
X11939786Y3495796D01*
X11939786Y4268115D01*
X11929368Y4333401D01*
X11896725Y4361182D01*
X11838384Y4368128D01*
X11780738Y4361182D01*
X11750873Y4337568D01*
X11738372Y4266726D01*
X11738372Y4001415D01*
X11039673Y4001415D01*
X10992445Y3999331D01*
X10957024Y3986830D01*
X10928548Y3950020D01*
X10920214Y3880567D01*
X10688704Y3880567D01*
X10688704Y4565374D01*
X10920214Y4565374D01*
X10929590Y4495921D01*
X10957719Y4459806D01*
X10995223Y4446610D01*
X11043841Y4444526D01*
X11818938Y4444526D01*
X11896030Y4457722D01*
X11928673Y4497310D01*
X11937008Y4565374D01*
X11929368Y4631355D01*
X11912005Y4665387D01*
X11875889Y4697335D01*
X11750526Y4789631D01*
X11640211Y4871122D01*
X11544945Y4941810D01*
X11464727Y5001694D01*
X11399556Y5050775D01*
X11349434Y5089051D01*
X11818938Y5089051D01*
X11896030Y5102247D01*
X11928673Y5141835D01*
X11937008Y5207816D01*
X11930063Y5271713D01*
X11913394Y5307828D01*
X11884223Y5325192D01*
X11813381Y5333526D01*
X11042452Y5333526D01*
X10993834Y5331442D01*
X10957719Y5318246D01*
X10929590Y5281436D01*
X10920214Y5209899D01*
X10928548Y5134890D01*
X10954941Y5100163D01*
X11085821Y5001926D01*
X11200650Y4915572D01*
X11299428Y4841103D01*
X11382155Y4778518D01*
X11448830Y4727818D01*
X11499453Y4689001D01*
X11042452Y4689001D01*
X10993834Y4686917D01*
X10957719Y4673721D01*
X10929590Y4636911D01*
X10920214Y4565374D01*
X10688704Y4565374D01*
X10688704Y5209899D01*
X10688704Y5333526D01*
X10688704Y5565036D01*
X11430000Y6059234D01*
X12171296Y5565036D01*
G37*
%TO.C,kibuzzard-65F056B4*%
G36*
X14201973Y3033172D02*
G01*
X14233227Y2949829D01*
X14233227Y2776196D01*
X13987363Y2776196D01*
X13987363Y2951218D01*
X14017923Y3033172D01*
X14109601Y3073455D01*
X14201973Y3033172D01*
G37*
G36*
X14727271Y6317842D02*
G01*
X14727271Y6086332D01*
X14727271Y2530332D01*
X14727271Y2067311D01*
X13212729Y2067311D01*
X13212729Y2530332D01*
X13212729Y2652569D01*
X13462298Y2652569D01*
X13475146Y2575476D01*
X13513693Y2538666D01*
X13585924Y2530332D01*
X14356854Y2530332D01*
X14404777Y2532415D01*
X14441587Y2545611D01*
X14469715Y2582422D01*
X14479091Y2653958D01*
X14479091Y2951218D01*
X14469214Y3031938D01*
X14439580Y3111114D01*
X14390191Y3188747D01*
X14339491Y3240490D01*
X14273510Y3281814D01*
X14195723Y3308901D01*
X14109601Y3317930D01*
X14023653Y3308901D01*
X13946386Y3281814D01*
X13880926Y3240490D01*
X13830399Y3188747D01*
X13781010Y3110960D01*
X13751377Y3031320D01*
X13741499Y2949829D01*
X13741499Y2776196D01*
X13584535Y2776196D01*
X13536612Y2774112D01*
X13499802Y2760916D01*
X13471674Y2724106D01*
X13462298Y2652569D01*
X13212729Y2652569D01*
X13212729Y3854803D01*
X13444240Y3854803D01*
X13455352Y3753401D01*
X13488690Y3661723D01*
X13540085Y3583067D01*
X13605371Y3520733D01*
X13681422Y3471508D01*
X13762335Y3436348D01*
X13848110Y3415251D01*
X13938746Y3408219D01*
X14356854Y3408219D01*
X14406166Y3410303D01*
X14442976Y3423499D01*
X14472146Y3461004D01*
X14480480Y3531846D01*
X14472146Y3602688D01*
X14442976Y3638804D01*
X14355465Y3655472D01*
X13938746Y3655472D01*
X13856097Y3665890D01*
X13777615Y3697144D01*
X13715107Y3759652D01*
X13691493Y3858275D01*
X13710245Y3946828D01*
X13766502Y4009683D01*
X13847415Y4047188D01*
X13940135Y4059689D01*
X14365188Y4059689D01*
X14441587Y4073580D01*
X14472146Y4113863D01*
X14480480Y4179843D01*
X14473535Y4243046D01*
X14456866Y4279161D01*
X14427696Y4297219D01*
X14355465Y4305554D01*
X13935968Y4305554D01*
X13846373Y4298435D01*
X13760946Y4277078D01*
X13679686Y4241483D01*
X13602593Y4191650D01*
X13538522Y4128101D01*
X13487995Y4048577D01*
X13455179Y3956378D01*
X13444240Y3854803D01*
X13212729Y3854803D01*
X13212729Y4765333D01*
X13447018Y4765333D01*
X13451012Y4701784D01*
X13462992Y4641707D01*
X13502580Y4547250D01*
X13546336Y4484743D01*
X13588702Y4444460D01*
X13603982Y4431958D01*
X13683853Y4395843D01*
X13725004Y4410775D01*
X13777615Y4455572D01*
X13810952Y4529193D01*
X13793589Y4575726D01*
X13741499Y4637539D01*
X13696355Y4693102D01*
X13674824Y4759777D01*
X13686554Y4831545D01*
X13721744Y4874606D01*
X13780393Y4888960D01*
X13833872Y4853539D01*
X13865126Y4765333D01*
X13877801Y4710465D01*
X13896380Y4651430D01*
X13919820Y4592395D01*
X13947080Y4537527D01*
X13984759Y4489083D01*
X14039453Y4449322D01*
X14109080Y4422756D01*
X14191555Y4413900D01*
X14269574Y4424010D01*
X14340648Y4454338D01*
X14404777Y4504884D01*
X14455323Y4572871D01*
X14485651Y4655520D01*
X14495760Y4752832D01*
X14490378Y4832529D01*
X14474230Y4904934D01*
X14430474Y5000085D01*
X14404082Y5034811D01*
X14336018Y5077872D01*
X14259620Y5044535D01*
X14207530Y4996612D01*
X14190166Y4947300D01*
X14217948Y4875069D01*
X14231838Y4859095D01*
X14249896Y4837564D01*
X14267954Y4763250D01*
X14246423Y4688240D01*
X14186694Y4658375D01*
X14124880Y4693797D01*
X14092932Y4782002D01*
X14082340Y4837217D01*
X14067234Y4897294D01*
X14047961Y4957371D01*
X14024868Y5012586D01*
X13990662Y5061030D01*
X13938052Y5100792D01*
X13869119Y5127358D01*
X13785949Y5136213D01*
X13701043Y5127184D01*
X13626902Y5100097D01*
X13565956Y5058425D01*
X13520638Y5005641D01*
X13479738Y4928934D01*
X13455198Y4848831D01*
X13447018Y4765333D01*
X13212729Y4765333D01*
X13212729Y5348739D01*
X13462298Y5348739D01*
X13475146Y5271647D01*
X13513693Y5234836D01*
X13585924Y5226502D01*
X14356854Y5226502D01*
X14404777Y5228586D01*
X14441587Y5241782D01*
X14469715Y5278592D01*
X14479091Y5350129D01*
X14466243Y5427569D01*
X14427696Y5465421D01*
X14355465Y5472366D01*
X14072096Y5472366D01*
X14072096Y5840468D01*
X14356854Y5840468D01*
X14404777Y5842551D01*
X14441587Y5855747D01*
X14470757Y5893252D01*
X14479091Y5959927D01*
X14472146Y6023824D01*
X14455477Y6059939D01*
X14427696Y6079386D01*
X14355465Y6086332D01*
X13584535Y6086332D01*
X13536612Y6084248D01*
X13499802Y6071052D01*
X13471674Y6034242D01*
X13462298Y5962705D01*
X13475146Y5885612D01*
X13513693Y5848802D01*
X13585924Y5840468D01*
X13867904Y5840468D01*
X13867904Y5472366D01*
X13584535Y5472366D01*
X13536612Y5470282D01*
X13499802Y5457086D01*
X13471674Y5420276D01*
X13462298Y5348739D01*
X13212729Y5348739D01*
X13212729Y5962705D01*
X13212729Y6086332D01*
X13212729Y6317842D01*
X13212729Y6822689D01*
X13970000Y6317842D01*
X14727271Y6822689D01*
X14727271Y6317842D01*
G37*
%TO.C,kibuzzard-65F054C3*%
G36*
X2903141Y7992467D02*
G01*
X2768402Y7992467D01*
X2673251Y8011046D01*
X2587823Y8066782D01*
X2527399Y8150647D01*
X2507258Y8253611D01*
X2526878Y8356922D01*
X2585740Y8441829D01*
X2670994Y8498607D01*
X2769791Y8517533D01*
X2903141Y8517533D01*
X2903141Y7992467D01*
G37*
G36*
X5027675Y8877529D02*
G01*
X5088398Y8868522D01*
X5147946Y8853606D01*
X5205746Y8832925D01*
X5261239Y8806678D01*
X5313893Y8775118D01*
X5363201Y8738550D01*
X5408686Y8697324D01*
X5449911Y8651839D01*
X5486480Y8602532D01*
X5518039Y8549878D01*
X5544286Y8494384D01*
X5564967Y8436585D01*
X5579883Y8377037D01*
X5588890Y8316314D01*
X5591903Y8255000D01*
X5588890Y8193686D01*
X5579883Y8132963D01*
X5564967Y8073415D01*
X5544286Y8015616D01*
X5518039Y7960122D01*
X5486480Y7907468D01*
X5449911Y7858161D01*
X5408686Y7812676D01*
X5363201Y7771450D01*
X5313893Y7734882D01*
X5261239Y7703322D01*
X5205746Y7677075D01*
X5147946Y7656394D01*
X5088398Y7641478D01*
X5027675Y7632471D01*
X4966361Y7629459D01*
X4850606Y7629459D01*
X4228306Y7629459D01*
X3362920Y7629459D01*
X2772569Y7629459D01*
X2261394Y7629459D01*
X2145639Y7629459D01*
X2084325Y7632471D01*
X2023602Y7641478D01*
X1964054Y7656394D01*
X1906254Y7677075D01*
X1850760Y7703322D01*
X1798107Y7734882D01*
X1748799Y7771450D01*
X1703314Y7812676D01*
X1662089Y7858161D01*
X1625520Y7907468D01*
X1593961Y7960122D01*
X1567714Y8015616D01*
X1547033Y8073415D01*
X1532117Y8132963D01*
X1523110Y8193686D01*
X1520097Y8255000D01*
X1520404Y8261251D01*
X2261394Y8261251D01*
X2270726Y8159111D01*
X2298725Y8064525D01*
X2345389Y7977491D01*
X2410718Y7898011D01*
X2489330Y7831770D01*
X2575843Y7784455D01*
X2670256Y7756066D01*
X2772569Y7746603D01*
X3026767Y7746603D01*
X3095526Y7755285D01*
X3132336Y7781330D01*
X3149005Y7870230D01*
X3149005Y8639770D01*
X3239294Y8639770D01*
X3252143Y8562677D01*
X3290689Y8525867D01*
X3362920Y8517533D01*
X3789362Y8517533D01*
X3789362Y8377238D01*
X3514328Y8377238D01*
X3466405Y8375154D01*
X3429595Y8361958D01*
X3401467Y8325148D01*
X3392091Y8253611D01*
X3405287Y8176518D01*
X3444875Y8139708D01*
X3517106Y8131373D01*
X3789362Y8131373D01*
X3789362Y7991078D01*
X3361531Y7991078D01*
X3313609Y7988995D01*
X3276798Y7975798D01*
X3248670Y7938988D01*
X3239294Y7867452D01*
X3252143Y7790359D01*
X3290689Y7753548D01*
X3362920Y7745214D01*
X3912989Y7745214D01*
X3990082Y7758410D01*
X4026892Y7797998D01*
X4032857Y7848699D01*
X4125516Y7848699D01*
X4132461Y7789664D01*
X4156075Y7759105D01*
X4228306Y7745214D01*
X4728369Y7745214D01*
X4805462Y7758410D01*
X4842272Y7797998D01*
X4850606Y7868841D01*
X4850606Y8641159D01*
X4848523Y8689082D01*
X4835327Y8725892D01*
X4798516Y8754021D01*
X4726980Y8763397D01*
X4649539Y8750548D01*
X4611687Y8712002D01*
X4604742Y8639770D01*
X4604742Y7950795D01*
X4226917Y7950795D01*
X4160242Y7940377D01*
X4132461Y7907734D01*
X4125516Y7848699D01*
X4032857Y7848699D01*
X4035227Y7868841D01*
X4035227Y8641159D01*
X4008834Y8737699D01*
X3908822Y8763397D01*
X3361531Y8763397D01*
X3313609Y8761313D01*
X3276798Y8748117D01*
X3248670Y8711307D01*
X3239294Y8639770D01*
X3149005Y8639770D01*
X3149005Y8642548D01*
X3146921Y8691166D01*
X3133725Y8727281D01*
X3096915Y8755410D01*
X3025378Y8764786D01*
X2768402Y8763397D01*
X2670733Y8754325D01*
X2579142Y8727108D01*
X2493628Y8681746D01*
X2414191Y8618240D01*
X2347342Y8541494D01*
X2299593Y8456414D01*
X2270944Y8363000D01*
X2261394Y8261251D01*
X1520404Y8261251D01*
X1523110Y8316314D01*
X1532117Y8377037D01*
X1547033Y8436585D01*
X1567714Y8494384D01*
X1593961Y8549878D01*
X1625520Y8602532D01*
X1662089Y8651839D01*
X1703314Y8697324D01*
X1748799Y8738550D01*
X1798107Y8775118D01*
X1850760Y8806678D01*
X1906254Y8832925D01*
X1964054Y8853606D01*
X2023602Y8868522D01*
X2084325Y8877529D01*
X2145639Y8880541D01*
X2261394Y8880541D01*
X4850606Y8880541D01*
X4966361Y8880541D01*
X5027675Y8877529D01*
G37*
%TO.C,kibuzzard-65F0543A*%
G36*
X10691812Y11897320D02*
G01*
X10723066Y11844734D01*
X10733484Y11750477D01*
X10723811Y11657459D01*
X10694789Y11600656D01*
X10635754Y11571635D01*
X10536039Y11561961D01*
X10438557Y11576348D01*
X10386219Y11619508D01*
X10365383Y11674078D01*
X10360422Y11744523D01*
X10399117Y11893352D01*
X10540008Y11933039D01*
X10691812Y11897320D01*
G37*
G36*
X10691812Y11264305D02*
G01*
X10723066Y11211719D01*
X10733484Y11117461D01*
X10723811Y11024443D01*
X10694789Y10967641D01*
X10635754Y10938619D01*
X10536039Y10928945D01*
X10438557Y10943332D01*
X10386219Y10986492D01*
X10365383Y11041062D01*
X10360422Y11111508D01*
X10370096Y11204525D01*
X10399117Y11261328D01*
X10540008Y11300023D01*
X10691812Y11264305D01*
G37*
G36*
X8476506Y11285141D02*
G01*
X8528844Y11240492D01*
X8547695Y11186914D01*
X8550672Y11117461D01*
X8550672Y11109523D01*
X8511977Y10966648D01*
X8452941Y10938371D01*
X8353227Y10928945D01*
X8255744Y10943332D01*
X8203406Y10986492D01*
X8182570Y11041062D01*
X8179594Y11111508D01*
X8179594Y11119445D01*
X8213328Y11258352D01*
X8277572Y11289605D01*
X8379023Y11300023D01*
X8476506Y11285141D01*
G37*
G36*
X15354102Y12372082D02*
G01*
X15406687Y12331898D01*
X15425539Y12279313D01*
X15428516Y12210852D01*
X15428516Y11107539D01*
X15416609Y11006336D01*
X15364023Y10949781D01*
X15253891Y10930930D01*
X14539516Y10930930D01*
X14436328Y10950773D01*
X14402594Y10994430D01*
X14392672Y11078766D01*
X14402594Y11163102D01*
X14442281Y11209734D01*
X14537531Y11224617D01*
X15077281Y11224617D01*
X15077281Y12208867D01*
X15087203Y12312055D01*
X15141277Y12367121D01*
X15251906Y12385477D01*
X15354102Y12372082D01*
G37*
G36*
X17032883Y11921133D02*
G01*
X17105313Y11799094D01*
X17033875Y11677055D01*
X16813609Y11454805D01*
X17033875Y11232555D01*
X17105313Y11110516D01*
X17032883Y10989469D01*
X16911836Y10919023D01*
X16791781Y10990461D01*
X16571516Y11210727D01*
X16353234Y10990461D01*
X16232188Y10919023D01*
X16111141Y10989469D01*
X16039703Y11110516D01*
X16111141Y11232555D01*
X16331406Y11454805D01*
X16111141Y11677055D01*
X16039703Y11799094D01*
X16111141Y11921133D01*
X16232188Y11992570D01*
X16353234Y11921133D01*
X16571516Y11698883D01*
X16791781Y11921133D01*
X16911836Y11992570D01*
X17032883Y11921133D01*
G37*
G36*
X6257727Y12357695D02*
G01*
X6324203Y12284273D01*
X6859984Y11175008D01*
X6893719Y11073805D01*
X6864945Y11006336D01*
X6778625Y10946805D01*
X6672461Y10913070D01*
X6608961Y10931922D01*
X6573242Y10968633D01*
X6542484Y11026180D01*
X6439297Y11240492D01*
X6296422Y11240492D01*
X5889625Y11240492D01*
X5786437Y11026180D01*
X5755680Y10966648D01*
X5719961Y10928945D01*
X5656461Y10911086D01*
X5550297Y10944820D01*
X5463977Y11005840D01*
X5435203Y11073805D01*
X5468937Y11175008D01*
X5642730Y11534180D01*
X6032500Y11534180D01*
X6296422Y11534180D01*
X6165453Y11806039D01*
X6032500Y11534180D01*
X5642730Y11534180D01*
X6004719Y12282289D01*
X6070203Y12359680D01*
X6163469Y12385477D01*
X6257727Y12357695D01*
G37*
G36*
X13883349Y11983310D02*
G01*
X14010349Y11931716D01*
X14126766Y11845727D01*
X14219370Y11733279D01*
X14274932Y11602310D01*
X14293453Y11452820D01*
X14272369Y11302256D01*
X14209117Y11168062D01*
X14115107Y11057434D01*
X14001750Y10977562D01*
X13876734Y10929193D01*
X13749734Y10913318D01*
X13747750Y10913070D01*
X13619014Y10928201D01*
X13494742Y10973594D01*
X13381881Y11050984D01*
X13287375Y11162109D01*
X13223379Y11299279D01*
X13202047Y11454805D01*
X13202533Y11458773D01*
X13553281Y11458773D01*
X13569652Y11373445D01*
X13618766Y11311930D01*
X13749734Y11262320D01*
X13878719Y11310937D01*
X13926344Y11371461D01*
X13942219Y11455797D01*
X13926840Y11540381D01*
X13880703Y11601648D01*
X13747750Y11651258D01*
X13614797Y11603633D01*
X13568660Y11543605D01*
X13553281Y11458773D01*
X13202533Y11458773D01*
X13220347Y11604184D01*
X13275248Y11734822D01*
X13366750Y11846719D01*
X13482064Y11932157D01*
X13608403Y11983420D01*
X13745766Y12000508D01*
X13883349Y11983310D01*
G37*
G36*
X17514590Y11948914D02*
G01*
X17559734Y11865570D01*
X17595453Y11906250D01*
X17672844Y11950898D01*
X17795875Y11974711D01*
X17910418Y11957403D01*
X18018566Y11905478D01*
X18120320Y11818938D01*
X18202451Y11709356D01*
X18251730Y11588309D01*
X18268156Y11455797D01*
X18251840Y11323174D01*
X18202892Y11201797D01*
X18121313Y11091664D01*
X18020661Y11004572D01*
X17914497Y10952317D01*
X17802820Y10934898D01*
X17744281Y10945362D01*
X17655729Y10961191D01*
X17557750Y11040070D01*
X17515086Y10961687D01*
X17370227Y10934898D01*
X17282170Y10947797D01*
X17234297Y10986492D01*
X17217430Y11039078D01*
X17214453Y11107539D01*
X17214453Y11453812D01*
X17573625Y11453812D01*
X17622242Y11335742D01*
X17744281Y11282164D01*
X17869297Y11334750D01*
X17920891Y11452820D01*
X17872273Y11573867D01*
X17745273Y11629430D01*
X17620258Y11573867D01*
X17573625Y11453812D01*
X17214453Y11453812D01*
X17214453Y11802070D01*
X17217430Y11870531D01*
X17235289Y11923117D01*
X17287875Y11964789D01*
X17402969Y11976695D01*
X17514590Y11948914D01*
G37*
G36*
X12349262Y11948914D02*
G01*
X12394406Y11865570D01*
X12430125Y11906250D01*
X12507516Y11950898D01*
X12630547Y11974711D01*
X12745089Y11957403D01*
X12853238Y11905478D01*
X12954992Y11818938D01*
X13037123Y11709356D01*
X13086402Y11588309D01*
X13102828Y11455797D01*
X13086512Y11323174D01*
X13037564Y11201797D01*
X12955984Y11091664D01*
X12855332Y11004572D01*
X12749168Y10952317D01*
X12637492Y10934898D01*
X12578953Y10945362D01*
X12490400Y10961191D01*
X12392422Y11040070D01*
X12349758Y10961687D01*
X12204898Y10934898D01*
X12116842Y10947797D01*
X12068969Y10986492D01*
X12052102Y11039078D01*
X12049125Y11107539D01*
X12049125Y11453812D01*
X12408297Y11453812D01*
X12456914Y11335742D01*
X12578953Y11282164D01*
X12703969Y11334750D01*
X12755562Y11452820D01*
X12706945Y11573867D01*
X12579945Y11629430D01*
X12454930Y11573867D01*
X12408297Y11453812D01*
X12049125Y11453812D01*
X12049125Y11802070D01*
X12052102Y11870531D01*
X12069961Y11923117D01*
X12122547Y11964789D01*
X12237641Y11976695D01*
X12349262Y11948914D01*
G37*
G36*
X11136312Y12452945D02*
G01*
X11188898Y12412266D01*
X11206758Y12360672D01*
X11209734Y12292211D01*
X11209734Y11875492D01*
X11307465Y11949906D01*
X11437937Y11974711D01*
X11552480Y11957293D01*
X11660628Y11905037D01*
X11762383Y11817945D01*
X11844514Y11707812D01*
X11893793Y11586435D01*
X11910219Y11453812D01*
X11893903Y11321300D01*
X11844955Y11200253D01*
X11763375Y11090672D01*
X11661951Y11004131D01*
X11553472Y10952207D01*
X11437937Y10934898D01*
X11386344Y10944174D01*
X11305480Y10958711D01*
X11205766Y11030148D01*
X11159381Y10957223D01*
X11051977Y10932914D01*
X10941100Y10946309D01*
X10884297Y10986492D01*
X10865445Y11037094D01*
X10862469Y11105555D01*
X10862469Y11451828D01*
X11215687Y11451828D01*
X11264305Y11333758D01*
X11386344Y11280180D01*
X11511359Y11333758D01*
X11562953Y11452820D01*
X11515328Y11572875D01*
X11388328Y11627445D01*
X11262320Y11571883D01*
X11215687Y11451828D01*
X10862469Y11451828D01*
X10862469Y12290227D01*
X10865445Y12358688D01*
X10883305Y12411273D01*
X10935891Y12452945D01*
X11036102Y12464852D01*
X11136312Y12452945D01*
G37*
G36*
X19889391Y12370594D02*
G01*
X19942969Y12331898D01*
X19961820Y12279313D01*
X19964797Y12210852D01*
X19964797Y11109523D01*
X19961820Y11038086D01*
X19942969Y10986492D01*
X19890383Y10946309D01*
X19792156Y10932914D01*
X19690953Y10946309D01*
X19637375Y10986492D01*
X19618523Y11037094D01*
X19615547Y11105555D01*
X19615547Y11774289D01*
X19578836Y11724928D01*
X19488547Y11600656D01*
X19390816Y11466959D01*
X19331781Y11389320D01*
X19315906Y11367492D01*
X19263320Y11326812D01*
X19181961Y11305977D01*
X19098617Y11328797D01*
X19050000Y11364516D01*
X19014281Y11411148D01*
X18971121Y11469936D01*
X18893234Y11578828D01*
X18809395Y11694666D01*
X18748375Y11774289D01*
X18748375Y11109523D01*
X18738453Y11006336D01*
X18710672Y10966648D01*
X18659078Y10942836D01*
X18567797Y10932914D01*
X18472547Y10944820D01*
X18415992Y10996910D01*
X18397141Y11105555D01*
X18397141Y12206883D01*
X18400117Y12276336D01*
X18418969Y12329914D01*
X18471307Y12370098D01*
X18572758Y12383492D01*
X18675697Y12370098D01*
X18732500Y12329914D01*
X18786713Y12260620D01*
X18858865Y12167037D01*
X18948956Y12049165D01*
X19056985Y11907004D01*
X19182953Y11740555D01*
X19633406Y12331898D01*
X19645313Y12343805D01*
X19695914Y12370594D01*
X19788188Y12383492D01*
X19889391Y12370594D01*
G37*
G36*
X9373636Y12389115D02*
G01*
X9502621Y12334544D01*
X9611320Y12243594D01*
X9693451Y12129713D01*
X9742730Y12006351D01*
X9759156Y11873508D01*
X9749234Y11772305D01*
X9695160Y11715750D01*
X9584531Y11696898D01*
X9483328Y11708805D01*
X9429750Y11744523D01*
X9410898Y11794133D01*
X9407922Y11859617D01*
X9407922Y11871523D01*
X9399984Y11917164D01*
X9347398Y12009438D01*
X9237266Y12056070D01*
X9138047Y12038211D01*
X9085461Y11999516D01*
X9054703Y11945937D01*
X9040812Y11895336D01*
X9059416Y11808520D01*
X9115227Y11726664D01*
X9197330Y11651506D01*
X9294812Y11584781D01*
X9399984Y11521777D01*
X9505156Y11457781D01*
X9602639Y11386840D01*
X9684742Y11303000D01*
X9740553Y11208494D01*
X9759156Y11105555D01*
X9707562Y10980539D01*
X9584531Y10926961D01*
X8808641Y10926961D01*
X8685609Y10950773D01*
X8642945Y11002367D01*
X8630047Y11102578D01*
X8641953Y11203781D01*
X8688586Y11261328D01*
X8804672Y11280180D01*
X9167812Y11280180D01*
X9167812Y11290102D01*
X9118203Y11309945D01*
X8995172Y11376918D01*
X8856266Y11486555D01*
X8791773Y11557992D01*
X8737203Y11649273D01*
X8699996Y11753453D01*
X8687594Y11863586D01*
X8704130Y11999957D01*
X8753740Y12125964D01*
X8836422Y12241609D01*
X8945673Y12333662D01*
X9074988Y12388894D01*
X9224367Y12407305D01*
X9373636Y12389115D01*
G37*
G36*
X7655471Y12393662D02*
G01*
X7767836Y12352734D01*
X7860357Y12291715D01*
X7929562Y12217797D01*
X7984381Y12122299D01*
X8033742Y11996539D01*
X8059649Y11896218D01*
X8075194Y11783109D01*
X8080375Y11657211D01*
X8073981Y11518084D01*
X8054799Y11389100D01*
X8022828Y11270258D01*
X7979916Y11170543D01*
X7926586Y11085711D01*
X7856637Y11014521D01*
X7763867Y10955734D01*
X7651998Y10916295D01*
X7528719Y10903558D01*
X7524750Y10903148D01*
X7397998Y10916047D01*
X7287617Y10954742D01*
X7196584Y11013281D01*
X7127875Y11085711D01*
X7060158Y11200185D01*
X7011789Y11333262D01*
X6982768Y11484942D01*
X6973094Y11655227D01*
X6973194Y11657211D01*
X7324328Y11657211D01*
X7324328Y11645305D01*
X7337103Y11475145D01*
X7375426Y11353602D01*
X7439298Y11280676D01*
X7528719Y11256367D01*
X7616403Y11281358D01*
X7679035Y11356330D01*
X7716614Y11481284D01*
X7729141Y11656219D01*
X7716490Y11831154D01*
X7678539Y11956107D01*
X7615287Y12031080D01*
X7526734Y12056070D01*
X7438182Y12031142D01*
X7374930Y11956355D01*
X7336979Y11831712D01*
X7324328Y11657211D01*
X6973194Y11657211D01*
X6979708Y11786416D01*
X6999552Y11912754D01*
X7032625Y12034242D01*
X7074049Y12134453D01*
X7126883Y12220773D01*
X7196336Y12293699D01*
X7287617Y12353727D01*
X7398494Y12393910D01*
X7526734Y12407305D01*
X7655471Y12393662D01*
G37*
%TO.C,kibuzzard-65F05416*%
G36*
X11285141Y13929320D02*
G01*
X11316395Y13876734D01*
X11326813Y13782477D01*
X11317139Y13689459D01*
X11288117Y13632656D01*
X11229082Y13603635D01*
X11129367Y13593961D01*
X11031885Y13608348D01*
X10979547Y13651508D01*
X10958711Y13706078D01*
X10953750Y13776523D01*
X10992445Y13925352D01*
X11133336Y13965039D01*
X11285141Y13929320D01*
G37*
G36*
X11285141Y13296305D02*
G01*
X11316395Y13243719D01*
X11326813Y13149461D01*
X11317139Y13056443D01*
X11288117Y12999641D01*
X11229082Y12970619D01*
X11129367Y12960945D01*
X11031885Y12975332D01*
X10979547Y13018492D01*
X10958711Y13073062D01*
X10953750Y13143508D01*
X10963424Y13236525D01*
X10992445Y13293328D01*
X11133336Y13332023D01*
X11285141Y13296305D01*
G37*
G36*
X12933164Y14483457D02*
G01*
X12985750Y14443273D01*
X13002617Y14392672D01*
X13005594Y14324211D01*
X13002617Y14255750D01*
X12984758Y14203164D01*
X12932172Y14161492D01*
X12831961Y14149586D01*
X12731750Y14161492D01*
X12679164Y14202172D01*
X12661305Y14253766D01*
X12658328Y14322227D01*
X12661305Y14390688D01*
X12680156Y14443273D01*
X12730758Y14483457D01*
X12830969Y14496852D01*
X12933164Y14483457D01*
G37*
G36*
X9226600Y13317141D02*
G01*
X9278937Y13272492D01*
X9297789Y13218914D01*
X9300766Y13149461D01*
X9300766Y13141523D01*
X9262070Y12998648D01*
X9203035Y12970371D01*
X9103320Y12960945D01*
X9005838Y12975332D01*
X8953500Y13018492D01*
X8932664Y13073062D01*
X8929688Y13143508D01*
X8929688Y13151445D01*
X8963422Y13290352D01*
X9027666Y13321605D01*
X9129117Y13332023D01*
X9226600Y13317141D01*
G37*
G36*
X12933164Y13993812D02*
G01*
X12985750Y13955117D01*
X13002617Y13902531D01*
X13005594Y13834070D01*
X13005594Y13137555D01*
X13002617Y13068102D01*
X12985750Y13016508D01*
X12933660Y12976324D01*
X12832953Y12962930D01*
X12731254Y12975828D01*
X12680156Y13014523D01*
X12661305Y13067109D01*
X12658328Y13135570D01*
X12658328Y13830102D01*
X12660313Y13887648D01*
X12696031Y13972977D01*
X12830969Y14006711D01*
X12933164Y13993812D01*
G37*
G36*
X16163727Y13953133D02*
G01*
X16236156Y13831094D01*
X16164719Y13709055D01*
X15944453Y13486805D01*
X16164719Y13264555D01*
X16236156Y13142516D01*
X16163727Y13021469D01*
X16042680Y12951023D01*
X15922625Y13022461D01*
X15702359Y13242727D01*
X15484078Y13022461D01*
X15363031Y12951023D01*
X15241984Y13021469D01*
X15170547Y13142516D01*
X15241984Y13264555D01*
X15462250Y13486805D01*
X15241984Y13709055D01*
X15170547Y13831094D01*
X15241984Y13953133D01*
X15363031Y14024570D01*
X15484078Y13953133D01*
X15702359Y13730883D01*
X15922625Y13953133D01*
X16042680Y14024570D01*
X16163727Y13953133D01*
G37*
G36*
X14491891Y14395648D02*
G01*
X14579699Y14335125D01*
X14608969Y14268648D01*
X14579203Y14173398D01*
X14031516Y13062148D01*
X13965039Y12991703D01*
X13870781Y12964914D01*
X13850938Y12964914D01*
X13758664Y12991703D01*
X13692188Y13062148D01*
X13144500Y14173398D01*
X13114734Y14268648D01*
X13144004Y14335125D01*
X13231813Y14395648D01*
X13348891Y14429383D01*
X13436203Y14375805D01*
X13463984Y14316273D01*
X13860859Y13447117D01*
X13882439Y13493006D01*
X13931305Y13598922D01*
X13995797Y13739068D01*
X14064258Y13887648D01*
X14132471Y14036229D01*
X14196219Y14176375D01*
X14246076Y14285516D01*
X14272617Y14341078D01*
X14305359Y14393664D01*
X14339094Y14421445D01*
X14391680Y14429383D01*
X14491891Y14395648D01*
G37*
G36*
X7681516Y14395648D02*
G01*
X7769324Y14335125D01*
X7798594Y14268648D01*
X7768828Y14173398D01*
X7221141Y13062148D01*
X7154664Y12991703D01*
X7060406Y12964914D01*
X7040562Y12964914D01*
X6948289Y12991703D01*
X6881812Y13062148D01*
X6334125Y14173398D01*
X6304359Y14268648D01*
X6333629Y14335125D01*
X6421437Y14395648D01*
X6538516Y14429383D01*
X6625828Y14375805D01*
X6653609Y14316273D01*
X7050484Y13447117D01*
X7072064Y13493006D01*
X7120930Y13598922D01*
X7185422Y13739068D01*
X7253883Y13887648D01*
X7322096Y14036229D01*
X7385844Y14176375D01*
X7435701Y14285516D01*
X7462242Y14341078D01*
X7494984Y14393664D01*
X7528719Y14421445D01*
X7581305Y14429383D01*
X7681516Y14395648D01*
G37*
G36*
X12425660Y13996293D02*
G01*
X12477750Y13959086D01*
X12496602Y13908484D01*
X12499578Y13842008D01*
X12499578Y13139539D01*
X12496602Y13071078D01*
X12479734Y13018492D01*
X12427645Y12978309D01*
X12326937Y12964914D01*
X12225238Y12978309D01*
X12174141Y13018492D01*
X12155289Y13069094D01*
X12152313Y13137555D01*
X12152313Y13488789D01*
X12103695Y13613805D01*
X11976695Y13661430D01*
X11851680Y13615789D01*
X11805047Y13488789D01*
X11805047Y13139539D01*
X11793141Y13038336D01*
X11741547Y12983270D01*
X11630422Y12964914D01*
X11528227Y12978309D01*
X11475641Y13018492D01*
X11458773Y13069094D01*
X11455797Y13137555D01*
X11455797Y13486805D01*
X11470459Y13624939D01*
X11514446Y13748301D01*
X11587758Y13856891D01*
X11683118Y13941227D01*
X11793251Y13991828D01*
X11918156Y14008695D01*
X12066984Y13963055D01*
X12120563Y13921383D01*
X12156281Y13881695D01*
X12176125Y13963055D01*
X12227223Y13997285D01*
X12324953Y14008695D01*
X12425660Y13996293D01*
G37*
G36*
X16645434Y13980914D02*
G01*
X16690578Y13897570D01*
X16726297Y13938250D01*
X16803688Y13982898D01*
X16926719Y14006711D01*
X17041261Y13989403D01*
X17149410Y13937478D01*
X17251164Y13850938D01*
X17333295Y13741356D01*
X17382574Y13620309D01*
X17399000Y13487797D01*
X17382684Y13355174D01*
X17333736Y13233797D01*
X17252156Y13123664D01*
X17151504Y13036572D01*
X17045340Y12984317D01*
X16933664Y12966898D01*
X16875125Y12977362D01*
X16786572Y12993191D01*
X16688594Y13072070D01*
X16645930Y12993687D01*
X16501070Y12966898D01*
X16413014Y12979797D01*
X16365141Y13018492D01*
X16348273Y13071078D01*
X16345297Y13139539D01*
X16345297Y13485812D01*
X16704469Y13485812D01*
X16753086Y13367742D01*
X16875125Y13314164D01*
X17000141Y13366750D01*
X17051734Y13484820D01*
X17003117Y13605867D01*
X16876117Y13661430D01*
X16751102Y13605867D01*
X16704469Y13485812D01*
X16345297Y13485812D01*
X16345297Y13834070D01*
X16348273Y13902531D01*
X16366133Y13955117D01*
X16418719Y13996789D01*
X16533813Y14008695D01*
X16645434Y13980914D01*
G37*
G36*
X19020234Y14402594D02*
G01*
X19073813Y14363898D01*
X19092664Y14311313D01*
X19095641Y14242852D01*
X19095641Y13141523D01*
X19092664Y13070086D01*
X19073813Y13018492D01*
X19021227Y12978309D01*
X18923000Y12964914D01*
X18821797Y12978309D01*
X18768219Y13018492D01*
X18749367Y13069094D01*
X18746391Y13137555D01*
X18746391Y13806289D01*
X18709680Y13756928D01*
X18619391Y13632656D01*
X18521660Y13498959D01*
X18462625Y13421320D01*
X18446750Y13399492D01*
X18394164Y13358812D01*
X18312805Y13337977D01*
X18229461Y13360797D01*
X18180844Y13396516D01*
X18145125Y13443148D01*
X18101965Y13501936D01*
X18024078Y13610828D01*
X17940238Y13726666D01*
X17879219Y13806289D01*
X17879219Y13141523D01*
X17869297Y13038336D01*
X17841516Y12998648D01*
X17789922Y12974836D01*
X17698641Y12964914D01*
X17603391Y12976820D01*
X17546836Y13028910D01*
X17527984Y13137555D01*
X17527984Y14238883D01*
X17530961Y14308336D01*
X17549813Y14361914D01*
X17602150Y14402098D01*
X17703602Y14415492D01*
X17806541Y14402098D01*
X17863344Y14361914D01*
X17917557Y14292620D01*
X17989709Y14199037D01*
X18079799Y14081165D01*
X18187829Y13939004D01*
X18313797Y13772555D01*
X18764250Y14363898D01*
X18776156Y14375805D01*
X18826758Y14402594D01*
X18919031Y14415492D01*
X19020234Y14402594D01*
G37*
G36*
X10172898Y14402594D02*
G01*
X10224492Y14359930D01*
X10253266Y14306352D01*
X10267156Y14264680D01*
X10278566Y14182328D01*
X10308828Y13959086D01*
X10338594Y13732371D01*
X10348516Y13639602D01*
X10326687Y13590984D01*
X10234414Y13530461D01*
X10109398Y13492758D01*
X10001250Y13538398D01*
X9906000Y13574117D01*
X9799836Y13535422D01*
X9753203Y13430250D01*
X9795867Y13326070D01*
X9926836Y13288367D01*
X10050859Y13330039D01*
X10183812Y13393539D01*
X10298906Y13328055D01*
X10372328Y13199070D01*
X10296922Y13080008D01*
X10281047Y13066117D01*
X10231438Y13028414D01*
X10128250Y12976600D01*
X10017125Y12945511D01*
X9898062Y12935148D01*
X9764227Y12951575D01*
X9645826Y13000853D01*
X9542859Y13082984D01*
X9463484Y13187936D01*
X9415859Y13305675D01*
X9399984Y13436203D01*
X9416741Y13566069D01*
X9467012Y13681825D01*
X9550797Y13783469D01*
X9655528Y13862293D01*
X9768637Y13909587D01*
X9890125Y13925352D01*
X9959578Y13921383D01*
X9939734Y14072195D01*
X9592469Y14072195D01*
X9527977Y14075172D01*
X9479359Y14094023D01*
X9442152Y14143137D01*
X9429750Y14238883D01*
X9443145Y14344055D01*
X9483328Y14397633D01*
X9534922Y14416484D01*
X9604375Y14419461D01*
X9790906Y14419461D01*
X10092531Y14421445D01*
X10172898Y14402594D01*
G37*
G36*
X8650883Y14402594D02*
G01*
X8702477Y14359930D01*
X8731250Y14306352D01*
X8745141Y14264680D01*
X8756551Y14182328D01*
X8786812Y13959086D01*
X8816578Y13732371D01*
X8826500Y13639602D01*
X8804672Y13590984D01*
X8712398Y13530461D01*
X8587383Y13492758D01*
X8479234Y13538398D01*
X8383984Y13574117D01*
X8277820Y13535422D01*
X8231187Y13430250D01*
X8273852Y13326070D01*
X8404820Y13288367D01*
X8528844Y13330039D01*
X8661797Y13393539D01*
X8776891Y13328055D01*
X8850312Y13199070D01*
X8774906Y13080008D01*
X8759031Y13066117D01*
X8709422Y13028414D01*
X8606234Y12976600D01*
X8495109Y12945511D01*
X8376047Y12935148D01*
X8242212Y12951575D01*
X8123811Y13000853D01*
X8020844Y13082984D01*
X7941469Y13187936D01*
X7893844Y13305675D01*
X7877969Y13436203D01*
X7894726Y13566069D01*
X7944997Y13681825D01*
X8028781Y13783469D01*
X8133512Y13862293D01*
X8246622Y13909587D01*
X8368109Y13925352D01*
X8437562Y13921383D01*
X8417719Y14072195D01*
X8070453Y14072195D01*
X8005961Y14075172D01*
X7957344Y14094023D01*
X7920137Y14143137D01*
X7907734Y14238883D01*
X7921129Y14344055D01*
X7961312Y14397633D01*
X8012906Y14416484D01*
X8082359Y14419461D01*
X8268891Y14419461D01*
X8570516Y14421445D01*
X8650883Y14402594D01*
G37*
%TO.C,kibuzzard-65F05495*%
G36*
X23623984Y11906250D02*
G01*
X23670617Y11866562D01*
X23685500Y11773297D01*
X23685500Y11392297D01*
X24681656Y11392297D01*
X24750117Y11389320D01*
X24801711Y11371461D01*
X24842391Y11319867D01*
X24854297Y11221641D01*
X24842391Y11122422D01*
X24801711Y11069836D01*
X24751109Y11051977D01*
X24683641Y11049000D01*
X23685500Y11049000D01*
X23685500Y10669984D01*
X23667641Y10568781D01*
X23624977Y10535047D01*
X23542625Y10525125D01*
X23459281Y10535047D01*
X23412648Y10574734D01*
X23397766Y10668000D01*
X23397766Y11771312D01*
X23415625Y11872516D01*
X23458289Y11906250D01*
X23540641Y11916172D01*
X23623984Y11906250D01*
G37*
G36*
X24301152Y13297173D02*
G01*
X24423688Y13267035D01*
X24539277Y13216806D01*
X24647922Y13146484D01*
X24741187Y13057436D01*
X24814609Y12945070D01*
X24862234Y12814102D01*
X24878109Y12669242D01*
X24862482Y12524135D01*
X24815602Y12392422D01*
X24743420Y12278816D01*
X24651891Y12188031D01*
X24541758Y12116842D01*
X24425672Y12065992D01*
X24303633Y12035482D01*
X24175641Y12025312D01*
X23576359Y12025312D01*
X23473172Y12037219D01*
X23431500Y12063016D01*
X23407688Y12114609D01*
X23397766Y12204898D01*
X23409672Y12299156D01*
X23453328Y12356703D01*
X23562469Y12376547D01*
X24169688Y12376547D01*
X24302145Y12394406D01*
X24417734Y12447984D01*
X24498102Y12537777D01*
X24524891Y12664281D01*
X24491156Y12805172D01*
X24401859Y12894469D01*
X24289742Y12939117D01*
X24171672Y12954000D01*
X23576359Y12954000D01*
X23451344Y12977812D01*
X23409672Y13029406D01*
X23397766Y13130609D01*
X23409672Y13231812D01*
X23451344Y13285391D01*
X23503930Y13304242D01*
X23574375Y13307219D01*
X24171672Y13307219D01*
X24301152Y13297173D01*
G37*
G36*
X24878109Y14150578D02*
G01*
X24864281Y14005719D01*
X24822795Y13872766D01*
X24753652Y13751719D01*
X24656852Y13642578D01*
X24540394Y13552289D01*
X24412277Y13487797D01*
X24272503Y13449102D01*
X24121070Y13436203D01*
X23970196Y13449722D01*
X23832096Y13490277D01*
X23706770Y13557870D01*
X23594219Y13652500D01*
X23501325Y13765485D01*
X23434973Y13888145D01*
X23395161Y14020478D01*
X23382447Y14156531D01*
X23733125Y14156531D01*
X23760410Y14022338D01*
X23842266Y13901539D01*
X23922964Y13838149D01*
X24019536Y13800115D01*
X24131984Y13787438D01*
X24244212Y13800005D01*
X24340123Y13837708D01*
X24419719Y13900547D01*
X24500086Y14020602D01*
X24526875Y14154547D01*
X24499342Y14288740D01*
X24416742Y14409539D01*
X24335934Y14472929D01*
X24240353Y14510963D01*
X24130000Y14523641D01*
X24019647Y14511073D01*
X23924066Y14473370D01*
X23843258Y14410531D01*
X23760658Y14290477D01*
X23733125Y14156531D01*
X23382447Y14156531D01*
X23381891Y14162484D01*
X23395781Y14297422D01*
X23437453Y14428391D01*
X23503434Y14549934D01*
X23590250Y14656594D01*
X23699143Y14745891D01*
X23831352Y14815344D01*
X23980428Y14859992D01*
X24139922Y14874875D01*
X24285525Y14861667D01*
X24420711Y14822041D01*
X24545479Y14755999D01*
X24659828Y14663539D01*
X24755326Y14552228D01*
X24823539Y14429631D01*
X24864467Y14295748D01*
X24877736Y14154547D01*
X24878109Y14150578D01*
G37*
%TO.C,kibuzzard-65F053F1*%
G36*
X9655969Y17274480D02*
G01*
X9708555Y17234297D01*
X9725422Y17183695D01*
X9728398Y17115234D01*
X9725422Y17046773D01*
X9707562Y16994188D01*
X9654977Y16952516D01*
X9554766Y16940609D01*
X9454555Y16952516D01*
X9401969Y16993195D01*
X9384109Y17044789D01*
X9381133Y17113250D01*
X9384109Y17181711D01*
X9402961Y17234297D01*
X9453562Y17274480D01*
X9553773Y17287875D01*
X9655969Y17274480D01*
G37*
G36*
X9655969Y16784836D02*
G01*
X9708555Y16746141D01*
X9725422Y16693555D01*
X9728398Y16625094D01*
X9728398Y15928578D01*
X9725422Y15859125D01*
X9708555Y15807531D01*
X9656465Y15767348D01*
X9555758Y15753953D01*
X9454059Y15766852D01*
X9402961Y15805547D01*
X9384109Y15858133D01*
X9381133Y15926594D01*
X9381133Y16621125D01*
X9383117Y16678672D01*
X9418836Y16764000D01*
X9553773Y16797734D01*
X9655969Y16784836D01*
G37*
G36*
X13413383Y16775906D02*
G01*
X13493750Y16722328D01*
X13522523Y16688594D01*
X13544352Y16754078D01*
X13596441Y16788309D01*
X13693180Y16799719D01*
X13795375Y16786324D01*
X13847961Y16746141D01*
X13864828Y16695539D01*
X13867805Y16627078D01*
X13867805Y15930562D01*
X13867805Y15873016D01*
X13832086Y15787688D01*
X13695164Y15753953D01*
X13593961Y15766852D01*
X13540383Y15805547D01*
X13521531Y15858133D01*
X13518555Y15926594D01*
X13518555Y16343312D01*
X13471922Y16434594D01*
X13371711Y16472297D01*
X13285391Y16456422D01*
X13216930Y16440547D01*
X13107789Y16515953D01*
X13070086Y16654859D01*
X13094891Y16747133D01*
X13157398Y16787812D01*
X13226852Y16804680D01*
X13305234Y16809641D01*
X13413383Y16775906D01*
G37*
G36*
X7947312Y16797073D02*
G01*
X8064390Y16753417D01*
X8176617Y16680656D01*
X8250535Y16606986D01*
X8309570Y16512977D01*
X8348266Y16402844D01*
X8361164Y16280805D01*
X8348266Y16158270D01*
X8309570Y16046648D01*
X8250535Y15951150D01*
X8176617Y15876984D01*
X8061303Y15803122D01*
X7942902Y15758804D01*
X7821414Y15744031D01*
X7669609Y15763875D01*
X7543602Y15823406D01*
X7461746Y15891371D01*
X7434461Y15964297D01*
X7480102Y16067484D01*
X7558980Y16146363D01*
X7624961Y16172656D01*
X7713266Y16135945D01*
X7830344Y16099234D01*
X7948414Y16145867D01*
X8003977Y16276836D01*
X7946430Y16408797D01*
X7822406Y16456422D01*
X7720211Y16422688D01*
X7613055Y16379031D01*
X7546082Y16406316D01*
X7476133Y16488172D01*
X7434461Y16602273D01*
X7486055Y16692563D01*
X7541617Y16730266D01*
X7573367Y16750109D01*
X7678539Y16790789D01*
X7825383Y16811625D01*
X7947312Y16797073D01*
G37*
G36*
X3804047Y17278449D02*
G01*
X3856633Y17238266D01*
X3873500Y17185680D01*
X3876477Y17117219D01*
X3876477Y15928578D01*
X3873500Y15860117D01*
X3856633Y15807531D01*
X3804543Y15767348D01*
X3703836Y15753953D01*
X3602137Y15766852D01*
X3551039Y15805547D01*
X3532187Y15858133D01*
X3529211Y15926594D01*
X3529211Y16079391D01*
X3468191Y16026061D01*
X3384352Y15945445D01*
X3301504Y15865326D01*
X3243461Y15813484D01*
X3223617Y15799594D01*
X3102570Y15742047D01*
X2983508Y15825391D01*
X2921992Y15954375D01*
X2934891Y15996047D01*
X2997398Y16059547D01*
X3261320Y16277828D01*
X3064867Y16444516D01*
X2991445Y16551672D01*
X3055937Y16677680D01*
X3170039Y16758047D01*
X3289102Y16704469D01*
X3312914Y16688594D01*
X3421062Y16587391D01*
X3529211Y16486187D01*
X3529211Y17115234D01*
X3531195Y17170797D01*
X3566914Y17258109D01*
X3701852Y17291844D01*
X3804047Y17278449D01*
G37*
G36*
X20878381Y17278063D02*
G01*
X20983553Y17236722D01*
X21067117Y17167820D01*
X21148973Y17036604D01*
X21176258Y16891000D01*
X21176258Y16785828D01*
X21241742Y16785828D01*
X21329551Y16745148D01*
X21358820Y16623109D01*
X21321117Y16478250D01*
X21247695Y16454437D01*
X21176258Y16454437D01*
X21176258Y15928578D01*
X21173281Y15859125D01*
X21154430Y15806539D01*
X21101844Y15764867D01*
X21003617Y15751969D01*
X20903406Y15763875D01*
X20845859Y15812492D01*
X20827008Y15924609D01*
X20827008Y16456422D01*
X20700008Y16448484D01*
X20578961Y16472297D01*
X20538281Y16524883D01*
X20525383Y16623109D01*
X20537289Y16722328D01*
X20589379Y16778883D01*
X20698023Y16797734D01*
X20827008Y16785828D01*
X20827008Y16894969D01*
X20753586Y16944578D01*
X20698023Y16944578D01*
X20610711Y16980297D01*
X20576977Y17117219D01*
X20590371Y17218918D01*
X20630555Y17270016D01*
X20683141Y17288867D01*
X20751602Y17291844D01*
X20878381Y17278063D01*
G37*
G36*
X18948797Y17195105D02*
G01*
X19001383Y17154922D01*
X19020234Y17102336D01*
X19023211Y17033875D01*
X19023211Y15932547D01*
X19011305Y15829359D01*
X18958719Y15774293D01*
X18848586Y15755937D01*
X18746391Y15769332D01*
X18693805Y15809516D01*
X18674953Y15862102D01*
X18671977Y15930562D01*
X18671977Y16154797D01*
X18423930Y16154797D01*
X18307513Y16168908D01*
X18193742Y16211241D01*
X18082617Y16281797D01*
X18008699Y16353979D01*
X17949664Y16447492D01*
X17910969Y16557873D01*
X17898070Y16680656D01*
X18247320Y16680656D01*
X18304867Y16549688D01*
X18421945Y16506031D01*
X18671977Y16506031D01*
X18671977Y16857266D01*
X18423930Y16857266D01*
X18304867Y16812617D01*
X18247320Y16680656D01*
X17898070Y16680656D01*
X17910969Y16803688D01*
X17949664Y16914813D01*
X18008699Y17009070D01*
X18082617Y17081500D01*
X18193522Y17152056D01*
X18306631Y17194389D01*
X18421945Y17208500D01*
X18846602Y17208500D01*
X18948797Y17195105D01*
G37*
G36*
X22119497Y16806333D02*
G01*
X22246497Y16754740D01*
X22362914Y16668750D01*
X22455518Y16556302D01*
X22511081Y16425333D01*
X22529602Y16275844D01*
X22508518Y16125279D01*
X22445266Y15991086D01*
X22351256Y15880457D01*
X22237898Y15800586D01*
X22112883Y15752217D01*
X21985883Y15736342D01*
X21983898Y15736094D01*
X21855162Y15751225D01*
X21730891Y15796617D01*
X21618029Y15874008D01*
X21523523Y15985133D01*
X21459527Y16122303D01*
X21438195Y16277828D01*
X21438681Y16281797D01*
X21789430Y16281797D01*
X21805801Y16196469D01*
X21854914Y16134953D01*
X21985883Y16085344D01*
X22114867Y16133961D01*
X22162492Y16194484D01*
X22178367Y16278820D01*
X22162988Y16363404D01*
X22116852Y16424672D01*
X21983898Y16474281D01*
X21850945Y16426656D01*
X21804809Y16366629D01*
X21789430Y16281797D01*
X21438681Y16281797D01*
X21456496Y16427207D01*
X21511397Y16557845D01*
X21602898Y16669742D01*
X21718213Y16755181D01*
X21844551Y16806444D01*
X21981914Y16823531D01*
X22119497Y16806333D01*
G37*
G36*
X17388747Y16806333D02*
G01*
X17515747Y16754740D01*
X17632164Y16668750D01*
X17724768Y16556302D01*
X17780331Y16425333D01*
X17798852Y16275844D01*
X17777768Y16125279D01*
X17714516Y15991086D01*
X17620506Y15880457D01*
X17507148Y15800586D01*
X17382133Y15752217D01*
X17255133Y15736342D01*
X17253148Y15736094D01*
X17124412Y15751225D01*
X17000141Y15796617D01*
X16887279Y15874008D01*
X16792773Y15985133D01*
X16728777Y16122303D01*
X16707445Y16277828D01*
X16707931Y16281797D01*
X17058680Y16281797D01*
X17075051Y16196469D01*
X17124164Y16134953D01*
X17255133Y16085344D01*
X17384117Y16133961D01*
X17431742Y16194484D01*
X17447617Y16278820D01*
X17432238Y16363404D01*
X17386102Y16424672D01*
X17253148Y16474281D01*
X17120195Y16426656D01*
X17074059Y16366629D01*
X17058680Y16281797D01*
X16707931Y16281797D01*
X16725746Y16427207D01*
X16780647Y16557845D01*
X16872148Y16669742D01*
X16987463Y16755181D01*
X17113801Y16806444D01*
X17251164Y16823531D01*
X17388747Y16806333D01*
G37*
G36*
X7233047Y17274480D02*
G01*
X7285633Y17234297D01*
X7302500Y17183695D01*
X7305477Y17115234D01*
X7305477Y15928578D01*
X7302500Y15859125D01*
X7285633Y15807531D01*
X7233543Y15767348D01*
X7132836Y15753953D01*
X7031137Y15766852D01*
X6980039Y15805547D01*
X6961187Y15858133D01*
X6958211Y15926594D01*
X6958211Y16311562D01*
X6896695Y16407805D01*
X6772672Y16450469D01*
X6656586Y16404828D01*
X6610945Y16277828D01*
X6610945Y15930562D01*
X6607969Y15859125D01*
X6589117Y15805547D01*
X6536531Y15766852D01*
X6438305Y15753953D01*
X6336605Y15766852D01*
X6285508Y15805547D01*
X6266656Y15858133D01*
X6263680Y15926594D01*
X6263680Y16275844D01*
X6278342Y16413868D01*
X6322329Y16536899D01*
X6395641Y16644938D01*
X6491001Y16728722D01*
X6601134Y16778993D01*
X6726039Y16795750D01*
X6850559Y16765488D01*
X6958211Y16674703D01*
X6958211Y17113250D01*
X6961187Y17181711D01*
X6980039Y17234297D01*
X7030641Y17274480D01*
X7130852Y17287875D01*
X7233047Y17274480D01*
G37*
G36*
X20210363Y17144504D02*
G01*
X20261461Y17107297D01*
X20280313Y17059672D01*
X20283289Y16992203D01*
X20283289Y16787812D01*
X20348773Y16795750D01*
X20428148Y16769953D01*
X20455930Y16717367D01*
X20465852Y16599297D01*
X20437078Y16484203D01*
X20364648Y16450469D01*
X20283289Y16456422D01*
X20283289Y16162734D01*
X20271383Y16028899D01*
X20235664Y15923727D01*
X20176133Y15847219D01*
X20093671Y15795405D01*
X19989161Y15764316D01*
X19862602Y15753953D01*
X19796125Y15756930D01*
X19743539Y15773797D01*
X19701867Y15825887D01*
X19687977Y15926594D01*
X19733617Y16059547D01*
X19786203Y16078398D01*
X19857641Y16081375D01*
X19921141Y16105188D01*
X19938008Y16182578D01*
X19938008Y16456422D01*
X19809023Y16448484D01*
X19740562Y16451461D01*
X19687977Y16468328D01*
X19647793Y16520418D01*
X19634398Y16621125D01*
X19647297Y16722824D01*
X19685992Y16773922D01*
X19738578Y16792773D01*
X19806047Y16795750D01*
X19938008Y16787812D01*
X19938008Y16982281D01*
X19947930Y17083484D01*
X20001012Y17138551D01*
X20108664Y17156906D01*
X20210363Y17144504D01*
G37*
G36*
X9016504Y17144504D02*
G01*
X9067602Y17107297D01*
X9086453Y17059672D01*
X9089430Y16992203D01*
X9089430Y16787812D01*
X9154914Y16795750D01*
X9234289Y16769953D01*
X9262070Y16717367D01*
X9271992Y16599297D01*
X9243219Y16484203D01*
X9170789Y16450469D01*
X9089430Y16456422D01*
X9089430Y16162734D01*
X9077523Y16028899D01*
X9041805Y15923727D01*
X8982273Y15847219D01*
X8899812Y15795405D01*
X8795301Y15764316D01*
X8668742Y15753953D01*
X8602266Y15756930D01*
X8549680Y15773797D01*
X8508008Y15825887D01*
X8494117Y15926594D01*
X8539758Y16059547D01*
X8592344Y16078398D01*
X8663781Y16081375D01*
X8727281Y16105188D01*
X8744148Y16182578D01*
X8744148Y16456422D01*
X8615164Y16448484D01*
X8546703Y16451461D01*
X8494117Y16468328D01*
X8453934Y16520418D01*
X8440539Y16621125D01*
X8453437Y16722824D01*
X8492133Y16773922D01*
X8544719Y16792773D01*
X8612187Y16795750D01*
X8744148Y16787812D01*
X8744148Y16982281D01*
X8754070Y17083484D01*
X8807152Y17138551D01*
X8914805Y17156906D01*
X9016504Y17144504D01*
G37*
G36*
X14621536Y16804900D02*
G01*
X14756143Y16754960D01*
X14872891Y16671727D01*
X14962739Y16560712D01*
X15016648Y16427428D01*
X15034617Y16271875D01*
X15020727Y16143773D01*
X14979055Y16024049D01*
X14909602Y15912703D01*
X14833451Y15837545D01*
X14732000Y15778758D01*
X14609713Y15740807D01*
X14471055Y15728156D01*
X14286136Y15739194D01*
X14154051Y15772309D01*
X14074800Y15827499D01*
X14048383Y15904766D01*
X14074180Y15996047D01*
X14183320Y16085344D01*
X14262695Y16063516D01*
X14284523Y16055578D01*
X14362410Y16037719D01*
X14465102Y16031766D01*
X14596070Y16069469D01*
X14661555Y16162734D01*
X14415492Y16162734D01*
X14191258Y16162734D01*
X14057312Y16221273D01*
X14011920Y16295687D01*
X13996789Y16401852D01*
X13997502Y16406813D01*
X14340086Y16406813D01*
X14415492Y16343312D01*
X14665523Y16343312D01*
X14602023Y16455430D01*
X14474031Y16508016D01*
X14374812Y16480234D01*
X14340086Y16406813D01*
X13997502Y16406813D01*
X14013656Y16519178D01*
X14064258Y16627078D01*
X14137928Y16712158D01*
X14229953Y16772930D01*
X14340334Y16809393D01*
X14469070Y16821547D01*
X14621536Y16804900D01*
G37*
G36*
X16514961Y16785828D02*
G01*
X16599793Y16731754D01*
X16628070Y16660813D01*
X16608227Y16583422D01*
X16308586Y15853172D01*
X16253023Y15782727D01*
X16149836Y15748000D01*
X16040695Y15795625D01*
X16008945Y15837297D01*
X15992078Y15870039D01*
X15978187Y15905758D01*
X15928578Y16040695D01*
X15894596Y16133713D01*
X15870039Y16196469D01*
X15812051Y16042128D01*
X15773025Y15938941D01*
X15752961Y15886906D01*
X15737086Y15853172D01*
X15680531Y15782727D01*
X15592227Y15748000D01*
X15516820Y15761891D01*
X15457289Y15810508D01*
X15417602Y15884922D01*
X15199320Y16416734D01*
X15145742Y16546711D01*
X15113992Y16654859D01*
X15145742Y16729770D01*
X15240992Y16791781D01*
X15320367Y16811625D01*
X15403711Y16779875D01*
X15463242Y16684625D01*
X15584289Y16355219D01*
X15605235Y16408135D01*
X15644261Y16513969D01*
X15701367Y16672719D01*
X15717242Y16706453D01*
X15775781Y16769953D01*
X15877977Y16801703D01*
X15995055Y16744156D01*
X16038711Y16674703D01*
X16155789Y16353234D01*
X16219069Y16525214D01*
X16266032Y16649568D01*
X16296680Y16726297D01*
X16312555Y16761023D01*
X16347281Y16794758D01*
X16411773Y16811625D01*
X16514961Y16785828D01*
G37*
G36*
X11238508Y16785828D02*
G01*
X11323340Y16731754D01*
X11351617Y16660813D01*
X11331773Y16583422D01*
X11032133Y15853172D01*
X10976570Y15782727D01*
X10873383Y15748000D01*
X10764242Y15795625D01*
X10732492Y15837297D01*
X10715625Y15870039D01*
X10701734Y15905758D01*
X10652125Y16040695D01*
X10618143Y16133713D01*
X10593586Y16196469D01*
X10535598Y16042128D01*
X10496572Y15938941D01*
X10476508Y15886906D01*
X10460633Y15853172D01*
X10404078Y15782727D01*
X10315773Y15748000D01*
X10240367Y15761891D01*
X10180836Y15810508D01*
X10141148Y15884922D01*
X9922867Y16416734D01*
X9869289Y16546711D01*
X9837539Y16654859D01*
X9869289Y16729770D01*
X9964539Y16791781D01*
X10043914Y16811625D01*
X10127258Y16779875D01*
X10186789Y16684625D01*
X10307836Y16355219D01*
X10328782Y16408135D01*
X10367808Y16513969D01*
X10424914Y16672719D01*
X10440789Y16706453D01*
X10499328Y16769953D01*
X10601523Y16801703D01*
X10718602Y16744156D01*
X10762258Y16674703D01*
X10879336Y16353234D01*
X10942615Y16525214D01*
X10989579Y16649568D01*
X11020227Y16726297D01*
X11036102Y16761023D01*
X11070828Y16794758D01*
X11135320Y16811625D01*
X11238508Y16785828D01*
G37*
G36*
X5527477Y17193617D02*
G01*
X5581055Y17154922D01*
X5599906Y17102336D01*
X5602883Y17033875D01*
X5602883Y15932547D01*
X5599906Y15861109D01*
X5581055Y15809516D01*
X5528469Y15769332D01*
X5430242Y15755937D01*
X5329039Y15769332D01*
X5275461Y15809516D01*
X5256609Y15860117D01*
X5253633Y15928578D01*
X5253633Y16597313D01*
X5216922Y16547951D01*
X5126633Y16423680D01*
X5028902Y16289982D01*
X4969867Y16212344D01*
X4953992Y16190516D01*
X4901406Y16149836D01*
X4820047Y16129000D01*
X4736703Y16151820D01*
X4688086Y16187539D01*
X4652367Y16234172D01*
X4609207Y16292959D01*
X4531320Y16401852D01*
X4447480Y16517689D01*
X4386461Y16597313D01*
X4386461Y15932547D01*
X4376539Y15829359D01*
X4348758Y15789672D01*
X4297164Y15765859D01*
X4205883Y15755937D01*
X4110633Y15767844D01*
X4054078Y15819934D01*
X4035227Y15928578D01*
X4035227Y17029906D01*
X4038203Y17099359D01*
X4057055Y17152938D01*
X4109393Y17193121D01*
X4210844Y17206516D01*
X4313783Y17193121D01*
X4370586Y17152938D01*
X4424799Y17083643D01*
X4496951Y16990060D01*
X4587042Y16872188D01*
X4695071Y16730028D01*
X4821039Y16563578D01*
X5271492Y17154922D01*
X5283398Y17166828D01*
X5334000Y17193617D01*
X5426273Y17206516D01*
X5527477Y17193617D01*
G37*
G36*
X2457097Y17212138D02*
G01*
X2586082Y17157568D01*
X2694781Y17066617D01*
X2776912Y16952736D01*
X2826191Y16829374D01*
X2842617Y16696531D01*
X2832695Y16595328D01*
X2778621Y16538773D01*
X2667992Y16519922D01*
X2566789Y16531828D01*
X2513211Y16567547D01*
X2494359Y16617156D01*
X2491383Y16682641D01*
X2491383Y16694547D01*
X2483445Y16740188D01*
X2430859Y16832461D01*
X2320727Y16879094D01*
X2221508Y16861234D01*
X2168922Y16822539D01*
X2138164Y16768961D01*
X2124273Y16718359D01*
X2142877Y16631543D01*
X2198687Y16549688D01*
X2280791Y16474529D01*
X2378273Y16407805D01*
X2483445Y16344801D01*
X2588617Y16280805D01*
X2686100Y16209863D01*
X2768203Y16126023D01*
X2824014Y16031518D01*
X2842617Y15928578D01*
X2791023Y15803563D01*
X2667992Y15749984D01*
X1892102Y15749984D01*
X1769070Y15773797D01*
X1726406Y15825391D01*
X1713508Y15925602D01*
X1725414Y16026805D01*
X1772047Y16084352D01*
X1888133Y16103203D01*
X2251273Y16103203D01*
X2251273Y16113125D01*
X2201664Y16132969D01*
X2078633Y16199941D01*
X1939727Y16309578D01*
X1875234Y16381016D01*
X1820664Y16472297D01*
X1783457Y16576477D01*
X1771055Y16686609D01*
X1787591Y16822980D01*
X1837201Y16948988D01*
X1919883Y17064633D01*
X2029134Y17156686D01*
X2158449Y17211918D01*
X2307828Y17230328D01*
X2457097Y17212138D01*
G37*
G36*
X23315524Y17217871D02*
G01*
X23433595Y17174545D01*
X23530719Y17102336D01*
X23602928Y17010724D01*
X23646253Y16909190D01*
X23660695Y16797734D01*
X23648045Y16679912D01*
X23610094Y16580445D01*
X23553291Y16502311D01*
X23484086Y16448484D01*
X23405703Y16409541D01*
X23321367Y16376055D01*
X23237031Y16349514D01*
X23158648Y16331406D01*
X23032641Y16286758D01*
X22982039Y16210359D01*
X23002544Y16126575D01*
X23064060Y16076304D01*
X23166586Y16059547D01*
X23261836Y16090305D01*
X23341211Y16154797D01*
X23429516Y16229211D01*
X23495992Y16254016D01*
X23601164Y16206391D01*
X23665160Y16131232D01*
X23686492Y16072445D01*
X23634898Y15958344D01*
X23617039Y15936516D01*
X23559492Y15875992D01*
X23470195Y15813484D01*
X23335258Y15756930D01*
X23249434Y15739814D01*
X23158648Y15734109D01*
X23039365Y15745795D01*
X22924933Y15780852D01*
X22815352Y15839281D01*
X22739945Y15904021D01*
X22680414Y15991086D01*
X22641719Y16097002D01*
X22628820Y16218297D01*
X22641471Y16337111D01*
X22679422Y16435586D01*
X22736225Y16510744D01*
X22805430Y16559609D01*
X22884309Y16592600D01*
X22970133Y16620133D01*
X23055957Y16641713D01*
X23134836Y16656844D01*
X23260844Y16702484D01*
X23311445Y16790789D01*
X23268781Y16876117D01*
X23161625Y16906875D01*
X23055461Y16881078D01*
X23024703Y16855281D01*
X23001883Y16835438D01*
X22898695Y16795750D01*
X22828250Y16820555D01*
X22759789Y16894969D01*
X22712164Y17004109D01*
X22773680Y17101344D01*
X22823289Y17139047D01*
X22959219Y17201555D01*
X23062654Y17224623D01*
X23176508Y17232312D01*
X23315524Y17217871D01*
G37*
G36*
X12117696Y17217871D02*
G01*
X12235766Y17174545D01*
X12332891Y17102336D01*
X12405100Y17010724D01*
X12448425Y16909190D01*
X12462867Y16797734D01*
X12450217Y16679912D01*
X12412266Y16580445D01*
X12355463Y16502311D01*
X12286258Y16448484D01*
X12207875Y16409541D01*
X12123539Y16376055D01*
X12039203Y16349514D01*
X11960820Y16331406D01*
X11834812Y16286758D01*
X11784211Y16210359D01*
X11804716Y16126575D01*
X11866232Y16076304D01*
X11968758Y16059547D01*
X12064008Y16090305D01*
X12143383Y16154797D01*
X12231687Y16229211D01*
X12298164Y16254016D01*
X12403336Y16206391D01*
X12467332Y16131232D01*
X12488664Y16072445D01*
X12437070Y15958344D01*
X12419211Y15936516D01*
X12361664Y15875992D01*
X12272367Y15813484D01*
X12137430Y15756930D01*
X12051605Y15739814D01*
X11960820Y15734109D01*
X11841537Y15745795D01*
X11727105Y15780852D01*
X11617523Y15839281D01*
X11542117Y15904021D01*
X11482586Y15991086D01*
X11443891Y16097002D01*
X11430992Y16218297D01*
X11443643Y16337111D01*
X11481594Y16435586D01*
X11538396Y16510744D01*
X11607602Y16559609D01*
X11686480Y16592600D01*
X11772305Y16620133D01*
X11858129Y16641713D01*
X11937008Y16656844D01*
X12063016Y16702484D01*
X12113617Y16790789D01*
X12070953Y16876117D01*
X11963797Y16906875D01*
X11857633Y16881078D01*
X11826875Y16855281D01*
X11804055Y16835438D01*
X11700867Y16795750D01*
X11630422Y16820555D01*
X11561961Y16894969D01*
X11514336Y17004109D01*
X11575852Y17101344D01*
X11625461Y17139047D01*
X11761391Y17201555D01*
X11864826Y17224623D01*
X11978680Y17232312D01*
X12117696Y17217871D01*
G37*
%TD*%
M02*
