%TF.GenerationSoftware,KiCad,Pcbnew,8.0.7*%
%TF.CreationDate,2025-01-03T07:35:05+00:00*%
%TF.ProjectId,Soft_Power_Switch_panelized,536f6674-5f50-46f7-9765-725f53776974,v10*%
%TF.SameCoordinates,Original*%
%TF.FileFunction,Soldermask,Bot*%
%TF.FilePolarity,Negative*%
%FSLAX46Y46*%
G04 Gerber Fmt 4.6, Leading zero omitted, Abs format (unit mm)*
G04 Created by KiCad (PCBNEW 8.0.7) date 2025-01-03 07:35:05*
%MOMM*%
%LPD*%
G01*
G04 APERTURE LIST*
%TA.AperFunction,Profile*%
%ADD10C,0.100000*%
%TD*%
%ADD11C,0.500000*%
%ADD12C,0.250000*%
G04 APERTURE END LIST*
D10*
X135850000Y187650000D02*
X135850000Y-6850000D01*
X51800000Y77200000D02*
X77200000Y77200000D01*
X77200000Y51800000D01*
X51800000Y51800000D01*
X51800000Y77200000D01*
X51800000Y103100000D02*
X77200000Y103100000D01*
X77200000Y77700000D01*
X51800000Y77700000D01*
X51800000Y103100000D01*
X135850000Y-6850000D02*
X-6850000Y-6850000D01*
X77700000Y103100000D02*
X103100000Y103100000D01*
X103100000Y77700000D01*
X77700000Y77700000D01*
X77700000Y103100000D01*
X25900000Y180800000D02*
X51300000Y180800000D01*
X51300000Y155400000D01*
X25900000Y155400000D01*
X25900000Y180800000D01*
X0Y180800000D02*
X25400000Y180800000D01*
X25400000Y155400000D01*
X0Y155400000D01*
X0Y180800000D01*
X51800000Y25400000D02*
X77200000Y25400000D01*
X77200000Y0D01*
X51800000Y0D01*
X51800000Y25400000D01*
X25900000Y51300000D02*
X51300000Y51300000D01*
X51300000Y25900000D01*
X25900000Y25900000D01*
X25900000Y51300000D01*
X103600000Y103100000D02*
X129000000Y103100000D01*
X129000000Y77700000D01*
X103600000Y77700000D01*
X103600000Y103100000D01*
X51800000Y154900000D02*
X77200000Y154900000D01*
X77200000Y129500000D01*
X51800000Y129500000D01*
X51800000Y154900000D01*
X103600000Y154900000D02*
X129000000Y154900000D01*
X129000000Y129500000D01*
X103600000Y129500000D01*
X103600000Y154900000D01*
X-6850000Y-6850000D02*
X-6850000Y187650000D01*
X0Y129000000D02*
X25400000Y129000000D01*
X25400000Y103600000D01*
X0Y103600000D01*
X0Y129000000D01*
X25900000Y129000000D02*
X51300000Y129000000D01*
X51300000Y103600000D01*
X25900000Y103600000D01*
X25900000Y129000000D01*
X77700000Y51300000D02*
X103100000Y51300000D01*
X103100000Y25900000D01*
X77700000Y25900000D01*
X77700000Y51300000D01*
X0Y51300000D02*
X25400000Y51300000D01*
X25400000Y25900000D01*
X0Y25900000D01*
X0Y51300000D01*
X103600000Y51300000D02*
X129000000Y51300000D01*
X129000000Y25900000D01*
X103600000Y25900000D01*
X103600000Y51300000D01*
X-500000Y-500000D02*
X-500000Y181300000D01*
X25900000Y25400000D02*
X51300000Y25400000D01*
X51300000Y0D01*
X25900000Y0D01*
X25900000Y25400000D01*
X129500000Y-500000D02*
X-500000Y-500000D01*
X51800000Y180800000D02*
X77200000Y180800000D01*
X77200000Y155400000D01*
X51800000Y155400000D01*
X51800000Y180800000D01*
X103600000Y180800000D02*
X129000000Y180800000D01*
X129000000Y155400000D01*
X103600000Y155400000D01*
X103600000Y180800000D01*
X77700000Y77200000D02*
X103100000Y77200000D01*
X103100000Y51800000D01*
X77700000Y51800000D01*
X77700000Y77200000D01*
X103600000Y77200000D02*
X129000000Y77200000D01*
X129000000Y51800000D01*
X103600000Y51800000D01*
X103600000Y77200000D01*
X51800000Y51300000D02*
X77200000Y51300000D01*
X77200000Y25900000D01*
X51800000Y25900000D01*
X51800000Y51300000D01*
X-500000Y181300000D02*
X129500000Y181300000D01*
X0Y103100000D02*
X25400000Y103100000D01*
X25400000Y77700000D01*
X0Y77700000D01*
X0Y103100000D01*
X103600000Y129000000D02*
X129000000Y129000000D01*
X129000000Y103600000D01*
X103600000Y103600000D01*
X103600000Y129000000D01*
X25900000Y103100000D02*
X51300000Y103100000D01*
X51300000Y77700000D01*
X25900000Y77700000D01*
X25900000Y103100000D01*
X77700000Y25400000D02*
X103100000Y25400000D01*
X103100000Y0D01*
X77700000Y0D01*
X77700000Y25400000D01*
X0Y154900000D02*
X25400000Y154900000D01*
X25400000Y129500000D01*
X0Y129500000D01*
X0Y154900000D01*
X25900000Y77200000D02*
X51300000Y77200000D01*
X51300000Y51800000D01*
X25900000Y51800000D01*
X25900000Y77200000D01*
X129500000Y181300000D02*
X129500000Y-500000D01*
X103600000Y25400000D02*
X129000000Y25400000D01*
X129000000Y0D01*
X103600000Y0D01*
X103600000Y25400000D01*
X77700000Y154900000D02*
X103100000Y154900000D01*
X103100000Y129500000D01*
X77700000Y129500000D01*
X77700000Y154900000D01*
X0Y77200000D02*
X25400000Y77200000D01*
X25400000Y51800000D01*
X0Y51800000D01*
X0Y77200000D01*
X77700000Y180800000D02*
X103100000Y180800000D01*
X103100000Y155400000D01*
X77700000Y155400000D01*
X77700000Y180800000D01*
X-6850000Y187650000D02*
X135850000Y187650000D01*
X25900000Y154900000D02*
X51300000Y154900000D01*
X51300000Y129500000D01*
X25900000Y129500000D01*
X25900000Y154900000D01*
X0Y25400000D02*
X25400000Y25400000D01*
X25400000Y0D01*
X0Y0D01*
X0Y25400000D01*
X77700000Y129000000D02*
X103100000Y129000000D01*
X103100000Y103600000D01*
X77700000Y103600000D01*
X77700000Y129000000D01*
X51800000Y129000000D02*
X77200000Y129000000D01*
X77200000Y103600000D01*
X51800000Y103600000D01*
X51800000Y129000000D01*
D11*
X77450000Y187900000D02*
X77450000Y-7100000D01*
X-7100000Y103350000D02*
X136100000Y103350000D01*
X-7100000Y-250000D02*
X136100000Y-250000D01*
X129250000Y187900000D02*
X129250000Y-7100000D01*
X-7100000Y51550000D02*
X136100000Y51550000D01*
X-7100000Y25650000D02*
X136100000Y25650000D01*
X-7100000Y77450000D02*
X136100000Y77450000D01*
X-7100000Y155150000D02*
X136100000Y155150000D01*
X-7100000Y129250000D02*
X136100000Y129250000D01*
X103350000Y187900000D02*
X103350000Y-7100000D01*
X25650000Y187900000D02*
X25650000Y-7100000D01*
X51550000Y187900000D02*
X51550000Y-7100000D01*
X-7100000Y181050000D02*
X136100000Y181050000D01*
X-250000Y187900000D02*
X-250000Y-7100000D01*
D12*
X-23073997Y26737762D02*
X-22407331Y24737762D01*
X-22407331Y24737762D02*
X-21740664Y26737762D01*
X-21073997Y25499667D02*
X-19550187Y25499667D01*
X-18693045Y24833000D02*
X-18407331Y24737762D01*
X-18407331Y24737762D02*
X-17931140Y24737762D01*
X-17931140Y24737762D02*
X-17740664Y24833000D01*
X-17740664Y24833000D02*
X-17645426Y24928239D01*
X-17645426Y24928239D02*
X-17550188Y25118715D01*
X-17550188Y25118715D02*
X-17550188Y25309191D01*
X-17550188Y25309191D02*
X-17645426Y25499667D01*
X-17645426Y25499667D02*
X-17740664Y25594905D01*
X-17740664Y25594905D02*
X-17931140Y25690143D01*
X-17931140Y25690143D02*
X-18312093Y25785381D01*
X-18312093Y25785381D02*
X-18502569Y25880620D01*
X-18502569Y25880620D02*
X-18597807Y25975858D01*
X-18597807Y25975858D02*
X-18693045Y26166334D01*
X-18693045Y26166334D02*
X-18693045Y26356810D01*
X-18693045Y26356810D02*
X-18597807Y26547286D01*
X-18597807Y26547286D02*
X-18502569Y26642524D01*
X-18502569Y26642524D02*
X-18312093Y26737762D01*
X-18312093Y26737762D02*
X-17835902Y26737762D01*
X-17835902Y26737762D02*
X-17550188Y26642524D01*
X-15550188Y24928239D02*
X-15645426Y24833000D01*
X-15645426Y24833000D02*
X-15931140Y24737762D01*
X-15931140Y24737762D02*
X-16121616Y24737762D01*
X-16121616Y24737762D02*
X-16407331Y24833000D01*
X-16407331Y24833000D02*
X-16597807Y25023477D01*
X-16597807Y25023477D02*
X-16693045Y25213953D01*
X-16693045Y25213953D02*
X-16788283Y25594905D01*
X-16788283Y25594905D02*
X-16788283Y25880620D01*
X-16788283Y25880620D02*
X-16693045Y26261572D01*
X-16693045Y26261572D02*
X-16597807Y26452048D01*
X-16597807Y26452048D02*
X-16407331Y26642524D01*
X-16407331Y26642524D02*
X-16121616Y26737762D01*
X-16121616Y26737762D02*
X-15931140Y26737762D01*
X-15931140Y26737762D02*
X-15645426Y26642524D01*
X-15645426Y26642524D02*
X-15550188Y26547286D01*
X-14312093Y26737762D02*
X-13931140Y26737762D01*
X-13931140Y26737762D02*
X-13740664Y26642524D01*
X-13740664Y26642524D02*
X-13550188Y26452048D01*
X-13550188Y26452048D02*
X-13454950Y26071096D01*
X-13454950Y26071096D02*
X-13454950Y25404429D01*
X-13454950Y25404429D02*
X-13550188Y25023477D01*
X-13550188Y25023477D02*
X-13740664Y24833000D01*
X-13740664Y24833000D02*
X-13931140Y24737762D01*
X-13931140Y24737762D02*
X-14312093Y24737762D01*
X-14312093Y24737762D02*
X-14502569Y24833000D01*
X-14502569Y24833000D02*
X-14693045Y25023477D01*
X-14693045Y25023477D02*
X-14788283Y25404429D01*
X-14788283Y25404429D02*
X-14788283Y26071096D01*
X-14788283Y26071096D02*
X-14693045Y26452048D01*
X-14693045Y26452048D02*
X-14502569Y26642524D01*
X-14502569Y26642524D02*
X-14312093Y26737762D01*
X-11454950Y24737762D02*
X-12121617Y25690143D01*
X-12597807Y24737762D02*
X-12597807Y26737762D01*
X-12597807Y26737762D02*
X-11835902Y26737762D01*
X-11835902Y26737762D02*
X-11645426Y26642524D01*
X-11645426Y26642524D02*
X-11550188Y26547286D01*
X-11550188Y26547286D02*
X-11454950Y26356810D01*
X-11454950Y26356810D02*
X-11454950Y26071096D01*
X-11454950Y26071096D02*
X-11550188Y25880620D01*
X-11550188Y25880620D02*
X-11645426Y25785381D01*
X-11645426Y25785381D02*
X-11835902Y25690143D01*
X-11835902Y25690143D02*
X-12597807Y25690143D01*
X-10597807Y25785381D02*
X-9931140Y25785381D01*
X-9645426Y24737762D02*
X-10597807Y24737762D01*
X-10597807Y24737762D02*
X-10597807Y26737762D01*
X-10597807Y26737762D02*
X-9645426Y26737762D01*
X-23073997Y837762D02*
X-22407331Y-1162238D01*
X-22407331Y-1162238D02*
X-21740664Y837762D01*
X-21073997Y-400333D02*
X-19550187Y-400333D01*
X-18693045Y-1067000D02*
X-18407331Y-1162238D01*
X-18407331Y-1162238D02*
X-17931140Y-1162238D01*
X-17931140Y-1162238D02*
X-17740664Y-1067000D01*
X-17740664Y-1067000D02*
X-17645426Y-971761D01*
X-17645426Y-971761D02*
X-17550188Y-781285D01*
X-17550188Y-781285D02*
X-17550188Y-590809D01*
X-17550188Y-590809D02*
X-17645426Y-400333D01*
X-17645426Y-400333D02*
X-17740664Y-305095D01*
X-17740664Y-305095D02*
X-17931140Y-209857D01*
X-17931140Y-209857D02*
X-18312093Y-114619D01*
X-18312093Y-114619D02*
X-18502569Y-19380D01*
X-18502569Y-19380D02*
X-18597807Y75858D01*
X-18597807Y75858D02*
X-18693045Y266334D01*
X-18693045Y266334D02*
X-18693045Y456810D01*
X-18693045Y456810D02*
X-18597807Y647286D01*
X-18597807Y647286D02*
X-18502569Y742524D01*
X-18502569Y742524D02*
X-18312093Y837762D01*
X-18312093Y837762D02*
X-17835902Y837762D01*
X-17835902Y837762D02*
X-17550188Y742524D01*
X-15550188Y-971761D02*
X-15645426Y-1067000D01*
X-15645426Y-1067000D02*
X-15931140Y-1162238D01*
X-15931140Y-1162238D02*
X-16121616Y-1162238D01*
X-16121616Y-1162238D02*
X-16407331Y-1067000D01*
X-16407331Y-1067000D02*
X-16597807Y-876523D01*
X-16597807Y-876523D02*
X-16693045Y-686047D01*
X-16693045Y-686047D02*
X-16788283Y-305095D01*
X-16788283Y-305095D02*
X-16788283Y-19380D01*
X-16788283Y-19380D02*
X-16693045Y361572D01*
X-16693045Y361572D02*
X-16597807Y552048D01*
X-16597807Y552048D02*
X-16407331Y742524D01*
X-16407331Y742524D02*
X-16121616Y837762D01*
X-16121616Y837762D02*
X-15931140Y837762D01*
X-15931140Y837762D02*
X-15645426Y742524D01*
X-15645426Y742524D02*
X-15550188Y647286D01*
X-14312093Y837762D02*
X-13931140Y837762D01*
X-13931140Y837762D02*
X-13740664Y742524D01*
X-13740664Y742524D02*
X-13550188Y552048D01*
X-13550188Y552048D02*
X-13454950Y171096D01*
X-13454950Y171096D02*
X-13454950Y-495571D01*
X-13454950Y-495571D02*
X-13550188Y-876523D01*
X-13550188Y-876523D02*
X-13740664Y-1067000D01*
X-13740664Y-1067000D02*
X-13931140Y-1162238D01*
X-13931140Y-1162238D02*
X-14312093Y-1162238D01*
X-14312093Y-1162238D02*
X-14502569Y-1067000D01*
X-14502569Y-1067000D02*
X-14693045Y-876523D01*
X-14693045Y-876523D02*
X-14788283Y-495571D01*
X-14788283Y-495571D02*
X-14788283Y171096D01*
X-14788283Y171096D02*
X-14693045Y552048D01*
X-14693045Y552048D02*
X-14502569Y742524D01*
X-14502569Y742524D02*
X-14312093Y837762D01*
X-11454950Y-1162238D02*
X-12121617Y-209857D01*
X-12597807Y-1162238D02*
X-12597807Y837762D01*
X-12597807Y837762D02*
X-11835902Y837762D01*
X-11835902Y837762D02*
X-11645426Y742524D01*
X-11645426Y742524D02*
X-11550188Y647286D01*
X-11550188Y647286D02*
X-11454950Y456810D01*
X-11454950Y456810D02*
X-11454950Y171096D01*
X-11454950Y171096D02*
X-11550188Y-19380D01*
X-11550188Y-19380D02*
X-11645426Y-114619D01*
X-11645426Y-114619D02*
X-11835902Y-209857D01*
X-11835902Y-209857D02*
X-12597807Y-209857D01*
X-10597807Y-114619D02*
X-9931140Y-114619D01*
X-9645426Y-1162238D02*
X-10597807Y-1162238D01*
X-10597807Y-1162238D02*
X-10597807Y837762D01*
X-10597807Y837762D02*
X-9645426Y837762D01*
X24562238Y190254949D02*
X26562238Y190921615D01*
X26562238Y190921615D02*
X24562238Y191588282D01*
X25800333Y192254949D02*
X25800333Y193778759D01*
X26467000Y194635901D02*
X26562238Y194921615D01*
X26562238Y194921615D02*
X26562238Y195397806D01*
X26562238Y195397806D02*
X26467000Y195588282D01*
X26467000Y195588282D02*
X26371761Y195683520D01*
X26371761Y195683520D02*
X26181285Y195778758D01*
X26181285Y195778758D02*
X25990809Y195778758D01*
X25990809Y195778758D02*
X25800333Y195683520D01*
X25800333Y195683520D02*
X25705095Y195588282D01*
X25705095Y195588282D02*
X25609857Y195397806D01*
X25609857Y195397806D02*
X25514619Y195016853D01*
X25514619Y195016853D02*
X25419380Y194826377D01*
X25419380Y194826377D02*
X25324142Y194731139D01*
X25324142Y194731139D02*
X25133666Y194635901D01*
X25133666Y194635901D02*
X24943190Y194635901D01*
X24943190Y194635901D02*
X24752714Y194731139D01*
X24752714Y194731139D02*
X24657476Y194826377D01*
X24657476Y194826377D02*
X24562238Y195016853D01*
X24562238Y195016853D02*
X24562238Y195493044D01*
X24562238Y195493044D02*
X24657476Y195778758D01*
X26371761Y197778758D02*
X26467000Y197683520D01*
X26467000Y197683520D02*
X26562238Y197397806D01*
X26562238Y197397806D02*
X26562238Y197207330D01*
X26562238Y197207330D02*
X26467000Y196921615D01*
X26467000Y196921615D02*
X26276523Y196731139D01*
X26276523Y196731139D02*
X26086047Y196635901D01*
X26086047Y196635901D02*
X25705095Y196540663D01*
X25705095Y196540663D02*
X25419380Y196540663D01*
X25419380Y196540663D02*
X25038428Y196635901D01*
X25038428Y196635901D02*
X24847952Y196731139D01*
X24847952Y196731139D02*
X24657476Y196921615D01*
X24657476Y196921615D02*
X24562238Y197207330D01*
X24562238Y197207330D02*
X24562238Y197397806D01*
X24562238Y197397806D02*
X24657476Y197683520D01*
X24657476Y197683520D02*
X24752714Y197778758D01*
X24562238Y199016853D02*
X24562238Y199397806D01*
X24562238Y199397806D02*
X24657476Y199588282D01*
X24657476Y199588282D02*
X24847952Y199778758D01*
X24847952Y199778758D02*
X25228904Y199873996D01*
X25228904Y199873996D02*
X25895571Y199873996D01*
X25895571Y199873996D02*
X26276523Y199778758D01*
X26276523Y199778758D02*
X26467000Y199588282D01*
X26467000Y199588282D02*
X26562238Y199397806D01*
X26562238Y199397806D02*
X26562238Y199016853D01*
X26562238Y199016853D02*
X26467000Y198826377D01*
X26467000Y198826377D02*
X26276523Y198635901D01*
X26276523Y198635901D02*
X25895571Y198540663D01*
X25895571Y198540663D02*
X25228904Y198540663D01*
X25228904Y198540663D02*
X24847952Y198635901D01*
X24847952Y198635901D02*
X24657476Y198826377D01*
X24657476Y198826377D02*
X24562238Y199016853D01*
X26562238Y201873996D02*
X25609857Y201207329D01*
X26562238Y200731139D02*
X24562238Y200731139D01*
X24562238Y200731139D02*
X24562238Y201493044D01*
X24562238Y201493044D02*
X24657476Y201683520D01*
X24657476Y201683520D02*
X24752714Y201778758D01*
X24752714Y201778758D02*
X24943190Y201873996D01*
X24943190Y201873996D02*
X25228904Y201873996D01*
X25228904Y201873996D02*
X25419380Y201778758D01*
X25419380Y201778758D02*
X25514619Y201683520D01*
X25514619Y201683520D02*
X25609857Y201493044D01*
X25609857Y201493044D02*
X25609857Y200731139D01*
X25514619Y202731139D02*
X25514619Y203397806D01*
X26562238Y203683520D02*
X26562238Y202731139D01*
X26562238Y202731139D02*
X24562238Y202731139D01*
X24562238Y202731139D02*
X24562238Y203683520D01*
X-23073997Y78537762D02*
X-22407331Y76537762D01*
X-22407331Y76537762D02*
X-21740664Y78537762D01*
X-21073997Y77299667D02*
X-19550187Y77299667D01*
X-18693045Y76633000D02*
X-18407331Y76537762D01*
X-18407331Y76537762D02*
X-17931140Y76537762D01*
X-17931140Y76537762D02*
X-17740664Y76633000D01*
X-17740664Y76633000D02*
X-17645426Y76728239D01*
X-17645426Y76728239D02*
X-17550188Y76918715D01*
X-17550188Y76918715D02*
X-17550188Y77109191D01*
X-17550188Y77109191D02*
X-17645426Y77299667D01*
X-17645426Y77299667D02*
X-17740664Y77394905D01*
X-17740664Y77394905D02*
X-17931140Y77490143D01*
X-17931140Y77490143D02*
X-18312093Y77585381D01*
X-18312093Y77585381D02*
X-18502569Y77680620D01*
X-18502569Y77680620D02*
X-18597807Y77775858D01*
X-18597807Y77775858D02*
X-18693045Y77966334D01*
X-18693045Y77966334D02*
X-18693045Y78156810D01*
X-18693045Y78156810D02*
X-18597807Y78347286D01*
X-18597807Y78347286D02*
X-18502569Y78442524D01*
X-18502569Y78442524D02*
X-18312093Y78537762D01*
X-18312093Y78537762D02*
X-17835902Y78537762D01*
X-17835902Y78537762D02*
X-17550188Y78442524D01*
X-15550188Y76728239D02*
X-15645426Y76633000D01*
X-15645426Y76633000D02*
X-15931140Y76537762D01*
X-15931140Y76537762D02*
X-16121616Y76537762D01*
X-16121616Y76537762D02*
X-16407331Y76633000D01*
X-16407331Y76633000D02*
X-16597807Y76823477D01*
X-16597807Y76823477D02*
X-16693045Y77013953D01*
X-16693045Y77013953D02*
X-16788283Y77394905D01*
X-16788283Y77394905D02*
X-16788283Y77680620D01*
X-16788283Y77680620D02*
X-16693045Y78061572D01*
X-16693045Y78061572D02*
X-16597807Y78252048D01*
X-16597807Y78252048D02*
X-16407331Y78442524D01*
X-16407331Y78442524D02*
X-16121616Y78537762D01*
X-16121616Y78537762D02*
X-15931140Y78537762D01*
X-15931140Y78537762D02*
X-15645426Y78442524D01*
X-15645426Y78442524D02*
X-15550188Y78347286D01*
X-14312093Y78537762D02*
X-13931140Y78537762D01*
X-13931140Y78537762D02*
X-13740664Y78442524D01*
X-13740664Y78442524D02*
X-13550188Y78252048D01*
X-13550188Y78252048D02*
X-13454950Y77871096D01*
X-13454950Y77871096D02*
X-13454950Y77204429D01*
X-13454950Y77204429D02*
X-13550188Y76823477D01*
X-13550188Y76823477D02*
X-13740664Y76633000D01*
X-13740664Y76633000D02*
X-13931140Y76537762D01*
X-13931140Y76537762D02*
X-14312093Y76537762D01*
X-14312093Y76537762D02*
X-14502569Y76633000D01*
X-14502569Y76633000D02*
X-14693045Y76823477D01*
X-14693045Y76823477D02*
X-14788283Y77204429D01*
X-14788283Y77204429D02*
X-14788283Y77871096D01*
X-14788283Y77871096D02*
X-14693045Y78252048D01*
X-14693045Y78252048D02*
X-14502569Y78442524D01*
X-14502569Y78442524D02*
X-14312093Y78537762D01*
X-11454950Y76537762D02*
X-12121617Y77490143D01*
X-12597807Y76537762D02*
X-12597807Y78537762D01*
X-12597807Y78537762D02*
X-11835902Y78537762D01*
X-11835902Y78537762D02*
X-11645426Y78442524D01*
X-11645426Y78442524D02*
X-11550188Y78347286D01*
X-11550188Y78347286D02*
X-11454950Y78156810D01*
X-11454950Y78156810D02*
X-11454950Y77871096D01*
X-11454950Y77871096D02*
X-11550188Y77680620D01*
X-11550188Y77680620D02*
X-11645426Y77585381D01*
X-11645426Y77585381D02*
X-11835902Y77490143D01*
X-11835902Y77490143D02*
X-12597807Y77490143D01*
X-10597807Y77585381D02*
X-9931140Y77585381D01*
X-9645426Y76537762D02*
X-10597807Y76537762D01*
X-10597807Y76537762D02*
X-10597807Y78537762D01*
X-10597807Y78537762D02*
X-9645426Y78537762D01*
X-23073997Y130337761D02*
X-22407331Y128337761D01*
X-22407331Y128337761D02*
X-21740664Y130337761D01*
X-21073997Y129099666D02*
X-19550187Y129099666D01*
X-18693045Y128433000D02*
X-18407331Y128337761D01*
X-18407331Y128337761D02*
X-17931140Y128337761D01*
X-17931140Y128337761D02*
X-17740664Y128433000D01*
X-17740664Y128433000D02*
X-17645426Y128528238D01*
X-17645426Y128528238D02*
X-17550188Y128718714D01*
X-17550188Y128718714D02*
X-17550188Y128909190D01*
X-17550188Y128909190D02*
X-17645426Y129099666D01*
X-17645426Y129099666D02*
X-17740664Y129194904D01*
X-17740664Y129194904D02*
X-17931140Y129290142D01*
X-17931140Y129290142D02*
X-18312093Y129385380D01*
X-18312093Y129385380D02*
X-18502569Y129480619D01*
X-18502569Y129480619D02*
X-18597807Y129575857D01*
X-18597807Y129575857D02*
X-18693045Y129766333D01*
X-18693045Y129766333D02*
X-18693045Y129956809D01*
X-18693045Y129956809D02*
X-18597807Y130147285D01*
X-18597807Y130147285D02*
X-18502569Y130242523D01*
X-18502569Y130242523D02*
X-18312093Y130337761D01*
X-18312093Y130337761D02*
X-17835902Y130337761D01*
X-17835902Y130337761D02*
X-17550188Y130242523D01*
X-15550188Y128528238D02*
X-15645426Y128433000D01*
X-15645426Y128433000D02*
X-15931140Y128337761D01*
X-15931140Y128337761D02*
X-16121616Y128337761D01*
X-16121616Y128337761D02*
X-16407331Y128433000D01*
X-16407331Y128433000D02*
X-16597807Y128623476D01*
X-16597807Y128623476D02*
X-16693045Y128813952D01*
X-16693045Y128813952D02*
X-16788283Y129194904D01*
X-16788283Y129194904D02*
X-16788283Y129480619D01*
X-16788283Y129480619D02*
X-16693045Y129861571D01*
X-16693045Y129861571D02*
X-16597807Y130052047D01*
X-16597807Y130052047D02*
X-16407331Y130242523D01*
X-16407331Y130242523D02*
X-16121616Y130337761D01*
X-16121616Y130337761D02*
X-15931140Y130337761D01*
X-15931140Y130337761D02*
X-15645426Y130242523D01*
X-15645426Y130242523D02*
X-15550188Y130147285D01*
X-14312093Y130337761D02*
X-13931140Y130337761D01*
X-13931140Y130337761D02*
X-13740664Y130242523D01*
X-13740664Y130242523D02*
X-13550188Y130052047D01*
X-13550188Y130052047D02*
X-13454950Y129671095D01*
X-13454950Y129671095D02*
X-13454950Y129004428D01*
X-13454950Y129004428D02*
X-13550188Y128623476D01*
X-13550188Y128623476D02*
X-13740664Y128433000D01*
X-13740664Y128433000D02*
X-13931140Y128337761D01*
X-13931140Y128337761D02*
X-14312093Y128337761D01*
X-14312093Y128337761D02*
X-14502569Y128433000D01*
X-14502569Y128433000D02*
X-14693045Y128623476D01*
X-14693045Y128623476D02*
X-14788283Y129004428D01*
X-14788283Y129004428D02*
X-14788283Y129671095D01*
X-14788283Y129671095D02*
X-14693045Y130052047D01*
X-14693045Y130052047D02*
X-14502569Y130242523D01*
X-14502569Y130242523D02*
X-14312093Y130337761D01*
X-11454950Y128337761D02*
X-12121617Y129290142D01*
X-12597807Y128337761D02*
X-12597807Y130337761D01*
X-12597807Y130337761D02*
X-11835902Y130337761D01*
X-11835902Y130337761D02*
X-11645426Y130242523D01*
X-11645426Y130242523D02*
X-11550188Y130147285D01*
X-11550188Y130147285D02*
X-11454950Y129956809D01*
X-11454950Y129956809D02*
X-11454950Y129671095D01*
X-11454950Y129671095D02*
X-11550188Y129480619D01*
X-11550188Y129480619D02*
X-11645426Y129385380D01*
X-11645426Y129385380D02*
X-11835902Y129290142D01*
X-11835902Y129290142D02*
X-12597807Y129290142D01*
X-10597807Y129385380D02*
X-9931140Y129385380D01*
X-9645426Y128337761D02*
X-10597807Y128337761D01*
X-10597807Y128337761D02*
X-10597807Y130337761D01*
X-10597807Y130337761D02*
X-9645426Y130337761D01*
X-23073997Y156237761D02*
X-22407331Y154237761D01*
X-22407331Y154237761D02*
X-21740664Y156237761D01*
X-21073997Y154999666D02*
X-19550187Y154999666D01*
X-18693045Y154333000D02*
X-18407331Y154237761D01*
X-18407331Y154237761D02*
X-17931140Y154237761D01*
X-17931140Y154237761D02*
X-17740664Y154333000D01*
X-17740664Y154333000D02*
X-17645426Y154428238D01*
X-17645426Y154428238D02*
X-17550188Y154618714D01*
X-17550188Y154618714D02*
X-17550188Y154809190D01*
X-17550188Y154809190D02*
X-17645426Y154999666D01*
X-17645426Y154999666D02*
X-17740664Y155094904D01*
X-17740664Y155094904D02*
X-17931140Y155190142D01*
X-17931140Y155190142D02*
X-18312093Y155285380D01*
X-18312093Y155285380D02*
X-18502569Y155380619D01*
X-18502569Y155380619D02*
X-18597807Y155475857D01*
X-18597807Y155475857D02*
X-18693045Y155666333D01*
X-18693045Y155666333D02*
X-18693045Y155856809D01*
X-18693045Y155856809D02*
X-18597807Y156047285D01*
X-18597807Y156047285D02*
X-18502569Y156142523D01*
X-18502569Y156142523D02*
X-18312093Y156237761D01*
X-18312093Y156237761D02*
X-17835902Y156237761D01*
X-17835902Y156237761D02*
X-17550188Y156142523D01*
X-15550188Y154428238D02*
X-15645426Y154333000D01*
X-15645426Y154333000D02*
X-15931140Y154237761D01*
X-15931140Y154237761D02*
X-16121616Y154237761D01*
X-16121616Y154237761D02*
X-16407331Y154333000D01*
X-16407331Y154333000D02*
X-16597807Y154523476D01*
X-16597807Y154523476D02*
X-16693045Y154713952D01*
X-16693045Y154713952D02*
X-16788283Y155094904D01*
X-16788283Y155094904D02*
X-16788283Y155380619D01*
X-16788283Y155380619D02*
X-16693045Y155761571D01*
X-16693045Y155761571D02*
X-16597807Y155952047D01*
X-16597807Y155952047D02*
X-16407331Y156142523D01*
X-16407331Y156142523D02*
X-16121616Y156237761D01*
X-16121616Y156237761D02*
X-15931140Y156237761D01*
X-15931140Y156237761D02*
X-15645426Y156142523D01*
X-15645426Y156142523D02*
X-15550188Y156047285D01*
X-14312093Y156237761D02*
X-13931140Y156237761D01*
X-13931140Y156237761D02*
X-13740664Y156142523D01*
X-13740664Y156142523D02*
X-13550188Y155952047D01*
X-13550188Y155952047D02*
X-13454950Y155571095D01*
X-13454950Y155571095D02*
X-13454950Y154904428D01*
X-13454950Y154904428D02*
X-13550188Y154523476D01*
X-13550188Y154523476D02*
X-13740664Y154333000D01*
X-13740664Y154333000D02*
X-13931140Y154237761D01*
X-13931140Y154237761D02*
X-14312093Y154237761D01*
X-14312093Y154237761D02*
X-14502569Y154333000D01*
X-14502569Y154333000D02*
X-14693045Y154523476D01*
X-14693045Y154523476D02*
X-14788283Y154904428D01*
X-14788283Y154904428D02*
X-14788283Y155571095D01*
X-14788283Y155571095D02*
X-14693045Y155952047D01*
X-14693045Y155952047D02*
X-14502569Y156142523D01*
X-14502569Y156142523D02*
X-14312093Y156237761D01*
X-11454950Y154237761D02*
X-12121617Y155190142D01*
X-12597807Y154237761D02*
X-12597807Y156237761D01*
X-12597807Y156237761D02*
X-11835902Y156237761D01*
X-11835902Y156237761D02*
X-11645426Y156142523D01*
X-11645426Y156142523D02*
X-11550188Y156047285D01*
X-11550188Y156047285D02*
X-11454950Y155856809D01*
X-11454950Y155856809D02*
X-11454950Y155571095D01*
X-11454950Y155571095D02*
X-11550188Y155380619D01*
X-11550188Y155380619D02*
X-11645426Y155285380D01*
X-11645426Y155285380D02*
X-11835902Y155190142D01*
X-11835902Y155190142D02*
X-12597807Y155190142D01*
X-10597807Y155285380D02*
X-9931140Y155285380D01*
X-9645426Y154237761D02*
X-10597807Y154237761D01*
X-10597807Y154237761D02*
X-10597807Y156237761D01*
X-10597807Y156237761D02*
X-9645426Y156237761D01*
X-23073997Y104437762D02*
X-22407331Y102437762D01*
X-22407331Y102437762D02*
X-21740664Y104437762D01*
X-21073997Y103199667D02*
X-19550187Y103199667D01*
X-18693045Y102533000D02*
X-18407331Y102437762D01*
X-18407331Y102437762D02*
X-17931140Y102437762D01*
X-17931140Y102437762D02*
X-17740664Y102533000D01*
X-17740664Y102533000D02*
X-17645426Y102628239D01*
X-17645426Y102628239D02*
X-17550188Y102818715D01*
X-17550188Y102818715D02*
X-17550188Y103009191D01*
X-17550188Y103009191D02*
X-17645426Y103199667D01*
X-17645426Y103199667D02*
X-17740664Y103294905D01*
X-17740664Y103294905D02*
X-17931140Y103390143D01*
X-17931140Y103390143D02*
X-18312093Y103485381D01*
X-18312093Y103485381D02*
X-18502569Y103580620D01*
X-18502569Y103580620D02*
X-18597807Y103675858D01*
X-18597807Y103675858D02*
X-18693045Y103866334D01*
X-18693045Y103866334D02*
X-18693045Y104056810D01*
X-18693045Y104056810D02*
X-18597807Y104247286D01*
X-18597807Y104247286D02*
X-18502569Y104342524D01*
X-18502569Y104342524D02*
X-18312093Y104437762D01*
X-18312093Y104437762D02*
X-17835902Y104437762D01*
X-17835902Y104437762D02*
X-17550188Y104342524D01*
X-15550188Y102628239D02*
X-15645426Y102533000D01*
X-15645426Y102533000D02*
X-15931140Y102437762D01*
X-15931140Y102437762D02*
X-16121616Y102437762D01*
X-16121616Y102437762D02*
X-16407331Y102533000D01*
X-16407331Y102533000D02*
X-16597807Y102723477D01*
X-16597807Y102723477D02*
X-16693045Y102913953D01*
X-16693045Y102913953D02*
X-16788283Y103294905D01*
X-16788283Y103294905D02*
X-16788283Y103580620D01*
X-16788283Y103580620D02*
X-16693045Y103961572D01*
X-16693045Y103961572D02*
X-16597807Y104152048D01*
X-16597807Y104152048D02*
X-16407331Y104342524D01*
X-16407331Y104342524D02*
X-16121616Y104437762D01*
X-16121616Y104437762D02*
X-15931140Y104437762D01*
X-15931140Y104437762D02*
X-15645426Y104342524D01*
X-15645426Y104342524D02*
X-15550188Y104247286D01*
X-14312093Y104437762D02*
X-13931140Y104437762D01*
X-13931140Y104437762D02*
X-13740664Y104342524D01*
X-13740664Y104342524D02*
X-13550188Y104152048D01*
X-13550188Y104152048D02*
X-13454950Y103771096D01*
X-13454950Y103771096D02*
X-13454950Y103104429D01*
X-13454950Y103104429D02*
X-13550188Y102723477D01*
X-13550188Y102723477D02*
X-13740664Y102533000D01*
X-13740664Y102533000D02*
X-13931140Y102437762D01*
X-13931140Y102437762D02*
X-14312093Y102437762D01*
X-14312093Y102437762D02*
X-14502569Y102533000D01*
X-14502569Y102533000D02*
X-14693045Y102723477D01*
X-14693045Y102723477D02*
X-14788283Y103104429D01*
X-14788283Y103104429D02*
X-14788283Y103771096D01*
X-14788283Y103771096D02*
X-14693045Y104152048D01*
X-14693045Y104152048D02*
X-14502569Y104342524D01*
X-14502569Y104342524D02*
X-14312093Y104437762D01*
X-11454950Y102437762D02*
X-12121617Y103390143D01*
X-12597807Y102437762D02*
X-12597807Y104437762D01*
X-12597807Y104437762D02*
X-11835902Y104437762D01*
X-11835902Y104437762D02*
X-11645426Y104342524D01*
X-11645426Y104342524D02*
X-11550188Y104247286D01*
X-11550188Y104247286D02*
X-11454950Y104056810D01*
X-11454950Y104056810D02*
X-11454950Y103771096D01*
X-11454950Y103771096D02*
X-11550188Y103580620D01*
X-11550188Y103580620D02*
X-11645426Y103485381D01*
X-11645426Y103485381D02*
X-11835902Y103390143D01*
X-11835902Y103390143D02*
X-12597807Y103390143D01*
X-10597807Y103485381D02*
X-9931140Y103485381D01*
X-9645426Y102437762D02*
X-10597807Y102437762D01*
X-10597807Y102437762D02*
X-10597807Y104437762D01*
X-10597807Y104437762D02*
X-9645426Y104437762D01*
X76362238Y190254949D02*
X78362238Y190921615D01*
X78362238Y190921615D02*
X76362238Y191588282D01*
X77600333Y192254949D02*
X77600333Y193778759D01*
X78267000Y194635901D02*
X78362238Y194921615D01*
X78362238Y194921615D02*
X78362238Y195397806D01*
X78362238Y195397806D02*
X78267000Y195588282D01*
X78267000Y195588282D02*
X78171761Y195683520D01*
X78171761Y195683520D02*
X77981285Y195778758D01*
X77981285Y195778758D02*
X77790809Y195778758D01*
X77790809Y195778758D02*
X77600333Y195683520D01*
X77600333Y195683520D02*
X77505095Y195588282D01*
X77505095Y195588282D02*
X77409857Y195397806D01*
X77409857Y195397806D02*
X77314619Y195016853D01*
X77314619Y195016853D02*
X77219380Y194826377D01*
X77219380Y194826377D02*
X77124142Y194731139D01*
X77124142Y194731139D02*
X76933666Y194635901D01*
X76933666Y194635901D02*
X76743190Y194635901D01*
X76743190Y194635901D02*
X76552714Y194731139D01*
X76552714Y194731139D02*
X76457476Y194826377D01*
X76457476Y194826377D02*
X76362238Y195016853D01*
X76362238Y195016853D02*
X76362238Y195493044D01*
X76362238Y195493044D02*
X76457476Y195778758D01*
X78171761Y197778758D02*
X78267000Y197683520D01*
X78267000Y197683520D02*
X78362238Y197397806D01*
X78362238Y197397806D02*
X78362238Y197207330D01*
X78362238Y197207330D02*
X78267000Y196921615D01*
X78267000Y196921615D02*
X78076523Y196731139D01*
X78076523Y196731139D02*
X77886047Y196635901D01*
X77886047Y196635901D02*
X77505095Y196540663D01*
X77505095Y196540663D02*
X77219380Y196540663D01*
X77219380Y196540663D02*
X76838428Y196635901D01*
X76838428Y196635901D02*
X76647952Y196731139D01*
X76647952Y196731139D02*
X76457476Y196921615D01*
X76457476Y196921615D02*
X76362238Y197207330D01*
X76362238Y197207330D02*
X76362238Y197397806D01*
X76362238Y197397806D02*
X76457476Y197683520D01*
X76457476Y197683520D02*
X76552714Y197778758D01*
X76362238Y199016853D02*
X76362238Y199397806D01*
X76362238Y199397806D02*
X76457476Y199588282D01*
X76457476Y199588282D02*
X76647952Y199778758D01*
X76647952Y199778758D02*
X77028904Y199873996D01*
X77028904Y199873996D02*
X77695571Y199873996D01*
X77695571Y199873996D02*
X78076523Y199778758D01*
X78076523Y199778758D02*
X78267000Y199588282D01*
X78267000Y199588282D02*
X78362238Y199397806D01*
X78362238Y199397806D02*
X78362238Y199016853D01*
X78362238Y199016853D02*
X78267000Y198826377D01*
X78267000Y198826377D02*
X78076523Y198635901D01*
X78076523Y198635901D02*
X77695571Y198540663D01*
X77695571Y198540663D02*
X77028904Y198540663D01*
X77028904Y198540663D02*
X76647952Y198635901D01*
X76647952Y198635901D02*
X76457476Y198826377D01*
X76457476Y198826377D02*
X76362238Y199016853D01*
X78362238Y201873996D02*
X77409857Y201207329D01*
X78362238Y200731139D02*
X76362238Y200731139D01*
X76362238Y200731139D02*
X76362238Y201493044D01*
X76362238Y201493044D02*
X76457476Y201683520D01*
X76457476Y201683520D02*
X76552714Y201778758D01*
X76552714Y201778758D02*
X76743190Y201873996D01*
X76743190Y201873996D02*
X77028904Y201873996D01*
X77028904Y201873996D02*
X77219380Y201778758D01*
X77219380Y201778758D02*
X77314619Y201683520D01*
X77314619Y201683520D02*
X77409857Y201493044D01*
X77409857Y201493044D02*
X77409857Y200731139D01*
X77314619Y202731139D02*
X77314619Y203397806D01*
X78362238Y203683520D02*
X78362238Y202731139D01*
X78362238Y202731139D02*
X76362238Y202731139D01*
X76362238Y202731139D02*
X76362238Y203683520D01*
X128162238Y190254949D02*
X130162238Y190921615D01*
X130162238Y190921615D02*
X128162238Y191588282D01*
X129400333Y192254949D02*
X129400333Y193778759D01*
X130067000Y194635901D02*
X130162238Y194921615D01*
X130162238Y194921615D02*
X130162238Y195397806D01*
X130162238Y195397806D02*
X130067000Y195588282D01*
X130067000Y195588282D02*
X129971761Y195683520D01*
X129971761Y195683520D02*
X129781285Y195778758D01*
X129781285Y195778758D02*
X129590809Y195778758D01*
X129590809Y195778758D02*
X129400333Y195683520D01*
X129400333Y195683520D02*
X129305095Y195588282D01*
X129305095Y195588282D02*
X129209857Y195397806D01*
X129209857Y195397806D02*
X129114619Y195016853D01*
X129114619Y195016853D02*
X129019380Y194826377D01*
X129019380Y194826377D02*
X128924142Y194731139D01*
X128924142Y194731139D02*
X128733666Y194635901D01*
X128733666Y194635901D02*
X128543190Y194635901D01*
X128543190Y194635901D02*
X128352714Y194731139D01*
X128352714Y194731139D02*
X128257476Y194826377D01*
X128257476Y194826377D02*
X128162238Y195016853D01*
X128162238Y195016853D02*
X128162238Y195493044D01*
X128162238Y195493044D02*
X128257476Y195778758D01*
X129971761Y197778758D02*
X130067000Y197683520D01*
X130067000Y197683520D02*
X130162238Y197397806D01*
X130162238Y197397806D02*
X130162238Y197207330D01*
X130162238Y197207330D02*
X130067000Y196921615D01*
X130067000Y196921615D02*
X129876523Y196731139D01*
X129876523Y196731139D02*
X129686047Y196635901D01*
X129686047Y196635901D02*
X129305095Y196540663D01*
X129305095Y196540663D02*
X129019380Y196540663D01*
X129019380Y196540663D02*
X128638428Y196635901D01*
X128638428Y196635901D02*
X128447952Y196731139D01*
X128447952Y196731139D02*
X128257476Y196921615D01*
X128257476Y196921615D02*
X128162238Y197207330D01*
X128162238Y197207330D02*
X128162238Y197397806D01*
X128162238Y197397806D02*
X128257476Y197683520D01*
X128257476Y197683520D02*
X128352714Y197778758D01*
X128162238Y199016853D02*
X128162238Y199397806D01*
X128162238Y199397806D02*
X128257476Y199588282D01*
X128257476Y199588282D02*
X128447952Y199778758D01*
X128447952Y199778758D02*
X128828904Y199873996D01*
X128828904Y199873996D02*
X129495571Y199873996D01*
X129495571Y199873996D02*
X129876523Y199778758D01*
X129876523Y199778758D02*
X130067000Y199588282D01*
X130067000Y199588282D02*
X130162238Y199397806D01*
X130162238Y199397806D02*
X130162238Y199016853D01*
X130162238Y199016853D02*
X130067000Y198826377D01*
X130067000Y198826377D02*
X129876523Y198635901D01*
X129876523Y198635901D02*
X129495571Y198540663D01*
X129495571Y198540663D02*
X128828904Y198540663D01*
X128828904Y198540663D02*
X128447952Y198635901D01*
X128447952Y198635901D02*
X128257476Y198826377D01*
X128257476Y198826377D02*
X128162238Y199016853D01*
X130162238Y201873996D02*
X129209857Y201207329D01*
X130162238Y200731139D02*
X128162238Y200731139D01*
X128162238Y200731139D02*
X128162238Y201493044D01*
X128162238Y201493044D02*
X128257476Y201683520D01*
X128257476Y201683520D02*
X128352714Y201778758D01*
X128352714Y201778758D02*
X128543190Y201873996D01*
X128543190Y201873996D02*
X128828904Y201873996D01*
X128828904Y201873996D02*
X129019380Y201778758D01*
X129019380Y201778758D02*
X129114619Y201683520D01*
X129114619Y201683520D02*
X129209857Y201493044D01*
X129209857Y201493044D02*
X129209857Y200731139D01*
X129114619Y202731139D02*
X129114619Y203397806D01*
X130162238Y203683520D02*
X130162238Y202731139D01*
X130162238Y202731139D02*
X128162238Y202731139D01*
X128162238Y202731139D02*
X128162238Y203683520D01*
X-23073997Y182137761D02*
X-22407331Y180137761D01*
X-22407331Y180137761D02*
X-21740664Y182137761D01*
X-21073997Y180899666D02*
X-19550187Y180899666D01*
X-18693045Y180233000D02*
X-18407331Y180137761D01*
X-18407331Y180137761D02*
X-17931140Y180137761D01*
X-17931140Y180137761D02*
X-17740664Y180233000D01*
X-17740664Y180233000D02*
X-17645426Y180328238D01*
X-17645426Y180328238D02*
X-17550188Y180518714D01*
X-17550188Y180518714D02*
X-17550188Y180709190D01*
X-17550188Y180709190D02*
X-17645426Y180899666D01*
X-17645426Y180899666D02*
X-17740664Y180994904D01*
X-17740664Y180994904D02*
X-17931140Y181090142D01*
X-17931140Y181090142D02*
X-18312093Y181185380D01*
X-18312093Y181185380D02*
X-18502569Y181280619D01*
X-18502569Y181280619D02*
X-18597807Y181375857D01*
X-18597807Y181375857D02*
X-18693045Y181566333D01*
X-18693045Y181566333D02*
X-18693045Y181756809D01*
X-18693045Y181756809D02*
X-18597807Y181947285D01*
X-18597807Y181947285D02*
X-18502569Y182042523D01*
X-18502569Y182042523D02*
X-18312093Y182137761D01*
X-18312093Y182137761D02*
X-17835902Y182137761D01*
X-17835902Y182137761D02*
X-17550188Y182042523D01*
X-15550188Y180328238D02*
X-15645426Y180233000D01*
X-15645426Y180233000D02*
X-15931140Y180137761D01*
X-15931140Y180137761D02*
X-16121616Y180137761D01*
X-16121616Y180137761D02*
X-16407331Y180233000D01*
X-16407331Y180233000D02*
X-16597807Y180423476D01*
X-16597807Y180423476D02*
X-16693045Y180613952D01*
X-16693045Y180613952D02*
X-16788283Y180994904D01*
X-16788283Y180994904D02*
X-16788283Y181280619D01*
X-16788283Y181280619D02*
X-16693045Y181661571D01*
X-16693045Y181661571D02*
X-16597807Y181852047D01*
X-16597807Y181852047D02*
X-16407331Y182042523D01*
X-16407331Y182042523D02*
X-16121616Y182137761D01*
X-16121616Y182137761D02*
X-15931140Y182137761D01*
X-15931140Y182137761D02*
X-15645426Y182042523D01*
X-15645426Y182042523D02*
X-15550188Y181947285D01*
X-14312093Y182137761D02*
X-13931140Y182137761D01*
X-13931140Y182137761D02*
X-13740664Y182042523D01*
X-13740664Y182042523D02*
X-13550188Y181852047D01*
X-13550188Y181852047D02*
X-13454950Y181471095D01*
X-13454950Y181471095D02*
X-13454950Y180804428D01*
X-13454950Y180804428D02*
X-13550188Y180423476D01*
X-13550188Y180423476D02*
X-13740664Y180233000D01*
X-13740664Y180233000D02*
X-13931140Y180137761D01*
X-13931140Y180137761D02*
X-14312093Y180137761D01*
X-14312093Y180137761D02*
X-14502569Y180233000D01*
X-14502569Y180233000D02*
X-14693045Y180423476D01*
X-14693045Y180423476D02*
X-14788283Y180804428D01*
X-14788283Y180804428D02*
X-14788283Y181471095D01*
X-14788283Y181471095D02*
X-14693045Y181852047D01*
X-14693045Y181852047D02*
X-14502569Y182042523D01*
X-14502569Y182042523D02*
X-14312093Y182137761D01*
X-11454950Y180137761D02*
X-12121617Y181090142D01*
X-12597807Y180137761D02*
X-12597807Y182137761D01*
X-12597807Y182137761D02*
X-11835902Y182137761D01*
X-11835902Y182137761D02*
X-11645426Y182042523D01*
X-11645426Y182042523D02*
X-11550188Y181947285D01*
X-11550188Y181947285D02*
X-11454950Y181756809D01*
X-11454950Y181756809D02*
X-11454950Y181471095D01*
X-11454950Y181471095D02*
X-11550188Y181280619D01*
X-11550188Y181280619D02*
X-11645426Y181185380D01*
X-11645426Y181185380D02*
X-11835902Y181090142D01*
X-11835902Y181090142D02*
X-12597807Y181090142D01*
X-10597807Y181185380D02*
X-9931140Y181185380D01*
X-9645426Y180137761D02*
X-10597807Y180137761D01*
X-10597807Y180137761D02*
X-10597807Y182137761D01*
X-10597807Y182137761D02*
X-9645426Y182137761D01*
X50462238Y190254949D02*
X52462238Y190921615D01*
X52462238Y190921615D02*
X50462238Y191588282D01*
X51700333Y192254949D02*
X51700333Y193778759D01*
X52367000Y194635901D02*
X52462238Y194921615D01*
X52462238Y194921615D02*
X52462238Y195397806D01*
X52462238Y195397806D02*
X52367000Y195588282D01*
X52367000Y195588282D02*
X52271761Y195683520D01*
X52271761Y195683520D02*
X52081285Y195778758D01*
X52081285Y195778758D02*
X51890809Y195778758D01*
X51890809Y195778758D02*
X51700333Y195683520D01*
X51700333Y195683520D02*
X51605095Y195588282D01*
X51605095Y195588282D02*
X51509857Y195397806D01*
X51509857Y195397806D02*
X51414619Y195016853D01*
X51414619Y195016853D02*
X51319380Y194826377D01*
X51319380Y194826377D02*
X51224142Y194731139D01*
X51224142Y194731139D02*
X51033666Y194635901D01*
X51033666Y194635901D02*
X50843190Y194635901D01*
X50843190Y194635901D02*
X50652714Y194731139D01*
X50652714Y194731139D02*
X50557476Y194826377D01*
X50557476Y194826377D02*
X50462238Y195016853D01*
X50462238Y195016853D02*
X50462238Y195493044D01*
X50462238Y195493044D02*
X50557476Y195778758D01*
X52271761Y197778758D02*
X52367000Y197683520D01*
X52367000Y197683520D02*
X52462238Y197397806D01*
X52462238Y197397806D02*
X52462238Y197207330D01*
X52462238Y197207330D02*
X52367000Y196921615D01*
X52367000Y196921615D02*
X52176523Y196731139D01*
X52176523Y196731139D02*
X51986047Y196635901D01*
X51986047Y196635901D02*
X51605095Y196540663D01*
X51605095Y196540663D02*
X51319380Y196540663D01*
X51319380Y196540663D02*
X50938428Y196635901D01*
X50938428Y196635901D02*
X50747952Y196731139D01*
X50747952Y196731139D02*
X50557476Y196921615D01*
X50557476Y196921615D02*
X50462238Y197207330D01*
X50462238Y197207330D02*
X50462238Y197397806D01*
X50462238Y197397806D02*
X50557476Y197683520D01*
X50557476Y197683520D02*
X50652714Y197778758D01*
X50462238Y199016853D02*
X50462238Y199397806D01*
X50462238Y199397806D02*
X50557476Y199588282D01*
X50557476Y199588282D02*
X50747952Y199778758D01*
X50747952Y199778758D02*
X51128904Y199873996D01*
X51128904Y199873996D02*
X51795571Y199873996D01*
X51795571Y199873996D02*
X52176523Y199778758D01*
X52176523Y199778758D02*
X52367000Y199588282D01*
X52367000Y199588282D02*
X52462238Y199397806D01*
X52462238Y199397806D02*
X52462238Y199016853D01*
X52462238Y199016853D02*
X52367000Y198826377D01*
X52367000Y198826377D02*
X52176523Y198635901D01*
X52176523Y198635901D02*
X51795571Y198540663D01*
X51795571Y198540663D02*
X51128904Y198540663D01*
X51128904Y198540663D02*
X50747952Y198635901D01*
X50747952Y198635901D02*
X50557476Y198826377D01*
X50557476Y198826377D02*
X50462238Y199016853D01*
X52462238Y201873996D02*
X51509857Y201207329D01*
X52462238Y200731139D02*
X50462238Y200731139D01*
X50462238Y200731139D02*
X50462238Y201493044D01*
X50462238Y201493044D02*
X50557476Y201683520D01*
X50557476Y201683520D02*
X50652714Y201778758D01*
X50652714Y201778758D02*
X50843190Y201873996D01*
X50843190Y201873996D02*
X51128904Y201873996D01*
X51128904Y201873996D02*
X51319380Y201778758D01*
X51319380Y201778758D02*
X51414619Y201683520D01*
X51414619Y201683520D02*
X51509857Y201493044D01*
X51509857Y201493044D02*
X51509857Y200731139D01*
X51414619Y202731139D02*
X51414619Y203397806D01*
X52462238Y203683520D02*
X52462238Y202731139D01*
X52462238Y202731139D02*
X50462238Y202731139D01*
X50462238Y202731139D02*
X50462238Y203683520D01*
X-23073997Y52637762D02*
X-22407331Y50637762D01*
X-22407331Y50637762D02*
X-21740664Y52637762D01*
X-21073997Y51399667D02*
X-19550187Y51399667D01*
X-18693045Y50733000D02*
X-18407331Y50637762D01*
X-18407331Y50637762D02*
X-17931140Y50637762D01*
X-17931140Y50637762D02*
X-17740664Y50733000D01*
X-17740664Y50733000D02*
X-17645426Y50828239D01*
X-17645426Y50828239D02*
X-17550188Y51018715D01*
X-17550188Y51018715D02*
X-17550188Y51209191D01*
X-17550188Y51209191D02*
X-17645426Y51399667D01*
X-17645426Y51399667D02*
X-17740664Y51494905D01*
X-17740664Y51494905D02*
X-17931140Y51590143D01*
X-17931140Y51590143D02*
X-18312093Y51685381D01*
X-18312093Y51685381D02*
X-18502569Y51780620D01*
X-18502569Y51780620D02*
X-18597807Y51875858D01*
X-18597807Y51875858D02*
X-18693045Y52066334D01*
X-18693045Y52066334D02*
X-18693045Y52256810D01*
X-18693045Y52256810D02*
X-18597807Y52447286D01*
X-18597807Y52447286D02*
X-18502569Y52542524D01*
X-18502569Y52542524D02*
X-18312093Y52637762D01*
X-18312093Y52637762D02*
X-17835902Y52637762D01*
X-17835902Y52637762D02*
X-17550188Y52542524D01*
X-15550188Y50828239D02*
X-15645426Y50733000D01*
X-15645426Y50733000D02*
X-15931140Y50637762D01*
X-15931140Y50637762D02*
X-16121616Y50637762D01*
X-16121616Y50637762D02*
X-16407331Y50733000D01*
X-16407331Y50733000D02*
X-16597807Y50923477D01*
X-16597807Y50923477D02*
X-16693045Y51113953D01*
X-16693045Y51113953D02*
X-16788283Y51494905D01*
X-16788283Y51494905D02*
X-16788283Y51780620D01*
X-16788283Y51780620D02*
X-16693045Y52161572D01*
X-16693045Y52161572D02*
X-16597807Y52352048D01*
X-16597807Y52352048D02*
X-16407331Y52542524D01*
X-16407331Y52542524D02*
X-16121616Y52637762D01*
X-16121616Y52637762D02*
X-15931140Y52637762D01*
X-15931140Y52637762D02*
X-15645426Y52542524D01*
X-15645426Y52542524D02*
X-15550188Y52447286D01*
X-14312093Y52637762D02*
X-13931140Y52637762D01*
X-13931140Y52637762D02*
X-13740664Y52542524D01*
X-13740664Y52542524D02*
X-13550188Y52352048D01*
X-13550188Y52352048D02*
X-13454950Y51971096D01*
X-13454950Y51971096D02*
X-13454950Y51304429D01*
X-13454950Y51304429D02*
X-13550188Y50923477D01*
X-13550188Y50923477D02*
X-13740664Y50733000D01*
X-13740664Y50733000D02*
X-13931140Y50637762D01*
X-13931140Y50637762D02*
X-14312093Y50637762D01*
X-14312093Y50637762D02*
X-14502569Y50733000D01*
X-14502569Y50733000D02*
X-14693045Y50923477D01*
X-14693045Y50923477D02*
X-14788283Y51304429D01*
X-14788283Y51304429D02*
X-14788283Y51971096D01*
X-14788283Y51971096D02*
X-14693045Y52352048D01*
X-14693045Y52352048D02*
X-14502569Y52542524D01*
X-14502569Y52542524D02*
X-14312093Y52637762D01*
X-11454950Y50637762D02*
X-12121617Y51590143D01*
X-12597807Y50637762D02*
X-12597807Y52637762D01*
X-12597807Y52637762D02*
X-11835902Y52637762D01*
X-11835902Y52637762D02*
X-11645426Y52542524D01*
X-11645426Y52542524D02*
X-11550188Y52447286D01*
X-11550188Y52447286D02*
X-11454950Y52256810D01*
X-11454950Y52256810D02*
X-11454950Y51971096D01*
X-11454950Y51971096D02*
X-11550188Y51780620D01*
X-11550188Y51780620D02*
X-11645426Y51685381D01*
X-11645426Y51685381D02*
X-11835902Y51590143D01*
X-11835902Y51590143D02*
X-12597807Y51590143D01*
X-10597807Y51685381D02*
X-9931140Y51685381D01*
X-9645426Y50637762D02*
X-10597807Y50637762D01*
X-10597807Y50637762D02*
X-10597807Y52637762D01*
X-10597807Y52637762D02*
X-9645426Y52637762D01*
X102262238Y190254949D02*
X104262238Y190921615D01*
X104262238Y190921615D02*
X102262238Y191588282D01*
X103500333Y192254949D02*
X103500333Y193778759D01*
X104167000Y194635901D02*
X104262238Y194921615D01*
X104262238Y194921615D02*
X104262238Y195397806D01*
X104262238Y195397806D02*
X104167000Y195588282D01*
X104167000Y195588282D02*
X104071761Y195683520D01*
X104071761Y195683520D02*
X103881285Y195778758D01*
X103881285Y195778758D02*
X103690809Y195778758D01*
X103690809Y195778758D02*
X103500333Y195683520D01*
X103500333Y195683520D02*
X103405095Y195588282D01*
X103405095Y195588282D02*
X103309857Y195397806D01*
X103309857Y195397806D02*
X103214619Y195016853D01*
X103214619Y195016853D02*
X103119380Y194826377D01*
X103119380Y194826377D02*
X103024142Y194731139D01*
X103024142Y194731139D02*
X102833666Y194635901D01*
X102833666Y194635901D02*
X102643190Y194635901D01*
X102643190Y194635901D02*
X102452714Y194731139D01*
X102452714Y194731139D02*
X102357476Y194826377D01*
X102357476Y194826377D02*
X102262238Y195016853D01*
X102262238Y195016853D02*
X102262238Y195493044D01*
X102262238Y195493044D02*
X102357476Y195778758D01*
X104071761Y197778758D02*
X104167000Y197683520D01*
X104167000Y197683520D02*
X104262238Y197397806D01*
X104262238Y197397806D02*
X104262238Y197207330D01*
X104262238Y197207330D02*
X104167000Y196921615D01*
X104167000Y196921615D02*
X103976523Y196731139D01*
X103976523Y196731139D02*
X103786047Y196635901D01*
X103786047Y196635901D02*
X103405095Y196540663D01*
X103405095Y196540663D02*
X103119380Y196540663D01*
X103119380Y196540663D02*
X102738428Y196635901D01*
X102738428Y196635901D02*
X102547952Y196731139D01*
X102547952Y196731139D02*
X102357476Y196921615D01*
X102357476Y196921615D02*
X102262238Y197207330D01*
X102262238Y197207330D02*
X102262238Y197397806D01*
X102262238Y197397806D02*
X102357476Y197683520D01*
X102357476Y197683520D02*
X102452714Y197778758D01*
X102262238Y199016853D02*
X102262238Y199397806D01*
X102262238Y199397806D02*
X102357476Y199588282D01*
X102357476Y199588282D02*
X102547952Y199778758D01*
X102547952Y199778758D02*
X102928904Y199873996D01*
X102928904Y199873996D02*
X103595571Y199873996D01*
X103595571Y199873996D02*
X103976523Y199778758D01*
X103976523Y199778758D02*
X104167000Y199588282D01*
X104167000Y199588282D02*
X104262238Y199397806D01*
X104262238Y199397806D02*
X104262238Y199016853D01*
X104262238Y199016853D02*
X104167000Y198826377D01*
X104167000Y198826377D02*
X103976523Y198635901D01*
X103976523Y198635901D02*
X103595571Y198540663D01*
X103595571Y198540663D02*
X102928904Y198540663D01*
X102928904Y198540663D02*
X102547952Y198635901D01*
X102547952Y198635901D02*
X102357476Y198826377D01*
X102357476Y198826377D02*
X102262238Y199016853D01*
X104262238Y201873996D02*
X103309857Y201207329D01*
X104262238Y200731139D02*
X102262238Y200731139D01*
X102262238Y200731139D02*
X102262238Y201493044D01*
X102262238Y201493044D02*
X102357476Y201683520D01*
X102357476Y201683520D02*
X102452714Y201778758D01*
X102452714Y201778758D02*
X102643190Y201873996D01*
X102643190Y201873996D02*
X102928904Y201873996D01*
X102928904Y201873996D02*
X103119380Y201778758D01*
X103119380Y201778758D02*
X103214619Y201683520D01*
X103214619Y201683520D02*
X103309857Y201493044D01*
X103309857Y201493044D02*
X103309857Y200731139D01*
X103214619Y202731139D02*
X103214619Y203397806D01*
X104262238Y203683520D02*
X104262238Y202731139D01*
X104262238Y202731139D02*
X102262238Y202731139D01*
X102262238Y202731139D02*
X102262238Y203683520D01*
X-1337762Y190254949D02*
X662238Y190921615D01*
X662238Y190921615D02*
X-1337762Y191588282D01*
X-99667Y192254949D02*
X-99667Y193778759D01*
X567000Y194635901D02*
X662238Y194921615D01*
X662238Y194921615D02*
X662238Y195397806D01*
X662238Y195397806D02*
X567000Y195588282D01*
X567000Y195588282D02*
X471761Y195683520D01*
X471761Y195683520D02*
X281285Y195778758D01*
X281285Y195778758D02*
X90809Y195778758D01*
X90809Y195778758D02*
X-99667Y195683520D01*
X-99667Y195683520D02*
X-194905Y195588282D01*
X-194905Y195588282D02*
X-290143Y195397806D01*
X-290143Y195397806D02*
X-385381Y195016853D01*
X-385381Y195016853D02*
X-480620Y194826377D01*
X-480620Y194826377D02*
X-575858Y194731139D01*
X-575858Y194731139D02*
X-766334Y194635901D01*
X-766334Y194635901D02*
X-956810Y194635901D01*
X-956810Y194635901D02*
X-1147286Y194731139D01*
X-1147286Y194731139D02*
X-1242524Y194826377D01*
X-1242524Y194826377D02*
X-1337762Y195016853D01*
X-1337762Y195016853D02*
X-1337762Y195493044D01*
X-1337762Y195493044D02*
X-1242524Y195778758D01*
X471761Y197778758D02*
X567000Y197683520D01*
X567000Y197683520D02*
X662238Y197397806D01*
X662238Y197397806D02*
X662238Y197207330D01*
X662238Y197207330D02*
X567000Y196921615D01*
X567000Y196921615D02*
X376523Y196731139D01*
X376523Y196731139D02*
X186047Y196635901D01*
X186047Y196635901D02*
X-194905Y196540663D01*
X-194905Y196540663D02*
X-480620Y196540663D01*
X-480620Y196540663D02*
X-861572Y196635901D01*
X-861572Y196635901D02*
X-1052048Y196731139D01*
X-1052048Y196731139D02*
X-1242524Y196921615D01*
X-1242524Y196921615D02*
X-1337762Y197207330D01*
X-1337762Y197207330D02*
X-1337762Y197397806D01*
X-1337762Y197397806D02*
X-1242524Y197683520D01*
X-1242524Y197683520D02*
X-1147286Y197778758D01*
X-1337762Y199016853D02*
X-1337762Y199397806D01*
X-1337762Y199397806D02*
X-1242524Y199588282D01*
X-1242524Y199588282D02*
X-1052048Y199778758D01*
X-1052048Y199778758D02*
X-671096Y199873996D01*
X-671096Y199873996D02*
X-4429Y199873996D01*
X-4429Y199873996D02*
X376523Y199778758D01*
X376523Y199778758D02*
X567000Y199588282D01*
X567000Y199588282D02*
X662238Y199397806D01*
X662238Y199397806D02*
X662238Y199016853D01*
X662238Y199016853D02*
X567000Y198826377D01*
X567000Y198826377D02*
X376523Y198635901D01*
X376523Y198635901D02*
X-4429Y198540663D01*
X-4429Y198540663D02*
X-671096Y198540663D01*
X-671096Y198540663D02*
X-1052048Y198635901D01*
X-1052048Y198635901D02*
X-1242524Y198826377D01*
X-1242524Y198826377D02*
X-1337762Y199016853D01*
X662238Y201873996D02*
X-290143Y201207329D01*
X662238Y200731139D02*
X-1337762Y200731139D01*
X-1337762Y200731139D02*
X-1337762Y201493044D01*
X-1337762Y201493044D02*
X-1242524Y201683520D01*
X-1242524Y201683520D02*
X-1147286Y201778758D01*
X-1147286Y201778758D02*
X-956810Y201873996D01*
X-956810Y201873996D02*
X-671096Y201873996D01*
X-671096Y201873996D02*
X-480620Y201778758D01*
X-480620Y201778758D02*
X-385381Y201683520D01*
X-385381Y201683520D02*
X-290143Y201493044D01*
X-290143Y201493044D02*
X-290143Y200731139D01*
X-385381Y202731139D02*
X-385381Y203397806D01*
X662238Y203683520D02*
X662238Y202731139D01*
X662238Y202731139D02*
X-1337762Y202731139D01*
X-1337762Y202731139D02*
X-1337762Y203683520D01*
M02*
